<?xml version="1.0" encoding="utf-8" ?>
<svg baseProfile="full" height="200mm" version="1.1" viewBox="0,0,200,200" width="200mm" xmlns="http://www.w3.org/2000/svg" xmlns:ev="http://www.w3.org/2001/xml-events" xmlns:xlink="http://www.w3.org/1999/xlink"><defs /><rect fill="#1a1a1a" height="200" width="200" x="0" y="0" /><text alignment-baseline="middle" fill="#e1ed5e" style="dominant-baseline: central; font-size:9.0px; font-family:Arial;" text-anchor="middle" x="100.0" y="100.0">2024</text><line stroke="#e1ed5e" stroke-width="0.3" x1="100.0" x2="100.0" y1="15.0" y2="10.0" /><path d="M 100.0 14.0 a86.0,86.0 0 0,1 42.35913384403234,11.155469271406648" fill="none" id="id49" stroke="none" /><text fill="#e1ed5e" style="font-size:6.75px; font-family:Arial;" text-anchor="middle"><textPath startOffset="22.145653131862478" xlink:href="#id49">January</textPath></text><path d="M 100.36049292484886 79.00309439819443 l 0.1872048894603749 -10.903746290843257 a31.905353219667667,31.905353219667667 0 0,0 0.5475364052494491,0.014102595553885896 l -0.3743546087805654 10.898925977939326" fill="#ff6909" stroke="none" /><path d="M 100.72087961077811 79.0123766808444 l 0.4199201247918428 -12.225516260268723 a33.23272580994523,33.23272580994523 0 0,0 0.5699796067503801,0.024477376785164307 l -0.6297254921430591 12.216506315057728" fill="#ff7c0b" stroke="none" /><path d="M 101.08105385017728 79.02784411241856 l 1.0064067088377162 -19.52402128773808 a40.54994275458737,40.54994275458737 0 0,0 0.6948631390925525,0.04180124095041846 l -1.341414200062731 19.50386806896297" fill="#ffdf14" stroke="none" /><path d="M 101.80034050326958 79.07731436759882 l 1.6746225092191294 -19.46165197622519 a40.53356747222824,40.53356747222824 0 0,0 0.692738812540274,0.06560308578539174 l -2.0084608851444163 19.430037134934615" fill="#ffdf14" stroke="none" /><path d="M 102.15924093988457 79.11130261209362 l 0.46781437908190077 -4.525679750623637 a25.549794225949192,25.549794225949192 0 0,0 0.4358844758402314,0.04884176468591036 l -0.5454347565229288 4.5169822254307554" fill="#ff0b01" stroke="none" /><path d="M 102.87502721639298 79.19773525538626 l 2.676265394229252 -19.36412321252796 a40.54818826004889,40.54818826004889 0 0,0 0.6886914650215603,0.10121392896507711 l -3.008281964858494 19.315328210264003" fill="#ffdf14" stroke="none" /><path d="M 103.23170211078529 79.25015418208739 l 1.508850985505584 -9.687905703610314 a30.804700312529008,30.804700312529008 0 0,0 0.5218059482321274,0.08586297021114563 l -1.6749344367907821 9.6605767349035" fill="#ff5908" stroke="none" /><path d="M 103.94208987418118 79.37332000966035 l 3.6746445033502724 -19.227292798495743 a40.575285453476496,40.575285453476496 0 0,0 0.6830240956375515,0.1366239483329542 l -4.004165084518781 19.16137945349993" fill="#ffdf14" stroke="none" /><path d="M 104.29559338865022 79.4440306129975 l 3.997745021992192 -19.130657130221405 a40.5438994956215,40.5438994956215 0 0,0 0.6800516751987822,0.14821409742151992 l -4.325559113810108 19.059211574666165" fill="#ffdf14" stroke="none" /><path d="M 104.64783097203109 79.52079915486377 l 4.326594617817243 -19.06377419638491 a40.5485781477241,40.5485781477241 0 0,0 0.6774853468381866,0.15988469715685075 l -4.653212118395314 18.98669335558183" fill="#ffdf14" stroke="none" /><path d="M 105.3480935250658 79.69241777938227 l 4.974436924197961 -18.888747245343637 a40.532787696877804,40.532787696877804 0 0,0 0.6713360682352171,0.1829756306964007 l -5.2979543933678706 18.800571120503093" fill="#ffdf14" stroke="none" /><path d="M 105.69591212413111 79.78721728523813 l 5.302924679034874 -18.818208910909274 a40.55111241761303,40.55111241761303 0 0,0 0.6683981690545113,0.19456096567247905 l -5.625182860470989 18.724404250934278" fill="#ffdf14" stroke="none" /><path d="M 106.04205211174951 79.88797359093562 l 5.629894303773772 -18.740087113375353 a40.56748769997215,40.56748769997215 0 0,0 0.665228304302397,0.20608942914023423 l -5.950763240947799 18.64068109642847" fill="#ffdf14" stroke="none" /><path d="M 106.72888874123014 80.10723608172694 l 6.915199650214654 -20.443559015406787 a42.58145248630752,42.58145248630752 0 0,0 0.6904161328346198,0.24016257028496923 l -7.265121555094292 20.321838012553226" fill="#fff917" stroke="none" /><path d="M 107.06938296918511 80.22567764915836 l 7.237755778275741 -20.245291064318845 a42.50016090602469,42.50016090602469 0 0,0 0.68488169081162,0.2514980434659237 l -7.584226620741485 20.1180621718442" fill="#fff817" stroke="none" /><path d="M 109.06512990194946 81.05736502329252 l 5.089594841103493 -10.635295720762251 a32.790398242411115,32.790398242411115 0 0,0 0.5056587806390461,0.2473430484951912 l -5.271413871004605 10.546358922169837" fill="#ff750a" stroke="none" /><path d="M 109.3889696526874 81.21577127319529 l 8.740570900610535 -17.486996877546336 a40.54974781074976,40.54974781074976 0 0,0 0.6199723899243405,0.3165623197735397 l -9.039470512248455 17.334376606099962" fill="#ffdf14" stroke="none" /><path d="M 110.02825361518725 81.54914285379988 l 4.767927704388206 -8.77244995318499 a30.98443853080422,30.98443853080422 0 0,0 0.46514401540743294,0.25800754442012525 l -4.917815907951739 8.689309493331718" fill="#ff5c08" stroke="none" /><path d="M 110.34350942703115 81.72400993836675 l 5.788902186276088 -10.228435481255756 a32.75296902559025,32.75296902559025 0 0,0 0.48693922046306554,0.28113449001333746 l -5.963633874599552 10.127554093966248" fill="#ff750a" stroke="none" /><line stroke="#e1ed5e" stroke-width="0.3" x1="143.13028292997686" x2="145.6673583964461" y1="26.7553504044142" y2="22.446841604673864" /><path d="M 143.63769802327073 25.89364864446614 a86.0,86.0 0 0,1 29.32050498858742,28.57503671076993" fill="none" id="id50" stroke="none" /><text fill="#e1ed5e" style="font-size:6.75px; font-family:Arial;" text-anchor="middle"><textPath startOffset="20.669276256404974" xlink:href="#id50">February</textPath></text><path d="M 110.65571695917076 81.90426304109057 l 9.905889749440574 -16.82236642890182 a40.52226072964693,40.52226072964693 0 0,0 0.5963858772272814,0.35811258371692967 l -10.193208383225288 16.649839844648966" fill="#ffdf14" stroke="none" /><path d="M 111.27062007382361 82.28071324371311 l 10.48871797259167 -16.490006782663258 a40.543119720271065,40.543119720271065 0 0,0 0.5840417251669647,0.37856879006128674 l -10.770245330015642 16.307524150898075" fill="#ffdf14" stroke="none" /><path d="M 112.16784306229584 82.88440491214696 l 11.319516571481135 -15.922317639685147 a40.53590679827954,40.53590679827954 0 0,0 0.5636787879432665,0.40805997280234435 l -11.591176369798369 15.725656895509728" fill="#ffdf14" stroke="none" /><path d="M 112.45986205192187 83.09580414077388 l 9.276596122365053 -12.585484261858955 a36.63488566389207,36.63488566389207 0 0,0 0.503026656322814,0.3774805807630744 l -9.491275767598633 12.424384653831867" fill="#ffab0f" stroke="none" /><path d="M 112.7482090630111 83.31218511350987 l 11.841077164589212 -15.500350112130729 a40.5056905034502,40.5056905034502 0 0,0 0.5489293668078711,0.4268507957993927 l -12.105416476032309 15.294798264710545" fill="#ffdf14" stroke="none" /><path d="M 113.31354834802062 83.75963576809568 l 12.420197183225536 -15.150621067721868 a40.590880960485194,40.590880960485194 0 0,0 0.5350760785162698,0.4463794953384619 l -12.678447595903698 14.935179388471536" fill="#ffe015" stroke="none" /><path d="M 113.59037401385872 83.9905735841838 l 7.339609391381556 -8.646041407862167 a32.341247640560695,32.341247640560695 0 0,0 0.4201598098293304,0.36292403666236467 l -7.486948680973747 8.518773238735083" fill="#ff6f0a" stroke="none" /><path d="M 113.86319453409587 84.22622945171908 l 12.887275743209702 -14.66335411119396 a40.521675898134106,40.521675898134106 0 0,0 0.5185519755027113,0.4636923740446784 l -13.137092745535789 14.439966207265895" fill="#ffdf14" stroke="none" /><path d="M 114.13192950727249 84.46653392183569 l 7.916757898091157 -8.701903741860148 a32.76427576817155,32.76427576817155 0 0,0 0.41278342536749835,0.38206617602144105 l -8.06497109477262 8.564719819706331" fill="#ff750a" stroke="none" /><path d="M 114.65682725009322 84.96080404539774 l 13.630618040736348 -13.98621490170507 a40.52966859547607,40.52966859547607 0 0,0 0.49409155404270416,0.4898685746828361 l -13.868701514909015 13.750166316793575" fill="#ffdf14" stroke="none" /><path d="M 114.91283532996326 85.21462403516908 l 8.04731055850571 -7.9785305396752895 a32.332085280193084,32.332085280193084 0 0,0 0.3873894953721016,0.39749574940363985 l -8.183086855028625 7.839212098203907" fill="#ff6f0a" stroke="none" /><path d="M 115.16444852881244 85.47280134310134 l 14.099741603297216 -13.507233506900112 a40.52557477488628,40.52557477488628 0 0,0 0.47693616143324397,0.5064896757298505 l -14.32953359846672 13.263202371225766" fill="#ffdf14" stroke="none" /><path d="M 115.6541949942343 86.00192230759917 l 14.542169266342984 -13.003697429429494 a40.50822477333911,40.50822477333911 0 0,0 0.45907187213015493,0.5223395198228787 l -14.76325220243173 12.752145631795317" fill="#ffdf14" stroke="none" /><path d="M 116.1254893667686 86.54754324733833 l 15.006031019943544 -12.518564784824425 a40.54214500108302,40.54214500108302 0 0,0 0.4412398188041095,0.5382408343500336 l -15.21871765798628 12.259121668775897" fill="#ffdf14" stroke="none" /><line stroke="#e1ed5e" stroke-width="0.3" x1="172.87174338648825" x2="177.1583165268699" y1="56.24261187166439" y2="53.66864786411523" /><path d="M 173.72905801456457 55.72781907015455 a86.0,86.0 0 0,1 12.242430191666344,42.057860355516425" fill="none" id="id51" stroke="none" /><text fill="#e1ed5e" style="font-size:6.75px; font-family:Arial;" text-anchor="middle"><textPath startOffset="22.145653131862474" xlink:href="#id51">March</textPath></text><path d="M 119.16976305983485 91.42560881287824 l 17.836296854478263 -7.977948714471151 a40.53922084351889,40.53922084351889 0 0,0 0.2786899971064545,0.6376972526832274 l -17.970620733601688 7.670589392012075" fill="#ffdf14" stroke="none" /><path d="M 119.4528033332814 92.08871423366111 l 14.00641567849093 -5.696287321482901 a36.12042887644274,36.12042887644274 0 0,0 0.22866179407743614,0.5763770940145583 l -14.102136147534491 5.455009210254778" fill="#ffa40f" stroke="none" /><path d="M 120.43855184770803 95.1765574152323 l 7.720759881846551 -1.82207830957656 a28.93284958381038,28.93284958381038 0 0,0 0.10992986385589812,0.484371263570203 l -7.750900607260115 1.6892727120673308" fill="#ff3e05" stroke="none" /><path d="M 120.51834098615036 95.52812308129327 l 9.572770813645562 -2.0863408439554694 a30.79748739053749,30.79748739053749 0 0,0 0.1081465343350444,0.5175203162793276 l -9.607175058804973 1.9217040763907374" fill="#ff5908" stroke="none" /><path d="M 120.592083275326 95.88100663000786 l 9.582515788985518 -1.9167715318037168 a30.772339635485963,30.772339635485963 0 0,0 0.09916563420409882,0.5188765015642499 l -9.614007715471773 1.7519924652061525" fill="#ff5908" stroke="none" /><path d="M 120.7213421655516 96.59031103205396 l 19.24474536284564 -3.16671552597176 a40.5035461212365,40.5035461212365 0 0,0 0.10700363342453131,0.6870400858128274 l -19.29627048840844 2.8358872582274914" fill="#ffdf14" stroke="none" /><path d="M 120.77682067341334 96.94652285012252 l 9.654982202157367 -1.4189498961449116 a30.75869356685336,30.75869356685336 0 0,0 0.0722909614820058,0.523061385581626 l -9.677917680194584 1.2530002023632" fill="#ff5808" stroke="none" /><path d="M 120.96210409425399 98.7389718711861 l 9.784671969904762 -0.5886215682255462 a30.80236098647771,30.80236098647771 0 0,0 0.02722108861399536,0.5280818469392442 l -9.79333464797533 0.42056792790957137" fill="#ff5908" stroke="none" /><path d="M 120.98066250479742 99.09900007780936 l 13.644993976145086 -0.58597475213127 a34.65757031902714,34.65757031902714 0 0,0 0.020423727648890794,0.5946145462559034 l -13.653042390790825 0.3516539413112466" fill="#ff900d" stroke="none" /><path d="M 120.99303781780057 99.45929381324524 l 8.017915229796415 -0.20651305481620666 a29.02057431073429,29.02057431073429 0 0,0 0.008552181388951172,0.4981216909834791 l -8.020278842784032 0.06884444786366119" fill="#ff3f05" stroke="none" /><line stroke="#e1ed5e" stroke-width="0.3" x1="184.99686870605535" x2="189.99668451229388" y1="99.2704041080226" y2="99.22748670261217" /><path d="M 185.99683186730306 99.26182062694052 a86.0,86.0 0 0,1 -10.086455211305974,41.156179273409016" fill="none" id="id52" stroke="none" /><text fill="#e1ed5e" style="font-size:6.75px; font-family:Arial;" text-anchor="middle"><textPath startOffset="21.40746469413373" xlink:href="#id52">April</textPath></text><path d="M 120.99922638620191 100.18025310272382 l 5.869152842489405 0.05037961831366408 a26.869369062722406,26.869369062722406 0 0,0 -0.007918234683108658,0.46119747355350105 l -5.867423176207628 -0.1511240078362362" fill="#ff1f03" stroke="none" /><path d="M 120.99303781780057 100.54070618675476 l 9.017060926103591 0.23224750373929348 a30.020051366154036,30.020051366154036 0 0,0 -0.017690834858424903,0.5150493545089957 l -9.011745404248321 -0.38700312281239985" fill="#ff4e07" stroke="none" /><path d="M 120.98066250479742 100.90099992219065 l 7.43863393612397 0.31944694768908555 a28.445489989788655,28.445489989788655 0 0,0 -0.025138241968545253,0.48767517845446523 l -7.432054104698852 -0.4470939195202814" fill="#ff3605" stroke="none" /><path d="M 120.93736805541906 101.62068470465957 l 20.229435324220116 1.5658862339852653 a41.28994956214996,41.28994956214996 0 0,0 -0.06076775047424089,0.7062133732211885 l -20.199573951048137 -1.912920654582111" fill="#ffe915" stroke="none" /><path d="M 120.86939407059847 102.33845913500097 l 13.60304521516052 1.5242495895958368 a34.6881765015317,34.6881765015317 0 0,0 -0.0713881247548933,0.5911960812330967 l -13.574875004145964 -1.7575393477523422" fill="#ff900d" stroke="none" /><path d="M 120.77682067341334 103.0534771498775 l 17.036388619759883 2.503762446842329 a38.21938917597549,38.21938917597549 0 0,0 -0.10096927061285568,0.6482951478020795 l -16.99089785700876 -2.795845776575859" fill="#ffc011" stroke="none" /><path d="M 120.7213421655516 103.40968896794604 l 19.293604052483143 3.1747552047586924 a40.553061855989114,40.553061855989114 0 0,0 -0.11892703407856192,0.6859395289356992 l -19.236262200912346 -3.5054877666149795" fill="#ffdf14" stroke="none" /><path d="M 120.65975698304385 103.76489593502545 l 12.784603090447927 2.3297805606157573 a33.99515115883281,33.99515115883281 0 0,0 -0.10955132968317463,0.5732188488879735 l -12.742725468482593 -2.548901974537045" fill="#ff860c" stroke="none" /><path d="M 120.592083275326 104.11899336999214 l 19.465912901194393 3.8937277549250147 a40.85152087136801,40.85152087136801 0 0,0 -0.14345165073147284,0.6864680788322153 l -19.396203539638556 -4.227312285042639" fill="#ffe315" stroke="none" /><path d="M 120.26092885502905 105.52220625578681 l 18.85908348201037 5.140127065641083 a40.54701859702324,40.54701859702324 0 0,0 -0.18879755334747578,0.6699759125011627 l -18.768067436588314 -5.463110902045255" fill="#ffdf14" stroke="none" /><path d="M 120.16314734710363 105.8691983318838 l 9.407992156828948 2.7385294033060807 a30.798462109725534,30.798462109725534 0 0,0 -0.15212046801188134,0.5063595635106733 l -9.359595368813437 -2.8996265704074777" fill="#ff5908" stroke="none" /><path d="M 120.05942366710727 106.21446072829308 l 18.666492619938424 5.782927129247293 a40.5417551134078,40.5417551134078 0 0,0 -0.21165746879749506,0.6630140064021397 l -18.564470435363674 -6.102510169340816" fill="#ffdf14" stroke="none" /><path d="M 119.4528033332814 107.91128576633889 l 5.431519806836381 2.2089518205273473 a26.863520747594144,26.863520747594144 0 0,0 -0.177394097735677,0.42568125651186056 l -5.392799864564218 -2.3018655864804853" fill="#ff1f03" stroke="none" /><path d="M 119.0197475246899 108.90220220490707 l 17.663523054723775 8.267420673174925 a40.50257140204846,40.50257140204846 0 0,0 -0.3001447721961157,0.6271871359124587 l -17.518999024567748 -8.569420311152488" fill="#ffdf14" stroke="none" /><path d="M 118.8641267826498 109.22738970284198 l 4.071282144720971 1.991468111532997 a25.532249280564407,25.532249280564407 0 0,0 -0.195966197854336,0.3920636682603877 l -4.0364960336549025 -2.061063635957131" fill="#ff0b01" stroke="none" /><line stroke="#e1ed5e" stroke-width="0.3" x1="174.33088141563837" x2="178.70328620479359" y1="141.23008692659167" y2="143.65538615756765" /><path d="M 175.20536237346943 141.71514677278685 a86.0,86.0 0 0,1 -30.301960400862466,31.631185727798858" fill="none" id="id53" stroke="none" /><text fill="#e1ed5e" style="font-size:6.75px; font-family:Arial;" text-anchor="middle"><textPath startOffset="22.145653131862474" xlink:href="#id53">May</textPath></text><path d="M 118.36410011445183 110.18625677009912 l 13.65962419040148 7.5767632783154255 a36.62026487607142,36.62026487607142 0 0,0 -0.30964462886046734,0.5471123896211569 l -13.527546196519634 -7.810132438035705" fill="#ffab0f" stroke="none" /><path d="M 118.00360718960297 110.81064883170644 l 3.2822307911929913 1.970885283960915 a24.828502026797043,24.828502026797043 0 0,0 -0.22254854647748182,0.3635163254983952 l -3.247914280260105 -2.026938725583867" fill="#ff0000" stroke="none" /><path d="M 117.62189284568427 111.42229804090321 l 16.438466350558226 10.655215284515798 a40.589711297459544,40.589711297459544 0 0,0 -0.3840087460032616,0.5814381852706747 l -16.253133165634235 -10.935833348125534" fill="#ffe015" stroke="none" /><path d="M 117.21940702142032 112.02048342749411 l 12.913995796517556 9.014972017425706 a36.74931769656837,36.74931769656837 0 0,0 -0.365541790768517,0.5141803067685343 l -12.757338907219077 -9.235329550903744" fill="#ffac10" stroke="none" /><path d="M 116.79662413953412 112.60449989151573 l 14.284796768752773 10.719577804820888 a38.85958473868243,38.85958473868243 0 0,0 -0.4049687276615952,0.5301170641798326 l -14.098676063736875 -10.9632157822416" fill="#ffc912" stroke="none" /><path d="M 116.1254893667686 113.45245675266167 l 14.985073921407041 12.501081627860236 a40.51485286381781,40.51485286381781 0 0,0 -0.4501112110399069,0.5302298748164687 l -14.76826814686002 -12.75647828512626" fill="#ffdf14" stroke="none" /><path d="M 115.6541949942343 113.99807769240083 l 10.248152421790927 9.163961088809211 a34.74782931583996,34.74782931583996 0 0,0 -0.4014239658465097,0.4412352575938139 l -10.089330755102537 -9.338533921960698" fill="#ff910d" stroke="none" /><path d="M 115.41159269507618 114.26474011684316 l 14.3358285213734 13.269028857890445 a40.53415230374107,40.53415230374107 0 0,0 -0.47703710839597824,0.5065968779060608 l -14.105935579241162 -13.513167195741003" fill="#ffdf14" stroke="none" /><path d="M 115.16444852881244 114.52719865689866 l 9.890934949389667 9.47529193951493 a34.6971439180617,34.6971439180617 0 0,0 -0.41572663676925337,0.4265721528430214 l -9.726821511469607 -9.64368678442569" fill="#ff900d" stroke="none" /><path d="M 114.91283532996324 114.78537596483092 l 13.86953213358011 13.750989836202452 a40.53083825850172,40.53083825850172 0 0,0 -0.49410581324199926,0.4898827120093653 l -13.631434400208146 -13.98705255844048" fill="#ffdf14" stroke="none" /><path d="M 114.65682725009322 115.03919595460226 l 9.538888308161667 9.787739734368186 a34.66712256706997,34.66712256706997 0 0,0 -0.4297526590518031,0.411693325973187 l -9.369463163244552 -9.950045190646952" fill="#ff900d" stroke="none" /><path d="M 114.39649973595853 115.28858382429668 l 13.395333368208023 14.225379836094675 a40.53961073119412,40.53961073119412 0 0,0 -0.5107416229521321,0.4727348212747994 l -13.149161973941924 -14.453232403501854" fill="#ffdf14" stroke="none" /><path d="M 113.86319453409587 115.77377054828091 l 12.892037368958647 14.668771967216669 a40.52888882012563,40.52888882012563 0 0,0 -0.5265291682161933,0.45480335500703384 l -12.6383287209796 -14.88791945468842" fill="#ffdf14" stroke="none" /><path d="M 113.59037401385872 116.0094264158162 l 12.637445601091331 14.886879141680614 a40.52752421326237,40.52752421326237 0 0,0 -0.5342408988145846,0.4456827587271244 l -12.380030368114852 -15.10162408431961" fill="#ffdf14" stroke="none" /><path d="M 113.31354834802062 116.24036423190432 l 4.954483951252754 6.043664832706446 a28.814908562057123,28.814908562057123 0 0,0 -0.38522682767054167,0.31031146359506107 l -4.850006353226959 -6.127824590094911" fill="#ff3c05" stroke="none" /><path d="M 113.03279911837588 116.46651593811092 l 12.111102723752364 15.301982652949786 a40.51485286381781,40.51485286381781 0 0,0 -0.549053534267114,0.4269473491667227 l -11.846639244850019 -15.5076310537373" fill="#ffdf14" stroke="none" /><path d="M 112.45986205192187 116.90419585922612 l 11.576371199058705 15.705570837986006 a40.51095398706563,40.51095398706563 0 0,0 -0.5633318024804563,0.4078087820860211 l -11.305058386204282 -15.901980391445104" fill="#ffdf14" stroke="none" /><path d="M 111.8722381534696 117.32195027204791 l 11.025895291880857 16.08711074372709 a40.50296128972367,40.50296128972367 0 0,0 -0.5768850507057017,0.38815400767660446 l -10.748113953078153 -16.274014425460816" fill="#ffdf14" stroke="none" /><path d="M 111.5731344415666 117.5232005979908 l 10.764121599503811 16.2982520424033 a40.53200792152737,40.53200792152737 0 0,0 -0.5838816547492728,0.3784650343504576 l -10.48275431249753 -16.48063091845765" fill="#ffdf14" stroke="none" /><path d="M 111.27062007382361 117.71928675628689 l 10.471768622850428 16.463359589657856 a40.51153881857846,40.51153881857846 0 0,0 -0.5899943699356774,0.36820012263479457 l -10.187610124125035 -16.6406955091342" fill="#ffdf14" stroke="none" /><line stroke="#e1ed5e" stroke-width="0.3" x1="143.1302829299769" x2="145.66735839644613" y1="173.24464959558577" y2="177.55315839532614" /><path d="M 143.63769802327073 174.10635135553383 a86.0,86.0 0 0,1 -40.68552437913181,11.842963189579606" fill="none" id="id54" stroke="none" /><text fill="#e1ed5e" style="font-size:6.75px; font-family:Arial;" text-anchor="middle"><textPath startOffset="21.407464694133747" xlink:href="#id54">June</textPath></text><path d="M 110.65571695917076 118.09573695890943 l 9.904109235420734 16.819342726838567 a40.51875174056998,40.51875174056998 0 0,0 -0.602393308871454,0.3477919390349647 l -9.61392345868888 -16.986881563149705" fill="#ffdf14" stroke="none" /><path d="M 110.34350942703117 118.27599006163325 l 9.60585784500069 16.972630396594848 a40.50237645821085,40.50237645821085 0 0,0 -0.6080290272352737,0.33726345187031453 l -9.313084629609321 -17.135026763898306" fill="#ffdf14" stroke="none" /><path d="M 109.71004243097381 118.62028667847754 l 9.021803324856638 17.300497444770187 a40.51153881857846,40.51153881857846 0 0,0 -0.6193882057685259,0.31626403118110286 l -8.72348789737453 -17.452819427624128" fill="#ffdf14" stroke="none" /><path d="M 109.3889696526874 118.78422872680471 l 8.72470811189139 17.455260674047146 a40.51426803230498,40.51426803230498 0 0,0 -0.624768117186255,0.30560539364539874 l -8.423779745443065 -17.602459817789768" fill="#ffdf14" stroke="none" /><path d="M 109.06512990194946 118.94263497670748 l 8.42823979945306 17.611779615299735 a40.524600055698244,40.524600055698244 0 0,0 -0.6300828230489935,0.294910575933751 l -8.12466826253256 -17.75386642280402" fill="#ffdf14" stroke="none" /><path d="M 108.4095320186766 119.2426549942271 l 7.811442208616061 17.87410846333836 a40.506470278800634,40.506470278800634 0 0,0 -0.6395487987191284,0.27298535225086684 l -7.503458334726501 -18.00556846524863" fill="#ffdf14" stroke="none" /><path d="M 108.07796709384702 119.3841803445677 l 7.504583156087467 18.00826762703811 a40.509394436364765,40.509394436364765 0 0,0 -0.6441872167571804,0.26198533298639487 l -7.194341478139846 -18.134440216603792" fill="#ffdf14" stroke="none" /><path d="M 107.407793817531 119.65005319985036 l 6.877165915553631 18.242499647468225 a40.495748367732155,40.495748367732155 0 0,0 -0.6525809790250114,0.2396367746864053 l -6.562995784874492 -18.357867271163354" fill="#ffde14" stroke="none" /><path d="M 107.06938296918513 119.77432235084164 l 6.571002079291429 18.38026230158204 a40.51953151592041,40.51953151592041 0 0,0 -0.656984123838606,0.22853318211104817 l -6.254512183407802 -18.49035391626168" fill="#ffdf14" stroke="none" /><path d="M 106.72888874123015 119.89276391827305 l 6.24757861918207 18.469856065641928 a40.49789274994585,40.49789274994585 0 0,0 -0.6604574971446251,0.21710549766422615 l -5.929598384389711 -18.574382484708174" fill="#ffde14" stroke="none" /><path d="M 106.0420521117495 120.11202640906438 l 5.6865438006286775 18.92865486415502 a40.764380975956925,40.764380975956925 0 0,0 -0.6719134441090092,0.1955842110086726 l -5.360770344138062 -19.023482769466213" fill="#ffe215" stroke="none" /><path d="M 105.69591212413111 120.21278271476187 l 4.6482217308559735 16.49489911506638 a38.13731782034223,38.13731782034223 0 0,0 -0.6316604026847487,0.17216185162077377 l -4.36437992723653 -16.5722614608313" fill="#ffbf11" stroke="none" /><path d="M 104.9986988182912 120.39639698878246 l 4.646158844077961 18.95791358943125 a40.51894668440759,40.51894668440759 0 0,0 -0.676990264566036,0.15976785908866417 l -4.320036425772046 -19.03487759216614" fill="#ffdf14" stroke="none" /><path d="M 104.64783097203109 120.47920084513623 l 3.7400247437748244 16.479239101948913 a37.898316675433975,37.898316675433975 0 0,0 -0.6356767371408366,0.13854278620760177 l -3.456585590014852 -16.54101334629023" fill="#ffbc11" stroke="none" /><path d="M 104.29559338865022 120.5559693870025 l 3.9914047117951252 19.10031645071031 a40.51290342544172,40.51290342544172 0 0,0 -0.6819739877256434,0.13641389734058143 l -3.662934238538523 -19.166019744713754" fill="#ffdf14" stroke="none" /><path d="M 103.58742460773223 120.69131181640829 l 3.7710418693484073 21.75036738702193 a43.07485533929511,43.07485533929511 0 0,0 -0.7296521474724648,0.12006398320138416 l -3.3971122188228704 -21.811897368718988" fill="#feff18" stroke="none" /><path d="M 103.2317021107853 120.74984581791261 l 1.65906108361527 10.652362286928275 a31.780784107435714,31.780784107435714 0 0,0 -0.5397813245345039,0.07932926631579597 l -1.4759546534730805 -10.679272626542954" fill="#ff6709" stroke="none" /><path d="M 102.51750503828377 120.84855314841334 l 2.340608963742974 19.383599888846643 a40.52440511186063,40.52440511186063 0 0,0 -0.6913542600268909,0.07746768686300322 l -2.0075188021152837 -19.420923336216617" fill="#ffdf14" stroke="none" /><path d="M 102.15924093988457 120.88869738790638 l 2.0046925530278954 19.393581940062628 a40.496918030757804,40.496918030757804 0 0,0 -0.6921124553714392,0.06554376911028242 l -1.6714805342714412 -19.42513746467809" fill="#ffde14" stroke="none" /><path d="M 101.08105385017728 120.97215588758144 l 0.8643948293267004 16.7690287640029 a37.79129250858681,37.79129250858681 0 0,0 -0.6481642873900867,0.027834963379808328 l -0.5764047813357842 -16.78139629580854" fill="#ffbb11" stroke="none" /><path d="M 100.72087961077811 120.9876233191556 l 0.6693426409869253 19.487180675451768 a40.498672525296286,40.498672525296286 0 0,0 -0.6950086845678928,0.017900958348941086 l -0.33472064234828874 -19.495799351150755" fill="#ffde14" stroke="none" /><line stroke="#e1ed5e" stroke-width="0.3" x1="101.45913802915013" x2="101.54496967792366" y1="184.9874750549273" y2="189.98673829345242" /><path d="M 101.47630435890484 185.9873277026323 a86.0,86.0 0 0,1 -42.54439059252881,-10.42667462771756" fill="none" id="id55" stroke="none" /><text fill="#e1ed5e" style="font-size:6.75px; font-family:Arial;" text-anchor="middle"><textPath startOffset="22.145653131862474" xlink:href="#id55">July</textPath></text><path d="M 100.0 121.0 l 2.3885432804088534e-15 19.503936008911715 a40.503936008911715,40.503936008911715 0 0,0 -0.6953039218925394,-0.005968347926356361 l 0.3348109970436849 -19.501062059179795" fill="#ffdf14" stroke="none" /><path d="M 99.63950707515114 120.99690560180557 l -0.33480430410328493 19.500672228955427 a40.5035461212365,40.5035461212365 0 0,0 -0.6950923216673904,-0.017903112543938438 l 0.6695099398414193 -19.49205139906144" fill="#ffdf14" stroke="none" /><path d="M 99.27912038922189 120.98762331915562 l -0.6693827927120001 19.48834964911809 a40.499842188321935,40.499842188321935 0 0,0 -0.6946190407602341,-0.029829930372029047 l 1.003827594073073 -19.47398715032023" fill="#ffdf14" stroke="none" /><path d="M 98.55909050195518 120.95050786540614 l -1.3380434429363879 19.45485800012536 a40.50081690750997,40.50081690750997 0 0,0 -0.6932023492138296,-0.05365824594721015 l 1.6718147869254536 -19.429021987183095" fill="#ffdf14" stroke="none" /><path d="M 98.19965949673042 120.92268563240118 l -1.6722994532737678 19.43465454481537 a40.506470278800634,40.506470278800634 0 0,0 -0.6922757080377834,-0.06555922930751837 l 2.0056747246965667 -19.40308356000267" fill="#ffdf14" stroke="none" /><path d="M 97.48249496171623 120.84855314841334 l -2.344301439493037 19.41417888501692 a40.55520623820281,40.55520623820281 0 0,0 -0.6904469365690631,-0.08939217916810042 l 2.677226197952894 -19.371075109648423" fill="#ffdf14" stroke="none" /><path d="M 97.12497278360702 120.80226474461374 l -1.6810061814943675 12.162923337000615 a33.27853761178327,33.27853761178327 0 0,0 -0.565219947057785,-0.08306786779964057 l 1.8895512341598373 -12.132274395902092" fill="#ff7c0b" stroke="none" /><path d="M 96.76829788921471 120.74984581791261 l -3.002551961115938 19.278537475809497 a40.51095398706563,40.51095398706563 0 0,0 -0.6862217955229256,-0.11291753531527664 l 3.3330512596919273 -19.22415394199855" fill="#ffdf14" stroke="none" /><path d="M 96.05791012581884 120.62667999033965 l -3.665129913190722 19.17750844229788 a40.524600055698244,40.524600055698244 0 0,0 -0.6821708829591266,-0.13645328190165049 l 3.993797281680807 -19.111765763733366" fill="#ffdf14" stroke="none" /><path d="M 95.70440661134978 120.55596938700252 l -5.445847945303439 26.060353837425005 a47.623284958381035,47.623284958381035 0 0,0 -0.7987957526856364,-0.1740938164351103 l 5.892406114608212 -25.963028562856177" fill="#c6ff1e" stroke="none" /><path d="M 95.00130118170881 120.39639698878247 l -4.644441928619117 18.950907988460386 a40.511733762416064,40.511733762416064 0 0,0 -0.6740278732786137,-0.17133524962193006 l 4.9690750951231095 -18.868387507003195" fill="#ffdf14" stroke="none" /><path d="M 94.30408787586889 120.21278271476187 l -1.1665366211212107 4.139626935542372 a25.300850945322892,25.300850945322892 0 0,0 -0.4170302968070894,-0.1213914415358777 l 1.237426930309907 -4.118991799703978" fill="#ff0701" stroke="none" /><path d="M 92.59220618246901 119.65005319985036 l -6.87991658937268 18.24979613657298 a40.5035461212365,40.5035461212365 0 0,0 -0.648495984444399,-0.25085217806352633 l 7.192184836310608 -18.129004070371412" fill="#ffdf14" stroke="none" /><path d="M 92.25597844496254 119.51999308798841 l -7.189668754176501 18.122661899766964 a40.4967230869202,40.4967230869202 0 0,0 -0.6439857148230037,-0.26190338390397067 l 7.4997089301899456 -17.996571259283705" fill="#ffde14" stroke="none" /><path d="M 91.92203290615298 119.3841803445677 l -7.48096190750719 17.951585229459067 a40.44798712751802,40.44798712751802 0 0,0 -0.6386254195925181,-0.27259121660923374 l 7.78802240227014 -17.820519363190428" fill="#ffde14" stroke="none" /><path d="M 91.26138138417905 119.09545874513695 l -8.138864427935605 17.784887606209654 a40.55871522727976,40.55871522727976 0 0,0 -0.6306132510751954,-0.29515884303289336 l 8.44296639288229 -17.64255253160623" fill="#ffdf14" stroke="none" /><path d="M 90.93487009805054 118.94263497670748 l -4.23612563790792 8.85187333687358 a30.813277841383794,30.813277841383794 0 0,0 -0.4751697245510632,-0.23242932333647615 l 4.387455611721053 -8.777850263439882" fill="#ff5908" stroke="none" /><path d="M 90.28995756902619 118.62028667847754 l -9.019459718365892 17.296003270308073 a40.506470278800634,40.506470278800634 0 0,0 -0.6137910417011231,-0.3268091577879373 l 9.315039575853577 -17.138623644797562" fill="#ffdf14" stroke="none" /><path d="M 89.97174638481275 118.45085714620012 l -9.31792544888081 17.14393332612502 a40.512513537766495,40.512513537766495 0 0,0 -0.6081812069135933,-0.3373478633725874 l 9.610850843950507 -16.981452547319282" fill="#ffdf14" stroke="none" /><line stroke="#e1ed5e" stroke-width="0.3" x1="58.13341422392154" x2="55.67067388415222" y1="173.97424548756322" y2="178.32567169271397" /><path d="M 57.64086615596768 174.84453072859336 a86.0,86.0 0 0,1 -31.369924170532247,-30.572349798747897" fill="none" id="id56" stroke="none" /><text fill="#e1ed5e" style="font-size:6.75px; font-family:Arial;" text-anchor="middle"><textPath startOffset="22.145653131862474" xlink:href="#id56">August</textPath></text><path d="M 89.65649057296885 118.27599006163327 l -9.609986671055346 16.979925636616983 a40.51075904322802,40.51075904322802 0 0,0 -0.602274481237534,-0.34772333386853516 l 9.90005362015328 -16.812455405472274" fill="#ffdf14" stroke="none" /><path d="M 89.34428304082925 118.09573695890944 l -5.141234232319518 8.730939707639797 a31.132205959711605,31.132205959711605 0 0,0 -0.45818786086926194,-0.2751286456454622 l 5.290354849746207 -8.641397061458417" fill="#ff5e08" stroke="none" /><path d="M 89.03521579738668 117.91015095944536 l -10.184251168664876 16.63520890782534 a40.50510567193737,40.50510567193737 0 0,0 -0.5899006800781772,-0.3681416532344397 l 10.468315977532765 -16.45793145774935" fill="#ffdf14" stroke="none" /><path d="M 88.1277618465304 117.32195027204791 l -11.031185393976038 16.094829160780584 a40.512318593928896,40.512318593928896 0 0,0 -0.5702685830617962,-0.398091760267214 l 11.3058490682116 -15.90309258470824" fill="#ffdf14" stroke="none" /><path d="M 87.83215693770417 117.11559508785305 l -11.307317477653779 15.90515808648262 a40.51485286381781,40.51485286381781 0 0,0 -0.5633860189590475,-0.40784803063546843 l 11.57868450698678 -15.708709284474086" fill="#ffdf14" stroke="none" /><path d="M 87.54013794807813 116.9041958592261 l -11.572091579391772 15.699764711983049 a40.50374106507411,40.50374106507411 0 0,0 -0.5561491749545892,-0.41734470910034294 l 11.839893743257127 -15.49880097561869" fill="#ffdf14" stroke="none" /><path d="M 86.96720088162412 116.46651593811092 l -8.396047218650082 10.608131383541368 a34.52871244236779,34.52871244236779 0 0,0 -0.4616147342294972,-0.37184415390277 l 8.576912723234841 -10.462438935845187" fill="#ff8e0d" stroke="none" /><path d="M 86.68645165197938 116.24036423190432 l -12.365817495075683 15.084286690192664 a40.50510567193737,40.50510567193737 0 0,0 -0.533945373689379,-0.44543622115695886 l 12.622937202926956 -14.869788285123835" fill="#ffdf14" stroke="none" /><path d="M 86.13680546590413 115.77377054828092 l -14.166093988269367 16.118414524644486 a42.458832812451654,42.458832812451654 0 0,0 -0.5433415855697702,-0.48585939622696456 l 14.440700600662508 -15.872859598534138" fill="#fff817" stroke="none" /><path d="M 85.86807049272751 115.53346607816431 l -15.098735923326851 16.59615568896399 a43.436671101896835,43.436671101896835 0 0,0 -0.5472404765137541,-0.5065176152351968 l 15.381406171154572 -16.334520327596415" fill="#faff18" stroke="none" /><path d="M 85.60350026404147 115.28858382429668 l -8.97775470584354 9.534064383124466 a34.09574217903889,34.09574217903889 0 0,0 -0.4226695144783973,-0.4049078336990765 l 9.14009670618725 -9.378544419119809" fill="#ff880c" stroke="none" /><path d="M 85.08716467003676 114.78537596483092 l -15.698831320232342 15.564654081020436 a43.10682612866293,43.10682612866293 0 0,0 -0.5164879244985118,-0.5299621106382055 l 15.963706045881663 -15.292869278314493" fill="#feff18" stroke="none" /><path d="M 84.83555147118756 114.52719865689866 l -9.910361510304751 9.493902145425 a34.7240461676517,34.7240461676517 0 0,0 -0.4086593066384828,-0.4339820219991422 l 10.071876650679489 -9.322378663481368" fill="#ff910d" stroke="none" /><path d="M 84.3458050057657 113.99807769240083 l -18.90085285074498 16.901259167578488 a46.355370238574125,46.355370238574125 0 0,0 -0.525336440137323,-0.5977364341960636 l 19.188200354840895 -16.574310455571123" fill="#d5ff1c" stroke="none" /><path d="M 84.1078160697243 113.72728997021213 l -15.183558839966363 13.115196494732482 a41.063619766686266,41.063619766686266 0 0,0 -0.4562078920783198,-0.5374117497498317 l 15.406461295551795 -12.852617962533095" fill="#ffe615" stroke="none" /><path d="M 83.8745106332314 113.45245675266167 l -16.476770256523377 13.745507764632897 a42.45746820558839,42.45746820558839 0 0,0 -0.4620852097839032,-0.5636688219322251 l 16.71030228554591 -13.460636661002177" fill="#fff817" stroke="none" /><path d="M 83.4222238831116 112.89097897827486 l -15.384598926930106 11.963157178495566 a40.48853544574063,40.48853544574063 0 0,0 -0.4219445677200415,-0.5523389837481156 l 15.587695472004443 -11.697297281506579" fill="#ffde14" stroke="none" /><path d="M 83.20337586046588 112.60449989151573 l -49.2492903201957 36.95758560418386 a82.57398582789244,82.57398582789244 0 0,0 -0.8410670858809335,-1.141069033608349 l 49.87645942566046 -36.10671026130664" fill="#4be0ff" stroke="none" /><path d="M 82.78059297857968 112.02048342749411 l -17.868817959245835 12.473822697891418 a42.7919918309249,42.7919918309249 0 0,0 -0.41530700558367933,-0.6059453327468188 l 18.080314701644838 -12.165242630074548" fill="#fffc17" stroke="none" /><path d="M 82.576782715395 111.72311816256416 l -17.80454728384382 11.979694004269195 a42.459612587802084,42.459612587802084 0 0,0 -0.4016993978138169,-0.6082240868732838 l 18.007571120578366 -11.67229003905685" fill="#fff817" stroke="none" /><path d="M 82.37810715431573 111.42229804090323 l -13.209467283061594 8.562217100624457 a36.74171488690163,36.74171488690163 0 0,0 -0.338517705235292,-0.5322060589262163 l 13.354502679922776 -8.334197367019568" fill="#ffac10" stroke="none" /><path d="M 82.18462484594161 111.11811171558189 l -3.365830817854963 2.1005273661124733 a24.967496983012037,24.967496983012037 0 0,0 -0.2237944180745666,-0.3655513631213477 l 3.4013932003849345 -2.042438886866569" fill="#ff0200" stroke="none" /><path d="M 81.99639281039703 110.81064883170644 l -14.951456225414539 8.977919873131395 a38.43987065631092,38.43987065631092 0 0,0 -0.3348410915357371,-0.5686333766823666 l 15.103371027080046 -8.719935328155469" fill="#ffc312" stroke="none" /><line stroke="#e1ed5e" stroke-width="0.3" x1="26.387840678322732" x2="22.057713659400548" y1="142.50000000000003" y2="145.00000000000006" /><path d="M 25.521815274538298 143.00000000000003 a86.0,86.0 0 0,1 -11.493303480769221,-40.785679425670985" fill="none" id="id57" stroke="none" /><text fill="#e1ed5e" style="font-size:6.75px; font-family:Arial;" text-anchor="middle"><textPath startOffset="21.40746469413373" xlink:href="#id57">September</textPath></text><path d="M 81.81346652052679 110.50000000000001 l -54.079796049256046 31.222984806758078 a83.4459696135161,83.4459696135161 0 0,0 -0.7055819060381129,-1.2466956204169095 l 54.60781132031554 -30.290032416242045" fill="#4cd7ff" stroke="none" /><path d="M 81.4637452351635 109.86951160357371 l -14.756790596691646 7.857159813202448 a37.71818856948355,37.71818856948355 0 0,0 -0.2993960803530576,-0.574131460929915 l 14.889494746019652 -7.60268210916803" fill="#ffba11" stroke="none" /><path d="M 81.29705330413844 109.54985784667822 l -17.450045458065013 8.910117547384548 a40.5932202865365,40.5932202865365 0 0,0 -0.3115627985142396,-0.6233343046731105 l 17.60042816979099 -8.609251386547683" fill="#ffe015" stroke="none" /><path d="M 81.1358732173502 109.22738970284198 l -22.344857915024132 10.929989721347614 a45.87483367886871,45.87483367886871 0 0,0 -0.33995598371767477,-0.7103772562957517 l 22.52919315670172 -10.544799962986756" fill="#dbff1b" stroke="none" /><path d="M 80.83023694016515 108.57439118712176 l -19.587361017384236 8.76117744190203 a42.45746820558839,42.45746820558839 0 0,0 -0.2918771363918478,-0.6678720080757977 l 19.734872035793053 -8.423643364050383" fill="#fff817" stroke="none" /><path d="M 80.68587082218212 108.24405325689762 l -21.046406413387547 8.983459401190643 a43.88348237769595,43.88348237769595 0 0,0 -0.28978594559642884,-0.6953807765620779 l 21.197518203520463 -8.620846115187284" fill="#f4ff19" stroke="none" /><path d="M 80.41425534168474 107.57618678355246 l -27.248651347046838 10.540363708738505 a50.21623294241421,50.21623294241421 0 0,0 -0.3040935240334195,-0.8066442009826675 l 27.425575554894692 -10.071051227561693" fill="#a7ff21" stroke="none" /><path d="M 80.28708602549918 107.23885506374661 l -12.99635935082819 4.772443171958573 a34.844911346969084,34.844911346969084 0 0,0 -0.20137011980485908,-0.563268064300085 l 13.076369640676992 -4.548640151277566" fill="#ff920d" stroke="none" /><path d="M 80.16572619554312 106.89939002012753 l -22.162807851989438 7.709375035332031 a44.46538973295789,44.46538973295789 0 0,0 -0.24459051188681033,-0.7230883875075678 l 22.291883785448615 -7.327784973350301" fill="#edff1a" stroke="none" /><path d="M 80.05021161711548 106.5578916946017 l -5.550469792586862 1.8245496671619332 a26.842661756970017,26.842661756970017 0 0,0 -0.14013823100097236,-0.4389810126424447 l 5.580972739365089 -1.7289996208280969" fill="#ff1f03" stroke="none" /><path d="M 79.94057633289273 106.21446072829308 l -24.228099266584085 7.505927085047 a46.36414271126652,46.36414271126652 0 0,0 -0.22900283342330735,-0.7622759533311223 l 24.353378420011023 -7.088913528125154" fill="#d5ff1c" stroke="none" /><path d="M 79.83685265289637 105.86919833188381 l -36.244625295910645 10.55028218881066 a58.748924714546526,58.748924714546526 0 0,0 -0.27355040226598215,-0.9707338740555765 l 36.42039419025121 -9.926540390852088" fill="#49ff2c" stroke="none" /><path d="M 79.64726062577567 105.17358676015961 l -34.49769485725426 8.769179130527668 a56.59479530897051,56.59479530897051 0 0,0 -0.23126377960794414,-0.9436351397587083 l 34.643146163378496 -8.17568816616086" fill="#60ff29" stroke="none" /><path d="M 79.34024301695615 103.76489593502545 l -5.793835366442627 1.055829806576591 a26.889253334158493,26.889253334158493 0 0,0 -0.07885617019436655,-0.45482143446934664 l 5.811106354129228 -0.9562153391866517" fill="#ff1f03" stroke="none" /><path d="M 79.2786578344484 103.40968896794605 l -40.61619022424317 6.683378645126166 a62.162391311074664,62.162391311074664 0 0,0 -0.16422270071693076,-1.0544275440193591 l 40.72493441709837 -5.985162919175357" fill="#31ff3b" stroke="none" /><path d="M 79.17382384314188 102.69636545807758 l -25.85598414968784 3.347574803013546 a47.07178884178606,47.07178884178606 0 0,0 -0.0968735480841784,-0.8022519459524672 l 25.90963978403168 -2.9032291801376795" fill="#cdff1d" stroke="none" /><path d="M 79.13060592940153 102.33845913500099 l -23.272955191085128 2.6077831719002496 a44.418603211931796,44.418603211931796 0 0,0 -0.07840435001773785,-0.7584909637289333 l 23.31429193358453 -2.2078876858883847" fill="#edff19" stroke="none" /><path d="M 79.06263194458094 101.62068470465958 l -19.988231557563786 1.547215536966835 a41.04802425967757,41.04802425967757 0 0,0 -0.048350739151652083,-0.7030091357364324 l 20.011846257880503 -1.2038629770760592" fill="#ffe615" stroke="none" /><path d="M 79.03789590574601 101.26102812881392 l -46.59701191085244 2.803160525968817 a67.68125135377664,67.68125135377664 0 0,0 -0.05981221184363256,-1.1603409308056627 l 46.638265712152645 -2.0028478017864235" fill="#38ff7f" stroke="none" /><path d="M 79.01933749520258 100.90099992219065 l -15.859659136977326 0.6810820032551094 a36.87427669647554,36.87427669647554 0 0,0 -0.02173003408970065,-0.6326462329747332 l 15.869013858063875 -0.40872950571625627" fill="#ffae10" stroke="none" /><line stroke="#e1ed5e" stroke-width="0.3" x1="15.003131293944662" x2="10.003315487706104" y1="100.72959589197737" y2="100.7725132973878" /><path d="M 14.003168132696942 100.73817937305945 a86.0,86.0 0 0,1 10.791469493833604,-42.45332614584628" fill="none" id="id58" stroke="none" /><text fill="#e1ed5e" style="font-size:6.75px; font-family:Arial;" text-anchor="middle"><textPath startOffset="22.145653131862435" xlink:href="#id58">October</textPath></text><path d="M 79.00077361379809 100.18025310272382 l -33.725990875484655 0.2894970693651794 a54.72723334467927,54.72723334467927 0 0,0 0.0,-0.9395003441779815 l 33.725990875484655 0.289497069365167" fill="#74ff27" stroke="none" /><path d="M 79.00077361379809 99.81974689727619 l -10.077640311484481 -0.08650442168066029 a31.07801157285639,31.07801157285639 0 0,0 0.009158495256955739,-0.5334364341421699 l 10.07467038462886 0.25948777179188254" fill="#ff5d08" stroke="none" /><path d="M 79.00696218219943 99.45929381324524 l -21.485432615148497 -0.5533885300898514 a42.49255809635795,42.49255809635795 0 0,0 0.0250408907974736,-0.7290382135601031 l 21.472767037354174 0.9221330082140932" fill="#fff817" stroke="none" /><path d="M 79.01933749520258 99.09900007780938 l -25.38363472089224 -1.090082493973177 a46.40703035554043,46.40703035554043 0 0,0 0.041011462925691515,-0.795611424457986 l 25.36118166850998 1.5256657118078751" fill="#d5ff1c" stroke="none" /><path d="M 79.03789590574601 98.7389718711861 l -25.46626137464821 -1.531987045993222 a46.51230002784912,46.51230002784912 0 0,0 0.054787145704337244,-0.7965930744153766 l 25.436210267778808 1.9689235445629236" fill="#d3ff1c" stroke="none" /><path d="M 79.06263194458094 98.37931529534042 l -40.133896677570455 -3.106617427346207 a61.25395302781818,61.25395302781818 0 0,0 0.09014941826345087,-1.0476728901252852 l 40.07465363660926 3.7951113648471724" fill="#2fff30" stroke="none" /><path d="M 79.13060592940154 97.66154086499901 l -13.7762411024562 -1.5436565500193757 a34.86245629235387,34.86245629235387 0 0,0 0.07174679184852538,-0.5941663592863707 l 13.747712224348007 1.7799165862291828" fill="#ff930d" stroke="none" /><path d="M 79.17382384314186 97.30363454192245 l -29.391993945543913 -3.8053820644694514 a50.63731163164898,50.63731163164898 0 0,0 0.11901090456783957,-0.8611036202370759 l 29.322338524420864 4.309373992906594" fill="#a2ff22" stroke="none" /><path d="M 79.2786578344484 96.59031103205396 l -40.64312021065754 -6.687809964142575 a62.189683448339885,62.189683448339885 0 0,0 0.18237919072696124,-1.0519147067292014 l 40.52232620243835 7.384517703792369" fill="#31ff3c" stroke="none" /><path d="M 79.407916724674 95.88100663000787 l -61.776249825978006 -12.356980109976396 a84.0,84.0 0 0,0 0.29496915670253276,-1.4115341948583637 l 61.55502295845111 13.41563075612017" fill="#4dd2ff" stroke="none" /><path d="M 79.56144815229197 95.17655741523228 l -19.17620232615512 -4.52553153488077 a40.702973667110186,40.702973667110186 0 0,0 0.16632489754841454,-0.6786623405079903 l 19.09568990209041 4.854049699996878" fill="#ffe115" stroke="none" /><path d="M 79.64726062577567 94.8264132398404 l -12.448946350536632 -3.1644734810803836 a33.844849460036514,33.844849460036514 0 0,0 0.14796729528627878,-0.5618559213493792 l 12.392789574445628 3.3777099068025476" fill="#ff840c" stroke="none" /><path d="M 79.73907114497095 94.47779374421319 l -22.238935184131897 -6.061320676587238 a44.050159358851374,44.050159358851374 0 0,0 0.20510909554587856,-0.727859821349093 l 22.131607596511436 6.442188421839345" fill="#f2ff19" stroke="none" /><path d="M 79.94057633289273 93.78553927170692 l -15.742398831734832 -4.877035399045982 a37.48055203143856,37.48055203143856 0 0,0 0.1956757607043842,-0.6129515334255723 l 15.65635835525319 5.146555966162946" fill="#ffb610" stroke="none" /><path d="M 80.05021161711548 93.44210830539832 l -9.283809372472703 -3.0517725406168497 a30.772534579323576,30.772534579323576 0 0,0 0.16927030281335162,-0.5004175729059505 l 9.230053648086987 3.2106917879969616" fill="#ff5908" stroke="none" /><path d="M 80.28708602549916 92.7611449362534 l -18.502701970743995 -6.794448452784158 a40.710771420614535,40.710771420614535 0 0,0 0.24653147442601686,-0.6539540256161407 l 18.383339812503543 7.111070758594443" fill="#ffe115" stroke="none" /><path d="M 80.68587082218212 91.75594674310238 l -27.103848511409428 -11.569021235064005 a50.4696599313055,50.4696599313055 0 0,0 0.34695756572408964,-0.7939068095630155 l 26.90125706366836 12.032590114402886" fill="#a4ff21" stroke="none" /><path d="M 80.83023694016515 91.42560881287825 l -49.67220932844976 -22.217747427619752 a75.41467339171334,75.41467339171334 0 0,0 0.5387320279352258,-1.1772267066897948 l 49.28349283565949 23.06716311652422" fill="#42ffd6" stroke="none" /><path d="M 81.29705330413844 90.45014215332179 l -20.95074955400823 -10.697602002277376 a44.52387288424049,44.52387288424049 0 0,0 0.35341763560896944,-0.6777249161421787 l 20.76402384942432 11.055673161524041" fill="#ecff1a" stroke="none" /><path d="M 81.46374523516351 90.13048839642627 l -25.881468693063002 -13.780424299534527 a50.3215026147229,50.3215026147229 0 0,0 0.41252765187942103,-0.75900441550037 l 25.64109569156823 14.222683548509517" fill="#a6ff21" stroke="none" /><line stroke="#e1ed5e" stroke-width="0.3" x1="26.387840678322718" x2="22.05771365940052" y1="57.49999999999999" y2="54.99999999999999" /><path d="M 25.521815274538284 56.99999999999999 a86.0,86.0 0 0,1 29.574782752854787,-30.34633250058573" fill="none" id="id59" stroke="none" /><text fill="#e1ed5e" style="font-size:6.75px; font-family:Arial;" text-anchor="middle"><textPath startOffset="21.40746469413373" xlink:href="#id59">November</textPath></text><line stroke="#e1ed5e" stroke-width="0.3" x1="56.869717070023135" x2="54.33264160355391" y1="26.7553504044142" y2="22.446841604673864" /><path d="M 56.362301976729285 25.89364864446614 a86.0,86.0 0 0,1 42.16139366436587,-11.88097634709845" fill="none" id="id60" stroke="none" /><text fill="#e1ed5e" style="font-size:6.75px; font-family:Arial;" text-anchor="middle"><textPath startOffset="22.145653131862474" xlink:href="#id60">December</textPath></text></svg>