<?xml version="1.0" encoding="utf-8" ?>
<svg baseProfile="full" height="200mm" version="1.1" viewBox="0,0,200,200" width="200mm" xmlns="http://www.w3.org/2000/svg" xmlns:ev="http://www.w3.org/2001/xml-events" xmlns:xlink="http://www.w3.org/1999/xlink"><defs /><rect fill="#1a1a1a" height="200" width="200" x="0" y="0" /><text alignment-baseline="middle" fill="#e1ed5e" style="dominant-baseline: central; font-size:9.0px; font-family:Arial;" text-anchor="middle" x="100.0" y="100.0">2025</text><line stroke="#e1ed5e" stroke-width="0.3" x1="100.0" x2="100.0" y1="15.0" y2="10.0" /><path d="M 100.0 14.0 a86.0,86.0 0 0,1 42.46469731375804,11.215312516191453" fill="none" id="id61" stroke="none" /><text fill="#e1ed5e" style="font-size:6.75px; font-family:Arial;" text-anchor="middle"><textPath startOffset="22.20632615414155" xlink:href="#id61">January</textPath></text><path d="M 102.16513564639614 79.11191278185805 l 1.7625039229793773 -17.003708625272367 a38.0948099460532,38.0948099460532 0 0,0 0.6516630550519618,0.07322193719957668 l -2.0549336815410646 16.970850734602188" fill="#ff7d0b" stroke="none" /><path d="M 102.52436894288641 79.15227682838746 l 1.9152770826173182 -15.817484416395905 a36.93301916041421,36.93301916041421 0 0,0 0.6304734952736195,0.08185355439698788 l -2.1872653063987837 15.782172538834779" fill="#ff6b09" stroke="none" /><path d="M 103.2404852339499 79.25152402106235 l 3.641552297071627 -23.316464944892854 a44.599119489055624,44.599119489055624 0 0,0 0.7574858739842206,0.12499165959681623 l -4.042367377194723 23.250327022356412" fill="#ffdf14" stroke="none" /><path d="M 103.95276090670814 79.375362276772 l 8.290944801312241 -43.26032789389052 a65.04765300427854,65.04765300427854 0 0,0 1.0978606290496655,0.2202205140507952 l -9.034371839829033 43.11120342376252" fill="#32ff47" stroke="none" /><path d="M 104.307194497241 79.44645832069477 l 3.3254628960158223 -15.86880747549855 a37.21350530166801,37.21350530166801 0 0,0 0.6258200074778724,0.1367800141822157 l -3.5981256276472227 15.809213963220463" fill="#ff6f0a" stroke="none" /><path d="M 104.66035177308747 79.52364482259891 l 5.2804123422890505 -23.200737598443414 a44.79405345073479,44.79405345073479 0 0,0 0.7503565223287207,0.1775851457882905 l -5.678992551580294 23.106406540514254" fill="#ffe215" stroke="none" /><path d="M 105.01212808612495 79.60689891045804 l 4.147103214660229 -16.87353029134501 a38.3756867365288,38.3756867365288 0 0,0 0.6401267597340008,0.16318256407305426 l -4.436938863079254 16.79964473110309" fill="#ff820b" stroke="none" /><line stroke="#e1ed5e" stroke-width="0.3" x1="143.23703022742887" x2="145.7803849466894" y1="26.81831364943548" y2="22.513508569990506" /><path d="M 143.74570117128098 25.957352633546492 a86.0,86.0 0 0,1 28.547481713284135,27.462654790039103" fill="none" id="id62" stroke="none" /><text fill="#e1ed5e" style="font-size:6.75px; font-family:Arial;" text-anchor="middle"><textPath startOffset="19.985693538727396" xlink:href="#id62">February</textPath></text><path d="M 111.60114157652 82.49532879139004 l 11.620852079353565 -17.53441189138519 a42.03567929559125,42.03567929559125 0 0,0 0.5996996278281553,0.40491986571102573 l -11.920956401588262 17.331780113375494" fill="#ffb911" stroke="none" /><path d="M 114.16331599549186 84.49514656593476 l 6.3243548798124865 -6.923392481514889 a30.37714392013394,30.37714392013394 0 0,0 0.3830299153752747,0.3559845622331228 l -6.442592678982608 6.813503333207126" fill="#ff0000" stroke="none" /><path d="M 114.94478906791727 85.2469230424477 l 25.6565340493126 -25.3274114190171 a57.051844732436294,57.051844732436294 0 0,0 0.6839041971817024,0.7048233920718849 l -26.088702510197415 24.8820238313951" fill="#79ff26" stroke="none" /><path d="M 115.9244219780498 86.31012108654704 l 14.873491097462072 -12.786416513280084 a40.614106777453955,40.614106777453955 0 0,0 0.45118285970861655,0.5340581954953217 l -15.091384570657807 12.528499368155655" fill="#ffa40f" stroke="none" /><path d="M 116.38621287248628 86.86637796730983 l 18.637119884107722 -14.937733949910893 a44.88468407019285,44.88468407019285 0 0,0 0.47801316362513024,0.6070281748071269 l -18.891487128326816 14.614713381150727" fill="#ffe315" stroke="none" /><path d="M 116.60985879189232 87.15038557335679 l 31.43555075888261 -24.318972942622686 a60.74426117690829,60.74426117690829 0 0,0 0.6326776863190547,0.83252967355109 l -31.849504385425778 23.774258493190562" fill="#4dff2c" stroke="none" /><path d="M 117.04232023915458 87.72973835380427 l 12.787922207852265 -9.207147219369952 a36.75761765982514,36.75761765982514 0 0,0 0.36527861579425885,0.5166606973388794 l -12.944513443450408 8.98566002169928" fill="#ff6809" stroke="none" /><path d="M 117.2510076193507 88.02491185347247 l 13.095661665476472 -9.090582199110107 a36.94161344329386,36.94161344329386 0 0,0 0.35811469979893573,0.5254891329219652 l -13.250200830944141 8.863815042917736" fill="#ff6b09" stroke="none" /><path d="M 117.45458315368197 88.32363383020206 l 19.58599696930458 -13.102190433342496 a44.56435170831525,44.56435170831525 0 0,0 0.4210341581915501,0.6412639084189787 l -19.808627762854055 12.763108460945842" fill="#ffde14" stroke="none" /><line stroke="#e1ed5e" stroke-width="0.3" x1="172.23445277983987" x2="176.4835382374775" y1="55.19839476539836" y2="52.563006222186495" /><path d="M 173.08426987136738 54.67131705675599 a86.0,86.0 0 0,1 12.851231095245387,41.99856678651699" fill="none" id="id63" stroke="none" /><text fill="#e1ed5e" style="font-size:6.75px; font-family:Arial;" text-anchor="middle"><textPath startOffset="22.20632615414155" xlink:href="#id63">March</textPath></text><path d="M 117.84615892207809 88.93136811851018 l 15.635944175685909 -9.697801692558233 a39.3991876976499,39.3991876976499 0 0,0 0.35249928232115135,0.5794161366903514 l -15.800559256293285 9.4272177826608" fill="#ff910d" stroke="none" /><path d="M 118.03404312379186 89.2402003453031 l 33.92931828834986 -20.243528569667042 a60.50948099460531,60.50948099460531 0 0,0 0.5259723980184189,0.899057324671312 l -34.27275036083861 19.656491832641837" fill="#50ff2b" stroke="none" /><path d="M 119.196687751892 91.48605970444005 l 36.188143053287625 -16.049835958419795 a60.5876108389657,60.5876108389657 0 0,0 0.41461916885693634,0.9569982067970925 l -36.459052931987245 15.4245386070361" fill="#4fff2b" stroke="none" /><path d="M 119.47837535516314 92.15188598940014 l 29.32626606380842 -11.815969010626258 a52.617194766540585,52.617194766540585 0 0,0 0.3312539302508334,0.8430051208949955 l -29.525313543940953 11.309414884835478" fill="#b1ff20" stroke="none" /><path d="M 119.61058180528143 92.48833698450437 l 25.767115235055062 -9.869869667765299 a48.59272648353693,48.59272648353693 0 0,0 0.2924713171292677,0.7836777223159964 l -25.933191140685956 9.42486880841997" fill="#e7ff1a" stroke="none" /><path d="M 119.7369772167798 92.82701384747503 l 35.113877851895325 -12.761394859338676 a58.360910274694604,58.360910274694604 0 0,0 0.33501085403569364,0.9471207974056809 l -35.32834178674083 12.15507643550638" fill="#69ff28" stroke="none" /><path d="M 119.97218684219823 93.5106431181261 l 37.19678927761893 -12.085969472923372 a60.11101878836733,60.11101878836733 0 0,0 0.31127350754006067,0.9868220820584775 l -37.399318268927196 11.443897224438475" fill="#54ff2b" stroke="none" /><path d="M 120.08093135843002 93.85539295169968 l 37.42920246019664 -11.453041551911607 a60.142270726111484,60.142270726111484 0 0,0 0.29439384595027424,0.9925496975240323 l -37.62080220325861 10.807062467641044" fill="#54ff2b" stroke="none" /><path d="M 120.53481517161879 95.60439243477599 l 38.294304296976016 -8.197138969403683 a60.161803187201585,60.161803187201585 0 0,0 0.2080472622132363,1.0145123370330345 l -38.429730855104246 7.536750976207236" fill="#54ff2b" stroke="none" /><path d="M 120.6074358757038 95.95851677861258 l 19.389288134629297 -3.8025828707364315 a40.75864698952068,40.75864698952068 0 0,0 0.1290967570915029,0.6896400384924388 l -19.451870615630657 3.4682647547814303" fill="#ffa60f" stroke="none" /><path d="M 120.67395015179393 96.31383870115 l 38.57299905111852 -6.877558243046875 a60.18133564829168,60.18133564829168 0 0,0 0.17305899195366556,1.0214039668183734 l -38.68566990459241 6.212568487912663" fill="#54ff2b" stroke="none" /><path d="M 120.78858239683441 97.02765380044208 l 33.01629585252313 -4.720661545236988 a54.35206796056303,54.35206796056303 0 0,0 0.12445070890591735,0.9273023343392648 l -33.092662560486886 4.151640868833059" fill="#9bff22" stroke="none" /><path d="M 120.83666639777658 97.38593545837742 l 36.49239718518271 -4.578154667330702 a57.778452284987914,57.778452284987914 0 0,0 0.11530831139346787,0.9878911944201729 l -36.565795849579764 3.9493197345856763" fill="#70ff27" stroke="none" /><path d="M 120.87857604477298 97.74499172005257 l 26.131686366548323 -2.822374907138766 a47.2836609412786,47.2836609412786 0 0,0 0.08043372748044801,0.8099566589739466 l -26.176397219711 2.372142717460384" fill="#f9ff18" stroke="none" /><path d="M 120.96714384426684 98.82574320788733 l 32.059175078058786 -1.7954617168915628 a53.109412786011035,53.109412786011035 0 0,0 0.04326240102887887,0.9132009090858586 l -32.085331087321165 1.2433497011827044" fill="#abff21" stroke="none" /><line stroke="#e1ed5e" stroke-width="0.3" x1="184.98032266829074" x2="189.97916517819016" y1="98.17113171792111" y2="98.06355123074" /><path d="M 185.9800911702706 98.14961562048488 a86.0,86.0 0 0,1 -9.607161424134198,41.387399972396054" fill="none" id="id64" stroke="none" /><text fill="#e1ed5e" style="font-size:6.75px; font-family:Arial;" text-anchor="middle"><textPath startOffset="21.466115282336823" xlink:href="#id64">April</textPath></text><path d="M 120.99513854157772 99.54816195383933 l 23.73074247395306 -0.5107111959341784 a44.73623736590811,44.73623736590811 0 0,0 0.009942081017470511,0.7700251313607854 l -23.736017562088247 0.10214980651293021" fill="#ffe115" stroke="none" /><path d="M 120.99824983174949 100.27111621757518 l 39.14291472325826 0.5053887380933991 a60.146177218329505,60.146177218329505 0 0,0 -0.022276818863838074,1.0351162375236602 l -39.12841584170941 -1.179094791407174" fill="#54ff2b" stroke="none" /><path d="M 120.9764740272857 100.99374915477107 l 21.73088308884866 1.029488877581706 a42.75525516215043,42.75525516215043 0 0,0 -0.041154272645802875,0.734837183967428 l -21.70994246531533 -1.4033977778845572" fill="#ffc412" stroke="none" /><path d="M 120.95626037817324 101.35467743843564 l 43.38479973002231 2.804527539967182 a64.47535189433869,64.47535189433869 0 0,0 -0.08112669897029728,1.1069093519872832 l -43.33009647238767 -3.5509100284512356" fill="#31ff3f" stroke="none" /><path d="M 120.92983693683757 101.71520430193887 l 58.97316068361592 4.832862253476967 a80.17085632789731,80.17085632789731 0 0,0 -0.12455269307191615,1.3744285892400778 l -58.881233394266935 -5.847272231265616" fill="#48fbff" stroke="none" /><path d="M 120.89721153311464 102.0752229133903 l 58.566356330799024 5.816002982927186 a79.85443045823773,79.85443045823773 0 0,0 -0.14760786692062342,1.3666655247850372 l -58.45756616237735 -6.823264829597015" fill="#47ffff" stroke="none" /><path d="M 120.8583938346157 102.4346265915055 l 25.652448685944933 2.9941966866301017 a46.82660135177032,46.82660135177032 0 0,0 -0.10033935180615076,0.7998033586638994 l -25.597107824891935 -3.435317799581396" fill="#fffe18" stroke="none" /><path d="M 120.81339534386255 102.79330883721812 l 26.18561829037227 3.5143001788070096 a47.420388168909284,47.420388168909284 0 0,0 -0.11553853151539875,0.8080762203186101 l -26.12124570784027 -3.964521871106029" fill="#f7ff18" stroke="none" /><path d="M 120.76222939487914 103.15116336523771 l 58.234403615695825 8.83845928970938 a79.90130836485397,79.90130836485397 0 0,0 -0.21808584855767332,1.358020787147831 l -58.073636012776866 -9.839559306550417" fill="#47feff" stroke="none" /><path d="M 120.64145759157962 103.86396538481128 l 23.714957443669917 4.439307362770437 a45.12688658771005,45.12688658771005 0 0,0 -0.14949907259555198,0.7622925503405622 l -23.6350284380987 -4.846863640178944" fill="#ffe615" stroke="none" /><path d="M 120.49622156327973 104.57218783832717 l 61.488664689839204 13.716563514981502 a84.0,84.0 0 0,0 -0.3269577362777887,1.4085253706057403 l -61.24344638763086 -14.772957542935806" fill="#4dd2ff" stroke="none" /><path d="M 120.41448212921028 104.9243191809786 l 57.8476573531037 13.953835658214953 a80.50681465864699,80.50681465864699 0 0,0 -0.336551783293988,1.3443570780752923 l -57.59889425551465 -14.94752057568764" fill="#48f8ff" stroke="none" /><path d="M 120.32669344350535 105.2749913415812 l 19.1100159969241 4.959250711456052 a40.7430210206486,40.7430210206486 0 0,0 -0.1820086275044977,0.6773218118156026 l -19.021819293077826 -5.287463456447203" fill="#ffa60f" stroke="none" /><path d="M 120.23288151984713 105.62410040840565 l 40.96132874939473 11.385952392511708 a63.514354808705896,63.514354808705896 0 0,0 -0.30186667968274417,1.0508375131635461 l -40.75926943282588 -12.089347381179836" fill="#30ff32" stroke="none" /><path d="M 120.13307415673323 105.97154293290107 l 14.608994052800142 4.333080706585334 a36.23805419482855,36.23805419482855 0 0,0 -0.18252456906117584,0.59650085249281 l -14.532242711232833 -4.583908531630201" fill="#ff6008" stroke="none" /><path d="M 119.79798401119884 107.00284435728193 l 19.346216285265854 6.843047326000237 a41.52080362125628,41.52080362125628 0 0,0 -0.24413390051387984,0.6717516428760776 l -19.225558123746747 -7.1750467658824455" fill="#ffb210" stroke="none" /><path d="M 119.67450827220406 107.3425965602758 l 25.726673466448318 9.601286166270222 a48.459905748124264,48.459905748124264 0 0,0 -0.2983877630281891,0.7789962920978009 l -25.557591423826622 -10.042706025201168" fill="#e9ff1a" stroke="none" /><line stroke="#e1ed5e" stroke-width="0.3" x1="174.80103733775053" x2="179.2010983576182" y1="140.37084112569926" y2="142.7455964860345" /><path d="M 175.68104954172406 140.8457921977663 a86.0,86.0 0 0,1 -30.038265399797805,32.042727171017184" fill="none" id="id65" stroke="none" /><text fill="#e1ed5e" style="font-size:6.75px; font-family:Arial;" text-anchor="middle"><textPath startOffset="22.206326154141568" xlink:href="#id65">May</textPath></text><line stroke="#e1ed5e" stroke-width="0.3" x1="143.8653032363475" x2="146.44561519142675" y1="172.8068346515853" y2="177.08958963109032" /><path d="M 144.38136562736335 173.6633856474863 a86.0,86.0 0 0,1 -40.68145358897372,12.25698825130547" fill="none" id="id66" stroke="none" /><text fill="#e1ed5e" style="font-size:6.75px; font-family:Arial;" text-anchor="middle"><textPath startOffset="21.466115282336833" xlink:href="#id66">June</textPath></text><line stroke="#e1ed5e" stroke-width="0.3" x1="102.19456741930631" x2="102.32365962044197" y1="184.97166512339345" y2="189.96999836594603" /><path d="M 102.22038585953345 185.97133177190398 a86.0,86.0 0 0,1 -42.740103519485714,-10.115201625700543" fill="none" id="id67" stroke="none" /><text fill="#e1ed5e" style="font-size:6.75px; font-family:Arial;" text-anchor="middle"><textPath startOffset="22.20632615414155" xlink:href="#id67">July</textPath></text><line stroke="#e1ed5e" stroke-width="0.3" x1="58.666819895761336" x2="56.23545636021788" y1="174.27360380694188" y2="178.64263932499728" /><path d="M 58.180547188652646 175.14741091055294 a86.0,86.0 0 0,1 -31.652253787137756,-30.449443065178592" fill="none" id="id68" stroke="none" /><text fill="#e1ed5e" style="font-size:6.75px; font-family:Arial;" text-anchor="middle"><textPath startOffset="22.20632615414155" xlink:href="#id68">August</textPath></text><line stroke="#e1ed5e" stroke-width="0.3" x1="26.63291911575756" x2="22.317208475507996" y1="142.92168965132927" y2="145.44649492493687" /><path d="M 25.769776987707644 143.4266507060508 a86.0,86.0 0 0,1 -11.730757126820373,-40.83630448921669" fill="none" id="id69" stroke="none" /><text fill="#e1ed5e" style="font-size:6.75px; font-family:Arial;" text-anchor="middle"><textPath startOffset="21.46611528233685" xlink:href="#id69">September</textPath></text><line stroke="#e1ed5e" stroke-width="0.3" x1="15.007084014347285" x2="10.007500721073583" y1="101.09737516637583" y2="101.16192664675087" /><path d="M 14.007167355692545 101.11028546245083 a86.0,86.0 0 0,1 10.666146001902534,-42.60595125391555" fill="none" id="id70" stroke="none" /><text fill="#e1ed5e" style="font-size:6.75px; font-family:Arial;" text-anchor="middle"><textPath startOffset="22.20632615414155" xlink:href="#id70">October</textPath></text><line stroke="#e1ed5e" stroke-width="0.3" x1="26.266209847984243" x2="21.928928074336255" y1="57.711370442889674" y2="55.22380399835377" /><path d="M 25.398753493254645 57.213857153982495 a86.0,86.0 0 0,1 29.58750427330803,-30.492523968695096" fill="none" id="id71" stroke="none" /><text fill="#e1ed5e" style="font-size:6.75px; font-family:Arial;" text-anchor="middle"><textPath startOffset="21.46611528233685" xlink:href="#id71">November</textPath></text><line stroke="#e1ed5e" stroke-width="0.3" x1="56.762969772571076" x2="54.21961505331055" y1="26.818313649435495" y2="22.513508569990535" /><path d="M 56.25429882871897 25.957352633546506 a86.0,86.0 0 0,1 42.265352541879196,-11.944610805530505" fill="none" id="id72" stroke="none" /><text fill="#e1ed5e" style="font-size:6.75px; font-family:Arial;" text-anchor="middle"><textPath startOffset="22.20632615414155" xlink:href="#id72">December</textPath></text></svg>