<?xml version="1.0" encoding="utf-8" ?>
<svg baseProfile="full" height="200mm" version="1.1" viewBox="0,0,200,200" width="200mm" xmlns="http://www.w3.org/2000/svg" xmlns:ev="http://www.w3.org/2001/xml-events" xmlns:xlink="http://www.w3.org/1999/xlink"><defs /><rect fill="#1a1a1a" height="200" width="200" x="0" y="0" /><text alignment-baseline="middle" fill="#e1ed5e" style="dominant-baseline: central; font-size:9.0px; font-family:Arial;" text-anchor="middle" x="100.0" y="100.0">2024</text><line stroke="#e1ed5e" stroke-width="0.3" x1="100.0" x2="100.0" y1="15.0" y2="10.0" /><path d="M 100.0 14.0 a86.0,86.0 0 0,1 42.35913384403234,11.155469271406648" fill="none" id="id49" stroke="none" /><text fill="#e1ed5e" style="font-size:6.75px; font-family:Arial;" text-anchor="middle"><textPath startOffset="22.145653131862478" xlink:href="#id49">January</textPath></text><path d="M 100.36049292484886 79.00309439819443 l 0.44299221731805427 -25.802075791810843 a46.8058783472091,46.8058783472091 0 0,0 0.8032483514075588,0.02068882821419994 l -0.8858538827963544 25.7906692462466" fill="#fdff18" stroke="none" /><path d="M 100.72087961077811 79.0123766808444 l 0.9936778238764278 -28.929845644553623 a49.94690595962481,49.94690595962481 0 0,0 0.856647088778544,0.03678811191771211 l -1.490150673255808 28.90852496421008" fill="#d2ff1c" stroke="none" /><path d="M 101.08105385017728 79.02784411241856 l 2.381510123784202 -46.200660175869444 a67.26199942886014,67.26199942886014 0 0,0 1.1526004943494481,0.06933758358054931 l -3.1742549702661127 46.1529706144642" fill="#35ff66" stroke="none" /><path d="M 101.80034050326958 79.07731436759882 l 3.9627423229601595 -46.05307257984385 a67.22324978582256,67.22324978582256 0 0,0 1.1488787475623834,0.10880001187888784 l -4.752720633907556 45.97826081245978" fill="#35ff66" stroke="none" /><path d="M 102.15924093988457 79.11130261209362 l 1.107012373876193 -10.709340516581657 a31.7664037958834,31.7664037958834 0 0,0 0.5419410483484379,0.06072562484829587 l -1.2906893238254276 10.688759131226389" fill="#ff1c02" stroke="none" /><path d="M 102.87502721639298 79.19773525538626 l 6.332979574083925 -45.82228542782523 a67.25784768139184,67.25784768139184 0 0,0 1.1423421770864306,0.1678849613183719 l -7.118646856778038 45.70681939320797" fill="#35ff66" stroke="none" /><path d="M 103.23170211078529 79.25015418208739 l 3.5704689423356673 -22.9249718913937 a44.20134876875426,44.20134876875426 0 0,0 0.7487340072592072,0.12320389596779757 l -3.963480452647945 22.860301996930232" fill="#ffdc14" stroke="none" /><path d="M 103.94208987418118 79.37332000966035 l 8.695493590402709 -45.498496830831805 a67.32196911451354,67.32196911451354 0 0,0 1.1332644134741383,0.22668462161579117 l -9.475254489407805 45.34252281255315" fill="#35ff67" stroke="none" /><path d="M 104.29559338865022 79.4440306129975 l 9.460062376946572 -45.26982305481954 a67.24769896535817,67.24769896535817 0 0,0 1.1279603319753198,0.24583370444919886 l -10.235785125541026 45.10075789223662" fill="#35ff66" stroke="none" /><path d="M 104.64783097203109 79.52079915486377 l 10.238235490045312 -45.1115546503651 a67.25877029194032,67.25877029194032 0 0,0 1.1237590416398529,0.26520407398977186 l -11.011126685425051 44.9291544327291" fill="#35ff66" stroke="none" /><path d="M 105.3480935250658 79.69241777938227 l 11.771256879621694 -44.69737969288568 a67.22140456472553,67.22140456472553 0 0,0 1.1133740363288134,0.3034550445558426 l -12.5368123168852 44.4887241541857" fill="#35ff66" stroke="none" /><path d="M 105.69591212413111 79.78721728523813 l 12.548573750438974 -44.53046133264906 a67.26476726050569,67.26476726050569 0 0,0 1.1087155098431285,0.3227309263223633 l -13.311149272663707 44.308486712024184" fill="#35ff66" stroke="none" /><path d="M 106.04205211174951 79.88797359093562 l 13.322298194689642 -44.34559784745815 a67.30351690354325,67.30351690354325 0 0,0 1.103647451734176,0.3419128017087156 l -14.081586279295449 44.11036845794278" fill="#35ff67" stroke="none" /><path d="M 106.72888874123014 80.10723608172694 l 16.36378000102417 -48.37660791987209 a72.06926169189202,72.06926169189202 0 0,0 1.16853179138411,0.4064760151624824 l -17.1918175644533 48.08857347214102" fill="#3cffa4" stroke="none" /><path d="M 107.06938296918511 80.22567764915836 l 17.127060569128947 -47.907436630977166 a71.87689739252684,71.87689739252684 0 0,0 1.1582819915749734,0.4253371911836439 l -17.946931712358044 47.606368590784804" fill="#3cffa2" stroke="none" /><path d="M 109.06512990194946 81.05736502329252 l 12.043760771473876 -25.166827889775398 a48.900204292335744,48.900204292335744 0 0,0 0.7540871413840002,0.3688618086394607 l -12.474008162119942 24.956372331038718" fill="#e0ff1b" stroke="none" /><path d="M 109.3889696526874 81.21577127319529 l 20.68324654899946 -41.380348255582525 a67.26153812358588,67.26153812358588 0 0,0 1.028373757959893,0.5250949682674495 l -21.39054752867293 41.01919533564224" fill="#35ff66" stroke="none" /><path d="M 110.02825361518725 81.54914285379988 l 11.282583867694255 -20.758683532652313 a44.62667223161918,44.62667223161918 0 0,0 0.6699437040128915,0.37160647938399166 l -11.637271759863246 20.561944137835177" fill="#ffe315" stroke="none" /><path d="M 110.34350942703115 81.72400993836675 l 13.698566435566221 -24.2040543203613 a48.8116336796784,48.8116336796784 0 0,0 0.7256837948016526,0.4189737342752833 l -14.11204269822827 23.965333688809846" fill="#e1ff1b" stroke="none" /><line stroke="#e1ed5e" stroke-width="0.3" x1="143.13028292997686" x2="145.6673583964461" y1="26.7553504044142" y2="22.446841604673864" /><path d="M 143.63769802327073 25.89364864446614 a86.0,86.0 0 0,1 29.32050498858742,28.57503671076993" fill="none" id="id50" stroke="none" /><text fill="#e1ed5e" style="font-size:6.75px; font-family:Arial;" text-anchor="middle"><textPath startOffset="20.669276256404974" xlink:href="#id50">February</textPath></text><path d="M 110.65571695917076 81.90426304109057 l 23.440798353408976 -39.80760025209382 a67.19649407991564,67.19649407991564 0 0,0 0.9889635806802007,0.5938442149668194 l -24.12069469064661 39.39934203659108" fill="#35ff65" stroke="none" /><path d="M 111.27062007382361 82.28071324371311 l 24.819973692437163 -39.02112113256512 a67.24585374426115,67.24585374426115 0 0,0 0.9687065204182342,0.6279038629549495 l -25.486165845112406 38.58930342790628" fill="#35ff66" stroke="none" /><path d="M 112.16784306229584 82.88440491214696 l 26.785933633588577 -37.67777015001244 a67.22878544911363,67.22878544911363 0 0,0 0.9348610476493072,0.6767673040698895 l -27.428775691611854 37.212402074569475" fill="#35ff66" stroke="none" /><path d="M 112.45986205192187 83.09580414077388 l 21.951669623887657 -29.78165578502411 a57.997605605957425,57.997605605957425 0 0,0 0.7963541060385717,0.597598967494052 l -22.459676718836995 29.400437790266043" fill="#6cff28" stroke="none" /><path d="M 112.7482090630111 83.31218511350987 l 28.02012834010863 -36.6792474554056 a67.1572831316038,67.1572831316038 0 0,0 0.9101092821224253,0.7077064825251773 l -28.64564756686628 36.19283992125963" fill="#35ff65" stroke="none" /><path d="M 113.31354834802062 83.75963576809568 l 29.390528770826442 -35.851666267276435 a67.3588735364541,67.3588735364541 0 0,0 0.8879364293730367,0.7407481499364396 l -30.00163953436137 35.34185593342813" fill="#35ff68" stroke="none" /><path d="M 113.59037401385872 83.9905735841838 l 17.368081826862447 -20.459556720623397 a47.837356940447684,47.837356940447684 0 0,0 0.6214767908220327,0.5368168500188594 l -17.716738097447337 20.158395738139816" fill="#eeff19" stroke="none" /><path d="M 113.86319453409587 84.22622945171908 l 30.495799939467087 -34.698622294331464 a67.19511016409288,67.19511016409288 0 0,0 0.8598893394070393,0.7689183496385609 l -31.086954305697503 34.170008414809516" fill="#35ff65" stroke="none" /><path d="M 114.13192950727249 84.46653392183569 l 18.73381697109973 -20.59174653293898 a48.83838938558531,48.83838938558531 0 0,0 0.6152944689715206,0.5695073746669918 l -19.084541211385215 20.267121412139616" fill="#e1ff1b" stroke="none" /><path d="M 114.65682725009322 84.96080404539774 l 32.25480769592488 -33.096274189486834 a67.21402368033742,67.21402368033742 0 0,0 0.8193968163210673,0.8123934668111374 l -32.81819643237591 32.53770071244704" fill="#35ff66" stroke="none" /><path d="M 114.91283532996326 85.21462403516908 l 19.04275020826316 -18.879992637471638 a47.81567559255761,47.81567559255761 0 0,0 0.5729073852846892,0.5878534476880334 l -19.364044394698663 18.550316497715862" fill="#efff19" stroke="none" /><path d="M 115.16444852881244 85.47280134310134 l 33.36491805561703 -31.962836752300376 a67.20433626957802,67.20433626957802 0 0,0 0.7909123646025183,0.8399215229863182 l -33.908686253955814 31.385373769369565" fill="#35ff65" stroke="none" /><path d="M 115.6541949942343 86.00192230759917 l 34.41185658388113 -30.771294351344228 a67.16328010016915,67.16328010016915 0 0,0 0.7611484558138308,0.8660472206212663 l -34.93501610365355 30.176034852911663" fill="#35ff65" stroke="none" /><path d="M 116.1254893667686 86.54754324733833 l 35.50951566398785 -29.623300906587225 a67.24354721788987,67.24354721788987 0 0,0 0.7318441239202984,0.8927308349927237 l -36.01280660714677 29.009367789896004" fill="#35ff66" stroke="none" /><line stroke="#e1ed5e" stroke-width="0.3" x1="172.87174338648825" x2="177.1583165268699" y1="56.24261187166439" y2="53.66864786411523" /><path d="M 173.72905801456457 55.72781907015455 a86.0,86.0 0 0,1 12.242430191666344,42.057860355516425" fill="none" id="id51" stroke="none" /><text fill="#e1ed5e" style="font-size:6.75px; font-family:Arial;" text-anchor="middle"><textPath startOffset="22.145653131862474" xlink:href="#id51">March</textPath></text><path d="M 119.16976305983485 91.42560881287824 l 42.20691412005464 -18.87861583562626 a67.23662763877601,67.23662763877601 0 0,0 0.4622233770705034,1.0576575433069137 l -42.52477137914211 18.151296222543497" fill="#35ff66" stroke="none" /><path d="M 119.4528033332814 92.08871423366111 l 33.14407628977231 -13.47940728630677 a56.78022098719329,56.78022098719329 0 0,0 0.35944941970255934,0.9060473473903543 l -33.370584384440996 12.908458921702852" fill="#7aff26" stroke="none" /><path d="M 120.43855184770803 95.1765574152323 l 18.270017141637922 -4.311674298749034 a39.77189552533884,39.77189552533884 0 0,0 0.15111263229453756,0.6658301400415815 l -18.341340635490127 3.997409824768426" fill="#ff9b0e" stroke="none" /><path d="M 120.51834098615036 95.52812308129327 l 22.652522489333855 -4.937011844130724 a44.18428047360675,44.18428047360675 0 0,0 0.15515476131914246,0.7424716995679695 l -22.733934961477367 4.5474236932773495" fill="#ffdc14" stroke="none" /><path d="M 120.592083275326 95.88100663000786 l 22.675582507937023 -4.535751568313508 a44.1247720932276,44.1247720932276 0 0,0 0.14219461570254877,0.7440223150810227 l -22.75010341592173 4.14582668819917" fill="#ffdb14" stroke="none" /><path d="M 120.7213421655516 96.59031103205396 l 45.53979569968899 -7.493556052459149 a67.15220877358698,67.15220877358698 0 0,0 0.17740496868468106,1.139067160693278 l -45.661722160511935 6.71070070983443" fill="#35ff65" stroke="none" /><path d="M 120.77682067341334 96.94652285012252 l 22.847063376543694 -3.3577315345147953 a44.09248072402961,44.09248072402961 0 0,0 0.10362884297211686,0.7498066850958728 l -22.901336736071023 2.9650365412188373" fill="#ffdb14" stroke="none" /><path d="M 120.96210409425399 98.7389718711861 l 23.153954707980002 -1.3928844188904488 a44.19581310546317,44.19581310546317 0 0,0 0.03905733542437007,0.7577018729817663 l -23.174453632860946 0.9952107525319519" fill="#ffdc14" stroke="none" /><path d="M 120.98066250479742 99.09900007780936 l 32.28882618508452 -1.3866211266558481 a53.31858620916899,53.31858620916899 0 0,0 0.03142067586780966,0.9147786949267378 l -32.307871547949176 0.8321361671649904" fill="#a6ff21" stroke="none" /><path d="M 120.99303781780057 99.45929381324524 l 18.973190583612006 -0.48868208689346426 a39.97948289875448,39.97948289875448 0 0,0 0.011781703074709708,0.686225138515144 l -18.97878371828538 0.1629100324092539" fill="#ff9e0e" stroke="none" /><line stroke="#e1ed5e" stroke-width="0.3" x1="184.99686870605535" x2="189.99668451229388" y1="99.2704041080226" y2="99.22748670261217" /><path d="M 185.99683186730306 99.26182062694052 a86.0,86.0 0 0,1 -10.086455211305974,41.156179273409016" fill="none" id="id52" stroke="none" /><text fill="#e1ed5e" style="font-size:6.75px; font-family:Arial;" text-anchor="middle"><textPath startOffset="21.40746469413373" xlink:href="#id52">April</textPath></text><path d="M 120.99922638620191 100.18025310272382 l 13.88846754466461 0.11921579018977091 a34.88897919732882,34.88897919732882 0 0,0 -0.010281563534062194,0.5988495309699094 l -13.884374549531879 -0.35761223712875145" fill="#ff4f07" stroke="none" /><path d="M 120.99303781780057 100.54070618675476 l 21.33751861322041 0.5495787900872635 a42.34459503986996,42.34459503986996 0 0,0 -0.02495369607667626,0.726499634401656 l -21.32494023014689 -0.9157846890530302" fill="#ffc112" stroke="none" /><path d="M 120.98066250479742 100.90099992219065 l 17.602408519775235 0.7559231603415255 a38.61863233969642,38.61863233969642 0 0,0 -0.03412859207551265,0.6620855687382997 l -17.586838338243147 -1.057980522456556" fill="#ff8a0c" stroke="none" /><path d="M 120.93736805541906 101.62068470465957 l 47.869916406565295 3.70543428037855 a69.0131142499396,69.0131142499396 0 0,0 -0.10156882608631213,1.1803837187446382 l -47.79925395778124 -4.526639046498846" fill="#38ff7d" stroke="none" /><path d="M 120.86939407059847 102.33845913500097 l 32.18956075085434 3.606907423131799 a53.39101113722734,53.39101113722734 0 0,0 -0.10987848161133468,0.909951451498399 l -32.122900182983344 -4.1589525515536065" fill="#a5ff21" stroke="none" /><path d="M 120.77682067341334 103.0534771498775 l 40.31405158013752 5.924777291669672 a61.74709487511807,61.74709487511807 0 0,0 -0.16312555659373232,1.0473830917103342 l -40.206404531405525 -6.615948565311457" fill="#40ff2d" stroke="none" /><path d="M 120.7213421655516 103.40968896794604 l 45.65541244089785 7.512580743227721 a67.26938031324826,67.26938031324826 0 0,0 -0.1972760506559854,1.1378358361133534 l -45.519721572749624 -8.295209612261662" fill="#35ff66" stroke="none" /><path d="M 120.65975698304385 103.76489593502545 l 30.252840547562457 5.513075322907793 a51.75107088724381,51.75107088724381 0 0,0 -0.1667708021575522,0.8726153075215307 l -30.153743453122747 -6.031593195462638" fill="#baff1f" stroke="none" /><path d="M 120.592083275326 104.11899336999214 l 46.063155417986465 9.213921157503659 a67.97563868813567,67.97563868813567 0 0,0 -0.2386990097637628,1.142261171733817 l -45.898198697398335 -10.003298780522885" fill="#36ff70" stroke="none" /><path d="M 120.26092885502905 105.52220625578681 l 44.62718485806655 12.163337681342243 a67.25507984974628,67.25507984974628 0 0,0 -0.3131572915882257,1.1112847516729716 l -44.41180907440374 -12.927630356918224" fill="#35ff66" stroke="none" /><path d="M 120.16314734710363 105.8691983318838 l 22.262598578904512 6.480317987730934 a44.18658699997803,44.18658699997803 0 0,0 -0.21824740048178567,0.726474615083781 l -22.148074858419097 -6.861530206405438" fill="#ffdc14" stroke="none" /><path d="M 120.05942366710727 106.21446072829308 l 44.17144754655523 13.684427361691508 a67.24262460734134,67.24262460734134 0 0,0 -0.3510554409861536,1.0996761688584185 l -43.93002738979182 -14.44067256424131" fill="#35ff66" stroke="none" /><path d="M 119.4528033332814 107.91128576633889 l 12.852874781065346 5.2271522808237805 a34.87514003910111,34.87514003910111 0 0,0 -0.23029907579019743,0.5526339444616997 l -12.761249860738662 -5.447018734726758" fill="#ff4f07" stroke="none" /><path d="M 119.0197475246899 108.90220220490707 l 41.79807090624579 19.56360769244807 a67.14990224721569,67.14990224721569 0 0,0 -0.497615124553861,1.039824223730712 l -41.456076523732015 -20.278244418243883" fill="#35ff65" stroke="none" /><path d="M 118.8641267826498 109.22738970284198 l 9.634076918696605 4.712509790685433 a31.724886321200273,31.724886321200273 0 0,0 -0.24349618717138027,0.4871554859720773 l -9.551760818313493 -4.877197132821256" fill="#ff1c02" stroke="none" /><line stroke="#e1ed5e" stroke-width="0.3" x1="174.33088141563837" x2="178.70328620479359" y1="141.23008692659167" y2="143.65538615756765" /><path d="M 175.20536237346943 141.71514677278685 a86.0,86.0 0 0,1 -30.301960400862466,31.631185727798858" fill="none" id="id53" stroke="none" /><text fill="#e1ed5e" style="font-size:6.75px; font-family:Arial;" text-anchor="middle"><textPath startOffset="22.145653131862474" xlink:href="#id53">May</textPath></text><path d="M 118.36410011445183 110.18625677009912 l 32.32344638689634 17.929270834912725 a57.963007710388155,57.963007710388155 0 0,0 -0.49010934439873943,0.8659762501822206 l -32.01090367747622 -18.48150385519407" fill="#6cff28" stroke="none" /><path d="M 118.00360718960297 110.81064883170644 l 7.766905555359114 4.6638036246706704 a30.059574281132615,30.059574281132615 0 0,0 -0.2694368978353123,0.44010492364500614 l -7.685700693068397 -4.796445664440233" fill="#ff0000" stroke="none" /><path d="M 117.62189284568427 111.42229804090321 l 38.899158451111894 25.213964541711295 a67.35610570480856,67.35610570480856 0 0,0 -0.6372386710960801,0.9648605672727416 l -38.460595341095086 -25.8780049873231" fill="#35ff68" stroke="none" /><path d="M 117.21940702142032 112.02048342749411 l 30.55902892721319 21.33257552498345 a58.268391801946265,58.268391801946265 0 0,0 -0.5795898704936759,0.8152657368773835 l -30.188323958189553 -21.85401848857034" fill="#68ff28" stroke="none" /><path d="M 116.79662413953412 112.60449989151573 l 33.802823274372905 25.366268766586607 a63.26202139577796,63.26202139577796 0 0,0 -0.6592746805255092,0.8630117198094548 l -33.36239661649309 -25.942801399636938" fill="#2fff30" stroke="none" /><path d="M 116.1254893667686 113.45245675266167 l 35.45992384202208 29.581929644909106 a67.17896447949389,67.17896447949389 0 0,0 -0.7463436967156367,0.8791909980764879 l -34.94688558179933 -30.186287425435154" fill="#35ff65" stroke="none" /><path d="M 115.6541949942343 113.99807769240083 l 24.25071149492326 21.685135756068167 a53.53217055114997,53.53217055114997 0 0,0 -0.6184298883158854,0.6797627802299931 l -23.874883905765493 -22.09823611185583" fill="#a3ff22" stroke="none" /><path d="M 115.41159269507618 114.26474011684316 l 33.923582242326155 31.39916127382096 a67.22463370164532,67.22463370164532 0 0,0 -0.7911512404084977,0.8401752008142754 l -33.3795751681814 -31.97687793457973" fill="#35ff66" stroke="none" /><path d="M 115.16444852881244 114.52719865689866 l 23.40541006812863 22.42185339347173 a53.412231179843154,53.412231179843154 0 0,0 -0.6399629688015683,0.6566583836508366 l -23.017060298176258 -22.820334469190303" fill="#a5ff21" stroke="none" /><path d="M 114.91283532996324 114.78537596483092 l 32.82016196654501 32.53964944727974 a67.21679151198296,67.21679151198296 0 0,0 -0.819430558571773,0.8124269206682709 l -32.25673948784327 -33.09825637817668" fill="#35ff66" stroke="none" /><path d="M 114.65682725009322 115.03919595460226 l 22.572344635668458 23.161214111224112 a53.341190167607586,53.341190167607586 0 0,0 -0.6612466398723305,0.6334593229935519 l -22.171425509930813 -23.545285564523244" fill="#a5ff21" stroke="none" /><path d="M 114.39649973595853 115.28858382429668 l 31.6980419026557 33.66222203890133 a67.23755024932453,67.23755024932453 0 0,0 -0.8470978117024957,0.7840610880758082 l -31.115514319639235 -34.20140087310951" fill="#35ff66" stroke="none" /><path d="M 113.86319453409587 115.77377054828091 l 30.50706761070497 34.71144283582227 a67.21217845924039,67.21217845924039 0 0,0 -0.8731838806438932,0.7542354392261196 l -29.90670425029822 -35.23002240751311" fill="#35ff66" stroke="none" /><path d="M 113.59037401385872 116.0094264158162 l 29.904614479894313 35.22756066323196 a67.20894932232059,67.20894932232059 0 0,0 -0.885960102210993,0.7390994275273576 l -29.295480043521426 -35.73572227467119" fill="#35ff66" stroke="none" /><path d="M 113.31354834802062 116.24036423190432 l 11.72404116985811 14.301423924798028 a39.492805834413375,39.492805834413375 0 0,0 -0.5279797530724354,0.4253031153494481 l -11.476810646430422 -14.50057533394088" fill="#ff970d" stroke="none" /><path d="M 113.03279911837588 116.46651593811092 l 28.659103216945653 36.20984069557353 a67.17896447949389,67.17896447949389 0 0,0 -0.9104031057412875,0.7079349615483851 l -28.033290166569135 -36.69647670874271" fill="#35ff65" stroke="none" /><path d="M 112.45986205192187 116.90419585922612 l 27.39374148159393 37.164871440165314 a67.16973837400874,67.16973837400874 0 0,0 -0.9340399587344262,0.6761728990160797 l -26.751720512485537 -37.62964511055447" fill="#35ff65" stroke="none" /><path d="M 111.8722381534696 117.32195027204791 l 26.09112303287816 38.06772824762783 a67.1508248577642,67.1508248577642 0 0,0 -0.9564314748716806,0.6435297804742008 l -25.433795269909474 -38.51000770215915" fill="#35ff65" stroke="none" /><path d="M 111.5731344415666 117.5232005979908 l 25.471674957798967 38.56736237757818 a67.21955934362849,67.21955934362849 0 0,0 -0.9683277378476282,0.6276583406690086 l -24.805861587694327 -38.99893455995108" fill="#35ff66" stroke="none" /><path d="M 111.27062007382361 117.71928675628689 l 24.779865605273326 38.95806455776735 a67.17112228983152,67.17112228983152 0 0,0 -0.9782542240801535,0.6105029871956023 l -24.107447252403457 -39.377703341804505" fill="#35ff65" stroke="none" /><line stroke="#e1ed5e" stroke-width="0.3" x1="143.1302829299769" x2="145.66735839644613" y1="173.24464959558577" y2="177.55315839532614" /><path d="M 143.63769802327073 174.10635135553383 a86.0,86.0 0 0,1 -40.68552437913181,11.842963189579606" fill="none" id="id54" stroke="none" /><text fill="#e1ed5e" style="font-size:6.75px; font-family:Arial;" text-anchor="middle"><textPath startOffset="21.407464694133747" xlink:href="#id54">June</textPath></text><path d="M 110.65571695917076 118.09573695890943 l 23.436585034751065 39.80044511589321 a67.18819058497903,67.18819058497903 0 0,0 -0.9988885319743575,0.5767085628258276 l -22.74990403491631 -40.19690057599521" fill="#35ff65" stroke="none" /><path d="M 110.34350942703117 118.27599006163325 l 22.73081797310424 40.163177333564406 a67.14944094194144,67.14944094194144 0 0,0 -1.0080595961436256,0.5591536651338854 l -22.03801418880452 -40.547463914131434" fill="#35ff65" stroke="none" /><path d="M 109.71004243097381 118.62028667847754 l 21.34874078666403 40.93902539541464 a67.17112228983152,67.17112228983152 0 0,0 -1.026991374010139,0.5243891131728279 l -20.642822190940308 -41.2994724602603" fill="#35ff65" stroke="none" /><path d="M 109.3889696526874 118.78422872680471 l 20.64570964508739 41.30524930278332 a67.17758056367111,67.17758056367111 0 0,0 -1.0359414735674526,0.5067308864110852 l -19.93360792225787 -41.653573939291626" fill="#35ff65" stroke="none" /><path d="M 109.06512990194946 118.94263497670748 l 19.944161969328654 41.67562783850226 a67.20202974320674,67.20202974320674 0 0,0 -1.0448676743761773,0.48905083006980676 l -19.225805581080973 -42.011854900142595" fill="#35ff65" stroke="none" /><path d="M 108.4095320186766 119.2426549942271 l 18.484603230297154 42.29638960596516 a67.15912835270083,67.15912835270083 0 0,0 -1.0603624449467912,0.4526056746992879 l -17.75580571017993 -42.60746993032385" fill="#35ff65" stroke="none" /><path d="M 108.07796709384702 119.3841803445677 l 17.75846743076969 42.61385709077393 a67.16604793181469,67.16604793181469 0 0,0 -1.0680858126808823,0.434381201635551 l -17.02432715689837 -42.912425548988764" fill="#35ff65" stroke="none" /><path d="M 107.407793817531 119.65005319985036 l 16.27377888781105 43.168131941160205 a67.13375656261671,67.13375656261671 0 0,0 -1.0818472148095446,0.39726928242340587 l -15.530342521347379 -43.44113207259233" fill="#35ff65" stroke="none" /><path d="M 107.06938296918513 119.77432235084164 l 15.549288213025003 43.49412654410788 a67.19003580607605,67.19003580607605 0 0,0 -1.089419969907486,0.3789568169830561 l -14.800362471072495 -43.75464179365952" fill="#35ff65" stroke="none" /><path d="M 106.72888874123015 119.89276391827305 l 14.78395523406534 43.70613671282284 a67.13883092063352,67.13883092063352 0 0,0 -1.094929667201439,0.35992512967574014 l -14.031502829216167 -43.953482763900595" fill="#35ff65" stroke="none" /><path d="M 106.0420521117495 120.11202640906438 l 13.456350709525367 44.791815071128724 a67.7694352305428,67.7694352305428 0 0,0 -1.117033879600266,0.32515228252544087 l -12.685456817543493 -45.01621104795668" fill="#36ff6d" stroke="none" /><path d="M 105.69591212413111 120.21278271476187 l 10.999317683813493 39.03269810144325 a61.552885354655885,61.552885354655885 0 0,0 -1.0194875405944634,0.2778658626487454 l -10.327648742284335 -39.21576445823614" fill="#42ff2d" stroke="none" /><path d="M 104.9986988182912 120.39639698878246 l 10.994436172489179 44.8610514442992 a67.18865189025328,67.18865189025328 0 0,0 -1.1225875038978175,0.2649275942725865 l -10.222716514851482 -45.043175182218015" fill="#35ff65" stroke="none" /><path d="M 104.64783097203109 120.47920084513623 l 8.850206096886632 38.99564103549731 a60.98732508841684,60.98732508841684 0 0,0 -1.0229537145717664,0.2229480009220301 l -8.17948996569573 -39.14182049455305" fill="#49ff2c" stroke="none" /><path d="M 104.29559338865022 120.5559693870025 l 9.44505898637927 45.19802639966647 a67.17435142675131,67.17435142675131 0 0,0 -1.1307794910254785,0.22618756753174082 l -8.667783009822832 -45.35350336386107" fill="#35ff65" stroke="none" /><path d="M 103.58742460773223 120.69131181640829 l 8.923603459916414 51.468973401459166 a73.23682534103641,73.23682534103641 0 0,0 -1.240570779941881,0.20413544974688227 l -8.03875517692146 -51.614574849701725" fill="#3effb2" stroke="none" /><path d="M 103.2317021107853 120.74984581791261 l 3.9259185495386717 25.2072133519804 a46.5111042769589,46.5111042769589 0 0,0 -0.7899687240978212,0.11609819837533074 l -3.4926247198331652 -25.270892623654614" fill="#fffd17" stroke="none" /><path d="M 102.51750503828377 120.84855314841334 l 5.538699110433678 45.86837405325198 a67.20156843793248,67.20156843793248 0 0,0 -1.1464718727346697,0.12846456465140713 l -4.750491336098209 -45.95669437841036" fill="#35ff65" stroke="none" /><path d="M 102.15924093988457 120.88869738790638 l 4.743803442670189 45.891995076262106 a67.13652439426224,67.13652439426224 0 0,0 -1.1473965675196804,0.1086596478878278 l -3.955307311765493 -45.96666647965512" fill="#35ff65" stroke="none" /><path d="M 101.08105385017728 120.97215588758144 l 2.0454603679715735 39.68138468951826 a60.734068492849765,60.734068492849765 0 0,0 -1.041659377382347,0.04473333564924056 l -1.3639752299883972 -39.71065059359333" fill="#4cff2c" stroke="none" /><path d="M 100.72087961077811 120.9876233191556 l 1.5838986980042662 46.11348240732338 a67.14067614173055,67.14067614173055 0 0,0 -1.1522193221794168,0.02967708253602982 l -0.7920660617541057 -46.13387720720946" fill="#35ff65" stroke="none" /><line stroke="#e1ed5e" stroke-width="0.3" x1="101.45913802915013" x2="101.54496967792366" y1="184.9874750549273" y2="189.98673829345242" /><path d="M 101.47630435890484 185.9873277026323 a86.0,86.0 0 0,1 -42.54439059252881,-10.42667462771756" fill="none" id="id55" stroke="none" /><text fill="#e1ed5e" style="font-size:6.75px; font-family:Arial;" text-anchor="middle"><textPath startOffset="22.145653131862474" xlink:href="#id55">July</textPath></text><path d="M 100.0 121.0 l 5.652128462020878e-15 46.15313138413549 a67.15313138413549,67.15313138413549 0 0,0 -1.15277279740125,-0.009895168024081868 l 0.7922798725523923 -46.146330614305846" fill="#35ff65" stroke="none" /><path d="M 99.63950707515114 120.99690560180557 l -0.7922640347154813 46.14540813970611 a67.15220877358698,67.15220877358698 0 0,0 -1.1524172367972632,-0.029682180114526616 l 1.5842945855834882 -46.12500824224154" fill="#35ff65" stroke="none" /><path d="M 99.27912038922189 120.98762331915562 l -1.5839937110232707 46.116248607703746 a67.1434439733761,67.1434439733761 0 0,0 -1.1515875649405205,-0.04945412501487649 l 2.37540703656463 -46.082261914263036" fill="#35ff65" stroke="none" /><path d="M 98.55909050195518 120.95050786540614 l -3.1662785804520253 46.03699565714412 a67.14575049974738,67.14575049974738 0 0,0 -1.1492506951759711,-0.0889592721759983 l 3.956098270403232 -45.97585861797307" fill="#35ff65" stroke="none" /><path d="M 98.19965949673042 120.92268563240118 l -3.957245160427941 45.98918721853409 a67.15912835270083,67.15912835270083 0 0,0 -1.147782880403149,-0.10869623211954026 l 4.746127604216105 -45.91447923090937" fill="#35ff65" stroke="none" /><path d="M 97.48249496171623 120.84855314841334 l -5.5474367989878 45.94073464893877 a67.27445467126509,67.27445467126509 0 0,0 -1.1453385507228449,-0.14828700586769547 l 6.335253171601439 -45.83873604687068" fill="#35ff66" stroke="none" /><path d="M 97.12497278360702 120.80226474461374 l -3.9778483233642685 28.781728904938085 a50.055312699075195,50.055312699075195 0 0,0 -0.8501653986055692,-0.12494503654163537 l 4.471338827577523 -28.709202795097568" fill="#d0ff1d" stroke="none" /><path d="M 96.76829788921471 120.74984581791261 l -7.105087664651843 45.61975965304977 a67.16973837400874,67.16973837400874 0 0,0 -1.137799383508326,-0.18722445557284714 l 7.887164551213233 -45.49106919898126" fill="#35ff65" stroke="none" /><path d="M 96.05791012581884 120.62667999033965 l -8.672978743681549 45.38068963891809 a67.20202974320674,67.20202974320674 0 0,0 -1.131245413984603,-0.22628076517249887 l 9.45072064319711 -45.225119477082735" fill="#35ff65" stroke="none" /><path d="M 95.70440661134978 120.55596938700252 l -12.886780165950636 61.667908161007546 a84.0,84.0 0 0,0 -1.4089503335234541,-0.30707416746512495 l 13.943492916093227 -61.43760253540871" fill="#4dd2ff" stroke="none" /><path d="M 95.00130118170881 120.39639698878247 l -10.990373350261335 44.844473743168244 a67.17158359510577,67.17158359510577 0 0,0 -1.117590273990426,-0.28408707734559857 l 11.758568917477138 -44.649201433987386" fill="#35ff65" stroke="none" /><path d="M 94.30408787586889 120.21278271476187 l -2.7604334793968026 9.795804587858367 a31.17731696065725,31.17731696065725 0 0,0 -0.5138912431779343,-0.14958625135787318 l 2.9281847349563437 -9.746974642197976" fill="#ff1302" stroke="none" /><path d="M 92.59220618246901 119.65005319985036 l -16.280287943732244 43.18539798531357 a67.15220877358698,67.15220877358698 0 0,0 -1.0751635821193044,-0.41589637070811314 l 17.019223788345077 -42.89956172646742" fill="#35ff65" stroke="none" /><path d="M 92.25597844496254 119.51999308798841 l -17.01326985836625 42.884553933525844 a67.136063088988,67.136063088988 0 0,0 -1.0676089886573643,-0.43418728145624946 l 17.746933308214054 -42.586179395490305" fill="#35ff65" stroke="none" /><path d="M 91.92203290615298 119.3841803445677 l -17.702571298384694 42.479726721322464 a67.02073677042374,67.02073677042374 0 0,0 -1.0581774071098984,-0.4516730119770996 l 18.429183780665024 -42.16957905968596" fill="#35ff63" stroke="none" /><path d="M 91.26138138417905 119.09545874513695 l -19.259398671557594 42.08526186542168 a67.2827581662017,67.2827581662017 0 0,0 -1.0461228525295254,-0.48963831682323194 l 19.979010237958608 -41.74844731702792" fill="#35ff67" stroke="none" /><path d="M 90.93487009805054 118.94263497670748 l -10.024154254645655 20.946627025733765 a44.22164620082157,44.22164620082157 0 0,0 -0.681939375375953,-0.33357072091426726 l 10.382253879283677 -20.771462554722277" fill="#ffdd14" stroke="none" /><path d="M 90.28995756902619 118.62028667847754 l -21.343194994356736 40.92839060742525 a67.15912835270083,67.15912835270083 0 0,0 -1.0176564649454867,-0.5418447478551324 l 22.042640275088782 -40.55597539184755" fill="#35ff65" stroke="none" /><path d="M 89.97174638481275 118.45085714620012 l -22.04946925960366 40.56853995419037 a67.1734288162028,67.1734288162028 0 0,0 -1.008419706466203,-0.5593534122594439 l 22.742633154225967 -40.18405362649778" fill="#35ff65" stroke="none" /><line stroke="#e1ed5e" stroke-width="0.3" x1="58.13341422392154" x2="55.67067388415222" y1="173.97424548756322" y2="178.32567169271397" /><path d="M 57.64086615596768 174.84453072859336 a86.0,86.0 0 0,1 -31.369924170532247,-30.572349798747897" fill="none" id="id56" stroke="none" /><text fill="#e1ed5e" style="font-size:6.75px; font-family:Arial;" text-anchor="middle"><textPath startOffset="22.145653131862474" xlink:href="#id56">August</textPath></text><path d="M 89.65649057296885 118.27599006163327 l -22.740588219031817 40.180440421951616 a67.16927706873449,67.16927706873449 0 0,0 -0.998607344249078,-0.5765462190169469 l 23.426988031141295 -39.7841473056585" fill="#35ff65" stroke="none" /><path d="M 89.34428304082925 118.09573695890944 l -12.165957624780873 20.660455779261426 a44.97634162950597,44.97634162950597 0 0,0 -0.6619387584553733,-0.3974752054071348 l 12.518829139793674 -20.448566573318374" fill="#ffe815" stroke="none" /><path d="M 89.03521579738668 117.91015095944536 l -24.099498789457545 39.36472012493256 a67.15589921578103,67.15589921578103 0 0,0 -0.9780325211223168,-0.6103646281528277 l 24.771695439369573 -38.94521969993818" fill="#35ff65" stroke="none" /><path d="M 88.1277618465304 117.32195027204791 l -26.103641263912277 38.08599272081849 a67.17296751092854,67.17296751092854 0 0,0 -0.9455551874597928,-0.6600709563635115 l 26.753591542545834 -37.63227694864985" fill="#35ff65" stroke="none" /><path d="M 87.83215693770417 117.11559508785305 l -26.757066312657862 37.637164647969804 a67.17896447949389,67.17896447949389 0 0,0 -0.9341682538774212,-0.6762657748057737 l 27.39921557690924 -37.172298101790965" fill="#35ff65" stroke="none" /><path d="M 87.54013794807813 116.9041958592261 l -27.38361440526063 37.151132116157854 a67.15267007886123,67.15267007886123 0 0,0 -0.9220605573286215,-0.6919314320706036 l 28.017327951500018 -36.67558165682323" fill="#35ff65" stroke="none" /><path d="M 86.96720088162412 116.46651593811092 l -19.86798306827426 25.1025475709646 a53.01366342288513,53.01366342288513 0 0,0 -0.7087402460295444,-0.5709109731117777 l 20.295974084659065 -24.75778830405941" fill="#aaff21" stroke="none" /><path d="M 86.68645165197938 116.24036423190432 l -29.261847416936558 35.69469593882626 a67.15589921578103,67.15589921578103 0 0,0 -0.8852607864459721,-0.7385160334441438 l 29.870282537544423 -35.187117721470244" fill="#35ff65" stroke="none" /><path d="M 86.13680546590413 115.77377054828092 l -33.52193099597281 38.14180393741887 a71.77910067438438,71.77910067438438 0 0,0 -0.9185502235415831,-0.8213732739526332 l 34.17174624633777 -37.56073513358285" fill="#3cffa0" stroke="none" /><path d="M 85.86807049272751 115.53346607816431 l -35.72888787602997 39.27230655567875 a74.09300793005733,74.09300793005733 0 0,0 -0.9334668596233955,-0.8640029894163849 l 36.39778450696734 -38.65318582012999" fill="#3fffbd" stroke="none" /><path d="M 85.60350026404147 115.28858382429668 l -21.244506354205253 22.560929542534062 a51.989104408760404,51.989104408760404 0 0,0 -0.6444854434676771,-0.6174024759914956 l 21.628664283538242 -22.192914936236985" fill="#b7ff1f" stroke="none" /><path d="M 85.08716467003676 114.78537596483092 l -37.148923384951836 36.83141312716191 a73.31247940601455,73.31247940601455 0 0,0 -0.8783994028053678,-0.9013151700421087 l 37.77570958890801 -36.18827526505206" fill="#3effb3" stroke="none" /><path d="M 84.83555147118756 114.52719865689866 l -23.4513801029896 22.465891646984286 a53.47589130769062,53.47589130769062 0 0,0 -0.6293454558309501,-0.6683430647992195 l 23.833581392556802 -22.060007122240577" fill="#a4ff21" stroke="none" /><path d="M 84.3458050057657 113.99807769240083 l -44.72602578751587 39.99428805355784 a80.99967049623268,80.99967049623268 0 0,0 -0.9179535905287143,-1.044462679605242 l 45.40599044200318 -39.2206130961413" fill="#49f2ff" stroke="none" /><path d="M 84.1078160697243 113.72728997021213 l -35.92960855180846 31.03514012113068 a68.47753882652725,68.47753882652725 0 0,0 -0.7607705755181721,-0.8961858250300025 l 36.45707369083374 -30.413787513651123" fill="#37ff76" stroke="none" /><path d="M 83.8745106332314 113.45245675266167 l -38.9897988840854 32.52667694935464 a71.77587153746458,71.77587153746458 0 0,0 -0.7811716067527154,-0.9529023435117641 l 39.54241731007675 -31.85257232414438" fill="#3cffa0" stroke="none" /><line stroke="#e1ed5e" stroke-width="0.3" x1="26.387840678322732" x2="22.057713659400548" y1="142.50000000000003" y2="145.00000000000006" /><path d="M 25.521815274538298 143.00000000000003 a86.0,86.0 0 0,1 -11.493303480769221,-40.785679425670985" fill="none" id="id57" stroke="none" /><text fill="#e1ed5e" style="font-size:6.75px; font-family:Arial;" text-anchor="middle"><textPath startOffset="21.40746469413373" xlink:href="#id57">September</textPath></text><line stroke="#e1ed5e" stroke-width="0.3" x1="15.003131293944662" x2="10.003315487706104" y1="100.72959589197737" y2="100.7725132973878" /><path d="M 14.003168132696942 100.73817937305945 a86.0,86.0 0 0,1 10.791469493833604,-42.45332614584628" fill="none" id="id58" stroke="none" /><text fill="#e1ed5e" style="font-size:6.75px; font-family:Arial;" text-anchor="middle"><textPath startOffset="22.145653131862435" xlink:href="#id58">October</textPath></text><line stroke="#e1ed5e" stroke-width="0.3" x1="26.387840678322718" x2="22.05771365940052" y1="57.49999999999999" y2="54.99999999999999" /><path d="M 25.521815274538284 56.99999999999999 a86.0,86.0 0 0,1 29.574782752854787,-30.34633250058573" fill="none" id="id59" stroke="none" /><text fill="#e1ed5e" style="font-size:6.75px; font-family:Arial;" text-anchor="middle"><textPath startOffset="21.40746469413373" xlink:href="#id59">November</textPath></text><line stroke="#e1ed5e" stroke-width="0.3" x1="56.869717070023135" x2="54.33264160355391" y1="26.7553504044142" y2="22.446841604673864" /><path d="M 56.362301976729285 25.89364864446614 a86.0,86.0 0 0,1 42.16139366436587,-11.88097634709845" fill="none" id="id60" stroke="none" /><text fill="#e1ed5e" style="font-size:6.75px; font-family:Arial;" text-anchor="middle"><textPath startOffset="22.145653131862474" xlink:href="#id60">December</textPath></text></svg>