<?xml version="1.0" encoding="utf-8" ?>
<svg baseProfile="full" height="200mm" version="1.1" viewBox="0,0,200,200" width="200mm" xmlns="http://www.w3.org/2000/svg" xmlns:ev="http://www.w3.org/2001/xml-events" xmlns:xlink="http://www.w3.org/1999/xlink"><defs /><rect fill="#1a1a1a" height="200" width="200" x="0" y="0" /><text alignment-baseline="middle" fill="#e1ed5e" style="dominant-baseline: central; font-size:9.0px; font-family:Arial;" text-anchor="middle" x="100.0" y="100.0">2021</text><line stroke="#e1ed5e" stroke-width="0.3" x1="100.0" x2="100.0" y1="15.0" y2="10.0" /><path d="M 100.0 14.0 a86.0,86.0 0 0,1 42.46469731375804,11.215312516191453" fill="none" id="id13" stroke="none" /><text fill="#e1ed5e" style="font-size:6.75px; font-family:Arial;" text-anchor="middle"><textPath startOffset="22.20632615414155" xlink:href="#id13">January</textPath></text><path d="M 100.0 79.0 l 0.0 -53.406439570695284 a74.40643957069528,74.40643957069528 0 0,0 1.280784544617969,0.011024116933638587 l -0.9193040653454407 53.3985268303702" fill="#40ffc8" stroke="none" /><path d="M 100.36148047927253 79.00311137660856 l 0.4747820856803518 -27.57810489095878 a48.582191490264286,48.582191490264286 0 0,0 0.8360147623068602,0.021591794826586817 l -0.9494234831820798 27.565846303989836" fill="#c7ff1e" stroke="none" /><path d="M 100.72285384407766 79.0124445844662 l 1.328303606464743 -38.566365493848174 a59.589233445043064,59.589233445043064 0 0,0 1.0248189499795028,0.04413085975004331 l -1.9919633888335773 38.53778690757393" fill="#48ff2c" stroke="none" /><path d="M 101.44485096284872 79.0497635885617 l 1.3148493129864962 -19.06522171544455 a40.11050778432953,40.11050778432953 0 0,0 0.6883914531014546,0.05343242565496054 l -1.642830955450292 19.039764027601123" fill="#ffc812" stroke="none" /><path d="M 102.52436894288641 79.15227682838746 l 2.9113824481505426 -24.043908279244484 a45.21953081915751,45.21953081915751 0 0,0 0.7719302753549286,0.1002187042883138 l -3.324827452013317 23.990231251792036" fill="#f2ff19" stroke="none" /><path d="M 103.2404852339499 79.25152402106235 l 4.6724223874862165 -29.917014481204383 a51.27968438467738,51.27968438467738 0 0,0 0.8709507494490861,0.1437143362530875 l -5.186702343074178 29.83215388201167" fill="#a6ff21" stroke="none" /><path d="M 103.95276090670814 79.375362276772 l 3.4050565539198687 -17.76683677793875 a39.09018792686548,39.09018792686548 0 0,0 0.6597559838820839,0.13234084370469568 l -3.710378947269078 17.705591978156846" fill="#ffba11" stroke="none" /><path d="M 104.307194497241 79.44645832069477 l 6.140396991230694 -29.301417794711373 a50.937895049420945,50.937895049420945 0 0,0 0.8566232501431903,0.18722466348687983 l -6.643862965527412 29.191379633128623" fill="#aaff21" stroke="none" /><path d="M 104.66035177308747 79.52364482259891 l 6.6118357739421185 -29.05066060972308 a50.79357739787045,50.79357739787045 0 0,0 0.8508560658574554,0.20137014073151882 l -7.110915526762097 28.932544556850694" fill="#acff20" stroke="none" /><path d="M 105.01212808612495 79.60689891045804 l 7.148266047858093 -29.084514526366497 a50.95006999533364,50.95006999533364 0 0,0 0.8498741257257706,0.21665183788427425 l -7.647849062268889 28.957159692313354" fill="#aaff21" stroke="none" /><path d="M 105.36241919743992 79.69619591428918 l 7.770689021825056 -29.422270378534193 a51.43112883383532,51.43112883383532 0 0,0 0.8540068182840782,0.233432323731495 l -8.275993729332846 29.284151513976404" fill="#a4ff21" stroke="none" /><path d="M 105.71112130821622 79.79150937346287 l 8.172946587980679 -28.919524836004975 a51.05222076104017,51.05222076104017 0 0,0 0.8436009529059086,0.2462702512145061 l -8.669537758610014 28.774556255871765" fill="#a9ff21" stroke="none" /><path d="M 106.40334571778207 80.00007090966166 l 9.144273590390297 -28.560822958939884 a50.988970432274215,50.988970432274215 0 0,0 0.8335899726463432,0.2748215079564305 l -9.634546385279057 28.399187726724218" fill="#aaff21" stroke="none" /><path d="M 106.74666289553966 80.11325718540242 l 9.585033269386793 -28.25324081683047 a50.834853434013496,50.834853434013496 0 0,0 0.826230966563557,0.2882557607637241 l -10.069946240013623 28.084064202894538" fill="#acff21" stroke="none" /><path d="M 108.09893153111575 80.62456947434976 l 11.661045904110619 -27.89723359229181 a51.23632969923217,51.23632969923217 0 0,0 0.8107935500126334,0.34713948452670634 l -12.139523211913568 27.692374579802312" fill="#a7ff21" stroke="none" /><path d="M 110.36928655335952 81.73862282372117 l 2.7395714017869217 -4.824666230597063 a26.548211937385993,26.548211937385993 0 0,0 0.39544606862939596,0.22906788722772384 l -2.822214202881646 4.7767941859792895" fill="#ff0000" stroke="none" /><line stroke="#e1ed5e" stroke-width="0.3" x1="143.23703022742887" x2="145.7803849466894" y1="26.81831364943548" y2="22.513508569990506" /><path d="M 143.74570117128098 25.957352633546492 a86.0,86.0 0 0,1 28.547481713284135,27.462654790039103" fill="none" id="id14" stroke="none" /><text fill="#e1ed5e" style="font-size:6.75px; font-family:Arial;" text-anchor="middle"><textPath startOffset="19.985693538727396" xlink:href="#id14">February</textPath></text><path d="M 110.68208982089419 81.91981866633111 l 15.340616272996142 -25.965061952903906 a51.158231875450724,51.158231875450724 0 0,0 0.7543109149463598,0.45446388621274814 l -15.785289254160139 25.697151457232543" fill="#a8ff21" stroke="none" /><path d="M 111.2981086023043 82.29822771554956 l 8.429767112099803 -13.207681310383737 a36.66856148984007,36.66856148984007 0 0,0 0.5291325356418212,0.34416251996047514 l -8.655866673525905 13.060619866263734" fill="#ff980e" stroke="none" /><path d="M 111.60114157652 82.49532879139004 l 16.587471973724472 -25.02841993323713 a51.02608916981292,51.02608916981292 0 0,0 0.7279607989556737,0.4915223810018569 l -17.015837467086687 24.739185639936604" fill="#a9ff21" stroke="none" /><path d="M 112.19680574252982 82.90503203632743 l 17.400010432166013 -24.387747676282164 a50.95868154244262,50.95868154244262 0 0,0 0.7096716709296707,0.5156066498510283 l -17.81722741944947 24.08462179161446" fill="#aaff21" stroke="none" /><path d="M 112.48926042617603 83.11751280151076 l 8.958416046298806 -12.109631720337754 a36.06308064310864,36.06308064310864 0 0,0 0.4958739639532966,0.37348198910423464 l -9.165536164010486 11.953633141727671" fill="#ff8f0d" stroke="none" /><path d="M 114.68862486808459 84.99185889309783 l 10.643795604646488 -10.875326164442404 a36.21719764136937,36.21719764136937 0 0,0 0.44178806923730085,0.43989089086820976 l -10.829419474051111 10.690499422924075" fill="#ff910d" stroke="none" /><path d="M 114.94478906791727 85.2469230424477 l 21.185890547615806 -20.914117438715667 a50.769821405845676,50.769821405845676 0 0,0 0.6085989701553436,0.6272147361048857 l -21.542753781474257 20.546338507060668" fill="#acff20" stroke="none" /><path d="M 115.19652480421416 85.50635884689758 l 10.793725037340417 -10.294483733089185 a35.91579349255504,35.91579349255504 0 0,0 0.4228360861295335,0.4510520552894717 l -10.969328445440414 10.107162260921658" fill="#ff8d0d" stroke="none" /><path d="M 115.68641384162765 86.03803664274999 l 21.96284260988932 -19.54840710160085 a50.402494379162604,50.402494379162604 0 0,0 0.5712477980101177,0.6530349832923099 l -22.296082271477285 19.167456562105592" fill="#b1ff20" stroke="none" /><path d="M 116.15771136456269 86.58626213691792 l 23.32025740689468 -19.359908881758237 a51.30908242480804,51.30908242480804 0 0,0 0.558295366868784,0.684404106193881 l -23.650051265839874 18.955620605956252" fill="#a6ff21" stroke="none" /><path d="M 116.60985879189232 87.15038557335679 l 29.111584831214778 -22.521121047231244 a57.80604929368346,57.80604929368346 0 0,0 0.6020749419580697,0.7922600491854059 l -29.494935713396963 22.016676222164804" fill="#5bff2a" stroke="none" /><path d="M 116.82858285166822 87.43820079747576 l 26.12512616062509 -19.50126114973807 a53.600941755398125,53.600941755398125 0 0,0 0.5455488217908606,0.7441279798226366 l -26.456937594929578 19.04867072624394" fill="#8bff24" stroke="none" /><line stroke="#e1ed5e" stroke-width="0.3" x1="172.23445277983987" x2="176.4835382374775" y1="55.19839476539836" y2="52.563006222186495" /><path d="M 173.08426987136738 54.67131705675599 a86.0,86.0 0 0,1 12.851231095245387,41.99856678651699" fill="none" id="id15" stroke="none" /><text fill="#e1ed5e" style="font-size:6.75px; font-family:Arial;" text-anchor="middle"><textPath startOffset="22.20632615414155" xlink:href="#id15">March</textPath></text><path d="M 117.84615892207809 88.93136811851018 l 27.82192934231407 -17.255852952307755 a53.73872650914181,53.73872650914181 0 0,0 0.48079322529928786,0.7902976463254242 l -28.11483836589958 16.77438753277525" fill="#89ff24" stroke="none" /><path d="M 118.21658344932153 89.55222093294921 l 25.979090586658092 -14.89981914377099 a50.94858524583209,50.94858524583209 0 0,0 0.42976916967905926,0.7645113979264073 l -26.231717397629584 14.45042423590979" fill="#aaff21" stroke="none" /><path d="M 118.56541770881063 90.18545643968196 l 13.088909573465136 -6.919406564435828 a35.80532812963985,35.80532812963985 0 0,0 0.28335751322632746,0.5473565246682561 l -13.20607651985158 6.693077317507227" fill="#ff8c0c" stroke="none" /><path d="M 118.89224826269711 90.83032412892265 l 32.31095653395767 -15.68267547520374 a56.91579349255504,56.91579349255504 0 0,0 0.4202060677150168,0.8850611445157441 l -32.57612079551445 15.124171915047455" fill="#65ff29" stroke="none" /><path d="M 119.34039704204932 91.81776055985345 l 30.32043919254973 -12.827507773726541 a53.92224154753319,53.92224154753319 0 0,0 0.3542904727639824,0.8579424818662035 l -30.53675135219991 12.303690721407035" fill="#87ff25" stroke="none" /><path d="M 119.47837535516314 92.15188598940014 l 31.095330308636953 -12.528750114406039 a54.52445594536122,54.52445594536122 0 0,0 0.3432611792937057,0.8735622600158451 l -31.30638503781236 11.991638849494409" fill="#80ff25" stroke="none" /><path d="M 119.7369772167798 92.82701384747503 l 8.848832698924198 -3.215920741978204 a30.415093539218596,30.415093539218596 0 0,0 0.17459265823972703,0.4935969557439161 l -8.902878437973735 3.063126159807673" fill="#ff3c05" stroke="none" /><path d="M 119.85752413597 93.16781622104841 l 32.542146307074056 -11.196457454065182 a55.41441479658931,55.41441479658931 0 0,0 0.3025698459347904,0.9046453275281202 l -32.730053446780616 10.634639023614747" fill="#76ff27" stroke="none" /><path d="M 120.08093135843002 93.85539295169968 l 28.59187969771965 -8.74889029691392 a50.90047936198194,50.90047936198194 0 0,0 0.2491556720285355,0.8400290641608419 l -28.738241266859887 8.255431846006548" fill="#abff21" stroke="none" /><path d="M 120.18372546131832 94.20196356495316 l 31.538087797149235 -9.059724008336467 a53.81355788401986,53.81355788401986 0 0,0 0.2480887774317102,0.892507330181622 l -31.68936334514731 8.515505374735893" fill="#88ff25" stroke="none" /><path d="M 120.37134235888165 94.90015583598534 l 33.947916359029435 -8.498658560346248 a55.99554575149536,55.99554575149536 0 0,0 0.22602788624863956,0.9370315113508032 l -34.0891770455389 7.913041817336039" fill="#6fff27" stroke="none" /><path d="M 120.6074358757038 95.95851677861258 l 33.0551209151195 -6.482694759559729 a54.68480889152845,54.68480889152845 0 0,0 0.17320573697846214,0.9252719728062014 l -33.16181237600782 5.9127447092909655" fill="#7eff26" stroke="none" /><path d="M 120.73433829027371 96.67025291283417 l 21.092327332149644 -3.387236887550867 a42.36257582827811,42.36257582827811 0 0,0 0.10942476559118365,0.7209724858278249 l -21.147507991180127 3.0236652893309603" fill="#ffe715" stroke="none" /><line stroke="#e1ed5e" stroke-width="0.3" x1="184.98032266829074" x2="189.97916517819016" y1="98.17113171792111" y2="98.06355123074" /><path d="M 185.9800911702706 98.14961562048488 a86.0,86.0 0 0,1 -9.607161424134198,41.387399972396054" fill="none" id="id16" stroke="none" /><text fill="#e1ed5e" style="font-size:6.75px; font-family:Arial;" text-anchor="middle"><textPath startOffset="21.466115282336823" xlink:href="#id16">April</textPath></text><path d="M 120.02730092923936 106.31721596034902 l 28.814573381244724 9.088987252839999 a51.21405845670894,51.21405845670894 0 0,0 -0.27242891364387123,0.8384499825722872 l -28.653852216584607 -9.583636135390082" fill="#a7ff21" stroke="none" /><path d="M 119.9155931802556 106.66101706037122 l 14.042775688760386 4.696780436875678 a35.80740677894201,35.80740677894201 0 0,0 -0.2005371122547188,0.5828547175536957 l -13.959847745562437 -4.937807857518674" fill="#ff8c0c" stroke="none" /><path d="M 119.67450827220406 107.3425965602758 l 28.266369567902224 10.549109796761 a51.17070377126374,51.17070377126374 0 0,0 -0.31507927213573894,0.8225725553210004 l -28.08059601617298 -11.034105918915143" fill="#a8ff21" stroke="none" /><path d="M 119.54520255179757 107.68017299344265 l 14.418383629925865 5.665619492567902 a36.4915793492555,36.4915793492555 0 0,0 -0.23475795103349248,0.5826499821056905 l -14.31872306463498 -5.912968842516406" fill="#ff950d" stroke="none" /><path d="M 118.97047184881838 109.00673069616215 l 13.418472303363915 6.3707728175373415 a35.85402791329063,35.85402791329063 0 0,0 -0.26949721635038365,0.5552440881205429 l -13.306821830398817 -6.60080586162316" fill="#ff8c0c" stroke="none" /><path d="M 118.81262510543309 109.33194174019688 l 13.54012083374254 6.7165330764615 a36.114452975862214,36.114452975862214 0 0,0 -0.28104152120269704,0.5545215837489461 l -13.422500642753574 -6.948608871913141" fill="#ff900d" stroke="none" /><path d="M 118.64920377521936 109.65438752849418 l 26.458668284040833 13.697219472792415 a50.79387434777075,50.79387434777075 0 0,0 -0.4086427461236102,0.7729980746261478 l -26.21897302969233 -14.150632562504699" fill="#acff20" stroke="none" /><line stroke="#e1ed5e" stroke-width="0.3" x1="174.80103733775053" x2="179.2010983576182" y1="140.37084112569926" y2="142.7455964860345" /><path d="M 175.68104954172406 140.8457921977663 a86.0,86.0 0 0,1 -30.038265399797805,32.042727171017184" fill="none" id="id17" stroke="none" /><text fill="#e1ed5e" style="font-size:6.75px; font-family:Arial;" text-anchor="middle"><textPath startOffset="22.206326154141568" xlink:href="#id17">May</textPath></text><path d="M 118.48025628344425 109.97397251340804 l 26.278292564419097 14.182647887389718 a50.861281975141054,50.861281975141054 0 0,0 -0.4224479724763486,0.7668657783529511 l -26.030268182491238 -14.632884184140474" fill="#abff21" stroke="none" /><path d="M 118.30583269289576 110.29060199501025 l 26.44288003096867 14.86483344219059 a51.334620116234674,51.334620116234674 0 0,0 -0.43963947410384324,0.7665484804216051 l -26.18308856071245 -15.317801768470511" fill="#a6ff21" stroke="none" /><path d="M 118.12598468904814 110.60418214915192 l 13.116150037368463 7.673295905181798 a36.195817248547066,36.195817248547066 0 0,0 -0.31924559876966146,0.5350739865104851 l -12.982123562900576 -7.897931985578388" fill="#ff910d" stroke="none" /><path d="M 117.75023020441432 111.22182372390056 l 16.831833559694353 10.641206732628728 a40.913460314766894,40.913460314766894 0 0,0 -0.3814598358117816,0.592034136291833 l -16.646168860505522 -10.929362468842013" fill="#ffd313" stroke="none" /><path d="M 116.0416608686014 113.55231037782055 l 22.967891060796912 19.403725769389613 a51.06706825605565,51.06706825605565 0 0,0 -0.5730636737523724,0.6666025184602964 l -22.630484877473762 -19.796205387011437" fill="#a9ff21" stroke="none" /><path d="M 115.80600337817218 113.82643327865902 l 13.45719627539624 11.77179467622647 a38.87935349764561,38.87935349764561 0 0,0 -0.44496707355014514,0.49992522419714774 l -13.252570352197756 -12.001694070164485" fill="#ffb711" stroke="none" /><path d="M 115.56566222782051 114.09645910891815 l 19.5174418010369 17.67524029702201 a47.33143851015993,47.33143851015993 0 0,0 -0.5520955179901565,0.5991906445892283 l -19.21029987505102 -18.008582196412576" fill="#d7ff1c" stroke="none" /><path d="M 113.75828350139079 115.86535959552629 l 10.059525233761983 11.600137849883026 a36.354388495312435,36.354388495312435 0 0,0 -0.47630225490431727,0.40591511478620335 l -9.858357502280619 -11.771577354892177" fill="#ff930d" stroke="none" /><path d="M 113.48314897796784 116.09983520530334 l 11.790105200137914 14.078220976834418 a39.363084885250075,39.363084885250075 0 0,0 -0.5232101344811555,0.4305663207133889 l -11.546024937112067 -14.279082416404986" fill="#ffbe11" stroke="none" /><path d="M 113.20401910651253 116.32954008644616 l 11.271746397151563 13.939879452746146 a38.92686548169516,38.92686548169516 0 0,0 -0.5246646479330189,0.4168253276627503 l -11.030124256501193 -14.131838694414023" fill="#ffb811" stroke="none" /><path d="M 112.92097659922987 116.55440617244103 l 18.367340256046905 23.532308767136865 a50.85177957833113,50.85177957833113 0 0,0 -0.6946626031430686,0.5326376621571023 l -17.959548924410342 -23.844985771121337" fill="#abff21" stroke="none" /><path d="M 112.63410532772338 116.77436683061366 l 19.868447741230778 26.37944057937806 a54.024689263140026,54.024689263140026 0 0,0 -0.7476374603969196,0.5530843197143106 l -19.411425310415293 -26.717534847832138" fill="#86ff25" stroke="none" /><path d="M 112.34349029814194 116.9893568818739 l 17.56581003852863 24.17726335546185 a50.88474101726551,50.88474101726551 0 0,0 -0.7130470814699138,0.5087401600545578 l -17.147035629209835 -24.476047777360627" fill="#abff21" stroke="none" /><path d="M 111.45004920935366 117.60387380957326 l 10.349715007416886 15.912165408579758 a39.981928477495444,39.981928477495444 0 0,0 -0.580153390302425,0.37028134269863444 l -10.074279815067532 -16.0879611801022" fill="#ffc612" stroke="none" /><path d="M 111.1453310114006 117.79835938074945 l 15.80730355977149 25.24322241390814 a50.78407500106053,50.78407500106053 0 0,0 -0.7448834005963955,0.45756822341206177 l -15.370440959242787 -25.51157910414858" fill="#acff20" stroke="none" /><line stroke="#e1ed5e" stroke-width="0.3" x1="143.8653032363475" x2="146.44561519142675" y1="172.8068346515853" y2="177.08958963109032" /><path d="M 144.38136562736335 173.6633856474863 a86.0,86.0 0 0,1 -40.68145358897372,12.25698825130547" fill="none" id="id18" stroke="none" /><text fill="#e1ed5e" style="font-size:6.75px; font-family:Arial;" text-anchor="middle"><textPath startOffset="21.466115282336833" xlink:href="#id18">June</textPath></text><path d="M 110.8373102113329 117.98757091392108 l 7.797702071486637 12.942484457981017 a36.10999872735756,36.10999872735756 0 0,0 -0.535171037194186,0.3161884819265427 l -7.573763163264069 -13.07479151220131" fill="#ff900d" stroke="none" /><path d="M 110.5260780823613 118.17145234162733 l 14.996152276983308 25.888261922132592 a50.9179994061002,50.9179994061002 0 0,0 -0.7621969475815834,0.4327953189552321 l -14.548306562480525 -26.142560406882453" fill="#abff21" stroke="none" /><path d="M 109.89434966115114 118.52300852407294 l 14.837257213277278 27.776524101880476 a52.49094302804055,52.49094302804055 0 0,0 -0.8006345993735622,0.4188541820642153 l -14.35693171137722 -28.027807702889408" fill="#98ff23" stroke="none" /><path d="M 109.57404056367764 118.69057910512821 l 14.904278902357706 29.096346728074067 a53.69151147499258,53.69151147499258 0 0,0 -0.826200101130956,0.41427388233981094 l -14.40122489354399 -29.34858845132318" fill="#8aff24" stroke="none" /><path d="M 109.2508944713604 118.85261126421891 l 13.730682534910619 27.982074709041953 a52.16934628600518,52.16934628600518 0 0,0 -0.8095870987294379,0.38865100591709856 l -13.246982768180947 -28.214279991458614" fill="#9cff22" stroke="none" /><path d="M 108.59647513512805 119.15986991738527 l 7.7749847440988304 17.32892772502269 a39.99321257370721,39.99321257370721 0 0,0 -0.6305202779605724,0.27640156057499204 l -7.475543791480503 -17.46019383889214" fill="#ffc612" stroke="none" /><path d="M 107.93186726928326 119.44442032107085 l 11.512361886533645 28.221753568282274 a51.4795316675858,51.4795316675858 0 0,0 -0.823375700113209,0.32763818361288327 l -11.024865110378569 -28.415738596301225" fill="#a4ff21" stroke="none" /><path d="M 107.59598834532513 119.57807347666477 l 10.774812636956758 27.77124765251418 a50.78823229966487,50.78823229966487 0 0,0 -0.817762560736265,0.30920782730967067 l -10.295179855460217 -27.952603729930484" fill="#acff20" stroke="none" /><path d="M 107.2578585660854 119.70592522655815 l 10.36065750312439 28.13038311446002 a50.97768633606245,50.97768633606245 0 0,0 -0.8260337859292807,0.2961863267598383 l -9.874904156565375 -28.304556982259818" fill="#aaff21" stroke="none" /><path d="M 106.91757812671514 119.82793768551818 l 7.911700590293609 22.677402902757134 a45.01790183684724,45.01790183684724 0 0,0 -0.7338566837339817,0.24896403121166374 l -7.520174173622401 -22.81022992086692" fill="#f4ff19" stroke="none" /><path d="M 105.88484417918355 120.15858648285463 l 4.401379803523471 15.076965967436573 a36.7062741271794,36.7062741271794 0 0,0 -0.6080461287549538,0.17183990959476694 l -4.1412025066639115 -15.15049467036986" fill="#ff980e" stroke="none" /><path d="M 105.53697534728816 120.25689768951611 l 7.175777239199644 26.252416935252924 a48.215458363381835,48.215458363381835 0 0,0 -0.8024649286774413,0.2119382811539526 l -6.722821867710705 -26.372046565710463" fill="#ccff1d" stroke="none" /><path d="M 104.83641907484287 120.43548508189849 l 7.579374946020311 32.025389289604846 a53.9100666016205,53.9100666016205 0 0,0 -0.9048672486647643,0.20594483980126566 l -7.026987547962684 -32.15111086298379" fill="#87ff25" stroke="none" /><path d="M 104.48393922423573 120.51570834832081 l 6.86327580038457 31.402068046267434 a53.143341959020916,53.143341959020916 0 0,0 -0.8953603882514288,0.18763147478407902 l -6.321723950703763 -31.515555501778053" fill="#90ff24" stroke="none" /><path d="M 103.41894727170886 120.7198165907248 l 4.445999631614727 26.944053127629413 a48.30840368217876,48.30840368217876 0 0,0 -0.8216204419807861,0.12832021555958284 l -3.9815433260254243 -27.016591650536103" fill="#cbff1d" stroke="none" /><path d="M 103.06178313531738 120.77559828337769 l 2.167263962834843 14.7058767639435 a35.864718109701776,35.864718109701776 0 0,0 -0.611530006677529,0.0847524866513941 l -1.9138053649704836 -14.741003816087497" fill="#ff8c0c" stroke="none" /><path d="M 102.70371172650421 120.8252237178851 l 3.8931017321822563 29.98644927061357 a51.23811139863403,51.23811139863403 0 0,0 -0.8756168131242019,0.10602500190186724 l -3.3763574960066745 -30.049019801240785" fill="#a7ff21" stroke="none" /><path d="M 102.34483914955558 120.86867818915974 l 3.0285060343345953 26.95319968383987 a48.12280999448521,48.12280999448521 0 0,0 -0.8239711349409047,0.08540797715133358 l -2.564102302788088 -27.00133702944696" fill="#cdff1d" stroke="none" /><path d="M 101.98527174616119 120.90594882070398 l 2.8432289444555434 29.940686413972482 a51.07538285326433,51.07538285326433 0 0,0 -0.875956636101399,0.07558122439612966 l -2.3274279906126027 -29.985191890647275" fill="#a9ff21" stroke="none" /><path d="M 101.26447882468166 120.96189622390904 l 1.8045362126634632 29.914696935838617 a50.96907478895346,50.96907478895346 0 0,0 -0.8762116257494242,0.04529013260541216 l -1.2893365185005594 -29.941326875206233" fill="#aaff21" stroke="none" /><line stroke="#e1ed5e" stroke-width="0.3" x1="102.19456741930631" x2="102.32365962044197" y1="184.97166512339345" y2="189.96999836594603" /><path d="M 102.22038585953345 185.97133177190398 a86.0,86.0 0 0,1 -42.740103519485714,-10.115201625700543" fill="none" id="id19" stroke="none" /><text fill="#e1ed5e" style="font-size:6.75px; font-family:Arial;" text-anchor="middle"><textPath startOffset="22.20632615414155" xlink:href="#id19">July</textPath></text><path d="M 100.54218724476979 120.99299961872073 l 0.7736244307857988 29.95403808773646 a50.9640266406482,50.9640266406482 0 0,0 -0.8771644568244865,0.015101181605568849 l -0.2579002840686443 -29.962916746621186" fill="#aaff21" stroke="none" /><path d="M 100.18074693466247 120.99922214144158 l 0.2594644623518981 30.144643354047226 a51.14575997963772,51.14575997963772 0 0,0 -0.8804227940286864,0.0 l 0.2594644623518773 -30.144643354047226" fill="#a8ff21" stroke="none" /><path d="M 99.81925306533755 120.99922214144158 l -0.2035757588879744 23.651480405378518 a44.65235650956603,44.65235650956603 0 0,0 -0.768531503992414,-0.013230966805706557 l 0.6106669527730564 -23.64447196129365" fill="#f9ff18" stroke="none" /><path d="M 99.45781275523022 120.99299961872073 l -0.8580357143858753 33.22236662465179 a54.233445043057735,54.233445043057735 0 0,0 -0.9330209501251654,-0.032135128034196776 l 1.4297770161856838 -33.2026746981915" fill="#83ff25" stroke="none" /><path d="M 99.09653310690486 120.98055641714683 l -1.0461814204889885 24.29471238281302 a45.317227336359394,45.317227336359394 0 0,0 -0.7790504654687689,-0.04026801043322348 l 1.4642199543712464 -24.273104565617594" fill="#f1ff19" stroke="none" /><path d="M 98.73552117531835 120.96189622390904 l -2.028290621126036 33.623985378067694 a54.68510584142876,54.68510584142876 0 0,0 -0.9391183617697558,-0.06476710059897609 l 2.606771743674722 -33.58408993295243" fill="#7eff26" stroke="none" /><path d="M 98.37488393609728 120.93702456842531 l -2.764046229192761 35.61032045298669 a56.71743095914818,56.71743095914818 0 0,0 -0.9727192877637628,-0.08393031313756259 l 3.3766098346980655 -35.557465887570466" fill="#67ff28" stroke="none" /><path d="M 98.01472825383883 120.90594882070398 l -2.8170371354767703 29.664872979821588 a50.7983285962754,50.7983285962754 0 0,0 -0.8697820528637419,-0.09015646610357016 l 3.3272517849461054 -29.611987145262255" fill="#acff21" stroke="none" /><path d="M 97.2962882734958 120.8252237178851 l -3.8515820424951133 29.66664563993972 a50.91562380689771,50.91562380689771 0 0,0 -0.8681632927208185,-0.12031952164916043 l 4.361673926402763 -29.595951552797953" fill="#abff21" stroke="none" /><path d="M 96.93821686468263 120.77559828337769 l -2.377764529923069 16.13421934307757 a37.30848852500742,37.30848852500742 0 0,0 -0.634535908766944,-0.0991014590593331 l 2.6551363022985304 -16.09089957667113" fill="#ffa10e" stroke="none" /><path d="M 96.58105272829116 120.7198165907248 l -3.8793900638263112 23.51023406283361 a44.828150850549356,44.828150850549356 0 0,0 -0.7602662872585358,-0.13218203918765628 l 4.283505322556897 -23.43997344512495" fill="#f7ff18" stroke="none" /><path d="M 96.22490169976321 120.6578951692458 l -5.3504981367247035 29.278715630999827 a50.76358545793917,50.76358545793917 0 0,0 -0.8582246113345599,-0.1644807893540544 l 5.853690362630958 -29.182277643297304" fill="#acff20" stroke="none" /><path d="M 95.86986931433489 120.58985236759428 l -3.2214540451828633 16.059846103543602 a37.379756501081744,37.379756501081744 0 0,0 -0.629775096179672,-0.13197549459301916 l 3.497420602791922 -16.002014628224043" fill="#ffa20f" stroke="none" /><path d="M 95.51606077576429 120.51570834832081 l -5.716405897134 26.154706904220365 a47.77211216221949,47.77211216221949 0 0,0 -0.801843188482216,-0.18249689912125552 l 6.165769235009078 -26.052433271521423" fill="#d1ff1c" stroke="none" /><path d="M 95.16358092515715 120.4354850818985 l -6.844258942746968 28.919278779765527 a50.718152123191786,50.718152123191786 0 0,0 -0.8478305098447924,-0.20837611170602846 l 7.341042737334971 -28.797181409745466" fill="#adff20" stroke="none" /><path d="M 94.81253420990036 120.34920634021253 l -11.053448789979136 43.36007586354368 a65.7467865778645,65.7467865778645 0 0,0 -1.0942442982569973,-0.28899986460133625 l 11.798183531047622 -43.163384649638765" fill="#35ff61" stroke="none" /><path d="M 94.11515582081647 120.15858648285463 l -6.978615186850337 23.9053088733104 a45.903109489670385,45.903109489670385 0 0,0 -0.7565816640659218,-0.22795184904903532 l 7.389071825356504 -23.78164165515564" fill="#e9ff1a" stroke="none" /><path d="M 93.42475214034765 119.94407469862007 l -7.547509442372477 22.89314339477626 a45.10520510753828,45.10520510753828 0 0,0 -0.735279852875466,-0.24944684745414386 l 7.940459028185169 -22.759833560423992" fill="#f3ff19" stroke="none" /><path d="M 93.08242187328487 119.8279376855182 l -4.943321147240143 14.16910107432723 a36.006660162049805,36.006660162049805 0 0,0 -0.5834458161999251,-0.2092029116814423 l 5.186486524069794 -14.08191062160583" fill="#ff8e0d" stroke="none" /><path d="M 92.7421414339146 119.70592522655815 l -10.33500011767604 28.06072034622745 a50.90344886098503,50.90344886098503 0 0,0 -0.8196177107573854,-0.30990928630878306 l 10.81648804919371 -27.87866280981203" fill="#abff21" stroke="none" /><path d="M 92.40401165467489 119.57807347666478 l -10.8232549331394 27.89610393071348 a50.922156704704534,50.922156704704534 0 0,0 -0.8144609142668591,-0.32409080634440646 l 11.301836923448118 -27.70566627996301" fill="#abff21" stroke="none" /><path d="M 92.06813273071674 119.44442032107085 l -11.23308263342605 27.537119925280162 a50.74012641581471,50.74012641581471 0 0,0 -0.8058704908752828,-0.3368539305439014 l 11.705424583798797 -27.33968095171629" fill="#adff20" stroke="none" /><path d="M 91.7346041902142 119.30500536409082 l -6.550231801406059 15.298996318176245 a37.6422602129555,37.6422602129555 0 0,0 -0.5934559102696656,-0.26015363100065547 l 6.812608386333468 -15.183978133881139" fill="#ffa60f" stroke="none" /><path d="M 91.40352486487194 119.15986991738527 l -9.394140116769625 20.937709909436666 a43.9485852458321,43.9485852458321 0 0,0 -0.6875484187618875,-0.31561975693317207 l 9.753156531298933 -20.772903082169417" fill="#fffc17" stroke="none" /><path d="M 90.7491055286396 118.85261126421891 l -13.188074321174517 26.87628091212769 a50.93759809952064,50.93759809952064 0 0,0 -0.7838231322802924,-0.3930251904266457 l 13.648751361137569 -26.64528788079174" fill="#aaff21" stroke="none" /><path d="M 90.42595943632237 118.69057910512821 l -13.549245997454497 26.45103208472181 a50.719339922793026,50.719339922793026 0 0,0 -0.7736126664343673,-0.40471758388585005 l 14.00254956641536 -26.213885081891245" fill="#adff20" stroke="none" /><line stroke="#e1ed5e" stroke-width="0.3" x1="58.666819895761336" x2="56.23545636021788" y1="174.27360380694188" y2="178.64263932499728" /><path d="M 58.180547188652646 175.14741091055294 a86.0,86.0 0 0,1 -31.652253787137756,-30.449443065178592" fill="none" id="id20" stroke="none" /><text fill="#e1ed5e" style="font-size:6.75px; font-family:Arial;" text-anchor="middle"><textPath startOffset="22.20632615414155" xlink:href="#id20">August</textPath></text><path d="M 89.7882731507175 118.34994917583269 l -6.293469972696562 11.309042617676893 a33.94226445509693,33.94226445509693 0 0,0 -0.508085365949819,-0.28850413099981687 l 6.487204105567589 -11.199035320882443" fill="#ff710a" stroke="none" /><path d="M 89.4739219176387 118.17145234162733 l -14.997045339222504 25.88980363955012 a50.91978110550206,50.91978110550206 0 0,0 -0.7546605657254366,-0.44586676419854654 l 15.440473775976324 -25.627818303057822" fill="#abff21" stroke="none" /><path d="M 89.1626897886671 117.98757091392108 l -12.09805415721217 20.080130847020083 a44.443006829847704,44.443006829847704 0 0,0 -0.6518747867211218,-0.40043473623963555 l 12.4419081438656 -19.868907643952067" fill="#fcff18" stroke="none" /><path d="M 88.54995079064634 117.60387380957326 l -4.688887358459287 7.208928088989403 a29.599669112968225,29.599669112968225 0 0,0 -0.42472043869821896,-0.28148154747152065 l 4.812282495897468 -7.127148520426563" fill="#ff2f04" stroke="none" /><path d="M 86.79598089348748 116.32954008644616 l -12.404522368520091 15.340794619879006 a40.72846052687396,40.72846052687396 0 0,0 -0.541358569116145,-0.44550124687883763 l 12.666751066180925 -15.124998254142987" fill="#ffd013" stroke="none" /><path d="M 86.51685102203217 116.09983520530335 l -16.271714101226895 19.42957954151803 a46.34318924192932,46.34318924192932 0 0,0 -0.6071719659989288,-0.5174451217387873 l 16.60375154380288 -19.146610029556292" fill="#e3ff1b" stroke="none" /><path d="M 86.24171649860922 115.8653595955263 l -17.844193512790955 20.57702523312359 a48.23654180630382,48.23654180630382 0 0,0 -0.6226135012352252,-0.54938402480959 l 18.195749366932766 -20.26681806654171" fill="#cbff1d" stroke="none" /><path d="M 85.70375840098266 115.38237550388516 l -20.286516221991107 21.827751582889746 a50.799219445976334,50.799219445976334 0 0,0 -0.6353873613988171,-0.6007984090820518 l 20.65923941778074 -21.475318537061764" fill="#acff21" stroke="none" /><path d="M 85.44109423537348 115.13401014063109 l -20.33993537161301 21.143401375788006 a50.338650150596024,50.338650150596024 0 0,0 -0.6192853649402246,-0.6061010718854751 l 20.700870688929026 -20.79015020097996" fill="#b2ff20" stroke="none" /><path d="M 85.18274418774928 114.88116024355367 l -20.99985998521548 21.09042898981395 a50.76239765833793,50.76239765833793 0 0,0 -0.6138850847616173,-0.6218623498067182 l 21.35978569503263 -20.72582614602657" fill="#acff20" stroke="none" /><path d="M 84.9287848128048 114.62390073753433 l -15.104034756742669 14.655746220552754 a42.04573028464769,42.04573028464769 0 0,0 -0.4995302023098552,-0.5237554200264517 l 15.354071510431481 -14.393583683943802" fill="#ffe215" stroke="none" /><path d="M 84.67929136418377 114.36230785411682 l -18.310585470654114 17.16515024010456 a46.098205574173846,46.098205574173846 0 0,0 -0.5377105257307234,-0.5835785765620858 l 18.603342404380566 -16.84742040874113" fill="#e7ff1a" stroke="none" /><path d="M 84.43433777217949 114.09645910891817 l -11.224295384659095 10.164862798671955 a36.14296016629194,36.14296016629194 0 0,0 -0.41364955349909005,-0.4647396584250408 l 11.397603787806524 -9.970148970506049" fill="#ff900d" stroke="none" /><path d="M 83.95833913139862 113.55231037782056 l -23.05635735328908 19.478463831966163 a51.18287871717642,51.18287871717642 0 0,0 -0.5627776872742866,-0.6779019782711562 l 23.388231040456905 -19.078700596581246" fill="#a7ff21" stroke="none" /><path d="M 83.72743513129214 113.27417163493432 l -20.968711256601605 17.105003079063547 a48.06045051542018,48.06045051542018 0 0,0 -0.5174098571481062,-0.6455483521947343 l 21.260039025804573 -16.74152689329055" fill="#ceff1d" stroke="none" /><path d="M 83.28015986056508 112.70617746262583 l -23.829655502676584 18.109253985994158 a50.92987740211259,50.92987740211259 0 0,0 -0.5244291512765447,-0.7025585491219981 l 24.137845920648214 -17.696382557362853" fill="#aaff21" stroke="none" /><path d="M 83.06392112726016 112.41649034213515 l -24.135690563391258 17.694802382118866 a50.9272048530098,50.9272048530098 0 0,0 -0.5122311801325096,-0.7114443081989896 l 24.436701535899374 -17.27672446846874" fill="#aaff21" stroke="none" /><path d="M 82.85270091963577 112.12312394758628 l -27.018774075199968 19.10224726881725 a54.08942434140754,54.08942434140754 0 0,0 -0.5309497555171498,-0.7648727229264506 l 27.34358473787925 -18.63433328370379" fill="#85ff25" stroke="none" /><path d="M 82.6465618267979 111.8261652097733 l -24.784456261680152 16.890317149811548 a50.992533831077935,50.992533831077935 0 0,0 -0.48806385463261603,-0.7295892413023691 l 25.071523221723496 -16.461190994303355" fill="#aaff21" stroke="none" /><path d="M 82.44556493220864 111.52570212397912 l -24.94443049198029 16.377745817088215 a50.84049548211937,50.84049548211937 0 0,0 -0.4740153218523931,-0.735682306014632 l 25.22265067720973 -15.945941911152135" fill="#abff21" stroke="none" /><line stroke="#e1ed5e" stroke-width="0.3" x1="26.63291911575756" x2="22.317208475507996" y1="142.92168965132927" y2="145.44649492493687" /><path d="M 25.769776987707644 143.4266507060508 a86.0,86.0 0 0,1 -11.730757126820373,-40.83630448921669" fill="none" id="id21" stroke="none" /><text fill="#e1ed5e" style="font-size:6.75px; font-family:Arial;" text-anchor="middle"><textPath startOffset="21.46611528233685" xlink:href="#id21">September</textPath></text><path d="M 81.87401531095188 110.60418214915194 l -28.697489355400737 16.788792971445407 a54.247698638272595,54.247698638272595 0 0,0 -0.46458763397241576,-0.8100477000391254 l 28.98222898552553 -16.292325425547975" fill="#83ff25" stroke="none" /><path d="M 81.69416730710424 110.29060199501025 l -28.773852236451294 16.175186684813756 a54.008653968523305,54.008653968523305 0 0,0 -0.4485896831371635,-0.8143205765754723 l 29.048018329039973 -15.67749558984046" fill="#86ff25" stroke="none" /><path d="M 81.51974371655577 109.97397251340807 l -26.436129564308782 14.267834038185125 a51.04063971492809,51.04063971492809 0 0,0 -0.4106280027825889,-0.7767534320614173 l 26.677810075316255 -13.810665591037582" fill="#a9ff21" stroke="none" /><path d="M 81.02952815118164 109.00673069616217 l -27.066031315517407 12.850310578223251 a50.96165104144572,50.96165104144572 0 0,0 -0.36941223125043426,-0.7956810816585291 l 27.283218163607668 -12.382509429285896" fill="#aaff21" stroke="none" /><path d="M 80.87730276802145 108.67885076344099 l -23.925612265200204 10.858657424454849 a47.27442412930047,47.27442412930047 0 0,0 -0.3299280152544612,-0.7439005759465324 l 24.108981365185944 -10.445208512015622" fill="#d8ff1c" stroke="none" /><path d="M 80.73074385275274 108.34839909993369 l -27.738911516823094 12.017874596226603 a51.23039070122597,51.23039070122597 0 0,0 -0.34360715540011705,-0.8121858154530316 l 27.941669653415516 -11.538614255107412" fill="#a7ff21" stroke="none" /><path d="M 80.45479744820244 107.68017299344265 l -30.855711315068586 12.124571239792955 a54.152377720273186,54.152377720273186 0 0,0 -0.33343867680211103,-0.870503167538733 l 31.059844271464204 -11.591644505421064" fill="#84ff25" stroke="none" /><path d="M 80.32549172779594 107.34259656027581 l -14.764714270763747 5.510243952125985 a36.75942815933483,36.75942815933483 0 0,0 -0.21613797890472533,-0.5947188903775896 l 14.857376510673697 -5.255277264742278" fill="#ff990e" stroke="none" /><path d="M 80.0844068197444 106.66101706037122 l -17.163924449585238 5.740687337144266 a39.09850252407415,39.09850252407415 0 0,0 -0.2079812240761818,-0.6401003893808249 l 17.26019792467767 -5.444388047785638" fill="#ffba11" stroke="none" /><path d="M 79.97269907076064 106.31721596034903 l -23.581120968564353 7.438198201138913 a45.726424298986124,45.726424298986124 0 0,0 -0.23031578475513656,-0.7526853105619113 l 23.705663525825617 -7.0311859180249545" fill="#ebff1a" stroke="none" /><path d="M 79.67330655649465 105.27499134158121 l -17.539494157292705 4.551683729209527 a39.120476816697064,39.120476816697064 0 0,0 -0.16353977351849847,-0.6532601013864476 l 17.615245245106262 -4.249095788425688" fill="#ffba11" stroke="none" /><path d="M 79.58551787078972 104.9243191809786 l -17.62477136835835 4.25139365085265 a39.13027616340729,39.13027616340729 0 0,0 -0.1523088870751428,-0.6561426992257947 l 17.69534082136405 -3.9473822942782815" fill="#ffbb11" stroke="none" /><path d="M 79.29508885075956 103.50808413554451 l -33.44218344590336 5.6661915793271405 a54.91880541297247,54.91880541297247 0 0,0 -0.14989759899263003,-0.9334124920155542 l 33.53476279925728 -5.089699857618372" fill="#7bff26" stroke="none" /><path d="M 79.23777060512086 103.15116336523772 l -33.82365310772545 5.133545850228475 a55.211004114877184,55.211004114877184 0 0,0 -0.13452016285067372,-0.9408337056675017 l 33.90700732159272 -4.5505666725805725" fill="#78ff26" stroke="none" /><path d="M 79.1416061653843 102.43462659150553 l -62.06433239509903 7.244252612700287 a83.48568277266364,83.48568277266364 0 0,0 -0.15432009823086112,-1.4288124504026474 l 62.17983479483094 -6.174843840412858" fill="#4cd7ff" stroke="none" /><path d="M 79.10278846688536 102.07522291339032 l -14.890655744237238 1.4787346123611012 a35.96389937640521,35.96389937640521 0 0,0 -0.05587317793361231,-0.6165558626605948 l 14.913903518447926 -1.2221973611519403" fill="#ff8e0d" stroke="none" /><path d="M 79.0235259727143 100.99374915477108 l -24.024809320183163 1.138162396807623 a45.051754125482546,45.051754125482546 0 0,0 -0.03002992709851753,-0.7749389834312064 l 24.040841380132882 -0.7244461663624201" fill="#f4ff19" stroke="none" /><line stroke="#e1ed5e" stroke-width="0.3" x1="15.007084014347285" x2="10.007500721073583" y1="101.09737516637583" y2="101.16192664675087" /><path d="M 14.007167355692545 101.11028546245083 a86.0,86.0 0 0,1 10.666146001902534,-42.60595125391555" fill="none" id="id22" stroke="none" /><text fill="#e1ed5e" style="font-size:6.75px; font-family:Arial;" text-anchor="middle"><textPath startOffset="22.20632615414155" xlink:href="#id22">October</textPath></text><path d="M 79.00175016825051 100.2711162175752 l -30.376333835849884 0.39220014998226954 a51.378865651380806,51.378865651380806 0 0,0 -0.003806201931243507,-0.8844272835057575 l 30.37858433507063 0.1307366117271633" fill="#a5ff21" stroke="none" /><path d="M 79.00019446554 99.90962569577889 l -19.22257683886555 -0.08272586164185008 a40.22275484664658,40.22275484664658 0 0,0 0.0089390147892939,-0.6923365465707219 l 19.21830481695854 0.4135986662730439" fill="#ffca12" stroke="none" /><path d="M 79.05617556472873 98.46500227214037 l -23.921372348451843 -1.7532257451661666 a44.985534297713485,44.985534297713485 0 0,0 0.06324862479979565,-0.7717934254494441 l 23.88764923983255 2.164733087823389" fill="#f5ff19" stroke="none" /><path d="M 79.08570108090925 98.10471618934814 l -30.114118073420936 -2.728984637611482 a51.23751749883341,51.23751749883341 0 0,0 0.08715959037930643,-0.877685180490015 l 30.062681357359402 3.2469453488059274" fill="#a7ff21" stroke="none" /><path d="M 79.26566170972629 96.67025291283419 l -23.81814561414847 -3.8249786354457638 a45.12331905145717,45.12331905145717 0 0,0 0.12975777331174068,-0.765837723252309 l 23.748775979316505 4.234402147013901" fill="#f3ff19" stroke="none" /><path d="M 79.3925641242962 95.95851677861259 l -23.63011623513585 -4.634284384518274 a45.08026131591227,45.08026131591227 0 0,0 0.1558933484332182,-0.7601913313561801 l 23.54684359078764 5.040351372037857" fill="#f4ff19" stroke="none" /><path d="M 79.46518482838121 95.60439243477599 l -17.804447560952195 -3.8111550427646788 a39.207780087388116,39.207780087388116 0 0,0 0.14694630314605647,-0.6587314637292826 l 17.7362068708041 4.1170646760439205" fill="#ffbc11" stroke="none" /><path d="M 79.54389044137918 95.25157060432595 l -25.63037514190976 -5.949519697146318 a47.31183981673949,47.31183981673949 0 0,0 0.19097581789399493,-0.7917180585222493 l 25.52416652375495 6.389822987327964" fill="#d7ff1c" stroke="none" /><path d="M 79.71946130924805 94.55025226153421 l -24.55522738437529 -6.598433944288424 a46.426335214016035,46.426335214016035 0 0,0 0.21403254489702758,-0.7699889418440425 l 24.438008068911902 7.02013418955141" fill="#e2ff1b" stroke="none" /><path d="M 79.81627453868168 94.20196356495316 l -23.242151090123684 -6.676608790961974 a45.18211513171849,45.18211513171849 0 0,0 0.2211645234076463,-0.7456568261565785 l 23.123780669604333 7.075695003865092" fill="#f2ff19" stroke="none" /><path d="M 79.91906864156998 93.8553929516997 l -23.041150103203464 -7.0504107004804935 a45.095702710728375,45.095702710728375 0 0,0 0.23351954168624073,-0.7403207621146427 l 22.91637507774902 7.445981629021551" fill="#f3ff19" stroke="none" /><path d="M 80.02781315780177 93.51064311812611 l -22.700044316268745 -7.375691503715547 a44.86823908709117,44.86823908709117 0 0,0 0.24498636749623875,-0.7324780563603259 l 22.569720655000733 7.765342662998195" fill="#f6ff19" stroke="none" /><path d="M 80.38941819471856 92.48833698450439 l -28.05889110376846 -10.747714507033809 a51.046875662834594,51.046875662834594 0 0,0 0.3213679152863837,-0.8178462911296637 l 27.869729638600386 11.229109803059236" fill="#a9ff21" stroke="none" /><path d="M 80.52162464483688 92.15188598940014 l -25.759634280975074 -10.37892242151813 a48.77194247656217,48.77194247656217 0 0,0 0.3204509690571119,-0.7759974395146537 l 25.57716162503176 10.820794431486096" fill="#c5ff1e" stroke="none" /><path d="M 80.803312248108 91.48605970444005 l -32.34247876206786 -14.34424192077208 a56.38068977219701,56.38068977219701 0 0,0 0.40110211523687095,-0.8837753428242956 l 32.09077432986764 14.898839272438446" fill="#6bff28" stroke="none" /><path d="M 80.95270993114464 91.15688171328213 l -27.36147433525471 -12.70315898854756 a51.16654647265939,51.16654647265939 0 0,0 0.37775970380957474,-0.7956582769584809 l 27.138756437603384 13.172259681146574" fill="#a8ff21" stroke="none" /><path d="M 81.10775173730289 90.83032412892265 l -27.037775515315182 -13.123246863102384 a51.05429941034234,51.05429941034234 0 0,0 0.39054104742618945,-0.7873069204734519 l 26.80787445493558 13.586713372074797" fill="#a9ff21" stroke="none" /><line stroke="#e1ed5e" stroke-width="0.3" x1="26.266209847984243" x2="21.928928074336255" y1="57.711370442889674" y2="55.22380399835377" /><path d="M 25.398753493254645 57.213857153982495 a86.0,86.0 0 0,1 29.58750427330803,-30.492523968695096" fill="none" id="id23" stroke="none" /><text fill="#e1ed5e" style="font-size:6.75px; font-family:Arial;" text-anchor="middle"><textPath startOffset="21.46611528233685" xlink:href="#id23">November</textPath></text><path d="M 81.78341655067845 89.55222093294921 l -7.529129620614253 -4.318190788201579 a29.67954863615153,29.67954863615153 0 0,0 0.25798640331509154,-0.4409823907868214 l 7.453683542828836 4.447152591342292" fill="#ff3104" stroke="none" /><path d="M 82.15384107792192 88.93136811851018 l -25.486906102364568 -15.807613429698204 a50.99104908157638,50.99104908157638 0 0,0 0.469050643858486,-0.7419254758283597 l 25.21102786226012 16.243986553240777" fill="#aaff21" stroke="none" /><path d="M 82.34701348167596 88.62581576622439 l -25.250967310540382 -16.26972036561658 a51.03856106562593,51.03856106562593 0 0,0 0.4822010591385922,-0.7344252949811862 l 24.967169616043872 16.70196372457543" fill="#a9ff21" stroke="none" /><path d="M 82.54541684631803 88.32363383020206 l -24.967416432078505 -16.702128833897813 a51.03885801552623,51.03885801552623 0 0,0 0.49477441867466887,-0.7260204074485038 l 24.676217547735096 17.129427264616734" fill="#a9ff21" stroke="none" /><path d="M 82.7489923806493 88.02491185347247 l -13.14407787940262 -9.124191159367953 a37.000551478386285,37.000551478386285 0 0,0 0.367692769230294,-0.5200753461680563 l 12.985072490368447 9.349093005867795" fill="#ff9d0e" stroke="none" /><path d="M 83.17141714833178 87.43820079747576 l -23.8816006706503 -17.826567745116968 a50.80129809527849,50.80129809527849 0 0,0 0.5291174362516456,-0.6962565236584456 l 23.571207294174545 18.23500904465644" fill="#acff21" stroke="none" /><path d="M 83.39014120810768 87.1503855733568 l -23.48125161158154 -18.16541809561298 a50.68756628345989,50.68756628345989 0 0,0 0.5398127316151629,-0.6855073503100789 l 23.16508479937241 18.56691783987611" fill="#adff20" stroke="none" /><path d="M 83.6137871275137 86.86637796730984 l -23.41903761697793 -18.770462145477552 a51.01302337419929,51.01302337419929 0 0,0 0.5550739411784177,-0.6804550192031499 l 23.09246518372312 19.170801334288786" fill="#a9ff21" stroke="none" /><path d="M 84.31358615837235 86.03803664274999 l -5.890030022350157 -5.24252287204877 a28.885207652823144,28.885207652823144 0 0,0 0.3337704442420772,-0.36855766093876435 l 5.798915937492035 5.34313332025709" fill="#ff2403" stroke="none" /><path d="M 84.5562425177563 85.77008943001954 l -8.03951537707433 -7.407626348269358 a31.931913630000423,31.931913630000423 0 0,0 0.37593392958824307,-0.4010201048495119 l 7.910814125515632 7.544915869996919" fill="#ff5307" stroke="none" /><path d="M 84.80347519578584 85.50635884689758 l -21.61860854831043 -20.618684769409466 a50.874644720654985,50.874644720654985 0 0,0 0.6098555308379211,-0.6285097323430848 l 21.26048875376939 20.987758697302677" fill="#abff21" stroke="none" /><path d="M 85.05521093208273 85.24692304244772 l -12.10878927590311 -11.95345743846475 a38.014932337844144,38.014932337844144 0 0,0 0.4637173678103607,-0.46172601806408886 l 11.901236107925437 12.160119307178947" fill="#ffab0f" stroke="none" /><path d="M 85.57189188830299 84.74124197986013 l -20.634200118791455 -21.822144948895005 a51.032919017520044,51.032919017520044 0 0,0 0.643481648703565,-0.5980460633064566 l 20.255510586293035 22.174095598276107" fill="#a9ff21" stroke="none" /><path d="M 85.83668400450813 84.49514656593479 l -20.241491268716644 -22.158748382670897 a51.01213252449836,51.01213252449836 0 0,0 0.6534144356375353,-0.5866419318790127 l 19.857065845483138 22.50388932331919" fill="#a9ff21" stroke="none" /><path d="M 86.93701828274178 83.55741782278169 l -11.252388428431107 -14.163559700923484 a39.08929707716455,39.08929707716455 0 0,0 0.5304370051758911,-0.4140144961921405 l 11.006918868095791 14.355152586338846" fill="#ffba11" stroke="none" /><path d="M 87.22198572758235 83.33499621200491 l -18.23241714634788 -23.778600831904193 a50.9640266406482,50.9640266406482 0 0,0 0.7007647005927166,-0.5278014441106033 l 17.820406291996775 24.08891886552065" fill="#aaff21" stroke="none" /><path d="M 87.51073957382395 83.11751280151077 l -17.78897077458477 -24.046425579114853 a50.91116955839307,50.91116955839307 0 0,0 0.7090099993932774,-0.5151259173402727 l 17.37241545883771 24.349070731271794" fill="#abff21" stroke="none" /><path d="M 88.09926311788651 82.69761687909137 l -16.96282862762538 -24.662116525793483 a50.93254995121537,50.93254995121537 0 0,0 0.726626327013741,-0.49062133958971704 l 16.5357976062051 24.950449777681865" fill="#aaff21" stroke="none" /><path d="M 88.39885842347998 82.49532879139004 l -34.80342472956008 -52.51401362582988 a84.0,84.0 0 0,0 1.2121318968628514,-0.78840430336186 l 33.89432580691294 53.105316853351276" fill="#4dd2ff" stroke="none" /><line stroke="#e1ed5e" stroke-width="0.3" x1="56.762969772571076" x2="54.21961505331055" y1="26.818313649435495" y2="22.513508569990535" /><path d="M 56.25429882871897 25.957352633546506 a86.0,86.0 0 0,1 42.265352541879196,-11.944610805530505" fill="none" id="id24" stroke="none" /><text fill="#e1ed5e" style="font-size:6.75px; font-family:Arial;" text-anchor="middle"><textPath startOffset="22.20632615414155" xlink:href="#id24">December</textPath></text><path d="M 90.26544431104013 81.39251694778311 l -14.283652769076197 -27.303025974340567 a51.813600305434186,51.813600305434186 0 0,0 0.7938324999305275,-0.40663183908599126 l 13.811559781556905 27.544850338739064" fill="#a0ff22" stroke="none" /><path d="M 91.23893434514133 80.91482961587045 l -7.451966533336995 -16.233419151093212 a38.86213040342765,38.86213040342765 0 0,0 0.610353596263165,-0.2738478672629893 l 7.171430818607055 16.35928734887273" fill="#ffb711" stroke="none" /><path d="M 91.56875222667455 80.76684994638697 l -6.565307094012724 -14.976613175417667 a37.352437110253256,37.352437110253256 0 0,0 0.5910867398977714,-0.253072494466056 l 6.306536596324643 15.08740519784651" fill="#ffa20e" stroke="none" /><path d="M 91.90106846888425 80.62456947434976 l -11.542972990062351 -27.61476256085831 a50.9301743520129,50.9301743520129 0 0,0 0.8117690895378509,-0.3311409939304647 l 11.06592003093612 27.809364440972352" fill="#aaff21" stroke="none" /><path d="M 92.91201910852362 80.23233633223022 l -5.017884349775381 -13.994373245194282 a35.86679675900395,35.86679675900395 0 0,0 0.5829515804977466,-0.2033803598813305 l 4.776250765214349 14.078674458247823" fill="#ff8c0c" stroke="none" /><path d="M 94.98787191387505 79.60689891045804 l -2.410136281575885 -9.806244370691946 a31.09807830993085,31.09807830993085 0 0,0 0.520931777638946,-0.12328772113643131 l 2.240980816974405 9.84627800396925" fill="#ff4606" stroke="none" /><path d="M 95.33964822691252 79.52364482259891 l -6.6524299097786335 -29.229020524163023 a50.9764985364612,50.9764985364612 0 0,0 0.8572724454918411,-0.1873665524452635 l 6.148314740133271 29.339200574704154" fill="#aaff21" stroke="none" /><path d="M 96.40284397218896 79.31037775812273 l -3.1385019758197434 -18.05159959230633 a39.32240274890765,39.32240274890765 0 0,0 0.6678644097609217,-0.1102033500936333 l 2.827308359919936 18.102949205339595" fill="#ffbd11" stroke="none" /><path d="M 96.75951476605007 79.25152402106235 l -2.7940415959689813 -17.88994571885494 a39.10681712128283,39.10681712128283 0 0,0 0.6659909942511787,-0.0981497604380887 l 2.485681621289154 17.935389963453996" fill="#ffba11" stroke="none" /><path d="M 99.27714615592234 79.0124445844662 l -0.5191701303524174 -15.073741351910986 a36.08267933652908,36.08267933652908 0 0,0 0.6209199639536059,-0.01603653077659098 l 0.2596235312039325 15.080444674829936" fill="#ff900d" stroke="none" /><path d="M 99.63851952072746 79.00311137660856 l -0.31151552381659425 -18.09463341201046 a39.09731472447291,39.09731472447291 0 0,0 0.6729960030891255,-0.005792689071009012 l 4.432563710097602e-15 18.09731472447291" fill="#ffba11" stroke="none" /></svg>