<?xml version="1.0" encoding="utf-8" ?>
<svg baseProfile="full" height="200mm" version="1.1" viewBox="0,0,200,200" width="200mm" xmlns="http://www.w3.org/2000/svg" xmlns:ev="http://www.w3.org/2001/xml-events" xmlns:xlink="http://www.w3.org/1999/xlink"><defs /><rect fill="#1a1a1a" height="200" width="200" x="0" y="0" /><text alignment-baseline="middle" fill="#e1ed5e" style="dominant-baseline: central; font-size:9.0px; font-family:Arial;" text-anchor="middle" x="100.0" y="100.0">2024</text><line stroke="#e1ed5e" stroke-width="0.3" x1="100.0" x2="100.0" y1="15.0" y2="10.0" /><path d="M 100.0 14.0 a86.0,86.0 0 0,1 42.35913384403234,11.155469271406648" fill="none" id="id49" stroke="none" /><text fill="#e1ed5e" style="font-size:6.75px; font-family:Arial;" text-anchor="middle"><textPath startOffset="22.145653131862478" xlink:href="#id49">January</textPath></text><path d="M 100.36049292484886 79.00309439819443 l 0.1888658004511293 -11.00048602935683 a32.002107215104516,32.002107215104516 0 0,0 0.5491968267621111,0.014145362122131482 l -0.37767594128398174 10.995622949884654" fill="#ff6a09" stroke="none" /><path d="M 100.72087961077811 79.0123766808444 l 0.42364572166335723 -12.33398294820011 a33.341256462126324,33.341256462126324 0 0,0 0.571841032707562,0.02455731442498864 l -0.6353125149717554 12.32489306534929" fill="#ff7d0b" stroke="none" /><path d="M 101.08105385017728 79.02784411241856 l 1.0153357061982866 -19.697241451132324 a40.72339289728029,40.72339289728029 0 0,0 0.6978353778292895,0.04198004345210069 l -1.3533154361600386 19.676909429855534" fill="#ffe115" stroke="none" /><path d="M 101.80034050326958 79.07731436759882 l 1.6894800214291164 -19.63431878935558 a40.70687233086087,40.70687233086087 0 0,0 0.6957006787036429,0.06588357759050342 l -2.0262802635177724 19.602423456259892" fill="#ffe115" stroke="none" /><path d="M 102.15924093988457 79.11130261209362 l 0.4719649012508988 -4.565832287558506 a25.590160710271974,25.590160710271974 0 0,0 0.43657313594077646,0.048918930486583946 l -0.5502739387924719 4.557057596564952" fill="#ff0b01" stroke="none" /><path d="M 102.87502721639298 79.19773525538626 l 2.7000096384114642 -19.53592473524844 a40.721622836592495,40.721622836592495 0 0,0 0.6916371678440683,0.101646845839138 l -3.0349719118632144 19.48669681611042" fill="#ffe115" stroke="none" /><path d="M 103.23170211078529 79.25015418208739 l 1.5222377468901862 -9.773858314714122 a30.89168914362778,30.89168914362778 0 0,0 0.5232794665276013,0.08610543708592637 l -1.689794716470858 9.746286879132526" fill="#ff5a08" stroke="none" /><path d="M 103.94208987418118 79.37332000966035 l 3.7072465227757414 -19.397880340431897 a40.74896044054844,40.74896044054844 0 0,0 0.6859476536520894,0.13720874181487927 l -4.039690661958788 19.33138220195416" fill="#ffe115" stroke="none" /><path d="M 104.29559338865022 79.4440306129975 l 4.033213639635674 -19.300387305429588 a40.71729602157788,40.71729602157788 0 0,0 0.6829600929735208,0.14884797353877466 l -4.36393614922833 19.228307873757096" fill="#ffe115" stroke="none" /><path d="M 104.64783097203109 79.52079915486377 l 4.364980840388596 -19.232910975767684 a40.722016183411995,40.722016183411995 0 0,0 0.6803831482687294,0.1605685704041546 l -4.6944961423972105 19.155146261717302" fill="#ffe115" stroke="none" /><path d="M 105.3480935250658 79.69241777938227 l 5.0185709048008755 -19.05633115830556 a40.70608563722185,40.70608563722185 0 0,0 0.6742063657033774,0.18375794303499368 l -5.344958671438945 18.967372721126424" fill="#ffe115" stroke="none" /><path d="M 105.69591212413111 79.78721728523813 l 5.349973054255949 -18.985166996761286 a40.72457293773882,40.72457293773882 0 0,0 0.6712572939253981,0.19539321525306186 l -5.675090360562952 18.890530087205708" fill="#ffe115" stroke="none" /><path d="M 106.04205211174951 79.88797359093562 l 5.679843604525894 -18.906352090449523 a40.74109350415824,40.74109350415824 0 0,0 0.668075103581413,0.20697137483390776 l -6.003559340978937 18.80606412780897" fill="#ffe115" stroke="none" /><path d="M 106.72888874123014 80.10723608172694 l 6.97655238055952 -20.62493746100563 a42.77292650033716,42.77292650033716 0 0,0 0.6935206945765465,0.24124249801563846 l -7.329578847181084 20.5021365304214" fill="#fffc17" stroke="none" /><path d="M 107.06938296918511 80.22567764915836 l 7.301970276920444 -20.4249104457179 a42.69091368846932,42.69091368846932 0 0,0 0.6879556341893068,0.25262683805276265 l -7.651515062763876 20.296552758656414" fill="#fffb17" stroke="none" /><path d="M 109.06512990194946 81.05736502329252 l 5.1347505207144435 -10.72965372392903 a32.89500449539223,32.89500449539223 0 0,0 0.507271907443381,0.24813210965000643 l -5.318182677419892 10.639927864181802" fill="#ff770a" stroke="none" /><path d="M 109.3889696526874 81.21577127319529 l 8.818118609519951 -17.64214424251595 a40.72319622387053,40.72319622387053 0 0,0 0.6226242739191051,0.3179163906366881 l -9.119670105152634 17.48816990020643" fill="#ffe115" stroke="none" /><path d="M 110.02825361518725 81.54914285379988 l 4.810229502969258 -8.850280498023256 a31.073022027421892,31.073022027421892 0 0,0 0.46647384693801275,0.2587451795531857 l -4.961447538063371 8.766402403036924" fill="#ff5c08" stroke="none" /><path d="M 110.34350942703115 81.72400993836675 l 5.840262229773367 -10.319183756891132 a32.85724320071926,32.85724320071926 0 0,0 0.4884894672670142,0.28202952542290755 l -6.016544164900779 10.217407334192051" fill="#ff760a" stroke="none" /><line stroke="#e1ed5e" stroke-width="0.3" x1="143.13028292997686" x2="145.6673583964461" y1="26.7553504044142" y2="22.446841604673864" /><path d="M 143.63769802327073 25.89364864446614 a86.0,86.0 0 0,1 29.32050498858742,28.57503671076993" fill="none" id="id50" stroke="none" /><text fill="#e1ed5e" style="font-size:6.75px; font-family:Arial;" text-anchor="middle"><textPath startOffset="20.669276256404974" xlink:href="#id50">February</textPath></text><path d="M 110.65571695917076 81.90426304109057 l 9.993776349013231 -16.971617088822086 a40.695465273095074,40.695465273095074 0 0,0 0.598935012979436,0.35964326649347933 l -10.283644118550102 16.797559821792685" fill="#ffe115" stroke="none" /><path d="M 111.27062007382361 82.28071324371311 l 10.581775515104676 -16.636308695940677 a40.716509327938866,40.716509327938866 0 0,0 0.5865394798115757,0.3801878044449081 l -10.86580062717326 16.452207049791877" fill="#ffe115" stroke="none" /><path d="M 112.16784306229584 82.88440491214696 l 11.419945088801349 -16.063582926303816 a40.709232411777926,40.709232411777926 0 0,0 0.5660889960637481,0.4098047776116228 l -11.694015095239065 15.86517737731912" fill="#ffe115" stroke="none" /><path d="M 112.45986205192187 83.09580414077388 l 9.358899530683281 -12.697144642069874 a36.7736008091706,36.7736008091706 0 0,0 0.5049313276339509,0.37890988162348305 l -9.575483847227998 12.534615733182378" fill="#ffac10" stroke="none" /><path d="M 112.7482090630111 83.31218511350987 l 11.946133048875827 -15.6378716370011 a40.678748033265904,40.678748033265904 0 0,0 0.5512746264265159,0.428674483864027 l -12.212817619937569 15.430496101516281" fill="#ffe115" stroke="none" /><path d="M 113.31354834802062 83.75963576809568 l 12.530391110683414 -15.285039741938501 a40.76469431332884,40.76469431332884 0 0,0 0.53736731647496,0.44829092753430316 l -12.790932761320267 15.067686630492329" fill="#ffe215" stroke="none" /><path d="M 113.59037401385872 83.9905735841838 l 7.404727551174975 -8.722750436361531 a32.4418689593167,32.4418689593167 0 0,0 0.4214670269974237,0.3640531797177928 l -7.553374057935259 8.594353124179019" fill="#ff700a" stroke="none" /><path d="M 113.86319453409587 84.22622945171908 l 13.001613664534728 -14.793449676939117 a40.69487525286581,40.69487525286581 0 0,0 0.5207683909288081,0.46567430638578994 l -13.253647082286912 14.56807984066994" fill="#ffe115" stroke="none" /><path d="M 114.13192950727249 84.46653392183569 l 7.986996609494391 -8.779108389703504 a32.868650258485054,32.868650258485054 0 0,0 0.41409839597565223,0.38328329318497706 l -8.13652477678401 8.640707350386153" fill="#ff760a" stroke="none" /><path d="M 114.65682725009322 84.96080404539774 l 13.7515510109162 -14.110302782722794 a40.70293886266577,40.70293886266577 0 0,0 0.49620386777612335,0.491962834561206 l -13.991746798822287 13.872159937932928" fill="#ffe115" stroke="none" /><path d="M 114.91283532996326 85.21462403516908 l 8.118707553483592 -8.049317307593668 a32.43262530905822,32.43262530905822 0 0,0 0.38859412386139425,0.3987318043556318 l -8.255688478495797 7.908762811170294" fill="#ff700a" stroke="none" /><path d="M 115.16444852881244 85.47280134310134 l 14.224836710926182 -13.627071790242844 a40.698808721060914,40.698808721060914 0 0,0 0.4789749118711443,0.5086547580441861 l -14.456667456533587 13.380875572254164" fill="#ffe115" stroke="none" /><path d="M 115.6541949942343 86.00192230759917 l 14.671189661234934 -13.11906826212111 a40.68130478759272,40.68130478759272 0 0,0 0.4610333544369287,0.5245713266236466 l -14.894234079630452 12.865284657686164" fill="#ffe115" stroke="none" /><path d="M 116.1254893667686 86.54754324733833 l 15.13916686869445 -12.629631444992976 a40.71552596089009,40.71552596089009 0 0,0 0.44312680784446024,0.5405426541591353 l -15.353740495777537 12.367886509135346" fill="#ffe115" stroke="none" /><line stroke="#e1ed5e" stroke-width="0.3" x1="172.87174338648825" x2="177.1583165268699" y1="56.24261187166439" y2="53.66864786411523" /><path d="M 173.72905801456457 55.72781907015455 a86.0,86.0 0 0,1 12.242430191666344,42.057860355516425" fill="none" id="id51" stroke="none" /><text fill="#e1ed5e" style="font-size:6.75px; font-family:Arial;" text-anchor="middle"><textPath startOffset="22.145653131862474" xlink:href="#id51">March</textPath></text><path d="M 119.16976305983485 91.42560881287824 l 17.99454326334801 -8.048730320345529 a40.712575859743765,40.712575859743765 0 0,0 0.2798817395219435,0.6404241925524512 l -18.130058884886925 7.738644058017227" fill="#ffe115" stroke="none" /><path d="M 119.4528033332814 92.08871423366111 l 14.130682783952428 -5.746825671448106 a36.25457968082715,36.25457968082715 0 0,0 0.22951104101501824,0.5785177510664248 l -14.227252499933572 5.503406903168116" fill="#ffa50f" stroke="none" /><path d="M 120.43855184770803 95.1765574152323 l 7.789259668266121 -1.8382440726563305 a29.003231063160264,29.003231063160264 0 0,0 0.11019727707492784,0.48554953555429814 l -7.819667806898716 1.704260203163006" fill="#ff3e05" stroke="none" /><path d="M 120.51834098615036 95.52812308129327 l 9.657701930039945 -2.10485118547579 a30.884412227466846,30.884412227466846 0 0,0 0.10845177416653913,0.5189809993710928 l -9.69241141503085 1.9387537348192927" fill="#ff5a08" stroke="none" /><path d="M 120.592083275326 95.88100663000786 l 9.667533364321729 -1.933777427927023 a30.85904135760845,30.85904135760845 0 0,0 0.09944503548988695,0.5203384471552388 l -9.699304692093774 1.7675364157384696" fill="#ff5908" stroke="none" /><path d="M 120.7213421655516 96.59031103205396 l 19.41548774665601 -3.194811120252659 a40.6765846257586,40.6765846257586 0 0,0 0.10746077237850808,0.689975245826717 l -19.467470011172782 2.8610476924945005" fill="#ffe015" stroke="none" /><path d="M 120.77682067341334 96.94652285012252 l 9.740642710818895 -1.4315390410365343 a30.8452742189256,30.8452742189256 0 0,0 0.07249444862200533,0.5245337171596572 l -9.763781675996114 1.2641170156767914" fill="#ff5908" stroke="none" /><path d="M 120.96210409425399 98.7389718711861 l 9.871483106422545 -0.5938439106273873 a30.889329062710722,30.889329062710722 0 0,0 0.02729794524556223,0.5295728450592274 l -9.88022264112468 0.4242992721914292" fill="#ff5a08" stroke="none" /><path d="M 120.98066250479742 99.09900007780936 l 13.76605449186711 -0.5911736115677134 a34.77874241402562,34.77874241402562 0 0,0 0.020495134439502887,0.5966934770529317 l -13.77417431330346 0.3547738699506617" fill="#ff910d" stroke="none" /><path d="M 120.99303781780057 99.45929381324524 l 8.089051424831132 -0.2083452708628452 a29.09173409755001,29.09173409755001 0 0,0 0.008573151732195621,0.49934310834617956 l -8.091436008161992 0.06945524654759927" fill="#ff4006" stroke="none" /><line stroke="#e1ed5e" stroke-width="0.3" x1="184.99686870605535" x2="189.99668451229388" y1="99.2704041080226" y2="99.22748670261217" /><path d="M 185.99683186730306 99.26182062694052 a86.0,86.0 0 0,1 -10.086455211305974,41.156179273409016" fill="none" id="id52" stroke="none" /><text fill="#e1ed5e" style="font-size:6.75px; font-family:Arial;" text-anchor="middle"><textPath startOffset="21.40746469413373" xlink:href="#id52">April</textPath></text><path d="M 120.99922638620191 100.18025310272382 l 5.921224882330927 0.050826594148581525 a26.921443020903574,26.921443020903574 0 0,0 -0.007933580552257813,0.46209129349750583 l -5.919479870180001 -0.15246480361515838" fill="#ff1f03" stroke="none" /><path d="M 120.99303781780057 100.54070618675476 l 9.097061697662703 0.23430803983238271 a30.100078669363903,30.100078669363903 0 0,0 -0.017737994997759212,0.5164223705094882 l -9.091699015668098 -0.39043667490598166" fill="#ff4e07" stroke="none" /><path d="M 120.98066250479742 100.90099992219065 l 7.504630657130143 0.3222811308555038 a28.51154753877276,28.51154753877276 0 0,0 -0.025196619259666184,0.48880768230659266 l -7.497992448413904 -0.45106060653882707" fill="#ff3705" stroke="none" /><path d="M 120.93736805541906 101.62068470465957 l 20.408914031018874 1.5797790209941625 a41.469965160710274,41.469965160710274 0 0,0 -0.06103268523659314,0.709292316751995 l -20.378787723084542 -1.9298923851218148" fill="#ffeb16" stroke="none" /><path d="M 120.86939407059847 102.33845913500097 l 13.72373355492941 1.5377729697987277 a34.809620139357165,34.809620139357165 0 0,0 -0.07163805526269584,0.5932658643700089 l -13.69531341340705 -1.7731325110921452" fill="#ff910d" stroke="none" /><path d="M 120.77682067341334 103.0534771498775 l 17.187538117953476 2.525976217957954 a38.37216228365925,38.37216228365925 0 0,0 -0.10137287175836496,0.6508865566801754 l -17.141643754056844 -2.8206509565695796" fill="#ffc212" stroke="none" /><path d="M 120.7213421655516 103.40968896794604 l 19.464779918211885 3.2029221283243 a40.72653967183637,40.72653967183637 0 0,0 -0.11943577993332391,0.6888738398320166 l -19.406929320786325 -3.536589001076905" fill="#ffe115" stroke="none" /><path d="M 120.65975698304385 103.76489593502545 l 12.898030083976606 2.350450737288637 a34.110446167678134,34.110446167678134 0 0,0 -0.10992287447983769,0.5751629282640016 l -12.85578091721461 -2.5715162305859534" fill="#ff880c" stroke="none" /><path d="M 120.592083275326 104.11899336999214 l 19.638617517915993 3.9282735151442187 a41.02764666217128,41.02764666217128 0 0,0 -0.14407012306464914,0.6894276928359686 l -19.56828968402698 -4.264817659265597" fill="#ffe515" stroke="none" /><path d="M 120.26092885502905 105.52220625578681 l 19.026404213435267 5.185731075033182 a40.720442796133966,40.720442796133966 0 0,0 -0.18960506190460938,0.6728414754961575 l -18.934580659456078 -5.511580474432348" fill="#ffe115" stroke="none" /><path d="M 120.16314734710363 105.8691983318838 l 9.491461331267983 2.762826063492501 a30.88539559451562,30.88539559451562 0 0,0 -0.1525498518669926,0.5077888427148084 l -9.44263515939736 -2.925352509798033" fill="#ff5a08" stroke="none" /><path d="M 120.05942366710727 106.21446072829308 l 18.832104655183127 5.834234161106265 a40.715132614070576,40.715132614070576 0 0,0 -0.21256262553858993,0.6658493970016058 l -18.729177313867282 -6.156652591799254" fill="#ffe115" stroke="none" /><path d="M 119.4528033332814 107.91128576633889 l 5.479709098097304 2.2285499857640385 a26.915542818610923,26.915542818610923 0 0,0 -0.1777376271053777,0.4265056019416663 l -5.440645626455441 -2.3222880971469824" fill="#ff1f03" stroke="none" /><path d="M 119.0197475246899 108.90220220490707 l 17.820236587482462 8.340770519436143 a40.675601258709825,40.675601258709825 0 0,0 -0.30142701194319815,0.6298665238246368 l -17.674430317579354 -8.645449545325883" fill="#ffe015" stroke="none" /><path d="M 118.8641267826498 109.22738970284198 l 4.107403195192043 2.0091367273673204 a25.57246010339402,25.57246010339402 0 0,0 -0.196274825659741,0.3926811306127684 l -4.072308456320569 -2.0793497141438344" fill="#ff0b01" stroke="none" /><line stroke="#e1ed5e" stroke-width="0.3" x1="174.33088141563837" x2="178.70328620479359" y1="141.23008692659167" y2="143.65538615756765" /><path d="M 175.20536237346943 141.71514677278685 a86.0,86.0 0 0,1 -30.301960400862466,31.631185727798858" fill="none" id="id53" stroke="none" /><text fill="#e1ed5e" style="font-size:6.75px; font-family:Arial;" text-anchor="middle"><textPath startOffset="22.145653131862474" xlink:href="#id53">May</textPath></text><path d="M 118.36410011445183 110.18625677009912 l 13.780814507667287 7.643985504399229 a36.758850303438976,36.758850303438976 0 0,0 -0.31081644543164505,0.5491828772211327 l -13.647564697214264 -7.879425151719484" fill="#ffac0f" stroke="none" /><path d="M 118.00360718960297 110.81064883170644 l 3.311351254931942 1.9883712857372722 a24.86246909417847,24.86246909417847 0 0,0 -0.22285300791722878,0.36401364037905637 l -3.2767302825593085 -2.0449220422408856" fill="#ff0000" stroke="none" /><path d="M 117.62189284568427 111.42229804090321 l 16.584310989079636 10.749750017160443 a40.76351427287031,40.76351427287031 0 0,0 -0.3856530509393083,0.5839278725186795 l -16.3973334992196 -11.032857768018184" fill="#ffe215" stroke="none" /><path d="M 117.21940702142032 112.02048342749411 l 13.028570782324923 9.09495425586107 a36.88904810069678,36.88904810069678 0 0,0 -0.3669316751351233,0.5161353531901539 l -12.870524008659839 -9.317266835760728" fill="#ffae10" stroke="none" /><path d="M 116.79662413953412 112.60449989151573 l 14.411533714685676 10.81468357178881 a39.01803776129467,39.01803776129467 0 0,0 -0.40662001959878197,0.5322786583327934 l -14.22376171773259 -11.06048314336248" fill="#ffcb12" stroke="none" /><path d="M 116.1254893667686 113.45245675266167 l 15.11802383550958 12.611993174732124 a40.68799168352439,40.68799168352439 0 0,0 -0.4520347457020739,0.5324957938118422 l -14.899294526300391 -12.869655750993523" fill="#ffe115" stroke="none" /><path d="M 115.6541949942343 113.99807769240083 l 10.339075629199368 9.24526518153416 a34.86980220274219,34.86980220274219 0 0,0 -0.40283305645591133,0.4427840950098891 l -10.178844871901576 -9.42138685210172" fill="#ff920d" stroke="none" /><path d="M 115.41159269507618 114.26474011684316 l 14.463018228978548 13.386753752417691 a40.70746235109013,40.70746235109013 0 0,0 -0.47907675445108366,0.5087629113348315 l -14.231085640791205 -13.633058123697019" fill="#ffe115" stroke="none" /><path d="M 115.16444852881244 114.52719865689866 l 9.978688867642726 9.55935820812742 a34.81866711620589,34.81866711620589 0 0,0 -0.4171826767987507,0.42806617818341125 l -9.813119389693167 -9.729247078378569" fill="#ff920d" stroke="none" /><path d="M 114.91283532996324 114.78537596483092 l 13.992584786871843 13.872990763734505 a40.7041189031243,40.7041189031243 0 0,0 -0.49621825348525966,0.4919770973163021 l -13.752374613256618 -14.111147871279469" fill="#ffe115" stroke="none" /><path d="M 114.65682725009322 115.03919595460226 l 9.62351881368037 9.874578088570983 a34.78837941110362,34.78837941110362 0 0,0 -0.4312558253746173,0.4131333253074451 l -9.45259050244044 -10.038323544184008" fill="#ff910d" stroke="none" /><path d="M 114.39649973595853 115.28858382429668 l 13.514178856059367 14.35158962572961 a40.71296920656327,40.71296920656327 0 0,0 -0.5129256939746597,0.4747563648069638 l -13.26582339077074 -14.581463736668953" fill="#ffe115" stroke="none" /><path d="M 113.86319453409587 115.77377054828091 l 13.00641753617032 14.798915601025858 a40.702152169026746,40.702152169026746 0 0,0 -0.5287801109297758,0.4567476657116701 l -12.750457945477688 -15.020007399202244" fill="#ffe115" stroke="none" /><path d="M 113.59037401385872 116.0094264158162 l 12.749566990411973 15.018957856375106 a40.700775455158464,40.700775455158464 0 0,0 -0.5365247269286401,0.4475880093670311 l -12.489867929321438 -15.235608049654008" fill="#ffe115" stroke="none" /><path d="M 113.31354834802062 116.24036423190432 l 4.998440905966236 6.097285170156034 a28.884243650258487,28.884243650258487 0 0,0 -0.3861537692229171,0.311058142094905 l -4.893036366388066 -6.182191606044343" fill="#ff3c05" stroke="none" /><path d="M 113.03279911837588 116.46651593811092 l 12.218554316934675 15.43774423076903 a40.68799168352439,40.68799168352439 0 0,0 -0.5513998955188324,0.4287718938678981 l -11.951744476780613 -15.64521717625772" fill="#ffe115" stroke="none" /><path d="M 112.45986205192187 116.90419585922612 l 11.679078570714397 15.844913113158814 a40.68405821532929,40.68405821532929 0 0,0 -0.5657389320917681,0.4095513582920685 l -11.405358628248662 -16.04306524282396" fill="#ffe115" stroke="none" /><path d="M 111.8722381534696 117.32195027204791 l 11.123718755391778 16.22983810047915 a40.67599460552933,40.67599460552933 0 0,0 -0.5793495700885758,0.3898122463054076 l -10.8434728972062 -16.418400020841677" fill="#ffe015" stroke="none" /><path d="M 111.5731344415666 117.5232005979908 l 10.85962256596878 16.44285267770371 a40.705298943582825,40.705298943582825 0 0,0 -0.5863779892241605,0.3800831281972224 l -10.575758944487609 -16.62684964760483" fill="#ffe115" stroke="none" /><path d="M 111.27062007382361 117.71928675628689 l 10.56467578808775 16.609425084880904 a40.684648235558555,40.684648235558555 0 0,0 -0.5925154684764781,0.36977347458389603 l -10.277996190821558 -16.788334356306347" fill="#ffe115" stroke="none" /><line stroke="#e1ed5e" stroke-width="0.3" x1="143.1302829299769" x2="145.66735839644613" y1="173.24464959558577" y2="177.55315839532614" /><path d="M 143.63769802327073 174.10635135553383 a86.0,86.0 0 0,1 -40.68552437913181,11.842963189579606" fill="none" id="id54" stroke="none" /><text fill="#e1ed5e" style="font-size:6.75px; font-family:Arial;" text-anchor="middle"><textPath startOffset="21.407464694133747" xlink:href="#id54">June</textPath></text><path d="M 110.65571695917076 118.09573695890943 l 9.991980037995173 16.96856656000231 a40.69192515171949,40.69192515171949 0 0,0 -0.6049678823632247,0.34927836973348697 l -9.69921968777155 -17.137591827011967" fill="#ffe115" stroke="none" /><path d="M 110.34350942703117 118.27599006163325 l 9.691082514700163 17.12321422188369 a40.67540458530007,40.67540458530007 0 0,0 -0.6106265568865759,0.3387042577813696 l -9.395711769657492 -17.287051395098203" fill="#ffe015" stroke="none" /><path d="M 109.71004243097381 118.62028667847754 l 9.10184617171749 17.45399015767083 a40.684648235558555,40.684648235558555 0 0,0 -0.622034906790304,0.3176154555813142 l -8.800884043213603 -17.60766356492498" fill="#ffe115" stroke="none" /><path d="M 109.3889696526874 118.78422872680471 l 8.802115083664058 17.610126470467193 a40.68740166329513,40.68740166329513 0 0,0 -0.6274380006102646,0.30691136741764635 l -8.498516833791724 -17.758631587982066" fill="#ffe115" stroke="none" /><path d="M 109.06512990194946 118.94263497670748 l 8.503016458096841 17.7680340721898 a40.69782535401214,40.69782535401214 0 0,0 -0.6327761570938727,0.2961711922611628 l -8.196751587131462 -17.911381496021498" fill="#ffe115" stroke="none" /><path d="M 108.4095320186766 119.2426549942271 l 7.880746542788805 18.032690342702033 a40.679534726904926,40.679534726904926 0 0,0 -0.6422812797060984,0.2741516859008412 l -7.570030187912276 -18.16531667826228" fill="#ffe115" stroke="none" /><path d="M 108.07796709384702 119.3841803445677 l 7.571164988863873 18.16803978743633 a40.68248482805125,40.68248482805125 0 0,0 -0.6469397293340614,0.26310475588899995 l -7.25817079833937 -18.295331799904623" fill="#ffe115" stroke="none" /><path d="M 107.407793817531 119.65005319985036 l 6.938181204669798 18.404349950901285 a40.6687176893684,40.6687176893684 0 0,0 -0.6553683454475224,0.24066033424579927 l -6.621223707568149 -18.520741134155806" fill="#ffe015" stroke="none" /><path d="M 107.06938296918513 119.77432235084164 l 6.629301035078453 18.543334856778884 a40.6927118453585,40.6927118453585 0 0,0 -0.6597920715799875,0.22950993209518794 l -6.310003191453444 -18.654403221442664" fill="#ffe115" stroke="none" /><path d="M 106.72888874123015 119.89276391827305 l 6.30300811156399 18.633723510693734 a40.6708810968757,40.6708810968757 0 0,0 -0.6632786674053575,0.21803287236449048 l -5.982206706510898 -18.739177304460245" fill="#ffe015" stroke="none" /><path d="M 106.0420521117495 120.11202640906438 l 5.736995704556485 19.096592843738225 a40.93973364801079,40.93973364801079 0 0,0 -0.6748037570487033,0.1964255389815454 l -5.408331935126175 -19.19226207702229" fill="#ffe415" stroke="none" /><path d="M 105.69591212413111 120.21278271476187 l 4.689461479360921 16.641244433880285 a38.289362778152395,38.289362778152395 0 0,0 -0.6341786914571522,0.17284822242402512 l -4.403101386969074 -16.71929315044845" fill="#ffc111" stroke="none" /><path d="M 104.9986988182912 120.39639698878246 l 4.687380290329522 19.126111156990643 a40.69212182512925,40.69212182512925 0 0,0 -0.6798836735494075,0.16045069573039566 l -4.358364463040235 -19.203757996367266" fill="#ffe115" stroke="none" /><path d="M 104.64783097203109 120.47920084513623 l 3.7732068268952776 16.62544548268285 a38.04824117779276,38.04824117779276 0 0,0 -0.6381914535408574,0.13909085694265472 l -3.487252956735284 -16.68776779775922" fill="#ffbe11" stroke="none" /><path d="M 104.29559338865022 120.5559693870025 l 4.026817077217197 19.269777438675515 a40.68602494942684,40.68602494942684 0 0,0 -0.6848882290189279,0.13699682721732584 l -3.6954323626673107 -19.336063662555702" fill="#ffe115" stroke="none" /><path d="M 103.58742460773223 120.69131181640829 l 3.8044991412468616 21.9433400404082 a43.270706900427065,43.270706900427065 0 0,0 -0.7329697096799319,0.12060988680014238 l -3.4272519285138574 -22.00541592570401" fill="#fcff18" stroke="none" /><path d="M 103.2317021107853 120.74984581791261 l 1.6737805324290937 10.74687170733314 a31.87643290627107,31.87643290627107 0 0,0 -0.5414058733546635,0.07956801904794837 l -1.4890495534667447 -10.77402079967997" fill="#ff6809" stroke="none" /><path d="M 102.51750503828377 120.84855314841334 l 2.3613752116980615 19.555574211678554 a40.69762868060238,40.69762868060238 0 0,0 -0.6943094879162601,0.07779882631202255 l -2.025329822181002 -19.59322879849755" fill="#ffe115" stroke="none" /><path d="M 102.15924093988457 120.88869738790638 l 2.0224784981707034 19.565644825210533 a40.66989772982693,40.66989772982693 0 0,0 -0.6950687643962695,0.06582373464859677 l -1.6863101703894186 -19.597480315364315" fill="#ffe015" stroke="none" /><path d="M 101.08105385017728 120.97215588758144 l 0.8720638751327073 16.91780620383738 a37.94026747583727,37.94026747583727 0 0,0 -0.6507193800338463,0.027944690051818356 l -0.5815187344980315 -16.93028346231503" fill="#ffbc11" stroke="none" /><path d="M 100.72087961077811 120.9876233191556 l 0.6752811533420265 19.6600739831852 a40.671667790514725,40.671667790514725 0 0,0 -0.6979775031542511,0.017977424584601158 l -0.33769033611703153 -19.668769125119844" fill="#ffe015" stroke="none" /><line stroke="#e1ed5e" stroke-width="0.3" x1="101.45913802915013" x2="101.54496967792366" y1="184.9874750549273" y2="189.98673829345242" /><path d="M 101.47630435890484 185.9873277026323 a86.0,86.0 0 0,1 -42.54439059252881,-10.42667462771756" fill="none" id="id55" stroke="none" /><text fill="#e1ed5e" style="font-size:6.75px; font-family:Arial;" text-anchor="middle"><textPath startOffset="22.145653131862474" xlink:href="#id55">July</textPath></text><path d="M 100.0 121.0 l 2.4097348091010754e-15 19.676977972578108 a40.67697797257811,40.67697797257811 0 0,0 -0.6982744173022388,-0.005993846056829254 l 0.33778149245338424 -19.674078524715714" fill="#ffe015" stroke="none" /><path d="M 99.63950707515114 120.99690560180557 l -0.3377747401321726 19.673685235856762 a40.6765846257586,40.6765846257586 0 0,0 -0.6980618822951463,-0.017979597891952685 l 0.6754499364980627 -19.664987920614763" fill="#ffe015" stroke="none" /><path d="M 99.27912038922189 120.98762331915562 l -0.6753216612994715 19.661253328168293 a40.672847830973254,40.672847830973254 0 0,0 -0.6975862872246961,-0.0299573567024888 l 1.0127337091250062 -19.646763403039976" fill="#ffe015" stroke="none" /><path d="M 98.55909050195518 120.95050786540614 l -1.3499147731504977 19.62746453603967 a40.67383119802203,40.67383119802203 0 0,0 -0.696163620659401,-0.05388746708548691 l 1.686647388585135 -19.60139930195913" fill="#ffe015" stroke="none" /><path d="M 98.19965949673042 120.92268563240118 l -1.687136354968918 19.607081832521615 a40.679534726904926,40.679534726904926 0 0,0 -0.6952334654657434,-0.065839332011115 l 2.023469383819677 -19.575230745005317" fill="#ffe115" stroke="none" /><path d="M 97.48249496171623 120.84855314841334 l -2.3651004476691537 19.586424509474405 a40.728703079343674,40.728703079343674 0 0,0 -0.6934006969757178,-0.08977460258908539 l 2.7009789665356654 -19.542938310684924" fill="#ffe115" stroke="none" /><path d="M 97.12497278360702 120.80226474461374 l -1.6959203306408894 12.27083469074976 a33.38747471341875,33.38747471341875 0 0,0 -0.5670701913064153,-0.08333978998752925 l 1.9063156275549897 -12.239913827463349" fill="#ff7d0b" stroke="none" /><path d="M 96.76829788921471 120.74984581791261 l -3.029191070633343 19.449579668519 a40.68405821532929,40.68405821532929 0 0,0 -0.6891540368710218,-0.11340003451325716 l 3.3626226105574286 -19.394713635510072" fill="#ffe115" stroke="none" /><path d="M 96.05791012581884 120.62667999033965 l -3.697647517687637 19.34765428965749 a40.69782535401214,40.69782535401214 0 0,0 -0.6850868711376462,-0.13703656120436628 l 4.029230874356242 -19.281328331790263" fill="#ffe115" stroke="none" /><path d="M 95.70440661134978 120.55596938700252 l -5.494164358044606 26.29156536312979 a47.85949089683075,47.85949089683075 0 0,0 -0.8027576864446715,-0.17495730145772653 l 5.944684461108414 -26.193376603538347" fill="#c3ff1e" stroke="none" /><path d="M 95.00130118170881 120.39639698878247 l -4.685648142128817 19.1190434012348 a40.6848449089683,40.6848449089683 0 0,0 -0.6769080693876155,-0.17206738420991904 l 5.013161504741811 -19.035790785189622" fill="#ffe115" stroke="none" /><path d="M 94.30408787586889 120.21278271476187 l -1.176886316050242 4.1763543516621375 a25.339008766014835,25.339008766014835 0 0,0 -0.4176592466919396,-0.12157451968094377 l 1.2484055751237886 -4.155536137678678" fill="#ff0701" stroke="none" /><path d="M 92.59220618246901 119.65005319985036 l -6.940956282896185 18.41171117559592 a40.6765846257586,40.6765846257586 0 0,0 -0.651266477057588,-0.2519238641232677 l 7.255995022447301 -18.28984742333461" fill="#ffe015" stroke="none" /><path d="M 92.25597844496254 119.51999308798841 l -7.253456617239892 18.28344898400293 a40.669701056417175,40.669701056417175 0 0,0 -0.6467364396432823,-0.26302207974152914 l 7.566247518073615 -18.15623964768211" fill="#ffe015" stroke="none" /><path d="M 91.92203290615298 119.3841803445677 l -7.547334168880335 18.110854494781254 a40.62053270397843,40.62053270397843 0 0,0 -0.6413497082157928,-0.27375405342629466 l 7.857118952266559 -17.978625791695556" fill="#ffe015" stroke="none" /><path d="M 91.26138138417905 119.09545874513695 l -8.211073703129134 17.942677904206857 a40.73224320071927,40.73224320071927 0 0,0 -0.633311291160291,-0.29642166202474834 l 8.517873708160916 -17.799080010611583" fill="#ffe115" stroke="none" /><path d="M 90.93487009805054 118.94263497670748 l -4.273709205572732 8.930408538365157 a30.900342773657,30.900342773657 0 0,0 -0.47651234769227135,-0.23308606759454464 l 4.426381802527073 -8.855728720673392" fill="#ff5a08" stroke="none" /><path d="M 90.28995756902619 118.62028667847754 l -9.09948177238426 17.449456110191615 a40.679534726904926,40.679534726904926 0 0,0 -0.6164134723190523,-0.3282054543829926 l 9.397684060489874 -17.29068018808605" fill="#ffe115" stroke="none" /><path d="M 89.97174638481275 118.45085714620012 l -9.40059553743292 17.296036977734776 a40.68563160260733,40.68563160260733 0 0,0 -0.6107800867267477,-0.3387894181956622 l 9.696119812315771 -17.132114644105965" fill="#ffe115" stroke="none" /><line stroke="#e1ed5e" stroke-width="0.3" x1="58.13341422392154" x2="55.67067388415222" y1="173.97424548756322" y2="178.32567169271397" /><path d="M 57.64086615596768 174.84453072859336 a86.0,86.0 0 0,1 -31.369924170532247,-30.572349798747897" fill="none" id="id56" stroke="none" /><text fill="#e1ed5e" style="font-size:6.75px; font-family:Arial;" text-anchor="middle"><textPath startOffset="22.145653131862474" xlink:href="#id56">August</textPath></text><path d="M 89.65649057296885 118.27599006163327 l -9.695247972343832 17.13057418641364 a40.683861541919526,40.683861541919526 0 0,0 -0.6048480004719947,-0.3492091558913157 l 9.987888440676228 -16.961618133246155" fill="#ffe115" stroke="none" /><path d="M 89.34428304082925 118.09573695890944 l -5.18684806466715 8.808401967102325 a31.222100472016184,31.222100472016184 0 0,0 -0.4595108822558615,-0.2759230819746232 l 5.337291703480439 -8.718064884591783" fill="#ff5f08" stroke="none" /><path d="M 89.03521579738668 117.91015095944536 l -10.274607434184421 16.78279907701454 a40.67815801303664,40.67815801303664 0 0,0 -0.5924209473879426,-0.3697144864338976 l 10.561192510362076 -16.603948793739097" fill="#ffe115" stroke="none" /><path d="M 88.1277618465304 117.32195027204791 l -11.129055792098212 16.23762499653312 a40.68543492919758,40.68543492919758 0 0,0 -0.57270544203815,-0.39979287708871447 l 11.406156325310128 -16.044187303639276" fill="#ffe115" stroke="none" /><path d="M 87.83215693770417 117.11559508785305 l -11.407637762710008 16.046271130867698 a40.68799168352439,40.68799168352439 0 0,0 -0.5657936295874171,-0.40959095506077076 l 11.681412402671379 -15.84807940443386" fill="#ffe115" stroke="none" /><path d="M 87.54013794807813 116.9041958592261 l -11.67476098159399 15.839055474299975 a40.676781299168354,40.676781299168354 0 0,0 -0.5585251575402681,-0.4191276907277608 l 11.944939128045023 -15.6363087563082" fill="#ffe015" stroke="none" /><path d="M 86.96720088162412 116.46651593811092 l -8.470538259693651 10.702248380469596 a34.64874129017757,34.64874129017757 0 0,0 -0.46321940120843724,-0.37313676003258867 l 8.65300843125735 -10.555263326643598" fill="#ff8f0d" stroke="none" /><path d="M 86.68645165197938 116.24036423190432 l -12.475528957454886 15.218116835461036 a40.67815801303664,40.67815801303664 0 0,0 -0.5362265798584098,-0.4473392844770733 l 12.734929871475188 -15.001715367072093" fill="#ffe115" stroke="none" /><path d="M 86.13680546590413 115.77377054828092 l -14.291777784611433 16.26141961342548 a42.64921892560126,42.64921892560126 0 0,0 -0.5457779382845541,-0.4880379978478207 l 14.568820749719357 -16.013686085694278" fill="#fffa17" stroke="none" /><path d="M 85.86807049272751 115.53346607816431 l -15.232694264446248 16.74339937190159 a43.63573274893234,43.63573274893234 0 0,0 -0.5497483710603637,-0.5088388849868472 l 15.51787240682058 -16.479442740782364" fill="#f7ff18" stroke="none" /><path d="M 85.60350026404147 115.28858382429668 l -9.057406746483158 9.618652090027517 a34.21192964711171,34.21192964711171 0 0,0 -0.424109838037302,-0.4062876310870702 l 9.221189070385774 -9.461752328634864" fill="#ff890c" stroke="none" /><path d="M 85.08716467003676 114.78537596483092 l -15.83811380135201 15.70274612073679 a43.30296133962688,43.30296133962688 0 0,0 -0.5188379343955404,-0.5323734278171294 l 16.10533853689836 -15.428550000851924" fill="#fcff18" stroke="none" /><path d="M 84.83555147118756 114.52719865689866 l -9.998287784037572 9.578133526688264 a34.84580804675208,34.84580804675208 0 0,0 -0.41009229416671955,-0.4355038050954804 l 10.161235911940546 -9.405088261648293" fill="#ff920d" stroke="none" /><path d="M 84.3458050057657 113.99807769240083 l -19.06854416652698 17.051209776186724 a46.58032703978422,46.58032703978422 0 0,0 -0.5278858320313834,-0.6006371741860892 l 19.358441062516956 -16.721360324189334" fill="#d3ff1c" stroke="none" /><path d="M 84.1078160697243 113.72728997021213 l -15.318269743237959 13.231556564529782 a41.241627331984716,41.241627331984716 0 0,0 -0.458185517445986,-0.5397413874602743 l 15.543149824191058 -12.966648394619954" fill="#ffe815" stroke="none" /><path d="M 83.8745106332314 113.45245675266167 l -16.622954733275456 13.867460054370564 a42.64784221173298,42.64784221173298 0 0,0 -0.46415714238574274,-0.5661962428149407 l 16.85855869489983 -13.58006152985713" fill="#fffa17" stroke="none" /><path d="M 83.4222238831116 112.89097897827486 l -15.521093489223551 12.069296175714928 a40.66144077320746,40.66144077320746 0 0,0 -0.42374647195913784,-0.5546977342389959 l 15.725991938536986 -11.801077528235062" fill="#ffe015" stroke="none" /><path d="M 83.20337586046588 112.60449989151573 l -49.686237708778634 37.28547907052802 a83.12027983816589,83.12027983816589 0 0,0 -0.8466314280481211,-1.1486181324209948 l 50.31897115641059 -36.42705462883815" fill="#4cdaff" stroke="none" /><path d="M 82.78059297857968 112.02048342749411 l -18.027352900431673 12.58449239928314 a42.98533378287256,42.98533378287256 0 0,0 -0.41718343768420746,-0.608683103259342 l 18.240726074931207 -12.273174560953748" fill="#fffe18" stroke="none" /><path d="M 82.576782715395 111.72311816256416 l -17.962512005568694 12.085979718787232 a42.65000561924028,42.65000561924028 0 0,0 -0.4035006569731773,-0.6109514228199806 l 18.1673371014626 -11.775848417628191" fill="#fffa17" stroke="none" /><path d="M 82.37810715431573 111.42229804090323 l -13.326663738002969 8.638182426790058 a36.88137783771634,36.88137783771634 0 0,0 -0.3398044819075763,-0.5342290855829716 l 13.472985911536435 -8.408139666528415" fill="#ffae10" stroke="none" /><path d="M 82.18462484594161 111.11811171558189 l -3.3956929940754126 2.119163572671038 a25.002697235333784,25.002697235333784 0 0,0 -0.22410993308152877,-0.36606673317334715 l 3.431570891612346 -2.060559723373134" fill="#ff0200" stroke="none" /><path d="M 81.99639281039703 110.81064883170644 l -15.084107878072524 9.057573379160962 a38.59459991009216,38.59459991009216 0 0,0 -0.33618890336090806,-0.5709222558213166 l 15.237370491563203 -8.797299955046086" fill="#ffc512" stroke="none" /><line stroke="#e1ed5e" stroke-width="0.3" x1="26.387840678322732" x2="22.057713659400548" y1="142.50000000000003" y2="145.00000000000006" /><path d="M 25.521815274538298 143.00000000000003 a86.0,86.0 0 0,1 -11.493303480769221,-40.785679425670985" fill="none" id="id57" stroke="none" /><text fill="#e1ed5e" style="font-size:6.75px; font-family:Arial;" text-anchor="middle"><textPath startOffset="21.40746469413373" xlink:href="#id57">September</textPath></text><path d="M 81.81346652052679 110.50000000000001 l -54.559600438419615 31.50000000000003 a84.0,84.0 0 0,0 -0.7102665399144867,-1.2549729196035138 l 55.09230034335548 -30.558770310297394" fill="#4dd2ff" stroke="none" /><path d="M 81.4637452351635 109.86951160357371 l -14.887715145515969 7.926869761096861 a37.86651494717914,37.86651494717914 0 0,0 -0.300573452273059,-0.5763892268288242 l 15.021596666763978 -7.670134291163534" fill="#ffbb11" stroke="none" /><line stroke="#e1ed5e" stroke-width="0.3" x1="15.003131293944662" x2="10.003315487706104" y1="100.72959589197737" y2="100.7725132973878" /><path d="M 14.003168132696942 100.73817937305945 a86.0,86.0 0 0,1 10.791469493833604,-42.45332614584628" fill="none" id="id58" stroke="none" /><text fill="#e1ed5e" style="font-size:6.75px; font-family:Arial;" text-anchor="middle"><textPath startOffset="22.145653131862435" xlink:href="#id58">October</textPath></text><line stroke="#e1ed5e" stroke-width="0.3" x1="26.387840678322718" x2="22.05771365940052" y1="57.49999999999999" y2="54.99999999999999" /><path d="M 25.521815274538284 56.99999999999999 a86.0,86.0 0 0,1 29.574782752854787,-30.34633250058573" fill="none" id="id59" stroke="none" /><text fill="#e1ed5e" style="font-size:6.75px; font-family:Arial;" text-anchor="middle"><textPath startOffset="21.40746469413373" xlink:href="#id59">November</textPath></text><line stroke="#e1ed5e" stroke-width="0.3" x1="56.869717070023135" x2="54.33264160355391" y1="26.7553504044142" y2="22.446841604673864" /><path d="M 56.362301976729285 25.89364864446614 a86.0,86.0 0 0,1 42.16139366436587,-11.88097634709845" fill="none" id="id60" stroke="none" /><text fill="#e1ed5e" style="font-size:6.75px; font-family:Arial;" text-anchor="middle"><textPath startOffset="22.145653131862474" xlink:href="#id60">December</textPath></text></svg>