<?xml version="1.0" encoding="utf-8" ?>
<svg baseProfile="full" height="200mm" version="1.1" viewBox="0,0,200,200" width="200mm" xmlns="http://www.w3.org/2000/svg" xmlns:ev="http://www.w3.org/2001/xml-events" xmlns:xlink="http://www.w3.org/1999/xlink"><defs /><rect fill="#1a1a1a" height="200" width="200" x="0" y="0" /><text alignment-baseline="middle" fill="#e1ed5e" style="dominant-baseline: central; font-size:9.0px; font-family:Arial;" text-anchor="middle" x="100.0" y="100.0">2020</text><line stroke="#e1ed5e" stroke-width="0.3" x1="100.0" x2="100.0" y1="15.0" y2="10.0" /><path d="M 100.0 14.0 a86.0,86.0 0 0,1 42.35913384403234,11.155469271406648" fill="none" id="id1" stroke="none" /><text fill="#e1ed5e" style="font-size:6.75px; font-family:Arial;" text-anchor="middle"><textPath startOffset="22.145653131862478" xlink:href="#id1">January</textPath></text><line stroke="#e1ed5e" stroke-width="0.3" x1="143.13028292997686" x2="145.6673583964461" y1="26.7553504044142" y2="22.446841604673864" /><path d="M 143.63769802327073 25.89364864446614 a86.0,86.0 0 0,1 29.32050498858742,28.57503671076993" fill="none" id="id2" stroke="none" /><text fill="#e1ed5e" style="font-size:6.75px; font-family:Arial;" text-anchor="middle"><textPath startOffset="20.669276256404974" xlink:href="#id2">February</textPath></text><line stroke="#e1ed5e" stroke-width="0.3" x1="172.87174338648825" x2="177.1583165268699" y1="56.24261187166439" y2="53.66864786411523" /><path d="M 173.72905801456457 55.72781907015455 a86.0,86.0 0 0,1 12.242430191666344,42.057860355516425" fill="none" id="id3" stroke="none" /><text fill="#e1ed5e" style="font-size:6.75px; font-family:Arial;" text-anchor="middle"><textPath startOffset="22.145653131862474" xlink:href="#id3">March</textPath></text><line stroke="#e1ed5e" stroke-width="0.3" x1="184.99686870605535" x2="189.99668451229388" y1="99.2704041080226" y2="99.22748670261217" /><path d="M 185.99683186730306 99.26182062694052 a86.0,86.0 0 0,1 -10.086455211305974,41.156179273409016" fill="none" id="id4" stroke="none" /><text fill="#e1ed5e" style="font-size:6.75px; font-family:Arial;" text-anchor="middle"><textPath startOffset="21.40746469413373" xlink:href="#id4">April</textPath></text><line stroke="#e1ed5e" stroke-width="0.3" x1="174.33088141563837" x2="178.70328620479359" y1="141.23008692659167" y2="143.65538615756765" /><path d="M 175.20536237346943 141.71514677278685 a86.0,86.0 0 0,1 -30.301960400862466,31.631185727798858" fill="none" id="id5" stroke="none" /><text fill="#e1ed5e" style="font-size:6.75px; font-family:Arial;" text-anchor="middle"><textPath startOffset="22.145653131862474" xlink:href="#id5">May</textPath></text><line stroke="#e1ed5e" stroke-width="0.3" x1="143.1302829299769" x2="145.66735839644613" y1="173.24464959558577" y2="177.55315839532614" /><path d="M 143.63769802327073 174.10635135553383 a86.0,86.0 0 0,1 -40.68552437913181,11.842963189579606" fill="none" id="id6" stroke="none" /><text fill="#e1ed5e" style="font-size:6.75px; font-family:Arial;" text-anchor="middle"><textPath startOffset="21.407464694133747" xlink:href="#id6">June</textPath></text><line stroke="#e1ed5e" stroke-width="0.3" x1="101.45913802915013" x2="101.54496967792366" y1="184.9874750549273" y2="189.98673829345242" /><path d="M 101.47630435890484 185.9873277026323 a86.0,86.0 0 0,1 -42.54439059252881,-10.42667462771756" fill="none" id="id7" stroke="none" /><text fill="#e1ed5e" style="font-size:6.75px; font-family:Arial;" text-anchor="middle"><textPath startOffset="22.145653131862474" xlink:href="#id7">July</textPath></text><line stroke="#e1ed5e" stroke-width="0.3" x1="58.13341422392154" x2="55.67067388415222" y1="173.97424548756322" y2="178.32567169271397" /><path d="M 57.64086615596768 174.84453072859336 a86.0,86.0 0 0,1 -31.369924170532247,-30.572349798747897" fill="none" id="id8" stroke="none" /><text fill="#e1ed5e" style="font-size:6.75px; font-family:Arial;" text-anchor="middle"><textPath startOffset="22.145653131862474" xlink:href="#id8">August</textPath></text><path d="M 85.60350026404147 115.28858382429668 l -2.433707999463793 2.584513557884372 a24.55002041649653,24.55002041649653 0 0,0 -0.30433551366582473,-0.29154653774402506 l 2.4777159989949324 -2.5423548898347645" fill="#ff0000" stroke="none" /><path d="M 85.08716467003676 114.78537596483092 l -6.534083055762173 6.478236527614976 a30.201184156798693,30.201184156798693 0 0,0 -0.3618579311774101,-0.3712981153318471 l 6.644327788090393 -6.365115720215391" fill="#ff5407" stroke="none" /><path d="M 84.83555147118756 114.52719865689866 l -3.939206481181235 3.7736707005160053 a26.45508370763577,26.45508370763577 0 0,0 -0.31134379077910856,-0.3306363165215423 l 4.003406105696596 -3.7054929240499725" fill="#ff1d02" stroke="none" /><path d="M 84.58840730492382 114.26474011684316 l -7.09012975491459 6.562518251657798 a30.66108615761535,30.66108615761535 0 0,0 -0.35421190459631885,-0.38934093194403563 l 7.201739360352788 -6.439839744156088" fill="#ff5b08" stroke="none" /><path d="M 84.3458050057657 113.99807769240083 l -6.146194484873862 5.495965007690134 a29.245079624336462,29.245079624336462 0 0,0 -0.3314288278210514,-0.3771051665095823 l 6.239634376653506 -5.389647563369251" fill="#ff4606" stroke="none" /><path d="M 83.8745106332314 113.45245675266167 l -11.044873770444122 9.214026523852473 a35.38358513679053,35.38358513679053 0 0,0 -0.3850967109406769,-0.46975537149829705 l 11.201417300623428 -9.023068870655681" fill="#ff9d0e" stroke="none" /><path d="M 83.64595745247003 113.17365903436017 l -12.849064271316456 10.350296639436596 a37.49930583911801,37.49930583911801 0 0,0 -0.3995168354214096,-0.5047764703696392 l 13.024847537379427 -10.128200225152277" fill="#ffba11" stroke="none" /><path d="M 83.4222238831116 112.89097897827486 l -16.17974702923098 12.581469152255027 a41.495794201714986,41.495794201714986 0 0,0 -0.43244154805516344,-0.5660798679643857 l 16.39334055464044 -12.301868371049771" fill="#ffee16" stroke="none" /><path d="M 82.98947788004972 112.3143062007846 l -17.12744485944361 12.39894924735322 a42.14434463046141,42.14434463046141 0 0,0 -0.4192055845549197,-0.5896651532301236 l 17.33776554252849 -12.103106867413594" fill="#fff617" stroke="none" /><path d="M 82.576782715395 111.72311816256416 l -12.019577308464946 8.087308029827165 a35.48705594120049,35.48705594120049 0 0,0 -0.33573384524616984,-0.5083438326485942 l 12.156635592631842 -7.87978431883951" fill="#ff9e0e" stroke="none" /><path d="M 82.37810715431573 111.42229804090323 l -12.252336358188236 7.941816398849317 a35.60110249081258,35.60110249081258 0 0,0 -0.328008737646938,-0.5156842163842027 l 12.386862787461064 -7.730318507786443" fill="#ffa00e" stroke="none" /><path d="M 81.99639281039703 110.81064883170644 l -5.458668214993819 3.277773422826907 a27.367170273581053,27.367170273581053 0 0,0 -0.23838928201871562,-0.4048371177428191 l 5.514131207142304 -3.183585136790529" fill="#ff2a04" stroke="none" /><line stroke="#e1ed5e" stroke-width="0.3" x1="26.387840678322732" x2="22.057713659400548" y1="142.50000000000003" y2="145.00000000000006" /><path d="M 25.521815274538298 143.00000000000003 a86.0,86.0 0 0,1 -11.493303480769221,-40.785679425670985" fill="none" id="id9" stroke="none" /><text fill="#e1ed5e" style="font-size:6.75px; font-family:Arial;" text-anchor="middle"><textPath startOffset="21.40746469413373" xlink:href="#id9">September</textPath></text><path d="M 81.81346652052679 110.50000000000001 l -25.29826761402153 14.605961616986539 a50.21192323397305,50.21192323397305 0 0,0 -0.42456963068864123,-0.7501738559505556 l 25.54527060973155 -14.169530990936863" fill="#a5ff21" stroke="none" /><path d="M 81.63589988554817 110.18625677009913 l -12.706647521686035 7.048163184493799 a35.53050224581462,35.53050224581462 0 0,0 -0.2912733901009505,-0.5359102309801006 l 12.825766261402315 -6.8289981200391106" fill="#ff9f0e" stroke="none" /><path d="M 81.29705330413844 109.54985784667822 l -26.900982566196724 13.735833375389605 a51.20489995916701,51.20489995916701 0 0,0 -0.3930100104477554,-0.7862832878644437 l 27.132812489856217 -13.27201823136141" fill="#9aff23" stroke="none" /><path d="M 81.1358732173502 109.22738970284198 l -26.368952721537404 12.898376141175552 a50.35455287872601,50.35455287872601 0 0,0 -0.3731529944801996,-0.7797462409649186 l 26.586484973977516 -12.44381739814553" fill="#a4ff21" stroke="none" /><path d="M 80.9802524753101 108.90220220490708 l -36.58382551989388 17.123077568951324 a61.39277256022867,61.39277256022867 0 0,0 -0.43856522045973967,-0.9583441551252706 l 36.87237520520867 -16.492544431611364" fill="#30ff33" stroke="none" /><path d="M 80.5471966667186 107.91128576633889 l -26.750980427041675 10.879390854992298 a49.87864434463046,49.87864434463046 0 0,0 -0.31575871762231417,-0.7959182372691438 l 26.93379781963011 -10.418571600509589" fill="#a9ff21" stroke="none" /><path d="M 80.41425534168474 107.57618678355246 l -27.11533983830866 10.488795953301194 a50.07329522253981,50.07329522253981 0 0,0 -0.30322793869563136,-0.8043481330364601 l 27.291398460818726 -10.02177954007059" fill="#a7ff21" stroke="none" /><path d="M 80.16572619554312 106.89939002012753 l -13.653982117980345 4.7495637545663545 a35.456472029399755,35.456472029399755 0 0,0 -0.19503521042891728,-0.5765869441473209 l 13.73350274998163 -4.514475135944872" fill="#ff9e0e" stroke="none" /><path d="M 80.05021161711548 106.5578916946017 l -28.21590323182655 9.275127831352268 a50.70126582278482,50.70126582278482 0 0,0 -0.2646975089968556,-0.8291611768851718 l 28.37096545660066 -8.789397620775704" fill="#a0ff22" stroke="none" /><path d="M 79.83685265289637 105.86919833188381 l -25.20763913133002 7.337576371061108 a47.253858717844025,47.253858717844025 0 0,0 -0.22002636003456078,-0.7807959304809156 l 25.329883983439153 -6.903772516677197" fill="#c8ff1d" stroke="none" /><path d="M 79.73907114497094 105.5222062557868 l -28.30297604803788 7.714101979636739 a50.335402204981634,50.335402204981634 0 0,0 -0.22006282906390337,-0.8356144061377531 l 28.431228357906516 -7.227107069126183" fill="#a4ff21" stroke="none" /><path d="M 79.56144815229197 104.8234425847677 l -28.006407631906338 6.6094359436355505 a49.77574520212332,49.77574520212332 0 0,0 -0.18912208690488283,-0.8333068102698 l 28.11574058036889 -6.127694799426724" fill="#aaff21" stroke="none" /><path d="M 79.407916724674 104.11899336999214 l -42.041819671959985 8.409541384222416 a63.87464271131074,63.87464271131074 0 0,0 -0.20583970959175713,-1.077040340166125 l 42.1799856738339 -7.686598479022977" fill="#33ff52" stroke="none" /><path d="M 79.2786578344484 103.40968896794605 l -18.69969277610457 3.077027330240354 a39.951163740302164,39.951163740302164 0 0,0 -0.10554433103103404,-0.6776703176136841 l 18.74975859927387 -2.7555688306952195" fill="#ffda14" stroke="none" /><path d="M 79.22317932658666 103.0534771498775 l -19.519239054593836 2.868655959112487 a40.72890975908534,40.72890975908534 0 0,0 -0.09572357292089424,-0.6926080890110956 l 19.56560714406994 -2.5331595619013063" fill="#ffe415" stroke="none" /><path d="M 79.03789590574601 101.26102812881392 l -28.962911539620414 1.742336836969627 a50.01527153940384,50.01527153940384 0 0,0 -0.044200187746154904,-0.8574718341003524 l 28.98855331682314 -1.2448932094925438" fill="#a8ff21" stroke="none" /><path d="M 79.01933749520258 100.90099992219065 l -17.54242680916981 0.7533472876027166 a38.558595345038796,38.558595345038796 0 0,0 -0.022722604112225223,-0.661543826191646 l 17.552774100278885 -0.4520971968469507" fill="#ffc812" stroke="none" /><line stroke="#e1ed5e" stroke-width="0.3" x1="15.003131293944662" x2="10.003315487706104" y1="100.72959589197737" y2="100.7725132973878" /><path d="M 14.003168132696942 100.73817937305945 a86.0,86.0 0 0,1 10.791469493833604,-42.45332614584628" fill="none" id="id10" stroke="none" /><text fill="#e1ed5e" style="font-size:6.75px; font-family:Arial;" text-anchor="middle"><textPath startOffset="22.145653131862435" xlink:href="#id10">October</textPath></text><path d="M 79.00077361379809 100.18025310272382 l -31.730354120922886 0.2723669279826464 a52.731523070641074,52.731523070641074 0 0,0 0.0,-0.9052400614129162 l 31.730354120922886 0.27236692798263473" fill="#89ff25" stroke="none" /><path d="M 79.00696218219943 99.45929381324524 l -34.34606140976269 -0.8846327080481261 a55.35745202123316,55.35745202123316 0 0,0 0.03262218075331396,-0.9497591987115035 l 34.32581454201252 1.4740981713237682" fill="#6cff28" stroke="none" /><path d="M 79.03789590574601 98.7389718711861 l -61.90168969899622 -3.7238519368359504 a83.01359738668845,83.01359738668845 0 0,0 0.09778226518023274,-1.4217326754632307 l 61.828643472650924 4.785928036453506" fill="#4cdbff" stroke="none" /><path d="M 79.0935383218832 98.0201363427161 l -28.557651845548467 -2.7044393210521047 a49.68542262147815,49.68542262147815 0 0,0 0.08770094024360087,-0.8484270409773491 l 28.5070185128232 3.194270884312367" fill="#acff21" stroke="none" /><path d="M 79.17382384314186 97.30363454192245 l -5.9088286646210415 -0.7650161695062838 a26.95814618211515,26.95814618211515 0 0,0 0.06335868274255572,-0.4584318662326213 l 5.894825465323278 0.8663363439389721" fill="#ff2403" stroke="none" /><path d="M 79.2786578344484 96.59031103205396 l -18.603799808413164 -3.06124817889828 a39.85398121682319,39.85398121682319 0 0,0 0.11687689080472008,-0.6741148473365445 l 18.548508100116212 3.3801560591554174" fill="#ffd914" stroke="none" /><path d="M 79.34024301695615 96.23510406497455 l -8.93597056495396 -1.628431509775945 a30.083135973866888,30.083135973866888 0 0,0 0.09694463576816803,-0.5072552992428708 l 8.906699636903634 1.7815893740521305" fill="#ff5207" stroke="none" /><path d="M 79.407916724674 95.88100663000787 l -28.349920119993868 -5.6707780098180764 a49.91151490404246,49.91151490404246 0 0,0 0.17526616024989644,-0.8387120238599857 l 28.248396248919605 6.156606484963471" fill="#a9ff21" stroke="none" /><path d="M 79.48165901384962 95.52812308129327 l -31.586850694930785 -6.88420709318751 a53.32833809718252,53.32833809718252 0 0,0 0.2026201024445675,-0.892781557288654 l 31.464019730928555 7.425422984415173" fill="#82ff25" stroke="none" /><path d="M 79.56144815229197 95.17655741523228 l -25.489631007893617 -6.015483513196018 a47.189832584728464,47.189832584728464 0 0,0 0.1928322027322542,-0.7868211912981299 l 25.382611278645065 6.452160529102265" fill="#c9ff1d" stroke="none" /><path d="M 79.64726062577567 94.8264132398404 l -27.955306127813714 -7.106129499315986 a49.84434463046141,49.84434463046141 0 0,0 0.21791595997480231,-0.827462394520979 l 27.829200687034184 7.584972398209749" fill="#aaff21" stroke="none" /><path d="M 80.05021161711548 93.44210830539832 l -3.983169263488948 -1.3093468527033088 a25.19285422621478,25.19285422621478 0 0,0 0.1385781873966697,-0.4096817873080423 l 3.9601056545199134 1.3775303144855127" fill="#ff0a01" stroke="none" /><path d="M 80.16572619554312 93.10060997987247 l -16.495085936111618 -5.737847143321244 a38.46455696202532,38.46455696202532 0 0,0 0.22228819486887869,-0.6217796431858312 l 16.394157571198797 6.020161742887997" fill="#ffc612" stroke="none" /><path d="M 80.28708602549916 92.7611449362534 l -27.199903923384337 -9.988181478593274 a49.97582686810943,49.97582686810943 0 0,0 0.3026377013631245,-0.8027824583875721 l 27.024435538206774 10.453632217174992" fill="#a8ff21" stroke="none" /><path d="M 80.5471966667186 92.08871423366112 l -26.657251117391738 -10.84127196073224 a49.777460187831764,49.777460187831764 0 0,0 0.3287070120317444,-0.7887771672901034 l 26.467218260823515 11.297281637463607" fill="#aaff21" stroke="none" /><path d="M 80.68587082218212 91.75594674310238 l -39.93610907919155 -17.046350218069968 a64.42200898325848,64.42200898325848 0 0,0 0.4428740642657353,-1.0133825289719105 l 39.63760113290884 17.729394816817745" fill="#34ff59" stroke="none" /><path d="M 80.83023694016515 91.42560881287825 l -13.862136543390587 -6.200357356600028 a36.18562678644345,36.18562678644345 0 0,0 0.2584955317582795,-0.5648593879078132 l 13.753656546777261 6.437405726722512" fill="#ffa80f" stroke="none" /><path d="M 80.9802524753101 91.09779779509293 l -34.223119412943454 -16.01814791185933 a58.78628011433238,58.78628011433238 0 0,0 0.4356364063413946,-0.9103125401562222 l 33.94310374864215 16.603272954080637" fill="#47ff2c" stroke="none" /><path d="M 81.46374523516351 90.13048839642627 l -54.100281005562174 -28.80535242501589 a82.29101674152714,82.29101674152714 0 0,0 0.674608629377854,-1.2412038953018039 l 53.59782702656897 29.729811153792316" fill="#4be2ff" stroke="none" /><line stroke="#e1ed5e" stroke-width="0.3" x1="26.387840678322718" x2="22.05771365940052" y1="57.49999999999999" y2="54.99999999999999" /><path d="M 25.521815274538284 56.99999999999999 a86.0,86.0 0 0,1 29.574782752854787,-30.34633250058573" fill="none" id="id11" stroke="none" /><text fill="#e1ed5e" style="font-size:6.75px; font-family:Arial;" text-anchor="middle"><textPath startOffset="21.40746469413373" xlink:href="#id11">November</textPath></text><path d="M 82.37810715431573 88.57770195909679 l -17.728147079121573 -11.491170751290042 a42.126623111474075,42.126623111474075 0 0,0 0.3985490706212903,-0.6034540899789598 l 17.528273569579554 11.793804719608064" fill="#fff617" stroke="none" /><path d="M 82.576782715395 88.27688183743585 l -23.788726994056034 -16.006117178755076 a49.67227439771335,49.67227439771335 0 0,0 0.48208187228475863,-0.7033718588547602 l 23.510455384955964 16.41212377267987" fill="#acff21" stroke="none" /><path d="M 82.78059297857968 87.97951657250589 l -17.685341159960995 -12.34574164246429 a42.568231931400575,42.568231931400575 0 0,0 0.42342194917828074,-0.595595998102689 l 17.470804112252743 12.647514867276499" fill="#fffc17" stroke="none" /><path d="M 82.98947788004972 87.6856937992154 l -8.176488208330536 -5.9191469100409435 a31.094120048999592,31.094120048999592 0 0,0 0.31671283244282394,-0.42968178366934395 l 8.073673356303892 6.058635002979151" fill="#ff6108" stroke="none" /><path d="M 83.2033758604659 87.39550010848427 l -39.3347811311202 -29.5175530738376 a70.17835851367906,70.17835851367906 0 0,0 0.7313521425352006,-0.9573634312977424 l 38.822277011230696 30.18843741837623" fill="#3bff9c" stroke="none" /><path d="M 83.42222388311158 87.10902102172516 l -9.150381854745824 -7.115392275840207 a32.59130257247856,32.59130257247856 0 0,0 0.3472270692657849,-0.43871005900389426 l 9.026888354838478 7.271422278758783" fill="#ff760a" stroke="none" /><path d="M 83.64595745247003 86.82634096563983 l -24.897009730484278 -20.055268672031445 a52.96990608411596,52.96990608411596 0 0,0 0.5764971676264644,-0.703232807376031 l 24.549065743619185 20.47970376110597" fill="#86ff25" stroke="none" /><path d="M 83.8745106332314 86.54754324733833 l -24.187575598157533 -20.178135824919316 a52.49914250714578,52.49914250714578 0 0,0 0.5832540646729449,-0.6870718216132439 l 23.837626969977475 20.590374428982116" fill="#8bff24" stroke="none" /><path d="M 84.10781606972428 86.27271002978789 l -19.671309361687822 -16.99160850933797 a46.99375255206207,46.99375255206207 0 0,0 0.5325711033551633,-0.6059681528891566 l 19.376727194374066 17.326788940038423" fill="#cbff1d" stroke="none" /><path d="M 84.34580500576568 86.00192230759919 l -21.58028898327254 -19.297227479507715 a49.94981625153123,49.94981625153123 0 0,0 0.5770447745308481,-0.6342732905753726 l 21.245846507899824 19.664838345640746" fill="#a8ff21" stroke="none" /><path d="M 84.58840730492382 85.73525988315684 l -44.26842079757854 -40.97418940109041 a81.32062066149447,81.32062066149447 0 0,0 0.9570436663539988,-1.0163472083439078 l 43.55852129748827 41.72807806937883" fill="#4aecff" stroke="none" /><path d="M 85.08716467003674 85.21462403516908 l -4.723717215174965 -4.683343806363754 a27.651857901184155,27.651857901184155 0 0,0 0.3370999545771854,-0.33421877569698755 l 4.642625340467803 4.763742592289415" fill="#ff2f04" stroke="none" /><path d="M 85.34317274990677 84.96080404539775 l -18.04403658559524 -18.514771129683112 a46.85312372396896,46.85312372396896 0 0,0 0.5808170108812551,-0.5564095578119166 l 17.723547088848683 18.8217928178006" fill="#cdff1d" stroke="none" /><path d="M 85.60350026404147 84.71141617570332 l -21.20284815474878 -22.51668997833159 a51.928338097182525,51.928338097182525 0 0,0 0.6542234421741874,-0.6055394510875525 l 20.813194941260637 22.87734717555151" fill="#92ff23" stroke="none" /><path d="M 85.86807049272753 84.46653392183569 l -23.704210328416014 -26.055079517389128 a56.22437729685586,56.22437729685586 0 0,0 0.7194979297496216,-0.643379485426509 l 23.253447371843 26.458154532699037" fill="#62ff29" stroke="none" /><path d="M 86.13680546590413 84.22622945171909 l -39.82550294760867 -45.31411168763736 a81.3277664352797,81.3277664352797 0 0,0 1.0565658832665976,-0.9126364454292011 l 39.04175758457922 45.99109226553127" fill="#4aecff" stroke="none" /><path d="M 86.68645165197937 83.75963576809568 l -39.940645044061895 -48.721092695712954 a84.0,84.0 0 0,0 1.1229969185790178,-0.9046068248264043 l 39.09839735512763 49.399547814332756" fill="#4dd2ff" stroke="none" /><path d="M 86.96720088162412 83.53348406188908 l -8.875678561153356 -11.214129916474477 a35.30155165373622,35.30155165373622 0 0,0 0.4784033590285029,-0.37200934557741255 l 8.681865257489607 11.364840313672694" fill="#ff9c0e" stroke="none" /><path d="M 87.25179093698888 83.31218511350988 l -37.16726731327133 -48.65314599838123 a82.22527562270314,82.22527562270314 0 0,0 1.129019641037906,-0.8472373867964827 l 36.326594683322675 49.28400241244171" fill="#4be3ff" stroke="none" /><path d="M 88.12776184653039 82.6780497279521 l -17.46448731335967 -25.481208922718416 a51.89175173540221,51.89175173540221 0 0,0 0.7390959791051569,-0.49729675954748803 l 17.024495046157522 25.777255356323014" fill="#92ff23" stroke="none" /><path d="M 88.4268655584334 82.4767994020092 l -7.889169623478697 -11.94520832379438 a35.31527153940384,35.31527153940384 0 0,0 0.5087322400673427,-0.32975409168309866 l 7.682951751154328 12.078876257181385" fill="#ff9c0e" stroke="none" /><path d="M 89.03521579738668 82.08984904055464 l -3.345251638785595 -5.464217146535562 a27.40690077582687,27.40690077582687 0 0,0 0.40336072733755846,-0.24220652727117173 l 3.250958154890602 5.5208376743426575" fill="#ff2b04" stroke="none" /><line stroke="#e1ed5e" stroke-width="0.3" x1="56.869717070023135" x2="54.33264160355391" y1="26.7553504044142" y2="22.446841604673864" /><path d="M 56.362301976729285 25.89364864446614 a86.0,86.0 0 0,1 42.16139366436587,-11.88097634709845" fill="none" id="id12" stroke="none" /><text fill="#e1ed5e" style="font-size:6.75px; font-family:Arial;" text-anchor="middle"><textPath startOffset="22.145653131862474" xlink:href="#id12">December</textPath></text><path d="M 89.65649057296885 81.72400993836675 l -23.620847531752556 -41.73577428271086 a68.9564311964067,68.9564311964067 0 0,0 1.0351864618419546,-0.5742004802595474 l 22.900916881754497 42.13510767840355" fill="#3aff8e" stroke="none" /><path d="M 90.28995756902619 81.37971332152246 l -27.761046994262706 -53.23546804275056 a81.03907717435686,81.03907717435686 0 0,0 1.239021031339913,-0.6326529669765407 l 26.84309874120921 53.70417896139994" fill="#49eeff" stroke="none" /><path d="M 90.61103034731259 81.2157712731953 l -6.393751594708806 -12.791786193813701 a35.30069416088199,35.30069416088199 0 0,0 0.5443699046636439,-0.266278599094785 l 6.1732214407831085 12.8996585430057" fill="#ff9c0e" stroke="none" /><path d="M 90.93487009805054 81.0573650232925 l -12.345579183331385 -25.797512288885557 a49.59938750510413,49.59938750510413 0 0,0 0.7711790383560136,-0.36095072906299724 l 11.900911431103848 26.005639249519096" fill="#adff20" stroke="none" /><path d="M 91.26138138417902 80.90454125486306 l -5.952418247294962 -13.007108110798674 a35.30440996325031,35.30440996325031 0 0,0 0.5532480066188682,-0.2474607963300724 l 5.728256837820475 13.10737265803859" fill="#ff9c0e" stroke="none" /><path d="M 91.5904679813234 80.7573450057729 l -11.427554759066496 -26.148481647729025 a49.53650469579421,49.53650469579421 0 0,0 0.7821222597990757,-0.33384148484385046 l 10.97699742409699 26.34079778223228" fill="#adff20" stroke="none" /><path d="M 92.592206182469 80.34994680014964 l -10.098979672760613 -26.788743412960564 a49.629113924050635,49.629113924050635 0 0,0 0.7997633593186644,-0.2936841834186282 l 9.637627161787822 26.958158445387912" fill="#acff20" stroke="none" /><path d="M 92.93061703081487 80.22567764915836 l -13.904563159725951 -38.89353784715833 a62.304287464271134,62.304287464271134 0 0,0 1.0102023932587199,-0.3514008316650326 l 13.234854994422228 39.12649711139195" fill="#31ff3e" stroke="none" /><path d="M 93.27111125876988 80.10723608172694 l -9.14586674423902 -27.03812991532255 a49.54307880767661,49.54307880767661 0 0,0 0.8079703808835387,-0.2655959125273771 l 8.68037362570772 27.191146749251956" fill="#adff20" stroke="none" /><path d="M 93.61358852112211 79.99465700312896 l -4.447974348362346 -13.933216294404387 a35.625969783585134,35.625969783585134 0 0,0 0.5841969718100144,-0.18098571520049186 l 4.208136743680716 14.00751859741152" fill="#ffa00e" stroke="none" /><path d="M 94.6519064749342 79.69241777938228 l -8.53736835307327 -32.417778216696725 a54.523111474071044,54.523111474071044 0 0,0 0.9071469783772893,-0.23059321453284434 l 7.979616081470602 32.55955666306483" fill="#75ff27" stroke="none" /><path d="M 95.00130118170881 79.60360301121753 l -6.075524817979421 -24.79021453528389 a46.5238464679461,46.5238464679461 0 0,0 0.7773200861877873,-0.18344542380745518 l 5.649072578051728 24.89085610273758" fill="#d1ff1c" stroke="none" /><path d="M 95.35216902796891 79.52079915486377 l -9.411557225684085 -41.469057685213116 a63.52364230298081,63.52364230298081 0 0,0 1.0654959167787381,-0.23221987588739773 l 8.698298892286228 41.624509019234225" fill="#32ff4e" stroke="none" /><path d="M 95.70440661134978 79.44403061299748 l -6.463385903567644 -30.929641320606603 a52.59775418538179,52.59775418538179 0 0,0 0.8854043313195352,-0.1771056634584097 l 5.9314850867171325 31.03603638072788" fill="#8aff24" stroke="none" /><path d="M 96.05791012581881 79.37332000966035 l -5.379957363609625 -28.150210279996944 a49.65969783585136,49.65969783585136 0 0,0 0.8386938078441495,-0.15283795014989995 l 4.8959288222144375 28.238416404078205" fill="#acff21" stroke="none" /><path d="M 96.41257539226777 79.30868818359171 l -4.889336984429711 -28.200396435448628 a49.62111065741118,49.62111065741118 0 0,0 0.840540256396861,-0.1383105793270244 l 4.404519224979777 28.28017301327132" fill="#acff20" stroke="none" /><path d="M 97.12497278360702 79.19773525538626 l -2.3501889827430222 -17.004796733796272 a38.16643527970601,38.16643527970601 0 0,0 0.6497784319935492,-0.08412682703897778 l 2.0579327288586793 17.042635157035644" fill="#ffc212" stroke="none" /><path d="M 97.48249496171623 79.15144685158666 l -3.3717845824440182 -27.923213261971163 a49.12605144957126,49.12605144957126 0 0,0 0.8381000252615902,-0.09391085593992667 l 2.8919486555816287 27.97697987841806" fill="#b2ff20" stroke="none" /><path d="M 98.1996594967304 79.07731436759882 l -2.5769594167053236 -29.948174617669874 a51.05884034299714,51.05884034299714 0 0,0 0.8739109671473884,-0.0676462358564391 l 2.062479454782718 29.987998620521367" fill="#9cff22" stroke="none" /><path d="M 98.5590905019552 79.04949213459386 l -2.3680770020609843 -34.431319888505016 a55.5126582278481,55.5126582278481 0 0,0 0.9512639805442992,-0.05722567887269688 l 1.7766686693842013 34.46689754520241" fill="#6aff28" stroke="none" /><path d="M 98.9189461498227 79.02784411241856 l -0.930483222045209 -18.051125927085714 a39.07509187423438,39.07509187423438 0 0,0 0.6701829283454973,-0.02878053856281817 l 0.6204745330988914 18.06443903407436" fill="#ffcf13" stroke="none" /></svg>