<?xml version="1.0" encoding="utf-8" ?>
<svg baseProfile="full" height="200mm" version="1.1" viewBox="0,0,200,200" width="200mm" xmlns="http://www.w3.org/2000/svg" xmlns:ev="http://www.w3.org/2001/xml-events" xmlns:xlink="http://www.w3.org/1999/xlink"><defs /><rect fill="#1a1a1a" height="200" width="200" x="0" y="0" /><text alignment-baseline="middle" fill="#e1ed5e" style="dominant-baseline: central; font-size:9.0px; font-family:Arial;" text-anchor="middle" x="100.0" y="100.0">2025</text><line stroke="#e1ed5e" stroke-width="0.3" x1="100.0" x2="100.0" y1="15.0" y2="10.0" /><path d="M 100.0 14.0 a86.0,86.0 0 0,1 42.46469731375804,11.215312516191453" fill="none" id="id61" stroke="none" /><text fill="#e1ed5e" style="font-size:6.75px; font-family:Arial;" text-anchor="middle"><textPath startOffset="22.20632615414155" xlink:href="#id61">January</textPath></text><path d="M 102.16513564639614 79.11191278185805 l 2.5208550189249626 -24.31988018267637 a45.45017959292271,45.45017959292271 0 0,0 0.7774865638686018,0.08735967446944196 l -2.93910828630329 24.27288455473633" fill="#ffbd11" stroke="none" /><path d="M 102.52436894288641 79.15227682838746 l 2.7393617588017825 -22.623260270783273 a43.78850605294666,43.78850605294666 0 0,0 0.7475016419345908,0.09704716656388035 l -3.1283781292442194 22.572754781055256" fill="#ffa20f" stroke="none" /><path d="M 103.2404852339499 79.25152402106235 l 5.208399972939039 -33.34882090960818 a54.75309298922443,54.75309298922443 0 0,0 0.9299442448961269,0.15344876847762354 l -5.78167342397404 33.25422587819093" fill="#b4ff20" stroke="none" /><path d="M 103.95276090670814 79.375362276772 l 11.858282720124386 -61.87391316968404 a84.0,84.0 0 0,0 1.4177343621314986,0.2843841756911667 l -12.921583491723009 61.66062503791566" fill="#4dd2ff" stroke="none" /><path d="M 104.307194497241 79.44645832069477 l 4.756307048383413 -22.696666059808003 a44.18967673273912,44.18967673273912 0 0,0 0.743138374070018,0.16242126510830635 l -5.146288146606959 22.611431296603826" fill="#ffa90f" stroke="none" /><path d="M 104.66035177308747 79.52364482259891 l 7.55241096573061 -33.183299654125925 a55.03190102434481,55.03190102434481 0 0,0 0.9218532972279687,0.21817289156837255 l -8.122487949921101 33.048380850416684" fill="#b0ff20" stroke="none" /><path d="M 105.01212808612495 79.60689891045804 l 5.931473863050464 -24.133690125362158 a45.85190900625249,45.85190900625249 0 0,0 0.7648341029387282,0.19497324258076434 l -6.346016854674217 24.028013886612527" fill="#ffc412" stroke="none" /><line stroke="#e1ed5e" stroke-width="0.3" x1="143.23703022742887" x2="145.7803849466894" y1="26.81831364943548" y2="22.513508569990506" /><path d="M 143.74570117128098 25.957352633546492 a86.0,86.0 0 0,1 28.547481713284135,27.462654790039103" fill="none" id="id62" stroke="none" /><text fill="#e1ed5e" style="font-size:6.75px; font-family:Arial;" text-anchor="middle"><textPath startOffset="19.985693538727396" xlink:href="#id62">February</textPath></text><path d="M 111.60114157652 82.49532879139004 l 16.620946431088193 -25.078928701376338 a51.086683517360655,51.086683517360655 0 0,0 0.7288252647685689,0.492106072177616 l -17.050176390263303 24.78911071690005" fill="#eaff1a" stroke="none" /><path d="M 114.16331599549186 84.49514656593476 l 9.045529789963723 -9.9023148019503 a34.411839829719305,34.411839829719305 0 0,0 0.433903994810674,0.4032664746108545 l -9.214641668569245 9.745143741264805" fill="#ff0000" stroke="none" /><path d="M 114.94478906791727 85.2469230424477 l 36.6957495998638 -36.225015649371535 a72.56384195822802,72.56384195822802 0 0,0 0.8698529611374172,0.8964599386860598 l -37.31386682470433 35.587991515135364" fill="#3bff9e" stroke="none" /><path d="M 115.9244219780498 86.31012108654704 l 21.273095732231017 -18.28801730385951 a49.053452175069836,49.053452175069836 0 0,0 0.5449357030600513,0.6450319908543891 l -21.584742048778185 17.919126363376016" fill="#fff617" stroke="none" /><path d="M 116.38621287248628 86.86637796730983 l 26.656097944304488 -21.364980303331382 a55.161527205002,55.161527205002 0 0,0 0.5874595460763684,0.746013966066046 l -27.01991157097482 20.902973943312297" fill="#afff20" stroke="none" /><path d="M 116.60985879189232 87.15038557335679 l 44.96129901897919 -34.78267718909814 a77.84499135293335,77.84499135293335 0 0,0 0.8107891686634457,1.0669035063230246 l -45.55336412786675 34.00358890689408" fill="#43ffe3" stroke="none" /><path d="M 117.04232023915458 87.72973835380427 l 18.290170852382023 -13.168698790011906 a43.53763469469203,43.53763469469203 0 0,0 0.4326549963986121,0.6119598095289613 l -18.514138468584516 12.85191248015115" fill="#ff9e0e" stroke="none" /><path d="M 117.2510076193507 88.02491185347247 l 18.730321110295684 -13.001979435506065 a43.800798190767594,43.800798190767594 0 0,0 0.4246081378962614,0.623060048470481 l -18.95135371386068 12.677641363765177" fill="#ffa30f" stroke="none" /><path d="M 117.45458315368197 88.32363383020206 l 28.013247583164823 -18.7396590056773 a54.70336570440335,54.70336570440335 0 0,0 0.5168253244285487,0.7871604264520913 l -28.331669542951296 18.254680515247536" fill="#b5ff20" stroke="none" /><line stroke="#e1ed5e" stroke-width="0.3" x1="172.23445277983987" x2="176.4835382374775" y1="55.19839476539836" y2="52.563006222186495" /><path d="M 173.08426987136738 54.67131705675599 a86.0,86.0 0 0,1 12.851231095245387,41.99856678651699" fill="none" id="id63" stroke="none" /><text fill="#e1ed5e" style="font-size:6.75px; font-family:Arial;" text-anchor="middle"><textPath startOffset="22.20632615414155" xlink:href="#id63">March</textPath></text><path d="M 117.84615892207809 88.93136811851018 l 22.36360886180539 -13.870466754989726 a47.31579087401889,47.31579087401889 0 0,0 0.42332807603909567,0.6958400503853003 l -22.59905273613071 13.483458931397344" fill="#ffdb14" stroke="none" /><path d="M 118.03404312379186 89.2402003453031 l 48.528057827698845 -28.953694757928293 a77.50919249700678,77.50919249700678 0 0,0 0.6737406299974135,1.1516411328995764 l -49.019258132166584 28.11407421267482" fill="#43ffde" stroke="none" /><path d="M 119.196687751892 91.48605970444005 l 51.758785244146125 -22.955585517399324 a77.62093920446986,77.62093920446986 0 0,0 0.5311833368770856,1.226044377719712 l -52.14625929086589 22.06124199509301" fill="#43ffe0" stroke="none" /><path d="M 119.47837535516314 92.15188598940014 l 41.94445415378815 -16.90001616197682 a66.22109884262338,66.22109884262338 0 0,0 0.4168979238531558,1.0609597429759645 l -42.229145627523 16.17550741410507" fill="#31ff43" stroke="none" /><path d="M 119.61058180528143 92.48833698450437 l 36.85391046035502 -14.116570274670831 a60.46502594119995,60.46502594119995 0 0,0 0.36392865881418435,0.9751478716764563 l -37.09144370767083 13.480099265965041" fill="#67ff28" stroke="none" /><path d="M 119.7369772167798 92.82701384747503 l 50.22229684869992 -18.252229603703146 a74.43615804177198,74.43615804177198 0 0,0 0.42728807277570147,1.2080009209675968 l -50.52903800228543 17.385031056308936" fill="#3effb7" stroke="none" /><path d="M 119.97218684219823 93.5106431181261 l 53.20142083988829 -17.286189498455517 a76.93928428894505,76.93928428894505 0 0,0 0.39841548805818017,1.263085973994487 l -53.491091811714675 16.367853358034612" fill="#42ffd7" stroke="none" /><path d="M 120.08093135843002 93.85539295169968 l 53.53383424908796 -16.380932207678462 a76.98398297193029,76.98398297193029 0 0,0 0.3768333079222648,1.270494580441742 l -53.807873454121925 15.45700824049019" fill="#42ffd8" stroke="none" /><path d="M 120.53481517161879 95.60439243477599 l 54.77116273312333 -11.724115130998463 a77.01191964879605,77.01191964879605 0 0,0 0.26631713465872636,1.298656929201236 l -54.96485916369706 10.779582545633817" fill="#42ffd8" stroke="none" /><line stroke="#e1ed5e" stroke-width="0.3" x1="184.98032266829074" x2="189.97916517819016" y1="98.17113171792111" y2="98.06355123074" /><path d="M 185.9800911702706 98.14961562048488 a86.0,86.0 0 0,1 -9.607161424134198,41.387399972396054" fill="none" id="id64" stroke="none" /><text fill="#e1ed5e" style="font-size:6.75px; font-family:Arial;" text-anchor="middle"><textPath startOffset="21.466115282336823" xlink:href="#id64">April</textPath></text><line stroke="#e1ed5e" stroke-width="0.3" x1="174.80103733775053" x2="179.2010983576182" y1="140.37084112569926" y2="142.7455964860345" /><path d="M 175.68104954172406 140.8457921977663 a86.0,86.0 0 0,1 -30.038265399797805,32.042727171017184" fill="none" id="id65" stroke="none" /><text fill="#e1ed5e" style="font-size:6.75px; font-family:Arial;" text-anchor="middle"><textPath startOffset="22.206326154141568" xlink:href="#id65">May</textPath></text><line stroke="#e1ed5e" stroke-width="0.3" x1="143.8653032363475" x2="146.44561519142675" y1="172.8068346515853" y2="177.08958963109032" /><path d="M 144.38136562736335 173.6633856474863 a86.0,86.0 0 0,1 -40.68145358897372,12.25698825130547" fill="none" id="id66" stroke="none" /><text fill="#e1ed5e" style="font-size:6.75px; font-family:Arial;" text-anchor="middle"><textPath startOffset="21.466115282336833" xlink:href="#id66">June</textPath></text><line stroke="#e1ed5e" stroke-width="0.3" x1="102.19456741930631" x2="102.32365962044197" y1="184.97166512339345" y2="189.96999836594603" /><path d="M 102.22038585953345 185.97133177190398 a86.0,86.0 0 0,1 -42.740103519485714,-10.115201625700543" fill="none" id="id67" stroke="none" /><text fill="#e1ed5e" style="font-size:6.75px; font-family:Arial;" text-anchor="middle"><textPath startOffset="22.20632615414155" xlink:href="#id67">July</textPath></text><line stroke="#e1ed5e" stroke-width="0.3" x1="58.666819895761336" x2="56.23545636021788" y1="174.27360380694188" y2="178.64263932499728" /><path d="M 58.180547188652646 175.14741091055294 a86.0,86.0 0 0,1 -31.652253787137756,-30.449443065178592" fill="none" id="id68" stroke="none" /><text fill="#e1ed5e" style="font-size:6.75px; font-family:Arial;" text-anchor="middle"><textPath startOffset="22.20632615414155" xlink:href="#id68">August</textPath></text><line stroke="#e1ed5e" stroke-width="0.3" x1="26.63291911575756" x2="22.317208475507996" y1="142.92168965132927" y2="145.44649492493687" /><path d="M 25.769776987707644 143.4266507060508 a86.0,86.0 0 0,1 -11.730757126820373,-40.83630448921669" fill="none" id="id69" stroke="none" /><text fill="#e1ed5e" style="font-size:6.75px; font-family:Arial;" text-anchor="middle"><textPath startOffset="21.46611528233685" xlink:href="#id69">September</textPath></text><line stroke="#e1ed5e" stroke-width="0.3" x1="15.007084014347285" x2="10.007500721073583" y1="101.09737516637583" y2="101.16192664675087" /><path d="M 14.007167355692545 101.11028546245083 a86.0,86.0 0 0,1 10.666146001902534,-42.60595125391555" fill="none" id="id70" stroke="none" /><text fill="#e1ed5e" style="font-size:6.75px; font-family:Arial;" text-anchor="middle"><textPath startOffset="22.20632615414155" xlink:href="#id70">October</textPath></text><line stroke="#e1ed5e" stroke-width="0.3" x1="26.266209847984243" x2="21.928928074336255" y1="57.711370442889674" y2="55.22380399835377" /><path d="M 25.398753493254645 57.213857153982495 a86.0,86.0 0 0,1 29.58750427330803,-30.492523968695096" fill="none" id="id71" stroke="none" /><text fill="#e1ed5e" style="font-size:6.75px; font-family:Arial;" text-anchor="middle"><textPath startOffset="21.46611528233685" xlink:href="#id71">November</textPath></text><line stroke="#e1ed5e" stroke-width="0.3" x1="56.762969772571076" x2="54.21961505331055" y1="26.818313649435495" y2="22.513508569990535" /><path d="M 56.25429882871897 25.957352633546506 a86.0,86.0 0 0,1 42.265352541879196,-11.944610805530505" fill="none" id="id72" stroke="none" /><text fill="#e1ed5e" style="font-size:6.75px; font-family:Arial;" text-anchor="middle"><textPath startOffset="22.20632615414155" xlink:href="#id72">December</textPath></text></svg>