<?xml version="1.0" encoding="utf-8" ?>
<svg baseProfile="full" height="200mm" version="1.1" viewBox="0,0,200,200" width="200mm" xmlns="http://www.w3.org/2000/svg" xmlns:ev="http://www.w3.org/2001/xml-events" xmlns:xlink="http://www.w3.org/1999/xlink"><defs /><rect fill="#1a1a1a" height="200" width="200" x="0" y="0" /><text alignment-baseline="middle" fill="#e1ed5e" style="dominant-baseline: central; font-size:9.0px; font-family:Arial;" text-anchor="middle" x="100.0" y="100.0">2024</text><line stroke="#e1ed5e" stroke-width="0.3" x1="100.0" x2="100.0" y1="15.0" y2="10.0" /><path d="M 100.0 14.0 a86.0,86.0 0 0,1 42.35913384403234,11.155469271406648" fill="none" id="id49" stroke="none" /><text fill="#e1ed5e" style="font-size:6.75px; font-family:Arial;" text-anchor="middle"><textPath startOffset="22.145653131862478" xlink:href="#id49">January</textPath></text><path d="M 100.36049292484886 79.00309439819443 l 0.14189985722272627 -8.26495529215859 a29.26617333176967,29.26617333176967 0 0,0 0.5022447246127486,0.012936042521336113 l -0.28375789590621625 8.26130153228721" fill="#ff4f07" stroke="none" /><path d="M 100.72087961077811 79.0123766808444 l 0.3182962043602201 -9.266846698325422 a30.272311481177436,30.272311481177436 0 0,0 0.5192050839327454,0.02229690030604976 l -0.47732704889380184 9.26001722959354" fill="#ff5d08" stroke="none" /><path d="M 101.08105385017728 79.02784411241856 l 0.762848495590676 -14.799057017845232 a35.81870528908174,35.81870528908174 0 0,0 0.6137887332180432,0.036924006018517745 l -1.0167815809411815 14.783781034002024" fill="#ffaa0f" stroke="none" /><path d="M 101.80034050326958 79.07731436759882 l 1.2693509002095602 -14.751781562464394 a35.80629295180017,35.80629295180017 0 0,0 0.6119473416173912,0.05795204949041913 l -1.5223978052119644 14.727817757468792" fill="#ffaa0f" stroke="none" /><path d="M 102.15924093988457 79.11130261209362 l 0.35459967840482665 -3.4304302216700844 a24.44870880731793,24.44870880731793 0 0,0 0.41709974370849623,0.04673689626934771 l -0.4134353237141195 3.423837564893766" fill="#ff0801" stroke="none" /><path d="M 102.87502721639298 79.19773525538626 l 2.0285884542114876 -14.677855514466199 a35.81737539580158,35.81737539580158 0 0,0 0.6083408850813112,0.08940516073804454 l -2.2802544449004807 14.640869280429271" fill="#ffaa0f" stroke="none" /><path d="M 103.23170211078529 79.25015418208739 l 1.1436973683261162 -7.343357537787605 a28.43188694734373,28.43188694734373 0 0,0 0.4816124675153297,0.07924914825460976 l -1.2695873388945165 7.322642391037327" fill="#ff4306" stroke="none" /><path d="M 103.94208987418118 79.37332000966035 l 2.78535209135149 -14.574139119713543 a35.83791485868418,35.83791485868418 0 0,0 0.603277564466057,0.12067240866679253 l -3.0351261413485036 14.524177314383891" fill="#ffaa0f" stroke="none" /><path d="M 104.29559338865022 79.4440306129975 l 3.0302597836454 -14.500890031133222 a35.81412454556116,35.81412454556116 0 0,0 0.6007181276585626,0.13092371998000582 l -3.2787403279230967 14.446734853019498" fill="#ffaa0f" stroke="none" /><path d="M 104.64783097203109 79.52079915486377 l 3.2795252319455814 -14.450193284967076 a35.81767092764161,35.81767092764161 0 0,0 0.598441383639769,0.1412305370675776 l -3.527098769325235 14.39176660425327" fill="#ffaa0f" stroke="none" /><path d="M 105.3480935250658 79.69241777938227 l 3.7705846858052188 -14.317524210807328 a35.80570188812009,35.80570188812009 0 0,0 0.5930423366321883,0.16163632599123545 l -4.0158084233721 14.25068739067195" fill="#ffaa0f" stroke="none" /><path d="M 105.69591212413111 79.78721728523813 l 4.019575861437082 -14.264056699281223 a35.819591884601856,35.819591884601856 0 0,0 0.5904091948300985,0.17185951189924115 l -4.263845068648785 14.192953493079466" fill="#ffaa0f" stroke="none" /><path d="M 106.04205211174951 79.88797359093562 l 4.267416306205161 -14.204840981422572 a35.83200422188343,35.83200422188343 0 0,0 0.5875755379423264,0.18203240362462694 l -4.510632477019117 14.1294919899913" fill="#ffaa0f" stroke="none" /><path d="M 106.72888874123014 80.10723608172694 l 5.24166781039022 -15.49605949808611 a37.358573941597285,37.358573941597285 0 0,0 0.605732323416346,0.21070514545928545 l -5.506905905851585 15.403795920058233" fill="#ffbe11" stroke="none" /><path d="M 107.06938296918511 80.22567764915836 l 5.486162858837508 -15.345773925779108 a37.296955552949456,37.296955552949456 0 0,0 0.6010330652091443,0.22070766672021258 l -5.748785075700777 15.249335410050174" fill="#ffbe11" stroke="none" /><path d="M 109.06512990194946 81.05736502329252 l 3.8578734954835596 -8.061471837876713 a29.93703060865486,29.93703060865486 0 0,0 0.46165716810193613,0.2258196548543677 l -3.995690912847563 7.994058432925124" fill="#ff5908" stroke="none" /><path d="M 109.3889696526874 81.21577127319529 l 6.625285089598469 -13.255008281732497 a35.81855752316172,35.81855752316172 0 0,0 0.5476363703892155,0.27962703278435985 l -6.851848681701263 13.139323297275302" fill="#ffaa0f" stroke="none" /><path d="M 110.02825361518725 81.54914285379988 l 3.614052295595488 -6.649449164702224 a28.56812712560103,28.56812712560103 0 0,0 0.4288699099924327,0.23788690961852904 l -3.727666393744021 6.586429339650549" fill="#ff4506" stroke="none" /><path d="M 110.34350942703115 81.72400993836675 l 4.387943050401884 -7.753074925477713 a29.908659552011258,29.908659552011258 0 0,0 0.44465279944461844,0.2567204134552712 l -4.5203883177069 7.67660761474627" fill="#ff5808" stroke="none" /><line stroke="#e1ed5e" stroke-width="0.3" x1="143.13028292997686" x2="145.6673583964461" y1="26.7553504044142" y2="22.446841604673864" /><path d="M 143.63769802327073 25.89364864446614 a86.0,86.0 0 0,1 29.32050498858742,28.57503671076993" fill="none" id="id50" stroke="none" /><text fill="#e1ed5e" style="font-size:6.75px; font-family:Arial;" text-anchor="middle"><textPath startOffset="20.669276256404974" xlink:href="#id50">February</textPath></text><path d="M 110.65571695917076 81.90426304109057 l 7.508587757304352 -12.751223545979128 a35.797722528439074,35.797722528439074 0 0,0 0.5268525439707857,0.31635981495134 l -7.726373057832572 12.620449730491867" fill="#ffaa0f" stroke="none" /><path d="M 111.27062007382361 82.28071324371311 l 7.950367039292716 -12.499297506633713 a35.81353348188108,35.81353348188108 0 0,0 0.5159099256149406,0.33440658073671437 l -8.163762597164665 12.360977084193104" fill="#ffaa0f" stroke="none" /><path d="M 112.16784306229584 82.88440491214696 l 8.580105946770397 -12.068993530238183 a35.80806614284039,35.80806614284039 0 0,0 0.4979350140711609,0.36046655053420845 l -8.786021971215526 11.9199262083309" fill="#ffaa0f" stroke="none" /><path d="M 112.45986205192187 83.09580414077388 l 7.031588058789055 -9.539699657335422 a32.8511223173449,32.8511223173449 0 0,0 0.45107252053015345,0.33849322869028187 l -7.194313568229974 9.417587401381127" fill="#ff810b" stroke="none" /><path d="M 112.7482090630111 83.31218511350987 l 8.975444839404938 -11.749145410431073 a35.78516242523748,35.78516242523748 0 0,0 0.4849572074207507,0.3771056577278212 l -9.175811991460915 11.59333870108246" fill="#ffa90f" stroke="none" /><path d="M 113.31354834802062 83.75963576809568 l 9.414413331073057 -11.484053501713797 a35.849736132285685,35.849736132285685 0 0,0 0.4725774797590685,0.394240941415513 l -9.610165144994017 11.320750376386414" fill="#ffaa0f" stroke="none" /><path d="M 113.59037401385872 83.9905735841838 l 5.5633671092125665 -6.553632465764788 a29.59657792893163,29.59657792893163 0 0,0 0.3845025613242941,0.33212415466275735 l -5.675049150299721 6.45716417863731" fill="#ff5407" stroke="none" /><path d="M 113.86319453409587 84.22622945171908 l 9.76845526429713 -11.114708920170177 a35.797279230679024,35.797279230679024 0 0,0 0.4580943273263172,0.40963077224498856 l -9.957814618446823 10.945382618041801" fill="#ffaa0f" stroke="none" /><path d="M 114.13192950727249 84.46653392183569 l 6.000841210099961 -6.595975682554106 a29.917229975372344,29.917229975372344 0 0,0 0.3769146845827126,0.34886660504025013 l -6.113185665996638 6.49199133138148" fill="#ff5808" stroke="none" /><path d="M 114.65682725009322 84.96080404539774 l 10.331902972264022 -10.601442640516073 a35.80333763339979,35.80333763339979 0 0,0 0.4364735104983492,0.43274299008997086 l -10.512368402892333 10.422519640197443" fill="#ffaa0f" stroke="none" /><path d="M 114.91283532996326 85.21462403516908 l 6.099799116200989 -6.047664394293102 a29.589632930690748,29.589632930690748 0 0,0 0.3545305806887799,0.36377960822616323 l -6.202716498040581 5.942062093999197" fill="#ff5407" stroke="none" /><path d="M 115.16444852881244 85.47280134310134 l 10.687495001612668 -10.238378450627204 a35.80023454907939,35.80023454907939 0 0,0 0.4213247199846937,0.4474322520664778 l -10.86167555533362 10.053404738616232" fill="#ffaa0f" stroke="none" /><path d="M 115.6541949942343 86.00192230759917 l 11.022851745758329 -9.856702001333952 a35.78708338219773,35.78708338219773 0 0,0 0.4055680903883074,0.46146203775440375 l -11.190430900105227 9.66602768576825" fill="#ffa90f" stroke="none" /><path d="M 116.1254893667686 86.54754324733833 l 11.374455364642092 -9.488975211708011 a35.81279465228099,35.81279465228099 0 0,0 0.3897680061777471,0.47545359214553684 l -11.535670190058466 9.292319337863978" fill="#ffaa0f" stroke="none" /><line stroke="#e1ed5e" stroke-width="0.3" x1="172.87174338648825" x2="177.1583165268699" y1="56.24261187166439" y2="53.66864786411523" /><path d="M 173.72905801456457 55.72781907015455 a86.0,86.0 0 0,1 12.242430191666344,42.057860355516425" fill="none" id="id51" stroke="none" /><text fill="#e1ed5e" style="font-size:6.75px; font-family:Arial;" text-anchor="middle"><textPath startOffset="22.145653131862474" xlink:href="#id51">March</textPath></text><path d="M 119.16976305983485 91.42560881287824 l 13.51977496062329 -6.047223375291759 a35.810578163480706,35.810578163480706 0 0,0 0.2461825786756934,0.5633139176502087 l -13.621591421315953 5.814247387865701" fill="#ffaa0f" stroke="none" /><path d="M 119.4528033332814 92.08871423366111 l 10.616754672963323 -4.31774169973878 a32.46116805441538,32.46116805441538 0 0,0 0.20549669968101397,0.5179859235759097 l -10.68931004761046 4.134854758949304" fill="#ff7c0b" stroke="none" /><path d="M 120.43855184770803 95.1765574152323 l 5.85227623083464 -1.3811212555549588 a27.01303858332356,27.01303858332356 0 0,0 0.10263557501299536,0.4522312810417585 l -5.875122667405302 1.280455640574174" fill="#ff2e04" stroke="none" /><path d="M 120.51834098615036 95.52812308129327 l 7.256086182352143 -1.5814302111905454 a28.42641960830304,28.42641960830304 0 0,0 0.09982044071349391,0.47767694422038764 l -7.2821643338900035 1.4566368156847533" fill="#ff4306" stroke="none" /><path d="M 120.592083275326 95.88100663000786 l 7.2634727982325575 -1.4528979850662775 a28.407357804620617,28.407357804620617 0 0,0 0.09154434424314688,0.47899869203795303 l -7.287343434757862 1.32799672799501" fill="#ff4306" stroke="none" /><path d="M 120.7213421655516 96.59031103205396 l 14.587368028405832 -2.4003458579296204 a35.78353700011728,35.78353700011728 0 0,0 0.09453415422769927,0.6069770843683484 l -14.626423674771797 2.149580591629831" fill="#ffa90f" stroke="none" /><path d="M 120.77682067341334 96.94652285012252 l 7.3184017785181075 -1.0755530384359118 a28.397014190219302,28.397014190219302 0 0,0 0.0667403982736554,0.48290027521597095 l -7.335786693346976 0.9497644550198552" fill="#ff4206" stroke="none" /><path d="M 120.96210409425399 98.7389718711861 l 7.416705618656316 -0.4461705927136148 a28.430113756303506,28.430113756303506 0 0,0 0.025124653470753395,0.48741156522749957 l -7.423271861583642 0.3187872341093846" fill="#ff4306" stroke="none" /><path d="M 120.98066250479742 99.09900007780936 l 10.342799820032383 -0.4441643266008267 a31.352332590594578,31.352332590594578 0 0,0 0.018475949008929862,0.5379070963663525 l -10.34890045603816 0.26655096567035425" fill="#ff6d0a" stroke="none" /><path d="M 120.99303781780057 99.45929381324524 l 6.077517684562701 -0.15653529711493727 a27.079533247332005,27.079533247332005 0 0,0 0.00798016875130055,0.46480482252947736 l -6.079309284912667 0.052183558616393545" fill="#ff2f04" stroke="none" /><line stroke="#e1ed5e" stroke-width="0.3" x1="184.99686870605535" x2="189.99668451229388" y1="99.2704041080226" y2="99.22748670261217" /><path d="M 185.99683186730306 99.26182062694052 a86.0,86.0 0 0,1 -10.086455211305974,41.156179273409016" fill="none" id="id52" stroke="none" /><text fill="#e1ed5e" style="font-size:6.75px; font-family:Arial;" text-anchor="middle"><textPath startOffset="21.40746469413373" xlink:href="#id52">April</textPath></text><path d="M 120.99922638620191 100.18025310272382 l 4.448772426661902 0.03818736073748524 a25.448936319924947,25.448936319924947 0 0,0 -0.007499642055094697,0.4368165515154127 l -4.44746135300814 -0.11455082822196899" fill="#ff1702" stroke="none" /><path d="M 120.99303781780057 100.54070618675476 l 6.834862388856332 0.17604181021092405 a27.837129119268205,27.837129119268205 0 0,0 -0.01640443742667439,0.4775972968663004 l -6.830833264432812 -0.2933453716413352" fill="#ff3a05" stroke="none" /><path d="M 120.98066250479742 100.90099992219065 l 5.638426947665496 0.24213831379073958 a26.643623783276652,26.643623783276652 0 0,0 -0.023545871834984407,0.45678362326848476 l -5.633439486373939 -0.338893730435955" fill="#ff2904" stroke="none" /><path d="M 120.93736805541906 101.62068470465957 l 15.333755397509593 1.1869296452140687 a36.37962472147297,36.37962472147297 0 0,0 -0.053541067036020955,0.6222283573488241 l -15.311120707775832 -1.44997904993855" fill="#ffb110" stroke="none" /><path d="M 120.86939407059847 102.33845913500097 l 10.311002983894518 1.1553693910394907 a31.37553184003753,31.37553184003753 0 0,0 -0.06457071564856755,0.5347381540685883 l -10.289650181986286 -1.3322012220314874" fill="#ff6d0a" stroke="none" /><path d="M 120.77682067341334 103.0534771498775 l 12.913450710092185 1.897832555285647 a34.05216371525742,34.05216371525742 0 0,0 -0.08996015392313858,0.5776087212466542 l -12.878969064030779 -2.1192294584637517" fill="#ff920d" stroke="none" /><path d="M 120.7213421655516 103.40968896794604 l 14.62440253697895 2.406439872222039 a35.82106954380204,35.82106954380204 0 0,0 -0.10504986216563882,0.6058996890568866 l -14.580937857321077 -2.6571325941995134" fill="#ffaa0f" stroke="none" /><path d="M 120.65975698304385 103.76489593502545 l 9.690630188202315 1.7659556321665164 a30.850223994370822,30.850223994370822 0 0,0 -0.09941662102976043,0.5201897706930667 l -9.658887274890395 -1.9320479678928977" fill="#ff6509" stroke="none" /><path d="M 120.592083275326 104.11899336999214 l 14.755011310610987 2.951415500314571 a36.04729916735077,36.04729916735077 0 0,0 -0.12658144567616314,0.6057380405595837 l -14.702172154110459 -3.204269992159564" fill="#ffad10" stroke="none" /><path d="M 120.26092885502905 105.52220625578681 l 14.295039307801787 3.8961765305575917 a35.81648880028146,35.81648880028146 0 0,0 -0.16677096588025947,0.5918113241578242 l -14.226049849846948 -4.140995778618425" fill="#ffaa0f" stroke="none" /><path d="M 120.16314734710363 105.8691983318838 l 7.131185235891662 2.075784091160844 a28.42715843790313,28.42715843790313 0 0,0 -0.1404080707151992,0.46737280216079147 l -7.094500845172833 -2.197894496912359" fill="#ff4306" stroke="none" /><path d="M 120.05942366710727 106.21446072829308 l 14.149056925027557 4.383414003421712 a35.81249912044095,35.81249912044095 0 0,0 -0.18696731046649306,0.5856724370885482 l -14.07172489878381 -4.625655474201644" fill="#ffaa0f" stroke="none" /><path d="M 119.4528033332814 107.91128576633889 l 4.117049972968954 1.6743683824084037 a25.44450334232438,25.44450334232438 0 0,0 -0.1680235720088288,0.4031954059875383 l -4.0877005564236395 -1.7447962978372198" fill="#ff1702" stroke="none" /><path d="M 119.0197475246899 108.90220220490707 l 13.388813757699266 6.266640879441634 a35.78279817051718,35.78279817051718 0 0,0 -0.26516883826507565,0.5541008860085654 l -13.279265661474279 -6.495554267515303" fill="#ffa90f" stroke="none" /><path d="M 118.8641267826498 109.22738970284198 l 3.0860003534876896 1.5095174143406096 a24.435409874516242,24.435409874516242 0 0,0 -0.1875476897276867,0.37522101267206337 l -3.0596327505482708 -1.5622702831764186" fill="#ff0801" stroke="none" /><line stroke="#e1ed5e" stroke-width="0.3" x1="174.33088141563837" x2="178.70328620479359" y1="141.23008692659167" y2="143.65538615756765" /><path d="M 175.20536237346943 141.71514677278685 a86.0,86.0 0 0,1 -30.301960400862466,31.631185727798858" fill="none" id="id53" stroke="none" /><text fill="#e1ed5e" style="font-size:6.75px; font-family:Arial;" text-anchor="middle"><textPath startOffset="22.145653131862474" xlink:href="#id53">May</textPath></text><path d="M 118.36410011445183 110.18625677009912 l 10.353889409199127 5.743127919908987 a32.8400398733435,32.8400398733435 0 0,0 -0.2776807320415889,0.49063524666363745 l -10.25377531213616 -5.920019936671747" fill="#ff810b" stroke="none" /><path d="M 118.00360718960297 110.81064883170644 l 2.487905534865342 1.4939157903545177 a23.901974903248504,23.901974903248504 0 0,0 -0.21424368521782372,0.34995095876529747 l -2.4618938851921137 -1.5364038652443721" fill="#ff0000" stroke="none" /><path d="M 117.62189284568427 111.42229804090321 l 12.460230258027211 8.076570713022095 a35.84884953676557,35.84884953676557 0 0,0 -0.33915668075063554,0.5135264418597387 l -12.31974913835585 -8.289277033220896" fill="#ffaa0f" stroke="none" /><path d="M 117.21940702142032 112.02048342749411 l 9.78870885788807 6.8332790122469 a32.93786091239592,32.93786091239592 0 0,0 -0.327629611015223,0.46085207807318074 l -9.669964148342887 -7.000308317029584" fill="#ff830c" stroke="none" /><path d="M 116.79662413953412 112.60449989151573 l 10.827765384678862 8.125357005239747 a34.53742699659904,34.53742699659904 0 0,0 -0.3599260764512269,0.47115478785693155 l -10.686687330873331 -8.310032706337557" fill="#ff990e" stroke="none" /><path d="M 116.1254893667686 113.45245675266167 l 11.35857004616187 9.475723114050878 a35.79210742347836,35.79210742347836 0 0,0 -0.39764253549689843,0.4684219069574127 l -11.194232947157856 -9.669311803457846" fill="#ffaa0f" stroke="none" /><path d="M 115.6541949942343 113.99807769240083 l 7.768020213791896 6.946211575162364 a31.42074821156327,31.42074821156327 0 0,0 -0.36298789320922104,0.3989872807565434 l -7.647634619740796 -7.0785364314765795" fill="#ff6d0a" stroke="none" /><path d="M 115.41159269507618 114.26474011684316 l 10.866447058173426 10.057821170410353 a35.80673624956022,35.80673624956022 0 0,0 -0.42140123700110466,0.44751351048628696 l -10.69218998743606 -10.242876140841137" fill="#ffaa0f" stroke="none" /><path d="M 115.16444852881244 114.52719865689866 l 7.497252134617705 7.18219795025927 a31.382329072358388,31.382329072358388 0 0,0 -0.37600991453495797,0.3858192969783748 l -7.37285541893194 -7.309839939305382" fill="#ff6d0a" stroke="none" /><path d="M 114.91283532996324 114.78537596483092 l 10.51299800541594 10.423143861535236 a35.80422422891991,35.80422422891991 0 0,0 -0.43648431886104644,0.43275370607405483 l -10.332521766424929 -10.602077577837953" fill="#ffaa0f" stroke="none" /><path d="M 114.65682725009322 115.03919595460226 l 7.2304035054499955 7.419030960374729 a31.359573120675503,31.359573120675503 0 0,0 -0.3887504626109729,0.3724141492900787 l -7.10198055697371 -7.542057239970388" fill="#ff6d0a" stroke="none" /><path d="M 114.39649973595853 115.28858382429668 l 10.15355901161906 10.78272780961819 a35.81087369532075,35.81087369532075 0 0,0 -0.45116624014369744,0.4175927363561346 l -9.966963000161396 -10.955438292106706" fill="#ffaa0f" stroke="none" /><path d="M 113.86319453409587 115.77377054828091 l 9.772064539759274 11.118815613100532 a35.802746569719716,35.802746569719716 0 0,0 -0.4651297116699796,0.40176796681110255 l -9.57975534832644 -11.284927712376351" fill="#ffaa0f" stroke="none" /><path d="M 113.59037401385872 116.0094264158162 l 9.579085950286586 11.284139163168582 a35.80171220827958,35.80171220827958 0 0,0 -0.47194442000958126,0.3937128204569439 l -9.38396719611511 -11.446914167537395" fill="#ffaa0f" stroke="none" /><path d="M 113.31354834802062 116.24036423190432 l 3.7554604867511494 4.581051164502738 a26.92364020171221,26.92364020171221 0 0,0 -0.35994244027919314,0.2899441509004632 l -3.676267276116704 -4.644843609196605" fill="#ff2d04" stroke="none" /><path d="M 113.03279911837588 116.46651593811092 l 9.180122123220478 11.598784411759778 a35.79210742347836,35.79210742347836 0 0,0 -0.4850513253937847,0.3771788444329221 l -8.979660853191463 -11.754664307813494" fill="#ffaa0f" stroke="none" /><path d="M 112.45986205192187 116.90419585922612 l 8.774799766388652 11.904701132196404 a35.78915210507799,35.78915210507799 0 0,0 -0.49767200177605975,0.36027614991548107 l -8.569146754238623 -12.053578053484962" fill="#ffa90f" stroke="none" /><path d="M 111.8722381534696 117.32195027204791 l 8.357543289497215 12.19390542758364 a35.78309370235722,35.78309370235722 0 0,0 -0.5096598166546566,0.34292187004018887 l -8.146987184745555 -12.33557697168095" fill="#ffa90f" stroke="none" /><path d="M 111.5731344415666 117.5232005979908 l 8.159120856835106 12.353948897721295 a35.805110824440014,35.805110824440014 0 0,0 -0.5157885934772939,0.33432793471098754 l -7.945846631100802 -12.492190674136179" fill="#ffaa0f" stroke="none" /><path d="M 111.27062007382361 117.71928675628689 l 7.937519563378851 12.479099140588085 a35.789595402838046,35.789595402838046 0 0,0 -0.5212258138233613,0.3252834575202901 l -7.722129620765775 -12.613518394949923" fill="#ffaa0f" stroke="none" /><line stroke="#e1ed5e" stroke-width="0.3" x1="143.1302829299769" x2="145.66735839644613" y1="173.24464959558577" y2="177.55315839532614" /><path d="M 143.63769802327073 174.10635135553383 a86.0,86.0 0 0,1 -40.68552437913181,11.842963189579606" fill="none" id="id54" stroke="none" /><text fill="#e1ed5e" style="font-size:6.75px; font-family:Arial;" text-anchor="middle"><textPath startOffset="21.407464694133747" xlink:href="#id54">June</textPath></text><path d="M 110.65571695917076 118.09573695890943 l 7.507238141458702 12.748931603218997 a35.79506274187874,35.79506274187874 0 0,0 -0.5321661048297217,0.30724624387703564 l -7.287279568768581 -12.875924744372204" fill="#ffaa0f" stroke="none" /><path d="M 110.34350942703117 118.27599006163325 l 7.281165896021751 12.86512247042936 a35.78265040459716,35.78265040459716 0 0,0 -0.537175643010854,0.2979622740155689 l -7.059246064854802 -12.988217659878073" fill="#ffa90f" stroke="none" /><path d="M 109.71004243097381 118.62028667847754 l 6.83845709040441 13.113643155216094 a35.789595402838046,35.789595402838046 0 0,0 -0.5471935633207625,0.27940093234008156 l -6.612336305370065 -13.229102039229012" fill="#ffaa0f" stroke="none" /><path d="M 109.3889696526874 118.78422872680471 l 6.613261218529239 13.230952485122122 a35.79166412571831,35.79166412571831 0 0,0 -0.5519411232842072,0.26998206152070364 l -6.385159845982963 -13.34252829674005" fill="#ffaa0f" stroke="none" /><path d="M 109.06512990194946 118.94263497670748 l 6.388540532401184 13.349592631116254 a35.7994957194793,35.7994957194793 0 0,0 -0.5566161614342235,0.2605244687488276 l -6.158435657095455 -13.457293331435615" fill="#ffaa0f" stroke="none" /><path d="M 108.4095320186766 119.2426549942271 l 5.921012732633874 13.548435867472866 a35.78575348891756,35.78575348891756 0 0,0 -0.5650143174058301,0.24117101427244125 l -5.687563340057613 -13.648081531404712" fill="#ffa90f" stroke="none" /><path d="M 108.07796709384702 119.3841803445677 l 5.688415945942972 13.650127475149299 a35.787969977717836,35.787969977717836 0 0,0 -0.5691063293861576,0.2314505897205628 l -5.4532551553663735 -13.745765321449152" fill="#ffa90f" stroke="none" /><path d="M 107.407793817531 119.65005319985036 l 5.21283853390282 13.82767353365148 a35.77762636331653,35.77762636331653 0 0,0 -0.5765493756862675,0.21171691679297686 l -4.974700006562426 -13.915121299453178" fill="#ffa90f" stroke="none" /><path d="M 107.06938296918513 119.77432235084164 l 4.980768715760787 13.932096559170327 a35.795653805558814,35.795653805558814 0 0,0 -0.5803911193651154,0.20189015923630885 l -4.740871824350649 -14.015545150975226" fill="#ffaa0f" stroke="none" /><path d="M 106.72888874123015 119.89276391827305 l 4.73561623633416 14.000007938861264 a35.779251788436724,35.779251788436724 0 0,0 -0.58350381911982,0.19180929520320772 l -4.494589679566605 -14.079238155466491" fill="#ffa90f" stroke="none" /><path d="M 106.0420521117495 120.11202640906438 l 4.310356186347298 14.347773876976616 a35.981247801102384,35.981247801102384 0 0,0 -0.593073746112758,0.172635123944034 l -4.063422427852933 -14.419652695223169" fill="#ffac0f" stroke="none" /><path d="M 105.69591212413111 120.21278271476187 l 3.5233160941966104 12.503005856728047 a33.989954262929515,33.989954262929515 0 0,0 -0.5629684892393301,0.15343956515185384 l -3.308166204022585 -12.561645916024043" fill="#ff910d" stroke="none" /><path d="M 104.9986988182912 120.39639698878246 l 3.5217524419858677 14.36995176426996 a35.79521050779876,35.79521050779876 0 0,0 -0.598066115109476,0.14114197471623335 l -3.2745541731365124 -14.428289882632418" fill="#ffaa0f" stroke="none" /><path d="M 104.64783097203109 120.47920084513623 l 2.834909807542419 12.491135687995381 a33.80879324498651,33.80879324498651 0 0,0 -0.5670822680779682,0.12359294093696158 l -2.620065122845315 -12.537960087066063" fill="#ff8f0d" stroke="none" /><path d="M 104.29559338865022 120.5559693870025 l 3.0254538775907838 14.477892030904307 a35.79062976427818,35.79062976427818 0 0,0 -0.6024815907967911,0.12051319164039323 l -2.776475801263034 -14.527694619207562" fill="#ffaa0f" stroke="none" /><path d="M 103.58742460773223 120.69131181640829 l 2.8584205486509315 16.48661012891727 a37.732569485164774,37.732569485164774 0 0,0 -0.6391582777850602,0.10517325138127832 l -2.5749847678127993 -16.533249378794217" fill="#ffc312" stroke="none" /><path d="M 103.2317021107853 120.74984581791261 l 1.2575554600491308 8.074408162933297 a29.171750908877684,29.171750908877684 0 0,0 -0.49546815117442156,0.07281675583979617 l -1.1187622032670237 -8.094805992071976" fill="#ff4e07" stroke="none" /><path d="M 102.51750503828377 120.84855314841334 l 1.7741634779238105 14.692618684363943 a35.79934795355928,35.79934795355928 0 0,0 -0.6107438627552946,0.0684351237115222 l -1.5216837135677166 -14.720909568582435" fill="#ffaa0f" stroke="none" /><path d="M 102.15924093988457 120.88869738790638 l 1.519541438634983 14.700185001923394 a35.778512958836636,35.778512958836636 0 0,0 -0.6114725677314933,0.05790708790980442 l -1.2669693075184745 -14.724103845338382" fill="#ffa90f" stroke="none" /><path d="M 101.08105385017728 120.97215588758144 l 0.6552045901102612 12.710794008825658 a33.72766975489621,33.72766975489621 0 0,0 -0.5784684666988642,0.02484192495666805 l -0.43691036281056744 -12.720168502208157" fill="#ff8e0d" stroke="none" /><path d="M 100.72087961077811 120.9876233191556 l 0.5073565410759814 14.771132118882957 a35.77984285211681,35.77984285211681 0 0,0 -0.6140275708830457,0.015815172120205553 l -0.2537156561221918 -14.777665008353207" fill="#ffa90f" stroke="none" /><line stroke="#e1ed5e" stroke-width="0.3" x1="101.45913802915013" x2="101.54496967792366" y1="184.9874750549273" y2="189.98673829345242" /><path d="M 101.47630435890484 185.9873277026323 a86.0,86.0 0 0,1 -42.54439059252881,-10.42667462771756" fill="none" id="id55" stroke="none" /><text fill="#e1ed5e" style="font-size:6.75px; font-family:Arial;" text-anchor="middle"><textPath startOffset="22.145653131862474" xlink:href="#id55">July</textPath></text><path d="M 100.0 121.0 l 1.8104973189392028e-15 14.783832531957309 a35.78383253195731,35.78383253195731 0 0,0 -0.6142770691307998,-0.005272829846516663 l 0.2537841442819459 -14.781654100305227" fill="#ffa90f" stroke="none" /><path d="M 99.63950707515114 120.99690560180557 l -0.2537790710849269 14.781358612012491 a35.78353700011728,35.78353700011728 0 0,0 -0.6140909671571038,-0.015816804983339254 l 0.5074833523127746 -14.774824089679104" fill="#ffa90f" stroke="none" /><path d="M 99.27912038922189 120.98762331915562 l -0.5073869757728088 14.772018191874027 a35.780729447636915,35.780729447636915 0 0,0 -0.6136808101880856,-0.02635409449548876 l 0.7608935465617331 -14.76113152895271" fill="#ffa90f" stroke="none" /><path d="M 98.55909050195518 120.95050786540614 l -1.014226573129477 14.746631781166915 a35.78146827723701,35.78146827723701 0 0,0 -0.6124271005383476,-0.047405730841351634 l 1.2672226684430608 -14.727048283330511" fill="#ffa90f" stroke="none" /><path d="M 98.19965949673042 120.92268563240118 l -1.2675900417837072 14.731317718419099 a35.78575348891756,35.78575348891756 0 0,0 -0.6115963119889869,-0.05791880661964549 l 1.5202859171577092 -14.70738715629427" fill="#ffa90f" stroke="none" /><path d="M 97.48249496171623 120.84855314841334 l -1.7769623459621549 14.715797326775931 a35.82269496892225,35.82269496892225 0 0,0 -0.6098765681443227,-0.07896073190054662 l 2.0293167359972717 -14.683124998674987" fill="#ffaa0f" stroke="none" /><path d="M 97.12497278360702 120.80226474461374 l -1.2741896743838037 9.219401746964909 a30.307036472381846,30.307036472381846 0 0,0 -0.5147504301490875,-0.07565058682732768 l 1.4322652101405762 -9.196170086838698" fill="#ff5e08" stroke="none" /><path d="M 96.76829788921471 120.74984581791261 l -2.2759111464145363 14.612982188477435 a35.78915210507799,35.78915210507799 0 0,0 -0.6062384071634309,-0.09975629919797088 l 2.526427056631031 -14.571759890783795" fill="#ffa90f" stroke="none" /><path d="M 96.05791012581884 120.62667999033965 l -2.7781401056546158 14.536402963052433 a35.7994957194793,35.7994957194793 0 0,0 -0.6026308358597788,-0.12054304483284235 l 3.027267427045353 -14.48657052155673" fill="#ffaa0f" stroke="none" /><path d="M 95.70440661134978 120.55596938700252 l -4.127910591025477 19.75354649851211 a41.18024393104257,41.18024393104257 0 0,0 -0.6907252193002337,-0.15054034668018643 l 4.466398226944848 -19.679774693698207" fill="#fff016" stroke="none" /><path d="M 95.00130118170881 120.39639698878247 l -3.5204510333571957 14.364641572958238 a35.789743168758065,35.789743168758065 0 0,0 -0.5954641342851063,-0.15136465439089175 l 3.7665204608676803 -14.302091686732084" fill="#ffaa0f" stroke="none" /><path d="M 94.30408787586889 120.21278271476187 l -0.8842257296768892 3.137805175933454 a24.260011727453968,24.260011727453968 0 0,0 -0.3998742932839519,-0.11639757894456668 l 0.9379600353424479 -3.122163902686372" fill="#ff0500" stroke="none" /><path d="M 92.59220618246901 119.65005319985036 l -5.214923523367114 13.833204215917181 a35.78353700011728,35.78353700011728 0 0,0 -0.5729246516918358,-0.22161956309770559 l 5.451620437552478 -13.741644764681435" fill="#ffa90f" stroke="none" /><path d="M 92.25597844496254 119.51999308798841 l -5.449713266769604 13.736837448452427 a35.778365192916624,35.778365192916624 0 0,0 -0.5689535924797009,-0.23138847295038098 l 5.6847213204397455 -13.641261718922754" fill="#ffa90f" stroke="none" /><path d="M 91.92203290615298 119.3841803445677 l -5.670511222350414 13.607162656512928 a35.741423712911924,35.741423712911924 0 0,0 -0.5643144031749243,-0.24087226250674043 l 5.903260700695769 -13.507815744346784" fill="#ffa90f" stroke="none" /><path d="M 91.26138138417905 119.09545874513695 l -6.169196240590944 13.480807148349415 a35.825354755482586,35.825354755482586 0 0,0 -0.5570182217725121,-0.2607126532883622 l 6.399703176234946 -13.372918263490526" fill="#ffaa0f" stroke="none" /><path d="M 90.93487009805054 118.94263497670748 l -3.2109504454150395 6.7096514747916824 a28.438388647824556,28.438388647824556 0 0,0 -0.4385466995761857,-0.21451516661807837 l 3.3256573942532945 -6.653542558076383" fill="#ff4306" stroke="none" /><path d="M 90.28995756902619 118.62028667847754 l -6.836680654824217 13.110236605759258 a35.78575348891756,35.78575348891756 0 0,0 -0.5422584283656491,-0.28872207027726654 l 7.060727898976428 -12.990944067759418" fill="#ffa90f" stroke="none" /><path d="M 89.97174638481275 118.45085714620012 l -7.06291536839407 12.994968765108064 a35.790334232438134,35.790334232438134 0 0,0 -0.5372909940291294,-0.2980262572809354 l 7.2849505505793015 -12.87180959239398" fill="#ffaa0f" stroke="none" /><line stroke="#e1ed5e" stroke-width="0.3" x1="58.13341422392154" x2="55.67067388415222" y1="173.97424548756322" y2="178.32567169271397" /><path d="M 57.64086615596768 174.84453072859336 a86.0,86.0 0 0,1 -31.369924170532247,-30.572349798747897" fill="none" id="id56" stroke="none" /><text fill="#e1ed5e" style="font-size:6.75px; font-family:Arial;" text-anchor="middle"><textPath startOffset="22.145653131862474" xlink:href="#id56">August</textPath></text><path d="M 89.65649057296885 118.27599006163327 l -7.284295514213572 12.870652205900107 a35.78900433915797,35.78900433915797 0 0,0 -0.5320760344029503,-0.30719424169189424 l 7.504164016476922 -12.743711066932041" fill="#ffa90f" stroke="none" /><path d="M 89.34428304082925 118.09573695890944 l -3.897015754330242 6.617984719873234 a28.680133692975254,28.680133692975254 0 0,0 -0.4220995172405865,-0.25345863219877546 l 4.010048028128256 -6.550112087138539" fill="#ff4606" stroke="none" /><path d="M 89.03521579738668 117.91015095944536 l -7.719583558525688 12.609359593624754 a35.78471912747742,35.78471912747742 0 0,0 -0.5211547976365474,-0.3252391381673812 l 7.934902484951948 -12.474984658615826" fill="#ffa90f" stroke="none" /><path d="M 88.1277618465304 117.32195027204791 l -8.361553145939338 12.199755927968715 a35.79018646651812,35.79018646651812 0 0,0 -0.5037978479670964,-0.3516900247936727 l 8.5697460850802 -12.054421087369912" fill="#ffaa0f" stroke="none" /><path d="M 87.83215693770417 117.11559508785305 l -8.570859128071705 12.05598672172766 a35.79210742347836,35.79210742347836 0 0,0 -0.49771309744719316,-0.3603059000121765 l 8.776553235892852 -11.907080050342417" fill="#ffaa0f" stroke="none" /><path d="M 87.54013794807813 116.9041958592261 l -8.771555847805882 11.90030013362627 a35.78368476603729,35.78368476603729 0 0,0 -0.4913389784783903,-0.3687099294168095 l 8.97454781519504 -11.747971176945446" fill="#ffa90f" stroke="none" /><path d="M 86.96720088162412 116.46651593811092 l -6.364138805326955 8.040881480518504 a31.254659317462178,31.254659317462178 0 0,0 -0.41784388219934493,-0.3365854538833214 l 6.501233457881562 -7.930447732841772" fill="#ff6b09" stroke="none" /><path d="M 86.68645165197938 116.24036423190432 l -9.373193948360756 11.433772556982673 a35.78471912747742,35.78471912747742 0 0,0 -0.4717204142520758,-0.39352594688698866 l 9.568088696774725 -11.271184426183813" fill="#ffa90f" stroke="none" /><path d="M 86.13680546590413 115.77377054828092 l -10.737789595846163 12.217633451224014 a37.26562917790548,37.26562917790548 0 0,0 -0.4768846598826017,-0.4264332034837593 l 10.945939282552136 -12.031504717856873" fill="#ffbd11" stroke="none" /><path d="M 85.86807049272751 115.53346607816431 l -11.444724963859594 12.579757556004438 a38.006823032719595,38.006823032719595 0 0,0 -0.47883208863791427,-0.44319983269525004 l 11.658986823811476 -12.38143997717681" fill="#ffc712" stroke="none" /><path d="M 85.60350026404147 115.28858382429668 l -6.805068578134063 7.226747007609558 a30.926471209100505,30.926471209100505 0 0,0 -0.38338149384871706,-0.3672707986668243 l 6.928122557848094 -7.108864078637151" fill="#ff6709" stroke="none" /><path d="M 85.08716467003676 114.78537596483092 l -11.899592629903802 11.797887321129059 a37.75680309604785,37.75680309604785 0 0,0 -0.45238619072931524,-0.4641880847364835 l 12.100365621783927 -11.591876544324839" fill="#ffc412" stroke="none" /><path d="M 84.83555147118756 114.52719865689866 l -7.511977317427434 7.196304342293883 a31.40272076932098,31.40272076932098 0 0,0 -0.3695713925212898,-0.3924720117565153 l 7.634404543684976 -7.066290870592877" fill="#ff6d0a" stroke="none" /><path d="M 84.3458050057657 113.99807769240083 l -14.326700166002707 12.811023631256807 a40.21917438724053,40.21917438724053 0 0,0 -0.4557961200420571,-0.518612315268141 l 14.544507350003355 -12.563199038177366" fill="#ffe415" stroke="none" /><path d="M 84.1078160697243 113.72728997021213 l -11.509020078132819 9.941217429817508 a36.20806848833118,36.20806848833118 0 0,0 -0.40226377253497536,-0.4738657125683314 l 11.677978414174907 -9.742184934799623" fill="#ffaf10" stroke="none" /><path d="M 83.8745106332314 113.45245675266167 l -12.489264322271984 10.4189884937174 a37.26459481646535,37.26459481646535 0 0,0 -0.40556865119461044,-0.49472780991717247 l 12.666279792705224 -10.203058402101734" fill="#ffbd11" stroke="none" /><path d="M 83.4222238831116 112.89097897827486 l -11.66140690797702 9.067980545032043 a35.77215902427583,35.77215902427583 0 0,0 -0.37279363182049874,-0.4879988308893762 l 11.815352517151814 -8.866460800901798" fill="#ffa90f" stroke="none" /><path d="M 83.20337586046588 112.60449989151573 l -37.33058086731006 28.013563831837928 a67.67260466752668,67.67260466752668 0 0,0 -0.6892873079945624,-0.9351506147551243 l 37.80597019488845 -27.368606907813923" fill="#38ff81" stroke="none" /><path d="M 82.78059297857968 112.02048342749411 l -13.544425706319872 9.455061056121895 a37.51816113521755,37.51816113521755 0 0,0 -0.3641231569130349,-0.5312665678884991 l 13.704738600048232 -9.221159753163345" fill="#ffc111" stroke="none" /><path d="M 82.576782715395 111.72311816256416 l -13.495709031827865 9.08051533097145 a37.26622024158556,37.26622024158556 0 0,0 -0.3525660578952754,-0.533829947948434 l 13.649599528643867 -8.847505504683955" fill="#ffbd11" stroke="none" /><path d="M 82.37810715431573 111.42229804090323 l -10.0126739577038 6.490094289688767 a32.93209804151519,32.93209804151519 0 0,0 -0.30341801660356515,-0.4770235184938195 l 10.122609665933256 -6.3172570965162755" fill="#ff830c" stroke="none" /><path d="M 82.18462484594161 111.11811171558189 l -2.551273708000911 1.592183485180176 a24.007332004221883,24.007332004221883 0 0,0 -0.21518804624521878,-0.3514935015320609 l 2.5782297187015346 -1.548152867523558" fill="#ff0200" stroke="none" /><path d="M 81.99639281039703 110.81064883170644 l -11.333088092804541 6.80519377365984 a34.21928697079864,34.21928697079864 0 0,0 -0.29807653369394743,-0.5061991199669544 l 11.44823833662826 -6.609643485399327" fill="#ff940d" stroke="none" /><line stroke="#e1ed5e" stroke-width="0.3" x1="26.387840678322732" x2="22.057713659400548" y1="142.50000000000003" y2="145.00000000000006" /><path d="M 25.521815274538298 143.00000000000003 a86.0,86.0 0 0,1 -11.493303480769221,-40.785679425670985" fill="none" id="id57" stroke="none" /><text fill="#e1ed5e" style="font-size:6.75px; font-family:Arial;" text-anchor="middle"><textPath startOffset="21.40746469413373" xlink:href="#id57">September</textPath></text><path d="M 81.81346652052679 110.50000000000001 l -40.992066821245636 23.666780813885325 a68.3335616277706,68.3335616277706 0 0,0 -0.5777981235403568,-1.0209139207489275 l 41.39229830980737 -22.959610123037276" fill="#39ff89" stroke="none" /><path d="M 81.4637452351635 109.86951160357371 l -11.185533052967843 5.955666323050629 a33.67225753488918,33.67225753488918 0 0,0 -0.2672806490696901,-0.512545886865716 l 11.286121771012484 -5.76277419308041" fill="#ff8d0d" stroke="none" /><path d="M 81.29705330413844 109.54985784667822 l -13.22699939177406 6.753800135541841 a35.85150932332591,35.85150932332591 0 0,0 -0.27516901829637574,-0.5505223650105151 l 13.340988323282172 -6.525745914367573" fill="#ffaa0f" stroke="none" /><path d="M 81.1358732173502 109.22738970284198 l -16.937229347715135 8.284847609353601 a39.85493139439428,39.85493139439428 0 0,0 -0.295345428454878,-0.6171583533576183 l 17.076954034129926 -7.992876753930878" fill="#ffdf14" stroke="none" /><path d="M 80.83023694016515 108.57439118712176 l -14.847068042659938 6.640904688400326 a37.26459481646535,37.26459481646535 0 0,0 -0.2561783281839866,-0.5861861486815607 l 14.958880252860892 -6.385056469942916" fill="#ffbd11" stroke="none" /><path d="M 80.68587082218212 108.24405325689762 l -15.953013159644554 6.809392693052143 a38.34550252140261,38.34550252140261 0 0,0 -0.25321572276093196,-0.6076255546790555 l 16.06755472694197 -6.534534628931805" fill="#ffcb13" stroke="none" /><path d="M 80.41425534168474 107.57618678355246 l -20.654266813240596 7.989514107547845 a43.145678433212154,43.145678433212154 0 0,0 -0.26127649631970606,-0.6930669480031355 l 20.78837399337474 -7.633778879350564" fill="#f5ff19" stroke="none" /><path d="M 80.28708602549918 107.23885506374661 l -9.85113979455177 3.6174749850635686 a31.494335639732615,31.494335639732615 0 0,0 -0.18200701037223468,-0.5091060010331301 l 9.911786974967947 -3.4478340276495167" fill="#ff6f0a" stroke="none" /><path d="M 80.16572619554312 106.89939002012753 l -16.79923680902411 5.843646605296711 a38.78658379265862,38.78658379265862 0 0,0 -0.21335313692652433,-0.6307406389552638 l 16.897075367522998 -5.554404291867286" fill="#ffd113" stroke="none" /><path d="M 80.05021161711548 106.5578916946017 l -4.2072131414806995 1.382994525476069 a25.428692388882375,25.428692388882375 0 0,0 -0.13275628178418455,-0.41585716186086796 l 4.230334139042139 -1.3105683299238093" fill="#ff1702" stroke="none" /><path d="M 79.94057633289273 106.21446072829308 l -18.364711715684244 5.689434633692128 a40.22582385364137,40.22582385364137 0 0,0 -0.19868430861835515,-0.6613554448212219 l 18.45967234430623 -5.3733415852801825" fill="#ffe415" stroke="none" /><path d="M 79.83685265289637 105.86919833188381 l -27.4731454365649 7.997032238672314 a49.61339275243345,49.61339275243345 0 0,0 -0.23101296936329963,-0.8197835311134738 l 27.60637689800277 -7.524240783655844" fill="#a8ff21" stroke="none" /><path d="M 79.64726062577567 105.17358676015961 l -26.14898568551392 6.646969906444533 a47.98057933622611,47.98057933622611 0 0,0 -0.19606343771537033,-0.8000057326908832 l 26.259236649745585 -6.197108349145551" fill="#bbff1f" stroke="none" /><path d="M 79.34024301695615 103.76489593502545 l -4.3916823627847155 0.8003108211360546 a25.464008443766858,25.464008443766858 0 0,0 -0.07467645749469849,-0.43071396233308784 l 4.4047736377716475 -0.724803825882374" fill="#ff1702" stroke="none" /><path d="M 79.2786578344484 103.40968896794605 l -30.786757815805483 5.065949282855455 a52.200774011962004,52.200774011962004 0 0,0 -0.1379057643529121,-0.8854539340660239 l 30.869185072296663 -4.5367071668579815" fill="#8bff24" stroke="none" /><path d="M 79.17382384314188 102.69636545807758 l -19.598635857053175 2.537435790054856 a40.76221414330949,40.76221414330949 0 0,0 -0.08388846927194109,-0.6947168659282339 l 19.639306412584776 -2.200625247203223" fill="#ffeb16" stroke="none" /><path d="M 79.13060592940153 102.33845913500099 l -17.640719899385438 1.9766794597466957 a38.75111997185411,38.75111997185411 0 0,0 -0.06840053838155045,-0.6617131608751649 l 17.672052830248653 -1.6735617765885995" fill="#ffd113" stroke="none" /><path d="M 79.06263194458094 101.62068470465958 l -15.1509248093301 1.1727774013875267 a36.19624721472968,36.19624721472968 0 0,0 -0.04263579889440105,-0.6199151586529793 l 15.168824569389567 -0.9125188185802042" fill="#ffaf10" stroke="none" /><path d="M 79.03789590574601 101.26102812881392 l -35.32017436198002 2.124773981886578 a56.38402720769321,56.38402720769321 0 0,0 -0.049828472619626044,-0.9666590570373049 l 35.351444424056226 -1.5181431314725424" fill="#5dff2a" stroke="none" /><path d="M 79.01933749520258 100.90099992219065 l -12.021498870169959 0.5162548868111966 a33.032578867127945,33.032578867127945 0 0,0 -0.01946611918009562,-0.5667348205294209 l 12.028589676346902 -0.3098138017176557" fill="#ff840c" stroke="none" /><line stroke="#e1ed5e" stroke-width="0.3" x1="15.003131293944662" x2="10.003315487706104" y1="100.72959589197737" y2="100.7725132973878" /><path d="M 14.003168132696942 100.73817937305945 a86.0,86.0 0 0,1 10.791469493833604,-42.45332614584628" fill="none" id="id58" stroke="none" /><text fill="#e1ed5e" style="font-size:6.75px; font-family:Arial;" text-anchor="middle"><textPath startOffset="22.145653131862435" xlink:href="#id58">October</textPath></text><path d="M 79.00077361379809 100.18025310272382 l -25.564040040413683 0.2194365378368594 a46.56498182244634,46.56498182244634 0 0,0 0.0,-0.7993792811213445 l 25.564040040413683 0.21943653783685" fill="#ccff1d" stroke="none" /><path d="M 79.00077361379809 99.81974689727619 l -7.638773353963738 -0.06556968207936903 a28.639054767210038,28.639054767210038 0 0,0 0.008439749970306146,-0.49157312450343194 l 7.636522172394765 0.19668972255185335" fill="#ff4606" stroke="none" /><path d="M 79.00696218219943 99.45929381324524 l -16.285791622464036 -0.41946422251468823 a37.291192682068726,37.291192682068726 0 0,0 0.021975722938159994,-0.6397991957276667 l 16.276191212529024 0.6989696828064935" fill="#ffbe11" stroke="none" /><path d="M 79.01933749520258 99.09900007780938 l -19.240598646067184 -0.826274093062769 a40.2583323560455,40.2583323560455 0 0,0 0.035577650459872864,-0.6901969142757786 l 19.22357940615074 1.1564428007152596" fill="#ffe415" stroke="none" /><path d="M 79.03789590574601 98.7389718711861 l -19.303229010074023 -1.1612343230998698 a40.338125952855634,40.338125952855634 0 0,0 0.047514545242780315,-0.6908510598207436 l 19.28045050366618 1.4924288070749383" fill="#ffe515" stroke="none" /><path d="M 79.06263194458094 98.37931529534042 l -30.421183040437302 -2.3547919643379234 a51.51218482467456,51.51218482467456 0 0,0 0.07581214380261822,-0.8810520282246175 l 30.376277273936942 2.8766650399382216" fill="#92ff23" stroke="none" /><path d="M 79.13060592940154 97.66154086499901 l -10.44228412590775 -1.1700797168283372 a31.5076345725343,31.5076345725343 0 0,0 0.06484258252941331,-0.5369896018426558 l 10.420659457118669 1.3491629955944293" fill="#ff6f0a" stroke="none" /><path d="M 79.17382384314186 97.30363454192245 l -22.278903913173274 -2.8844501507554647 a43.46485282045268,43.46485282045268 0 0,0 0.1021537535147704,-0.7391336725974736 l 22.226105643103296 3.266472131553005" fill="#f1ff19" stroke="none" /><path d="M 79.2786578344484 96.59031103205396 l -30.807170537066252 -5.069308188370952 a52.221461240764626,52.221461240764626 0 0,0 0.1531461057778429,-0.883306041132706 l 30.715609613796175 5.597407262424251" fill="#8aff24" stroke="none" /><path d="M 79.407916724674 95.88100663000787 l -46.82591921252801 -9.366495278857915 a68.75351237246394,68.75351237246394 0 0,0 0.24143054243860526,-1.1553325444089337 l 46.65823095926503 10.168944274552258" fill="#39ff8e" stroke="none" /><path d="M 79.56144815229197 95.17655741523228 l -14.535412937125725 -3.4303178752842007 a35.93470153629647,35.93470153629647 0 0,0 0.14684026774896092,-0.5991584017799969 l 14.474385142860466 3.6793321016723155" fill="#ffab0f" stroke="none" /><path d="M 79.64726062577567 94.8264132398404 l -9.436204977372872 -2.3986464052556533 a30.736296470036358,30.736296470036358 0 0,0 0.1343769208120913,-0.5102510558491732 l 9.393638575756055 2.5602779654776113" fill="#ff6409" stroke="none" /><path d="M 79.73907114497095 94.47779374421319 l -16.856940737553433 -4.5944341575060355 a38.47184238301865,38.47184238301865 0 0,0 0.17913498861336039,-0.6356868790361757 l 16.775587256865492 4.883128960445224" fill="#ffcd13" stroke="none" /><path d="M 79.94057633289273 93.78553927170692 l -11.93261646640494 -3.6967550836394754 a33.492130878386305,33.492130878386305 0 0,0 0.17485329943224684,-0.5477254700618375 l 11.867398451195436 3.9010495873927042" fill="#ff8a0c" stroke="none" /><path d="M 80.05021161711548 93.44210830539832 l -7.037055646539237 -2.3132199647030545 a28.407505570540636,28.407505570540636 0 0,0 0.1562610014362712,-0.4619578849859787 l 6.9963092235306 2.4336795241631948" fill="#ff4306" stroke="none" /><path d="M 80.28708602549916 92.7611449362534 l -14.024904880697402 -5.150139337366616 a35.94061217309722,35.94061217309722 0 0,0 0.2176449082544444,-0.5773289769155303 l 13.934429288628523 5.390136594476291" fill="#ffac0f" stroke="none" /><path d="M 80.68587082218212 91.75594674310238 l -20.544507384618708 -8.76922855057027 a43.33777412923654,43.33777412923654 0 0,0 0.29792886728871193,-0.6817195526844279 l 20.39094463531302 9.120610173030565" fill="#f3ff19" stroke="none" /><path d="M 80.83023694016515 91.42560881287825 l -37.65115020212293 -16.840880582112998 a62.24590125483758,62.24590125483758 0 0,0 0.44465962796782743,-0.9716615353958747 l 37.35650610930006 17.484731099723543" fill="#31ff41" stroke="none" /><path d="M 81.29705330413844 90.45014215332179 l -15.880506000630563 -8.108699517007107 a38.83091356866424,38.83091356866424 0 0,0 0.3082285698203738,-0.5910689240908807 l 15.738969361835249 8.380114684202475" fill="#ffd213" stroke="none" /><path d="M 81.46374523516351 90.13048839642627 l -19.617952943678127 -10.445454956914677 a43.22547203002228,43.22547203002228 0 0,0 0.35435552500190126,-0.6519742541089324 l 19.435752069060875 10.78068404449823" fill="#f4ff19" stroke="none" /><line stroke="#e1ed5e" stroke-width="0.3" x1="26.387840678322718" x2="22.05771365940052" y1="57.49999999999999" y2="54.99999999999999" /><path d="M 25.521815274538284 56.99999999999999 a86.0,86.0 0 0,1 29.574782752854787,-30.34633250058573" fill="none" id="id59" stroke="none" /><text fill="#e1ed5e" style="font-size:6.75px; font-family:Arial;" text-anchor="middle"><textPath startOffset="21.40746469413373" xlink:href="#id59">November</textPath></text><path d="M 81.99639281039701 89.18935116829357 l -11.431773281035117 -6.86445139373652 a34.33439662249326,34.33439662249326 0 0,0 0.3077539697832279,-0.5026929810321679 l 11.312251346796495 7.05968149089323" fill="#ff960d" stroke="none" /><path d="M 82.18462484594161 88.88188828441811 l -43.07154743180195 -26.879831155319206 a71.77089245924711,71.77089245924711 0 0,0 0.6612570450992924,-1.039605906771933 l 42.60377269507677 27.61525073676981" fill="#3dffb0" stroke="none" /><path d="M 82.576782715395 88.27688183743585 l -9.858104152844529 -6.632972427243699 a32.88185762870881,32.88185762870881 0 0,0 0.3191266693956447,-0.46561534786430453 l 9.74278774663357 6.801222510178038" fill="#ff820c" stroke="none" /><path d="M 82.78059297857968 87.97951657250589 l -8.286155557975086 -5.784380114737664 a31.105415738243227,31.105415738243227 0 0,0 0.30940246198415167,-0.43521331031256943 l 8.185637997460962 5.925770651759755" fill="#ff6909" stroke="none" /><path d="M 82.98947788004972 87.6856937992154 l -12.220764454886302 -8.846891026856628 a36.0869004339158,36.0869004339158 0 0,0 0.36756738677592404,-0.4986757535221468 l 12.067095048526559 9.055373089647638" fill="#ffad10" stroke="none" /><path d="M 83.64595745247003 86.82634096563983 l -49.06212764258992 -39.520977103080504 a84.0,84.0 0 0,0 0.9142127230454804,-1.1151908732060285 l 48.376468100305814 40.357370257985025" fill="#4dd2ff" stroke="none" /><path d="M 84.34580500576568 86.00192230759919 l -11.035629181803824 -9.868127663435402 a35.80422422891991,35.80422422891991 0 0,0 0.4136279579766353,-0.454649582769573 l 10.864603522985323 10.056114821762634" fill="#ffaa0f" stroke="none" /><path d="M 84.58840730492382 85.73525988315684 l -16.256943948194632 -15.047184616368188 a43.15188460185294,43.15188460185294 0 0,0 0.5078445972682649,-0.5393133634878692 l 15.996243517190095 15.324039439800568" fill="#f5ff19" stroke="none" /><path d="M 84.83555147118756 85.47280134310135 l -11.98363120153869 -11.4800476103693 a37.595147179547325,37.595147179547325 0 0,0 0.4504492972882042,-0.46220066143490424 l 11.784795103099684 11.684070963871935" fill="#ffc212" stroke="none" /><path d="M 85.34317274990677 84.96080404539775 l -6.804673122747633 -6.982194082922407 a30.749595402838043,30.749595402838043 0 0,0 0.38118884437469586,-0.36517029007045065 l 6.683811792507637 7.097976503298426" fill="#ff6409" stroke="none" /><path d="M 85.86807049272753 84.46653392183569 l -8.516347864811852 -9.360958147988537 a33.65526445408702,33.65526445408702 0 0,0 0.4306831709676537,-0.38511954720349484 l 8.354399667020807 9.505773225075433" fill="#ff8d0c" stroke="none" /><path d="M 86.13680546590413 84.22622945171909 l -6.867573272588842 -7.814037721168565 a31.403016301161017,31.403016301161017 0 0,0 0.4079708211570712,-0.35239547855594916 l 6.732422971668923 7.9307773321892245" fill="#ff6d0a" stroke="none" /><path d="M 86.40962598614128 83.9905735841838 l -10.51241807442352 -12.383602058571654 a37.24390758766272,37.24390758766272 0 0,0 0.4909556912555743,-0.40957269908964383 l 10.298288049006038 12.562236941573179" fill="#ffbd11" stroke="none" /><path d="M 86.96720088162412 83.53348406188908 l -8.311676426133442 -10.501531643372932 a34.39276416090067,34.39276416090067 0 0,0 0.4660875550808426,-0.36243250193623766 l 8.130178926417354 10.642665196929974" fill="#ff970d" stroke="none" /><path d="M 87.25179093698888 83.31218511350988 l -12.552597983639203 -16.431753704392268 a41.677771783745754,41.677771783745754 0 0,0 0.5722695677477557,-0.4294417523826611 l 12.268675426980694 16.644814484038932" fill="#fff617" stroke="none" /><path d="M 87.83215693770416 82.88440491214696 l -7.207809556932396 -10.138686800545852 a33.439673976779645,33.439673976779645 0 0,0 0.47071103700404554,-0.32859286109023217 l 7.032703428754585 10.260924477441211" fill="#ff8a0c" stroke="none" /><path d="M 88.12776184653039 82.6780497279521 l -3.2159884052594303 -4.6922231942514 a26.688544622962354,26.688544622962354 0 0,0 0.3801258458103417,-0.2557656335386929 l 3.1349662713520994 4.746738501847203" fill="#ff2904" stroke="none" /><path d="M 89.03521579738668 82.08984904055464 l -7.540819127911486 -12.317361330884976 a35.44234549079395,35.44234549079395 0 0,0 0.5216222867608922,-0.31321919577429064 l 7.328264084593159 12.444994527195192" fill="#ffa50f" stroke="none" /><line stroke="#e1ed5e" stroke-width="0.3" x1="56.869717070023135" x2="54.33264160355391" y1="26.7553504044142" y2="22.446841604673864" /><path d="M 56.362301976729285 25.89364864446614 a86.0,86.0 0 0,1 42.16139366436587,-11.88097634709845" fill="none" id="id60" stroke="none" /><text fill="#e1ed5e" style="font-size:6.75px; font-family:Arial;" text-anchor="middle"><textPath startOffset="22.145653131862474" xlink:href="#id60">December</textPath></text><path d="M 89.34428304082924 81.90426304109057 l -11.400055090935792 -19.359785834505168 a43.466921543332944,43.466921543332944 0 0,0 0.6462238240356954,-0.37309749876375614 l 11.066038799039697 19.552630230545095" fill="#f1ff19" stroke="none" /><path d="M 89.97174638481275 81.54914285379989 l -6.115741110554331 -11.252274813142938 a33.80687228802627,33.80687228802627 0 0,0 0.5122726126345383,-0.27275631235823405 l 5.921679682133231 11.355601593223746" fill="#ff8f0d" stroke="none" /><path d="M 90.28995756902619 81.37971332152246 l -7.3122187947532336 -14.022143691127173 a36.81420429224816,36.81420429224816 0 0,0 0.5628589929769465,-0.28739981234313866 l 7.070432580062705 14.145601455143145" fill="#ffb711" stroke="none" /><path d="M 90.61103034731259 81.2157712731953 l -5.927107784875125 -11.858185981850673 a34.25696728040343,34.25696728040343 0 0,0 0.5282746545297071,-0.25840560571100685 l 5.722672881083366 11.958185337658893" fill="#ff950d" stroke="none" /><path d="M 91.26138138417902 80.90454125486306 l -5.074998621720074 -11.08978787988656 a33.195860208748684,33.195860208748684 0 0,0 0.5202053654941748,-0.23268124324042455 l 4.8838798533702805 11.17527287403683" fill="#ff860c" stroke="none" /><path d="M 91.5904679813234 80.7573450057729 l -8.361562083483864 -19.132890394846406 a41.88021109417146,41.88021109417146 0 0,0 0.661238525870735,-0.2822434070209874 l 8.031888482442698 19.273608451526794" fill="#fff917" stroke="none" /><path d="M 92.25597844496254 80.48000691201159 l -6.959702111462768 -17.542995734798705 a39.87310660255658,39.87310660255658 0 0,0 0.6384021152539007,-0.24694765261963533 l 6.657527733715338 17.659883275556382" fill="#ffdf14" stroke="none" /><path d="M 92.592206182469 80.34994680014964 l -2.0957792847763717 -5.559303546426996 a26.94122434619444,26.94122434619444 0 0,0 0.43415250411772127,-0.15942681315081594 l 2.0000376290045234 5.594461208586534" fill="#ff2d04" stroke="none" /><path d="M 92.93061703081487 80.22567764915836 l -8.05297813215466 -22.52561307876923 a44.92182479183769,44.92182479183769 0 0,0 0.7283629548012552,-0.2533624447726009 l 7.665109405308401 22.660533956110417" fill="#e0ff1b" stroke="none" /><path d="M 93.27111125876988 80.10723608172694 l -3.80367264238341 -11.244882298870404 a32.8707751847074,32.8707751847074 0 0,0 0.5360710998406906,-0.17621721824263922 l 3.610078804894959 11.308520438515073" fill="#ff820b" stroke="none" /><path d="M 93.61358852112211 79.99465700312896 l -4.5872065018344745 -14.369359032092863 a36.0837973495954,36.0837973495954 0 0,0 0.591704458042644,-0.18331155362611828 l 4.339861410920214 14.445987173525623" fill="#ffad10" stroke="none" /><path d="M 93.95794788825049 79.88797359093562 l -4.307932846576901 -14.339707367029503 a35.97282514366131,35.97282514366131 0 0,0 0.5929349166583295,-0.17259471271317678 l 4.061137917536947 14.4115457740452" fill="#ffac0f" stroke="none" /><path d="M 94.6519064749342 79.69241777938228 l -4.579478343513369 -17.389025183005128 a38.98193033892342,38.98193033892342 0 0,0 0.6485752438227088,-0.16486529074597195 l 4.280297806465282 17.465075705586365" fill="#ffd413" stroke="none" /><path d="M 95.00130118170881 79.60360301121753 l -3.725792211036453 -15.202503650738315 a36.65240060982761,36.65240060982761 0 0,0 0.6123880410586843,-0.1445219102436628 l 3.4642720162378624 15.264221704628211" fill="#ffb510" stroke="none" /><path d="M 97.12497278360702 79.19773525538626 l -2.2464053983107264 -16.253870416578934 a37.4083710566436,37.4083710566436 0 0,0 0.6368724904613619,-0.08245589452168509 l 1.9670550859585705 16.290037907301016" fill="#ffbf11" stroke="none" /><path d="M 97.84075906011542 79.11130261209362 l -2.321952545177439 -22.462784569045475 a43.58247449278762,43.58247449278762 0 0,0 0.744846148772519,-0.07053770470237908 l 1.9360068330199045 22.49933402925304" fill="#f0ff19" stroke="none" /></svg>