<?xml version="1.0" encoding="utf-8" ?>
<svg baseProfile="full" height="200mm" version="1.1" viewBox="0,0,200,200" width="200mm" xmlns="http://www.w3.org/2000/svg" xmlns:ev="http://www.w3.org/2001/xml-events" xmlns:xlink="http://www.w3.org/1999/xlink"><defs /><rect fill="#1a1a1a" height="200" width="200" x="0" y="0" /><text alignment-baseline="middle" fill="#e1ed5e" style="dominant-baseline: central; font-size:9.0px; font-family:Arial;" text-anchor="middle" x="100.0" y="100.0">2024</text><line stroke="#e1ed5e" stroke-width="0.3" x1="100.0" x2="100.0" y1="15.0" y2="10.0" /><path d="M 100.0 14.0 a86.0,86.0 0 0,1 42.35913384403234,11.155469271406648" fill="none" id="id49" stroke="none" /><text fill="#e1ed5e" style="font-size:6.75px; font-family:Arial;" text-anchor="middle"><textPath startOffset="22.145653131862478" xlink:href="#id49">January</textPath></text><path d="M 100.36049292484886 79.00309439819443 l 0.17607905971334836 -10.255722485554923 a31.257233912512007,31.257233912512007 0 0,0 0.536413854335516,0.013816118096747241 l -0.35210622811960574 10.25118865010813" fill="#ff6209" stroke="none" /><path d="M 100.72087961077811 79.0123766808444 l 0.3949637263278323 -11.498937948808303 a32.50571902558282,32.50571902558282 0 0,0 0.5575106012458199,0.023941904037969915 l -0.5923000881744884 11.490463476344502" fill="#ff740a" stroke="none" /><path d="M 101.08105385017728 79.02784411241856 l 0.9465946508777457 -18.36368334223439 a39.38806426263861,39.38806426263861 0 0,0 0.6749532087371439,0.040603508980955584 l -1.2616922117473521 18.34472785542874" fill="#ffd213" stroke="none" /><path d="M 101.80034050326958 79.07731436759882 l 1.575097518275695 -18.305020719918204 a39.37266218458046,39.37266218458046 0 0,0 0.6728983642257295,0.06372417470196803 l -1.8890954458864375 18.27528478971105" fill="#ffd213" stroke="none" /><path d="M 102.15924093988457 79.11130261209362 l 0.44001156287405885 -4.256712724494429 a25.279394045228326,25.279394045228326 0 0,0 0.4312713959853293,0.048324859466204795 l -0.5130188604601849 4.248532104521253" fill="#ff0a01" stroke="none" /><path d="M 102.87502721639298 79.19773525538626 l 2.517211465563804 -18.21328821733072 a39.386414039989525,39.386414039989525 0 0,0 0.6689592889621607,0.09831397859914665 l -2.829495860133647 18.167393165432692" fill="#ffd213" stroke="none" /><path d="M 103.23170211078529 79.25015418208739 l 1.4191780115423607 -9.112140883715318 a30.221994237317734,30.221994237317734 0 0,0 0.5119353929911609,0.08423877410243134 l -1.5753909075865922 9.086436111117218" fill="#ff5407" stroke="none" /><path d="M 103.94208987418118 79.37332000966035 l 3.4562556074033237 -18.084589812537825 a39.41190081201432,39.41190081201432 0 0,0 0.6634402594739236,0.13270663262290877 l -3.766192352408204 18.022593783252056" fill="#ffd213" stroke="none" /><path d="M 104.29559338865022 79.4440306129975 l 3.760153842536793 -17.993697327552173 a39.38238016240287,39.38238016240287 0 0,0 0.6605692579138732,0.14396799525196324 l -4.0684855170698 17.926497874166493" fill="#ffd213" stroke="none" /><path d="M 104.64783097203109 79.52079915486377 l 4.069459479728742 -17.930789333349956 a39.38678075613376,39.38678075613376 0 0,0 0.6580740445249522,0.15530368266516342 l -4.3766656779935795 17.858289507038567" fill="#ffd213" stroke="none" /><path d="M 105.3480935250658 79.69241777938227 l 4.678799676338238 -17.766164461357153 a39.37192875229198,39.37192875229198 0 0,0 0.6521090048152993,0.17773520906234883 l -4.98309008208823 17.683228758150662" fill="#ffd213" stroke="none" /><path d="M 105.69591212413111 79.78721728523813 l 4.987764977221978 -17.699818311762705 a39.389164411071334,39.389164411071334 0 0,0 0.6492459467403418,0.18898603288430302 l -5.290870936343925 17.611588584575887" fill="#ffd213" stroke="none" /><path d="M 106.04205211174951 79.88797359093562 l 5.295302372451381 -17.626339394131126 a39.404566489129486,39.404566489129486 0 0,0 0.6461586465792571,0.20018160043143798 l -5.5971016519022685 17.53284120589304" fill="#ffd213" stroke="none" /><path d="M 106.72888874123014 80.10723608172694 l 6.504220352629208 -19.22857174833089 a41.2988387322099,41.2988387322099 0 0,0 0.6696198195029097,0.23292853297809274 l -6.833345944177136 19.114084782784207" fill="#ffeb16" stroke="none" /><path d="M 107.06938296918511 80.22567764915836 l 6.807606551021193 -19.042087119112672 a41.22237841613551,41.22237841613551 0 0,0 0.6642904786018629,0.24393666512449275 l -7.13348618127718 18.922419604979456" fill="#ffea16" stroke="none" /><path d="M 109.06512990194946 81.05736502329252 l 4.787113608659785 -10.003226281552829 a32.08967955994063,32.08967955994063 0 0,0 0.4948530395214911,0.24205741903200237 l -4.958126897443344 9.919575112423606" fill="#ff6e0a" stroke="none" /><path d="M 109.3889696526874 81.21577127319529 l 8.221107418581177 -16.44772193869626 a39.38788090456649,39.38788090456649 0 0,0 0.6022083977544684,0.30749189879814764 l -8.502243038049224 16.304172088225283" fill="#ffd213" stroke="none" /><path d="M 110.02825361518725 81.54914285379988 l 4.484563567703182 -8.251091857652415 a30.391050379813148,30.391050379813148 0 0,0 0.45623596477508815,0.25306639889725263 l -4.62554372063437 8.172892543322016" fill="#ff5608" stroke="none" /><path d="M 110.34350942703115 81.72400993836675 l 5.444860209956178 -9.620546274563935 a32.054474810093424,32.054474810093424 0 0,0 0.47655468926144406,0.2751389781286732 l -5.60920736707802 9.52566039915909" fill="#ff6e0a" stroke="none" /><line stroke="#e1ed5e" stroke-width="0.3" x1="143.13028292997686" x2="145.6673583964461" y1="26.7553504044142" y2="22.446841604673864" /><path d="M 143.63769802327073 25.89364864446614 a86.0,86.0 0 0,1 29.32050498858742,28.57503671076993" fill="none" id="id50" stroke="none" /><text fill="#e1ed5e" style="font-size:6.75px; font-family:Arial;" text-anchor="middle"><textPath startOffset="20.669276256404974" xlink:href="#id50">February</textPath></text><path d="M 110.65571695917076 81.90426304109057 l 9.317169854555463 -15.822591340924365 a39.36202741639745,39.36202741639745 0 0,0 0.5793101576141266,0.3478591047145047 l -9.587412768727024 15.66031823567394" fill="#ffd213" stroke="none" /><path d="M 111.27062007382361 82.28071324371311 l 9.865359839350536 -15.509984260174294 a39.38164673011438,39.38164673011438 0 0,0 0.5673101886304023,0.36772361022297656 l -10.130155660237946 15.338346808247422" fill="#ffd213" stroke="none" /><path d="M 112.16784306229584 82.88440491214696 l 10.64678299835722 -14.976033620352885 a39.3748624814459,39.3748624814459 0 0,0 0.5475336932617044,0.3963721693270917 l -10.902297701992893 14.791060679652718" fill="#ffd213" stroke="none" /><path d="M 112.45986205192187 83.09580414077388 l 8.72527596514658 -11.837512584490112 a35.70568410023574,35.70568410023574 0 0,0 0.49026796615234997,0.3679062218006099 l -8.927196920209695 11.685987335425487" fill="#ffa10e" stroke="none" /><path d="M 112.7482090630111 83.31218511350987 l 11.137346567945208 -14.579144171068092 a39.34644198026717,39.34644198026717 0 0,0 0.5332193381700525,0.41463458250936636 l -11.385975850750487 14.385808536937935" fill="#ffd213" stroke="none" /><path d="M 113.31354834802062 83.75963576809568 l 11.682048731636531 -14.250199978042653 a39.426569457783984,39.426569457783984 0 0,0 0.519727921041116,0.43357551649655207 l -11.92495098683954 14.047562277634231" fill="#ffd313" stroke="none" /><path d="M 113.59037401385872 83.9905735841838 l 6.903406871599223 -8.132195936374215 a31.667222561774206,31.667222561774206 0 0,0 0.411403244465168,0.3553603240584616 l -7.041989595827252 8.012491479851032" fill="#ff6809" stroke="none" /><path d="M 113.86319453409587 84.22622945171908 l 12.121368206097618 -13.791891929667782 a39.36147734218109,39.36147734218109 0 0,0 0.5037050265592069,0.4504161407485665 l -12.3563382594802 13.58178025903583" fill="#ffd213" stroke="none" /><path d="M 114.13192950727249 84.46653392183569 l 7.446254692878487 -8.18473829930133 a32.065109578276434,32.065109578276434 0 0,0 0.4039749225698748,0.37391315733527175 l -7.585659386762326 8.055707395833684" fill="#ff6e0a" stroke="none" /><path d="M 114.65682725009322 84.96080404539774 l 12.820532705331251 -13.154995982956507 a39.36899502313804,39.36899502313804 0 0,0 0.47994194391841105,0.4758399006705169 l -13.044466569379624 12.93297607205733" fill="#ffd213" stroke="none" /><path d="M 114.91283532996326 85.21462403516908 l 7.569048439105596 -7.504356106134824 a31.65860473238453,31.65860473238453 0 0,0 0.3793201337055866,0.38921587346183245 l -7.696755373961994 7.37331754060525" fill="#ff6809" stroke="none" /><path d="M 115.16444852881244 85.47280134310134 l 13.261775645209587 -12.70448107460901 a39.365144503623505,39.365144503623505 0 0,0 0.4632793246761752,0.4919865883569057 l -13.477910803622022 12.47495302630761" fill="#ffd213" stroke="none" /><path d="M 115.6541949942343 86.00192230759917 l 13.677909257557152 -12.230870800281524 a39.34882563520475,39.34882563520475 0 0,0 0.44593262606672995,0.5073894697408335 l -13.885852947582473 11.994269052729393" fill="#ffd213" stroke="none" /><path d="M 116.1254893667686 86.54754324733833 l 14.114203104616418 -11.774570218899589 a39.38072993975378,39.38072993975378 0 0,0 0.4285995756397779,0.5228217929643385 l -14.314249499494824 11.530546144236755" fill="#ffd213" stroke="none" /><line stroke="#e1ed5e" stroke-width="0.3" x1="172.87174338648825" x2="177.1583165268699" y1="56.24261187166439" y2="53.66864786411523" /><path d="M 173.72905801456457 55.72781907015455 a86.0,86.0 0 0,1 12.242430191666344,42.057860355516425" fill="none" id="id51" stroke="none" /><text fill="#e1ed5e" style="font-size:6.75px; font-family:Arial;" text-anchor="middle"><textPath startOffset="22.145653131862474" xlink:href="#id51">March</textPath></text><path d="M 119.16976305983485 91.42560881287824 l 16.776262564282256 -7.5038088595583154 a39.37797956867196,39.37797956867196 0 0,0 0.2707069544925823,0.6194304889106661 l -16.902603400791808 7.2147163008718005" fill="#ffd213" stroke="none" /><path d="M 119.4528033332814 92.08871423366111 l 13.173996201338557 -5.357749566878051 a35.221802147908846,35.221802147908846 0 0,0 0.22297300226780983,0.5620376224604435 l -13.264027878572492 5.130810927204042" fill="#ff9a0e" stroke="none" /><path d="M 120.43855184770803 95.1765574152323 l 7.261905093327364 -1.7137898288828453 a28.461390028813412,28.461390028813412 0 0,0 0.10813856139382125,0.47647845440480685 l -7.290254516278853 1.5888770405390122" fill="#ff3a05" stroke="none" /><path d="M 120.51834098615036 95.52812308129327 l 9.003848609813545 -1.962346897584589 a30.215209988649264,30.215209988649264 0 0,0 0.10610184535645022,0.5077357393310118 l -9.036208165994362 1.8074947069681728" fill="#ff5307" stroke="none" /><path d="M 120.592083275326 95.88100663000786 l 9.013014428610992 -1.8028553099129991 a30.191556797345672,30.191556797345672 0 0,0 0.0972940281071538,0.5090834675995762 l -9.042634749000303 1.6478692772801085" fill="#ff5307" stroke="none" /><path d="M 120.7213421655516 96.59031103205396 l 18.101005148318716 -2.97851350891555 a39.344425041473855,39.344425041473855 0 0,0 0.1039414282847068,0.6673785321374063 l -18.149468068741687 2.6673467948467025" fill="#ffd213" stroke="none" /><path d="M 120.77682067341334 96.94652285012252 l 9.081174068719099 -1.3346198606977822 a30.178721732297213,30.178721732297213 0 0,0 0.0709278762306306,0.5131987797228333 l -9.10274646150494 1.1785327727748631" fill="#ff5307" stroke="none" /><path d="M 120.96210409425399 98.7389718711861 l 9.203156205111094 -0.5536390238465896 a30.219793940452284,30.219793940452284 0 0,0 0.026706254404032903,0.5180942008050371 l -9.211304048971702 0.3955730296648219" fill="#ff5407" stroke="none" /><path d="M 120.98066250479742 99.09900007780936 l 12.834054260225289 -0.55114951147083 a33.84588317471405,33.84588317471405 0 0,0 0.019945399912152273,0.5806885561021012 l -12.841624347134289 0.33075469080460884" fill="#ff870c" stroke="none" /><path d="M 120.99303781780057 99.45929381324524 l 7.541400112964018 -0.19423971572209173 a28.54390116126779,28.54390116126779 0 0,0 0.008411708798924852,0.48993986685014873 l -7.543623253361609 0.06475293290287663" fill="#ff3b05" stroke="none" /><line stroke="#e1ed5e" stroke-width="0.3" x1="184.99686870605535" x2="189.99668451229388" y1="99.2704041080226" y2="99.22748670261217" /><path d="M 185.99683186730306 99.26182062694052 a86.0,86.0 0 0,1 -10.086455211305974,41.156179273409016" fill="none" id="id52" stroke="none" /><text fill="#e1ed5e" style="font-size:6.75px; font-family:Arial;" text-anchor="middle"><textPath startOffset="21.40746469413373" xlink:href="#id52">April</textPath></text><path d="M 120.99922638620191 100.18025310272382 l 5.520341465430604 0.047385492157591386 a26.520544835414302,26.520544835414302 0 0,0 -0.007815438369263999,0.4552101036240767 l -5.518714595462671 -0.14214251175073914" fill="#ff1d02" stroke="none" /><path d="M 120.99303781780057 100.54070618675476 l 8.481165282717477 0.2184447329183838 a29.483977997031346,29.483977997031346 0 0,0 -0.017374926490065442,0.5058520270504758 l -8.476165669230566 -0.36400302453297034" fill="#ff4906" stroke="none" /><path d="M 120.98066250479742 100.90099992219065 l 6.996546259021461 0.3004618006481032 a28.002994848511307,28.002994848511307 0 0,0 -0.02474719404019778,0.4800889531138179 l -6.99035747552469 -0.4205225471386518" fill="#ff3304" stroke="none" /><path d="M 120.93736805541906 101.62068470465957 l 19.02717370624353 1.4728235811199923 a40.08409150440933,40.08409150440933 0 0,0 -0.05899305027874083,0.6855886668310502 l -18.99908703326705 -1.7992332953266998" fill="#ffdb14" stroke="none" /><path d="M 120.86939407059847 102.33845913500097 l 12.794598568594619 1.4336614565897918 a33.87467039203702,33.87467039203702 0 0,0 -0.0697139325231134,0.5773313678783546 l -12.768102549811841 -1.653086501391555" fill="#ff870c" stroke="none" /><path d="M 120.77682067341334 103.0534771498775 l 16.02389391497948 2.3549605924096606 a37.196018510433944,37.196018510433944 0 0,0 -0.09826569549315506,0.6309362561196711 l -15.98110672734806 -2.629685030460782" fill="#ffb510" stroke="none" /><path d="M 120.7213421655516 103.40968896794604 l 18.146960102566943 2.986075379149179 a39.390997991792545,39.390997991792545 0 0,0 -0.1155191333565512,0.6662836631855161 l -18.09302615171816 -3.297152075255283" fill="#ffd213" stroke="none" /><path d="M 120.65975698304385 103.76489593502545 l 12.024797522454252 2.1913186756721506 a33.22283244564743,33.22283244564743 0 0,0 -0.10706248821359718,0.5601961786348442 l -11.985408741958496 -2.3974174193403095" fill="#ff7e0b" stroke="none" /><path d="M 120.592083275326 104.11899336999214 l 18.309028412581835 3.662318456762761 a39.67171920020955,39.67171920020955 0 0,0 -0.13930873282649833,0.6666427169037485 l -18.243461968930973 -3.9760776249519183" fill="#ffd614" stroke="none" /><path d="M 120.26092885502905 105.52220625578681 l 17.738263654009987 4.8346426374551905 a39.3853138915568,39.3853138915568 0 0,0 -0.18338835154440128,0.6507805635696654 l -17.652656810391004 -5.138431124927865" fill="#ffd213" stroke="none" /><path d="M 120.16314734710363 105.8691983318838 l 8.848862962607791 2.5757750437044913 a30.21612677900987,30.21612677900987 0 0,0 -0.14924418403598932,0.4967853496155934 l -8.803342458568173 -2.727297996910808" fill="#ff5307" stroke="none" /><path d="M 120.05942366710727 106.21446072829308 l 17.557118717033386 5.439240258327797 a39.380363223609535,39.380363223609535 0 0,0 -0.20559415784835106,0.6440207712127869 l -17.46115984340778 -5.739830063231968" fill="#ffd213" stroke="none" /><path d="M 119.4528033332814 107.91128576633889 l 5.108717529541934 2.077670944555496 a26.515044093250676,26.515044093250676 0 0,0 -0.17509292127187548,0.4201592707126141 l -5.072298763733573 -2.165062724709388" fill="#ff1d02" stroke="none" /><path d="M 119.0197475246899 108.90220220490707 l 16.613756935868572 7.776077123751975 a39.34350825111325,39.34350825111325 0 0,0 -0.29155552135707474,0.6092389051504987 l -16.477822156551586 -8.060128530967576" fill="#ffd213" stroke="none" /><path d="M 118.8641267826498 109.22738970284198 l 3.8293205585420917 1.8731125748832016 a25.26289181873745,25.26289181873745 0 0,0 -0.19389881408889142,0.3879275158440171 l -3.796601831241468 -1.9385719468909643" fill="#ff0a01" stroke="none" /><line stroke="#e1ed5e" stroke-width="0.3" x1="174.33088141563837" x2="178.70328620479359" y1="141.23008692659167" y2="143.65538615756765" /><path d="M 175.20536237346943 141.71514677278685 a86.0,86.0 0 0,1 -30.301960400862466,31.631185727798858" fill="none" id="id53" stroke="none" /><text fill="#e1ed5e" style="font-size:6.75px; font-family:Arial;" text-anchor="middle"><textPath startOffset="22.145653131862474" xlink:href="#id53">May</textPath></text><path d="M 118.36410011445183 110.18625677009912 l 12.847814981844774 7.126466394985872 a35.69193224482668,35.69193224482668 0 0,0 -0.3017950621237541,0.5332429573283425 l -12.723586554699642 -7.345966122413337" fill="#ffa10e" stroke="none" /><path d="M 118.00360718960297 110.81064883170644 l 3.0871635518782226 1.8537530114894163 a24.60096917838121,24.60096917838121 0 0,0 -0.22050907165793077,0.3601849966531416 l -3.054886515764887 -1.906475124267115" fill="#ff0000" stroke="none" /><path d="M 117.62189284568427 111.42229804090321 l 15.461506942896765 10.021961999758343 a39.42546930935126,39.42546930935126 0 0,0 -0.3729941540880491,0.5647606892466028 l -15.28718834988799 -10.285902567344007" fill="#ffd313" stroke="none" /><path d="M 117.21940702142032 112.02048342749411 l 12.146500251929853 8.479200520595667 a35.81331528857068,35.81331528857068 0 0,0 -0.3562314683508829,0.5010841723245122 l -11.99915368504901 -8.686461919629682" fill="#ffa20f" stroke="none" /><path d="M 116.79662413953412 112.60449989151573 l 13.435832741808062 10.082499371879173 a37.798166419278786,37.798166419278786 0 0,0 -0.3939073324043854,0.515637342712587 l -13.260773432049373 -10.311657627832638" fill="#ffbd11" stroke="none" /><path d="M 116.1254893667686 113.45245675266167 l 14.09449151366778 11.758126108663207 a39.35505980965686,39.35505980965686 0 0,0 -0.437226162242648,0.515051319732292 l -13.890570787918017 -11.998344210845056" fill="#ffd213" stroke="none" /><path d="M 115.6541949942343 113.99807769240083 l 9.63909141171214 8.6193349779402 a33.930777962106,33.930777962106 0 0,0 -0.3919849878966948,0.4308601673614051 l -9.489708722973567 -8.783532720859277" fill="#ff880c" stroke="none" /><path d="M 115.41159269507618 114.26474011684316 l 13.483831611083676 12.480433237301593 a39.37321225879682,39.37321225879682 0 0,0 -0.4633742722297909,0.4920874193685353 l -13.267601505117627 -12.710062116614624" fill="#ffd213" stroke="none" /><path d="M 115.16444852881244 114.52719865689866 l 9.303103837696844 8.912163031790913 a33.883104863354575,33.883104863354575 0 0,0 -0.4059731619814899,0.41656422847654484 l -9.148743874564547 -9.070549952335194" fill="#ff880c" stroke="none" /><path d="M 114.91283532996324 114.78537596483092 l 13.045247823304182 12.933750648638046 a39.37009517157077,39.37009517157077 0 0,0 -0.4799553556749702,0.4758531977973669 l -12.821300547499249 -13.155783856664076" fill="#ffd213" stroke="none" /><path d="M 114.65682725009322 115.03919595460226 l 8.97197978564162 9.206041648347638 a33.85486772024797,33.85486772024797 0 0,0 -0.41968350261765913,0.4020473018828105 l -8.812623797158649 -9.358701080536028" fill="#ff870c" stroke="none" /><path d="M 114.39649973595853 115.28858382429668 l 12.59923130651004 13.37994703463638 a39.3783462848162,39.3783462848162 0 0,0 -0.49611133723102907,0.4591932472288299 l -12.367690197965043 -13.59425802799759" fill="#ffd213" stroke="none" /><path d="M 113.86319453409587 115.77377054828091 l 12.125846842243277 13.796987795469636 a39.36826159084956,39.36826159084956 0 0,0 -0.5114509337165509,0.44177913516893275 l -11.88721642876387 -14.003111063103287" fill="#ffd213" stroke="none" /><path d="M 113.59037401385872 116.0094264158162 l 11.88638579383767 14.002132577248824 a39.36697808434471,39.36697808434471 0 0,0 -0.5189423771539433,0.43292018784703973 l -11.64426908252183 -14.204114949007735" fill="#ffd213" stroke="none" /><path d="M 113.31354834802062 116.24036423190432 l 4.660032534492717 5.684481981389861 a28.350458395180304,28.350458395180304 0 0,0 -0.37901758831058735,0.30530973989567384 l -4.561764175826877 -5.763640015078939" fill="#ff3805" stroke="none" /><path d="M 113.03279911837588 116.46651593811092 l 11.391324157382492 14.39256594765209 a39.35505980965686,39.35505980965686 0 0,0 -0.5333361261959073,0.41472539758465954 l -11.142578086551355 -14.585992396857542" fill="#ffd213" stroke="none" /><path d="M 112.45986205192187 116.90419585922612 l 10.888372421781197 14.772168362618054 a39.35139264821444,39.35139264821444 0 0,0 -0.5472073295956595,0.396135907201319 l -10.63318408181157 -14.95690504119245" fill="#ffd213" stroke="none" /><path d="M 111.8722381534696 117.32195027204791 l 10.370612012797627 15.131032856166605 a39.343874967257484,39.343874967257484 0 0,0 -0.560376144921624,0.37704607909602095 l -10.109339579779 -15.306828609319748" fill="#ffd213" stroke="none" /><path d="M 111.5731344415666 117.5232005979908 l 10.124395870984742 15.329625753204327 a39.371195320003494,39.371195320003494 0 0,0 -0.5671596314055541,0.36762602084881363 l -9.859750607322178 -15.501165615757037" fill="#ffd213" stroke="none" /><path d="M 111.27062007382361 117.71928675628689 l 9.849417811480466 15.48492074446209 a39.351942722430806,39.351942722430806 0 0,0 -0.5731064612538983,0.35766081859303867 l -9.582147221436852 -15.651717359896677" fill="#ffd213" stroke="none" /><line stroke="#e1ed5e" stroke-width="0.3" x1="143.1302829299769" x2="145.66735839644613" y1="173.24464959558577" y2="177.55315839532614" /><path d="M 143.63769802327073 174.10635135553383 a86.0,86.0 0 0,1 -40.68552437913181,11.842963189579606" fill="none" id="id54" stroke="none" /><text fill="#e1ed5e" style="font-size:6.75px; font-family:Arial;" text-anchor="middle"><textPath startOffset="21.407464694133747" xlink:href="#id54">June</textPath></text><path d="M 110.65571695917076 118.09573695890943 l 9.315495158796582 15.819747341402307 a39.35872697109927,39.35872697109927 0 0,0 -0.5851471912287274,0.3378348883714605 l -9.042555499707456 -15.97732912704994" fill="#ffd213" stroke="none" /><path d="M 110.34350942703117 118.27599006163325 l 9.03496923591744 15.96392492583474 a39.34332489304113,39.34332489304113 0 0,0 -0.5906291347521057,0.32761202481965357 l -8.75959591300924 -16.116669866087538" fill="#ffd213" stroke="none" /><path d="M 109.71004243097381 118.62028667847754 l 8.485625834552577 16.272306409460057 a39.351942722430806,39.351942722430806 0 0,0 -0.6016589324218492,0.3072113378842158 l -8.205039680417146 -16.41557569901711" fill="#ffd213" stroke="none" /><path d="M 109.3889696526874 118.78422872680471 l 8.206187376000292 16.417871858994197 a39.3545097354405,39.3545097354405 0 0,0 -0.6068835534827864,0.2968571573311162 l -7.9231435732554365 -16.556322766422536" fill="#ffd213" stroke="none" /><path d="M 109.06512990194946 118.94263497670748 l 7.927338560462308 16.5650886762607 a39.3642277132629,39.3642277132629 0 0,0 -0.6120411722910651,0.28646617240268923 l -7.641808674299737 -16.698731080233923" fill="#ffd213" stroke="none" /><path d="M 108.4095320186766 119.2426549942271 l 7.3471980516268 16.81182698011309 a39.347175412555664,39.347175412555664 0 0,0 -0.6212449170438037,0.2651725135797538 l -7.0575180594125655 -16.93547414335225" fill="#ffd213" stroke="none" /><path d="M 108.07796709384702 119.3841803445677 l 7.058576031178981 16.938012890450548 a39.349925783637474,39.349925783637474 0 0,0 -0.6257491508539514,0.2544867320989089 l -6.766772419134589 -17.056686879128748" fill="#ffd213" stroke="none" /><path d="M 107.407793817531 119.65005319985036 l 6.46844701222232 17.158324197655073 a39.33709071858902,39.33709071858902 0 0,0 -0.633909440073156,0.23278032695552112 l -6.172948420495037 -17.266835373619315" fill="#ffd113" stroke="none" /><path d="M 107.06938296918513 119.77432235084164 l 6.180478890435144 17.2878994382906 a39.35946040338776,39.35946040338776 0 0,0 -0.6381747182274309,0.2219902944491307 l -5.882798400162692 -17.391448165308322" fill="#ffd213" stroke="none" /><path d="M 106.72888874123015 119.89276391827305 l 5.876276906665122 17.372168528576214 a39.33910765738234,39.33910765738234 0 0,0 -0.6415595187562553,0.21089335680642257 l -5.5771946502611325 -17.470482806784656" fill="#ffd113" stroke="none" /><path d="M 106.0420521117495 120.11202640906438 l 5.348585116124363 17.8037003185453 a39.58975814197154,39.58975814197154 0 0,0 -0.6525523044322481,0.1899484654210405 l -5.042172799310508 -17.89289247826886" fill="#ffd513" stroke="none" /><path d="M 105.69591212413111 120.21278271476187 l 4.3719718756678745 15.514585834907892 a37.11882476207107,37.11882476207107 0 0,0 -0.6147913156044814,0.16756410692354864 l -4.104999159128698 -15.587350435975583" fill="#ffb410" stroke="none" /><path d="M 104.9986988182912 120.39639698878246 l 4.370031588930628 17.831220159773267 a39.358910329171394,39.358910329171394 0 0,0 -0.6576083856353139,0.15519378843513398 l -4.063291049555435 -17.903610091854624" fill="#ffd213" stroke="none" /><path d="M 104.64783097203109 120.47920084513623 l 3.5177502152149667 15.499856516711287 a36.89402776565092,36.89402776565092 0 0,0 -0.6188315800647325,0.1348714626258626 l -3.251156218531098 -15.557959437470869" fill="#ffb110" stroke="none" /><path d="M 104.29559338865022 120.5559693870025 l 3.754190345210369 17.9651598340349 a39.353226228935654,39.353226228935654 0 0,0 -0.6624525608392386,0.1325090652338545 l -3.4452412988401715 -18.026958295931614" fill="#ffd213" stroke="none" /><path d="M 103.58742460773223 120.69131181640829 l 3.5469239527265772 20.45771480096591 a41.762918012747754,41.762918012747754 0 0,0 -0.7074290226325931,0.1164071764658742 l -3.195217427040912 -20.515587975927456" fill="#fff116" stroke="none" /><path d="M 103.2317021107853 120.74984581791261 l 1.5604609284087048 10.0192785595233 a31.14006810442679,31.14006810442679 0 0,0 -0.5288990715483765,0.07772994987779798 l -1.3882367512526428 -10.044589582699981" fill="#ff6108" stroke="none" /><path d="M 102.51750503828377 120.84855314841334 l 2.201503532736159 18.2316073694769 a39.36404435519078,39.36404435519078 0 0,0 -0.6715582790599319,0.0752495059051905 l -1.8882093520754275 -18.266712635889064" fill="#ffd213" stroke="none" /><path d="M 102.15924093988457 120.88869738790638 l 1.885551070642408 18.240996174423113 a39.33819086702174,39.33819086702174 0 0,0 -0.6723092322770337,0.06366838329390878 l -1.5721422749803589 -18.270676313222207" fill="#ffd113" stroke="none" /><path d="M 101.08105385017728 120.97215588758144 l 0.8130227218298258 15.772423602732383 a36.79336418405658,36.79336418405658 0 0,0 -0.631048664758536,0.02709994490001802 l -0.5421482964704601 -15.784056116058231" fill="#ffb010" stroke="none" /><path d="M 100.72087961077811 120.9876233191556 l 0.6295627384025863 18.3290322153897 a39.33984108967083,39.33984108967083 0 0,0 -0.6751216645376212,0.017388739257077825 l -0.3148277597942212 -18.337138671996822" fill="#ffd213" stroke="none" /><line stroke="#e1ed5e" stroke-width="0.3" x1="101.45913802915013" x2="101.54496967792366" y1="184.9874750549273" y2="189.98673829345242" /><path d="M 101.47630435890484 185.9873277026323 a86.0,86.0 0 0,1 -42.54439059252881,-10.42667462771756" fill="none" id="id55" stroke="none" /><text fill="#e1ed5e" style="font-size:6.75px; font-family:Arial;" text-anchor="middle"><textPath startOffset="22.145653131862474" xlink:href="#id55">July</textPath></text><path d="M 100.0 121.0 l 2.246589050699174e-15 18.34479175761809 a39.34479175761809,39.34479175761809 0 0,0 -0.6754056694415598,-0.00579754536072338 l 0.3149127445927054 -18.3420886104518" fill="#ffd213" stroke="none" /><path d="M 99.63950707515114 120.99690560180557 l -0.3149064494224471 18.34172194834403 a39.344425041473855,39.344425041473855 0 0,0 -0.675200330975657,-0.017390765425468194 l 0.629720094468848 -18.333613465568515" fill="#ffd213" stroke="none" /><path d="M 99.27912038922189 120.98762331915562 l -0.6296005038584856 18.330131715432618 a39.340941238103554,39.340941238103554 0 0,0 -0.6747425517943355,-0.028976348412565 l 0.9441688162536598 -18.316622798594224" fill="#ffd213" stroke="none" /><path d="M 98.55909050195518 120.95050786540614 l -1.258521783095412 18.298630518642906 a39.34185802846416,39.34185802846416 0 0,0 -0.6733658846943248,-0.05212277813883091 l 1.572456662564973 -18.27432997350902" fill="#ffd213" stroke="none" /><path d="M 98.19965949673042 120.92268563240118 l -1.5729125245626576 18.27962778092489 a39.347175412555664,39.347175412555664 0 0,0 -0.6724627826253629,-0.06368292467154126 l 1.8864748705730359 -18.249933100748166" fill="#ffd213" stroke="none" /><path d="M 97.48249496171623 120.84855314841334 l -2.2049765598561217 18.26036901618475 a39.39301493058588,39.39301493058588 0 0,0 -0.6706607857272159,-0.08683046580908324 l 2.5181151674741313 -18.21982695417527" fill="#ffd213" stroke="none" /><path d="M 97.12497278360702 120.80226474461374 l -1.5811018006156607 11.44006500427396 a32.54880817253122,32.54880817253122 0 0,0 -0.5528258436920617,-0.0812463614192691 l 1.7772527499154074 -11.411237569555809" fill="#ff750a" stroke="none" /><path d="M 96.76829788921471 120.74984581791261 l -2.8241063979563945 18.13278895211547 a39.35139264821444,39.35139264821444 0 0,0 -0.6665797929124838,-0.10968545126038709 l 3.134963693921942 -18.081637502359413" fill="#ffd213" stroke="none" /><path d="M 96.05791012581884 120.62667999033965 l -3.4473064816957573 18.037764205295275 a39.3642277132629,39.3642277132629 0 0,0 -0.6626377543332425,-0.13254610911930134 l 3.756440721559958 -17.975928699513112" fill="#ffd213" stroke="none" /><path d="M 95.70440661134978 120.55596938700252 l -5.122194128128619 24.511553158242787 a46.04102855147123,46.04102855147123 0 0,0 -0.7722562206352175,-0.16830964894858422 l 5.542212765382973 -24.420012051160484" fill="#d7ff1c" stroke="none" /><path d="M 95.00130118170881 120.39639698878247 l -4.368416711987661 17.824630910767905 a39.35212608050293,39.35212608050293 0 0,0 -0.6547345025169166,-0.16643095022044607 l 4.673756507729956 -17.747014728712195" fill="#ffd213" stroke="none" /><path d="M 94.30408787586889 120.21278271476187 l -1.0972078344763865 3.8936035296697464 a25.045245787130007,25.045245787130007 0 0,0 -0.4128171936503236,-0.12016506860936646 l 1.163885040508317 -3.874194766757864" fill="#ff0701" stroke="none" /><path d="M 92.59220618246901 119.65005319985036 l -6.471034209923366 17.16518704693469 a39.344425041473855,39.344425041473855 0 0,0 -0.6299374769137013,-0.2436733486685032 l 6.764743949330596 -17.051573810128147" fill="#ffd213" stroke="none" /><path d="M 92.25597844496254 119.51999308798841 l -6.762377401225938 17.04560856296077 a39.33800750894962,39.33800750894962 0 0,0 -0.6255596244414602,-0.2544096533568994 l 7.053991486857839 -16.92701165302458" fill="#ffd113" stroke="none" /><path d="M 91.92203290615298 119.3841803445677 l -7.036358624084226 16.884699201386212 a39.29216799091941,39.29216799091941 0 0,0 -0.6203764155380945,-0.26480180193125835 l 7.325170114792752 -16.76142274979555" fill="#ffd113" stroke="none" /><path d="M 91.26138138417905 119.09545874513695 l -7.655161143153026 16.727908634415353 a39.39631537588404,39.39631537588404 0 0,0 -0.6125400762906809,-0.28669968466564794 l 7.941189933315197 -16.59403271817918" fill="#ffd213" stroke="none" /><path d="M 90.93487009805054 118.94263497670748 l -3.984367188808471 8.325795006482828 a30.230061992491052,30.230061992491052 0 0,0 -0.4661759876400234,-0.22803003593138257 l 4.126703425710564 -8.256171220454224" fill="#ff5407" stroke="none" /><path d="M 90.28995756902619 118.62028667847754 l -8.48342151163976 16.268079329623852 a39.347175412555664,39.347175412555664 0 0,0 -0.596224346832534,-0.31745588221843696 l 8.761434674258856 -16.120052979682843" fill="#ffd213" stroke="none" /><path d="M 89.97174638481275 118.45085714620012 l -8.76414903610353 16.1250470997521 a39.352859512791404,39.352859512791404 0 0,0 -0.5907722701944712,-0.32769141963670123 l 9.039665494454104 -15.972222764682247" fill="#ffd213" stroke="none" /><line stroke="#e1ed5e" stroke-width="0.3" x1="58.13341422392154" x2="55.67067388415222" y1="173.97424548756322" y2="178.32567169271397" /><path d="M 57.64086615596768 174.84453072859336 a86.0,86.0 0 0,1 -31.369924170532247,-30.572349798747897" fill="none" id="id56" stroke="none" /><text fill="#e1ed5e" style="font-size:6.75px; font-family:Arial;" text-anchor="middle"><textPath startOffset="22.145653131862474" xlink:href="#id56">August</textPath></text><path d="M 89.65649057296885 118.27599006163327 l -9.038852680476603 15.970786600266337 a39.35120929014232,39.35120929014232 0 0,0 -0.5850354256754403,-0.3377703604991853 l 9.311680574012444 -15.81326934249098" fill="#ffd213" stroke="none" /><path d="M 89.34428304082925 118.09573695890944 l -4.835684003779792 8.212048619918953 a30.530035798480746,30.530035798480746 0 0,0 -0.44932542887807186,-0.2698070098731062 l 4.975942189215291 -8.127827609509929" fill="#ff5808" stroke="none" /><path d="M 89.03521579738668 117.91015095944536 l -9.578987893062742 15.646556834430323 a39.34589190605082,39.34589190605082 0 0,0 -0.5730183395063261,-0.35760582410509467 l 9.84617036135878 -15.47981521348368" fill="#ffd213" stroke="none" /><path d="M 88.1277618465304 117.32195027204791 l -10.375587717253808 15.13829255766891 a39.35267615471929,39.35267615471929 0 0,0 -0.5539449641325777,-0.38669660649848603 l 10.63392777256015 -14.957951135365295" fill="#ffd213" stroke="none" /><path d="M 87.83215693770417 117.11559508785305 l -10.635308912521818 14.959893881686275 a39.35505980965686,39.35505980965686 0 0,0 -0.5472583239185053,-0.39617282315849217 l 10.890548246814276 -14.775120287154717" fill="#ffd213" stroke="none" /><path d="M 87.54013794807813 116.9041958592261 l -10.884347145470004 14.766707302225214 a39.34460839954597,39.34460839954597 0 0,0 -0.5402333444993065,-0.40540117321000796 l 11.136233478880076 -14.577687101751192" fill="#ffd213" stroke="none" /><path d="M 86.96720088162412 116.46651593811092 l -7.897059226552424 9.977676356177607 a33.72468348904217,33.72468348904217 0 0,0 -0.4508656623600576,-0.363185462491623 l 8.067175659267743 -9.840642599892574" fill="#ff850c" stroke="none" /><path d="M 86.68645165197938 116.24036423190432 l -11.630900898988937 14.18780793873385 a39.34589190605082,39.34589190605082 0 0,0 -0.5186644154707959,-0.4326883023249047 l 11.872739648621625 -13.986057452497073" fill="#ffd213" stroke="none" /><path d="M 86.13680546590413 115.77377054828092 l -13.324184621755613 15.1604762127226 a41.183506504845894,41.183506504845894 0 0,0 -0.5270213578999663,-0.47126574800910814 l 13.58247100647895 -14.92951493483011" fill="#ffea15" stroke="none" /><path d="M 85.86807049272751 115.53346607816431 l -14.201398435174298 15.609824599093372 a42.10323059460403,42.10323059460403 0 0,0 -0.5304410165159599,-0.49096828586261354 l 14.467269223004225 -15.36373856709838" fill="#fff517" stroke="none" /><path d="M 85.60350026404147 115.28858382429668 l -8.444195082183583 8.967442552735339 a33.317445210861784,33.317445210861784 0 0,0 -0.41302131852677304,-0.39566508022844254 l 8.596888886575671 -8.821165342201313" fill="#ff800b" stroke="none" /><path d="M 85.08716467003676 114.78537596483092 l -14.765829383158664 14.639626471560213 a41.792988736575566,41.792988736575566 0 0,0 -0.5007460754989509,-0.5138095867834502 l 15.014962259808424 -14.383994192709027" fill="#fff116" stroke="none" /><path d="M 84.83555147118756 114.52719865689866 l -9.32137585286297 8.929667208990361 a33.90840827730726,33.90840827730726 0 0,0 -0.3990602520488496,-0.42378815866991565 l 9.473291938648073 -8.768337590375955" fill="#ff880c" stroke="none" /><path d="M 84.3458050057657 113.99807769240083 l -17.77755061490513 15.896795381665182 a44.848467650397275,44.848467650397275 0 0,0 -0.5082590047240728,-0.5783054475573652 l 18.047820683587798 -15.589277656296517" fill="#e6ff1a" stroke="none" /><path d="M 84.1078160697243 113.72728997021213 l -14.281180215698736 12.335743331303867 a39.87121278267703,39.87121278267703 0 0,0 -0.4429605096077749,-0.5218063665095993 l 14.490835288813622 -12.088770182344714" fill="#ffd814" stroke="none" /><path d="M 83.8745106332314 113.45245675266167 l -15.49753439797625 12.928594383702707 a41.18222299834105,41.18222299834105 0 0,0 -0.4482060979568997,-0.5467385622152972 l 15.71718731517178 -12.660653539788916" fill="#ffea15" stroke="none" /><path d="M 83.4222238831116 112.89097897827486 l -14.47027222915685 11.252171208051491 a39.330306469920544,39.330306469920544 0 0,0 -0.4098742762376993,-0.536538584736168 l 14.661298482748844 -11.002111710074452" fill="#ffd113" stroke="none" /><path d="M 83.20337586046588 112.60449989151573 l -46.32234102499386 34.761148286341566 a78.91456386972845,78.91456386972845 0 0,0 -0.8037936112932258,-1.0905004067520583 l 46.91223665587092 -33.960841570320625" fill="#46fffa" stroke="none" /><path d="M 82.78059297857968 112.02048342749411 l -16.806850897550795 11.732487212309936 a41.496865450100415,41.496865450100415 0 0,0 -0.4027374794630482,-0.5876060184919789 l 17.00577811382917 -11.442246458747904" fill="#ffee16" stroke="none" /><path d="M 82.576782715395 111.72311816256416 l -16.74639991187115 11.267725228789187 a41.18423993713438,41.18423993713438 0 0,0 -0.3896334274825518,-0.5899546699239079 l 16.937357778274432 -10.978590680526217" fill="#ffea15" stroke="none" /><path d="M 82.37810715431573 111.42229804090323 l -12.42441148423125 8.053353416597705 a35.80616432375797,35.80616432375797 0 0,0 -0.3298980632087332,-0.5186545499759796 l 12.560827239065873 -7.838885191943054" fill="#ffa20f" stroke="none" /><path d="M 82.18462484594161 111.11811171558189 l -3.1657951203649377 1.975690296302478 a24.731703483803372,24.731703483803372 0 0,0 -0.2216808994876985,-0.36209908934678686 l 3.199243984308041 -1.921054090831134" fill="#ff0200" stroke="none" /><path d="M 81.99639281039703 110.81064883170644 l -14.06287176101521 8.444350433364978 a37.40339649000262,37.40339649000262 0 0,0 -0.3258125975457791,-0.5533010200701008 l 14.20575806869076 -8.201698245001317" fill="#ffb811" stroke="none" /><line stroke="#e1ed5e" stroke-width="0.3" x1="26.387840678322732" x2="22.057713659400548" y1="142.50000000000003" y2="145.00000000000006" /><path d="M 25.521815274538298 143.00000000000003 a86.0,86.0 0 0,1 -11.493303480769221,-40.785679425670985" fill="none" id="id57" stroke="none" /><text fill="#e1ed5e" style="font-size:6.75px; font-family:Arial;" text-anchor="middle"><textPath startOffset="21.40746469413373" xlink:href="#id57">September</textPath></text><path d="M 81.81346652052679 110.50000000000001 l -50.865763524078346 29.367362263162516 a79.73472452632498,79.73472452632498 0 0,0 -0.6742012726231859,-1.191249048006952 l 51.362398161722915 -28.489856445056443" fill="#47fbff" stroke="none" /><path d="M 81.4637452351635 109.86951160357371 l -13.87977536346471 7.390198599588565 a36.72460490701126,36.72460490701126 0 0,0 -0.2915093003848458,-0.5590075204299504 l 14.004592732824504 -7.150844836054112" fill="#ffaf10" stroke="none" /><path d="M 81.29705330413844 109.54985784667822 l -16.41296659007209 8.380577687907866 a39.42876975464944,39.42876975464944 0 0,0 -0.3026253586194684,-0.6054534379299319 l 16.554411861903297 -8.097592393814182" fill="#ffd313" stroke="none" /><path d="M 81.1358732173502 109.22738970284198 l -21.01687398468625 10.280406234895974 a44.3964900026194,44.3964900026194 0 0,0 -0.3290007008658562,-0.6874849286211142 l 21.190253943512015 -9.918108804209755" fill="#ecff1a" stroke="none" /><path d="M 80.83023694016515 108.57439118712176 l -18.423258709473686 8.240489286357224 a41.18222299834105,41.18222299834105 0 0,0 -0.2831103649610494,-0.6478119193953046 l 18.562002956451703 -7.923015297186071" fill="#ffea15" stroke="none" /><path d="M 80.68587082218212 108.24405325689762 l -19.79559114239196 8.449560740076194 a42.523487295905,42.523487295905 0 0,0 -0.28080517562491014,-0.6738301979649457 l 19.937722162553353 -8.108498032669967" fill="#fffb17" stroke="none" /><path d="M 80.41425534168474 107.57618678355246 l -25.629228603350295 9.913936202313872 a48.47987426875055,48.47987426875055 0 0,0 -0.29357868854853,-0.7787523506213926 l 25.795637975713262 -9.472515571498334" fill="#baff1f" stroke="none" /><path d="M 80.28708602549918 107.23885506374661 l -12.223968833223163 4.4888106751705585 a34.02209028202218,34.02209028202218 0 0,0 -0.19661500435122964,-0.5499671600761374 l 12.299224007618335 -4.2783085587134995" fill="#ff890c" stroke="none" /><path d="M 80.16572619554312 106.89939002012753 l -20.845643393368334 7.251196863029343 a43.070811141185715,43.070811141185715 0 0,0 -0.23691936150048823,-0.7004099944645021 l 20.96704817644119 -6.89228519409068" fill="#fcff18" stroke="none" /><path d="M 80.05021161711548 106.5578916946017 l -5.220598163131335 1.7161143104767944 a26.495424779533746,26.495424779533746 0 0,0 -0.13832540125269271,-0.4333023492758247 l 5.249288280161283 -1.626242927509578" fill="#ff1d02" stroke="none" /><path d="M 79.94057633289273 106.21446072829308 l -22.788191856520793 7.05984008869478 a44.85671876364272,44.85671876364272 0 0,0 -0.2215573306060599,-0.7374922959710593 l 22.906025507130483 -6.667610189132997" fill="#e6ff1a" stroke="none" /><path d="M 79.83685265289637 105.86919833188381 l -34.090560135275894 9.923265214231908 a56.50545708547979,56.50545708547979 0 0,0 -0.26310422856350485,-0.9336640888048008 l 34.255882855913974 -9.336593201524112" fill="#5fff29" stroke="none" /><path d="M 79.64726062577567 105.17358676015961 l -32.447452041732475 8.248015424234195 a54.47935038854449,54.47935038854449 0 0,0 -0.22261941955364417,-0.9083632008420628 l 32.584258987802414 -7.689796398784032" fill="#75ff27" stroke="none" /><path d="M 79.34024301695615 103.76489593502545 l -5.449500204817554 0.9930804697207627 a26.539247358770627,26.539247358770627 0 0,0 -0.07782973296231559,-0.44890121727995647 l 5.4657447552721035 -0.8993862195202136" fill="#ff1d03" stroke="none" /><path d="M 79.2786578344484 103.40968896794605 l -38.202317281552624 6.28617677099282 a59.71605692831572,59.71605692831572 0 0,0 -0.15775989208424895,-1.0129316764914464 l 38.30459866577514 -5.629456912569924" fill="#3eff2e" stroke="none" /><path d="M 79.17382384314188 102.69636545807758 l -24.31932942651014 3.1486240841988637 a45.52230856544137,45.52230856544137 0 0,0 -0.09368472404011075,-0.7758439084102652 l 24.36979623680991 -2.7306864988651993" fill="#deff1b" stroke="none" /><path d="M 79.13060592940153 102.33845913500099 l -21.889813234095815 2.452799230661555 a43.02680520387671,43.02680520387671 0 0,0 -0.0759476537173862,-0.7347246555582583 l 21.92869328029487 -2.0766700528203654" fill="#fdff18" stroke="none" /><path d="M 79.06263194458094 101.62068470465958 l -18.800304992746845 1.4552625078773307 a39.85654413690736,39.85654413690736 0 0,0 -0.04694728683794277,-0.6826032471105421 l 18.822516240749852 -1.1323158366124453" fill="#ffd814" stroke="none" /><path d="M 79.03789590574601 101.26102812881392 l -43.82769096664683 2.6365650547959563 a64.90692395005675,64.90692395005675 0 0,0 -0.05736044484648423,-1.1127773060558026 l 43.86649300094989 -1.8838159553634228" fill="#34ff5e" stroke="none" /><path d="M 79.01933749520258 100.90099992219065 l -14.917098993850118 0.6406044151225404 a35.93084781280014,35.93084781280014 0 0,0 -0.021174070864381733,-0.6164599702786612 l 14.925897751711346 -0.38443818027975935" fill="#ffa40f" stroke="none" /><line stroke="#e1ed5e" stroke-width="0.3" x1="15.003131293944662" x2="10.003315487706104" y1="100.72959589197737" y2="100.7725132973878" /><path d="M 14.003168132696942 100.73817937305945 a86.0,86.0 0 0,1 10.791469493833604,-42.45332614584628" fill="none" id="id58" stroke="none" /><text fill="#e1ed5e" style="font-size:6.75px; font-family:Arial;" text-anchor="middle"><textPath startOffset="22.145653131862435" xlink:href="#id58">October</textPath></text><path d="M 79.00077361379809 100.18025310272382 l -31.721611429990325 0.27229188249583813 a52.72278005762682,52.72278005762682 0 0,0 0.0,-0.9050899704392996 l 31.721611429990325 0.2722918824958265" fill="#89ff24" stroke="none" /><path d="M 79.00077361379809 99.81974689727619 l -9.47871305760482 -0.08136335153682873 a30.479062254431152,30.479062254431152 0 0,0 0.008981988646193505,-0.5231558089514741 l 9.47591963735996 0.2440660764573552" fill="#ff5708" stroke="none" /><path d="M 79.00696218219943 99.45929381324524 l -20.208525446717132 -0.5204999309326153 a41.2152274513228,41.2152274513228 0 0,0 0.024288159057434318,-0.7071232502512262 l 20.196612600662846 0.8673294457479801" fill="#ffea16" stroke="none" /><path d="M 79.01933749520258 99.09900007780938 l -23.875052337817586 -1.0252974754134625 a44.8970575395093,44.8970575395093 0 0,0 0.03967704885762845,-0.7697241480291478 l 23.853933699503386 1.4349934168193224" fill="#e6ff1a" stroke="none" /><path d="M 79.03789590574601 98.7389718711861 l -23.952768382214444 -1.4409390659030517 a44.996070898454555,44.996070898454555 0 0,0 0.05300116938874841,-0.7706253707546377 l 23.924503251660635 1.8519078608120143" fill="#e4ff1a" stroke="none" /><path d="M 79.06263194458094 98.37931529534042 l -37.74868706682513 -2.9219871183546484 a58.861608312232605,58.861608312232605 0 0,0 0.08662852738645334,-1.0067548011128875 l 37.69296491674093 3.5695629668432165" fill="#46ff2c" stroke="none" /><path d="M 79.13060592940154 97.66154086499901 l -12.957501199338664 -1.451915036147041 a34.038592508513055,34.038592508513055 0 0,0 0.07005128356548654,-0.5801251184487322 l 12.930667829513508 1.6741338315192094" fill="#ff8a0c" stroke="none" /><path d="M 79.17382384314186 97.30363454192245 l -27.64518956716268 -3.579223265446004 a48.87592770453156,48.87592770453156 0 0,0 0.11487119241285068,-0.8311507252788801 l 27.579673858194624 4.053262298924952" fill="#b5ff1f" stroke="none" /><path d="M 79.2786578344484 96.59031103205396 l -38.22764678389417 -6.290344730964102 a59.74172705841264,59.74172705841264 0 0,0 0.1752002459153079,-1.0105084607859294 l 38.11403172048663 6.945646224670624" fill="#3dff2e" stroke="none" /><path d="M 79.407916724674 95.88100663000787 l -58.10480705568064 -11.622588731165258 a80.2558281672924,80.2558281672924 0 0,0 0.28182135660678115,-1.3486172118429793 l 57.89672798824949 12.618322394293648" fill="#48f6ff" stroke="none" /><path d="M 79.56144815229197 95.17655741523228 l -18.03653571333145 -4.2565733174056835 a39.53200034925347,39.53200034925347 0 0,0 0.16153993960609542,-0.6591380792324267 l 17.960808247209055 4.565567221246228" fill="#ffd413" stroke="none" /><path d="M 79.64726062577567 94.8264132398404 l -11.709089298591119 -2.9764047116643306 a33.08146337204226,33.08146337204226 0 0,0 0.1446298251393644,-0.5491830035891225 l 11.65626999264703 3.1769682196262377" fill="#ff7c0b" stroke="none" /><path d="M 79.73907114497095 94.47779374421319 l -20.91724637927735 -5.701088515535079 a42.68025844756832,42.68025844756832 0 0,0 0.19873047760237086,-0.7052243565275091 l 20.8162974096004 6.0593207959656015" fill="#fffd17" stroke="none" /><path d="M 79.94057633289273 93.78553927170692 l -14.806807620861331 -4.5871868503439845 a36.50109141709596,36.50109141709596 0 0,0 0.1905622634263635,-0.5969335760329578 l 14.72588064165771 4.840689460068335" fill="#ffac0f" stroke="none" /><path d="M 80.05021161711548 93.44210830539832 l -8.732060522430817 -2.870401734483389 a30.191740155417797,30.191740155417797 0 0,0 0.16607553028808508,-0.49097279560887586 l 8.681499570570367 3.0198762045664265" fill="#ff5307" stroke="none" /><path d="M 80.28708602549916 92.7611449362534 l -17.40306235887348 -6.390645555709587 a39.53933467213831,39.53933467213831 0 0,0 0.2394376263184758,-0.6351367507110329 l 17.29079404874057 6.688450586614765" fill="#ffd413" stroke="none" /><path d="M 80.68587082218212 91.75594674310238 l -25.49303158832383 -10.881459275693805 a48.718239762507636,48.718239762507636 0 0,0 0.33491729283235067,-0.766356308919516 l 25.302480413474502 11.317477654389188" fill="#b7ff1f" stroke="none" /><path d="M 80.83023694016515 91.42560881287825 l -46.720125407244424 -20.897317838656182 a72.18073867109055,72.18073867109055 0 0,0 0.5156301018524605,-1.1267448289650963 l 46.35451084053692 21.696251649835947" fill="#3effb3" stroke="none" /><path d="M 81.29705330413844 90.45014215332179 l -19.7056192944173 -10.061829619825899 a43.12581856282197,43.12581856282197 0 0,0 0.3423202844415798,-0.6564442820381102 l 19.529990941000783 10.398620144968495" fill="#fcff18" stroke="none" /><path d="M 81.46374523516351 90.13048839642627 l -24.34329939036983 -12.961435783580933 a48.5788876276958,48.5788876276958 0 0,0 0.39824197217243523,-0.7327203738691546 l 24.11721206858204 13.377410990924707" fill="#b9ff1f" stroke="none" /><line stroke="#e1ed5e" stroke-width="0.3" x1="26.387840678322718" x2="22.05771365940052" y1="57.49999999999999" y2="54.99999999999999" /><path d="M 25.521815274538284 56.99999999999999 a86.0,86.0 0 0,1 29.574782752854787,-30.34633250058573" fill="none" id="id59" stroke="none" /><text fill="#e1ed5e" style="font-size:6.75px; font-family:Arial;" text-anchor="middle"><textPath startOffset="21.40746469413373" xlink:href="#id59">November</textPath></text><path d="M 81.99639281039701 89.18935116829357 l -14.185327100233769 -8.517881346138024 a37.54623242818475,37.54623242818475 0 0,0 0.33654303604705466,-0.549717757191804 l 14.03701609973132 8.760136219454372" fill="#ffba11" stroke="none" /><path d="M 82.18462484594161 88.88188828441811 l -53.44612546217515 -33.35433514674566 a84.0,84.0 0 0,0 0.7739292334964403,-1.2167453012853122 l 52.865678537052815 34.266894122709644" fill="#4dd2ff" stroke="none" /><path d="M 82.576782715395 88.27688183743585 l -12.232610685890926 -8.230646393536919 a35.74382257923688,35.74382257923688 0 0,0 0.3469027565286197,-0.5061414890897357 l 12.089518192546993 8.439422617696689" fill="#ffa10e" stroke="none" /><path d="M 82.78059297857968 87.97951657250589 l -10.282029227109861 -7.17765494315435 a33.53949183620012,33.53949183620012 0 0,0 0.33361397369330764,-0.4692698336221772 l 10.157300154886581 7.353102003486048" fill="#ff830c" stroke="none" /><path d="M 82.98947788004972 87.6856937992154 l -15.164361376468387 -10.977828194360495 a39.72085916353794,39.72085916353794 0 0,0 0.40458150264173004,-0.5488925104608935 l 14.973677854242839 11.236527014090251" fill="#ffd714" stroke="none" /><line stroke="#e1ed5e" stroke-width="0.3" x1="56.869717070023135" x2="54.33264160355391" y1="26.7553504044142" y2="22.446841604673864" /><path d="M 56.362301976729285 25.89364864446614 a86.0,86.0 0 0,1 42.16139366436587,-11.88097634709845" fill="none" id="id60" stroke="none" /><text fill="#e1ed5e" style="font-size:6.75px; font-family:Arial;" text-anchor="middle"><textPath startOffset="22.145653131862474" xlink:href="#id60">December</textPath></text></svg>