<?xml version="1.0" encoding="utf-8" ?>
<svg baseProfile="full" height="200mm" version="1.1" viewBox="0,0,200,200" width="200mm" xmlns="http://www.w3.org/2000/svg" xmlns:ev="http://www.w3.org/2001/xml-events" xmlns:xlink="http://www.w3.org/1999/xlink"><defs /><rect fill="#1a1a1a" height="200" width="200" x="0" y="0" /><text alignment-baseline="middle" fill="#e1ed5e" style="dominant-baseline: central; font-size:9.0px; font-family:Arial;" text-anchor="middle" x="100.0" y="100.0">2025</text><line stroke="#e1ed5e" stroke-width="0.3" x1="100.0" x2="100.0" y1="15.0" y2="10.0" /><path d="M 100.0 14.0 a86.0,86.0 0 0,1 42.46469731375804,11.215312516191453" fill="none" id="id61" stroke="none" /><text fill="#e1ed5e" style="font-size:6.75px; font-family:Arial;" text-anchor="middle"><textPath startOffset="22.20632615414155" xlink:href="#id61">January</textPath></text><path d="M 102.16513564639614 79.11191278185805 l 1.8765614364676642 -18.104075382243604 a39.20107217366044,39.20107217366044 0 0,0 0.6705871610903438,0.07534828101047454 l -2.1879153010677332 18.069091147762528" fill="#ff860c" stroke="none" /><path d="M 102.52436894288641 79.15227682838746 l 2.0392210573434313 -16.841086644255995 a37.96409802730609,37.96409802730609 0 0,0 0.6480747613463604,0.08413870389294836 l -2.3288105471976377 16.80348961719891" fill="#ff730a" stroke="none" /><path d="M 103.2404852339499 79.25152402106235 l 3.8772093045972826 -24.825351240280916 a46.12629730372092,46.12629730372092 0 0,0 0.7834239560567811,0.12927166538485194 l -4.303962466792939 24.754933311956442" fill="#ffee16" stroke="none" /><path d="M 103.95276090670814 79.375362276772 l 8.827479521137302 -46.05984814909897 a67.89812369609422,67.89812369609422 0 0,0 1.145970274859616,0.22987085640822175 l -9.619016205464042 45.901073336613536" fill="#36ff6b" stroke="none" /><path d="M 104.307194497241 79.44645832069477 l 3.540664703042701 -16.89573098987015 a38.26273536324504,38.26273536324504 0 0,0 0.6434649232056233,0.140636509332015 l -3.830972350401852 16.832280982442263" fill="#ff780b" stroke="none" /><path d="M 104.66035177308747 79.52364482259891 l 5.622125455151947 -24.702134790853307 a46.33384609290411,46.33384609290411 0 0,0 0.7761499784479854,0.18368962349857662 l -6.046499120562456 24.601699255213862" fill="#fff116" stroke="none" /><path d="M 105.01212808612495 79.60689891045804 l 4.415476109991912 -17.965472773689555 a39.50012543903662,39.50012543903662 0 0,0 0.6588829922438596,0.16796394536475495 l -4.724067990920797 17.886805832155932" fill="#ff8b0c" stroke="none" /><line stroke="#e1ed5e" stroke-width="0.3" x1="143.23703022742887" x2="145.7803849466894" y1="26.81831364943548" y2="22.513508569990506" /><path d="M 143.74570117128098 25.957352633546492 a86.0,86.0 0 0,1 28.547481713284135,27.462654790039103" fill="none" id="id62" stroke="none" /><text fill="#e1ed5e" style="font-size:6.75px; font-family:Arial;" text-anchor="middle"><textPath startOffset="19.985693538727396" xlink:href="#id62">February</textPath></text><path d="M 111.60114157652 82.49532879139004 l 12.372876217005237 -18.669122228613894 a43.39696833654634,43.39696833654634 0 0,0 0.6191203805055823,0.4180328446111963 l -12.69240129191736 18.453377471704027" fill="#ffc712" stroke="none" /><path d="M 114.16331599549186 84.49514656593476 l 6.733624999784506 -7.371428324754444 a30.98397021152983,30.98397021152983 0 0,0 0.3906814781308767,0.36309585591702104 l -6.85951436171023 7.254427882762782" fill="#ff0000" stroke="none" /><path d="M 114.94478906791727 85.2469230424477 l 27.316854029449413 -26.966432774875802 a59.38487997464812,59.38487997464812 0 0,0 0.71187126120574,0.7336459099229877 l -27.776989554358263 26.4922226694027" fill="#60ff29" stroke="none" /><path d="M 115.9244219780498 86.31012108654704 l 15.836004365857528 -13.613868217027221 a41.8834011144268,41.8834011144268 0 0,0 0.46528347385988666,0.5507488750877746 l -16.06799845320453 13.33926039231034" fill="#ffb010" stroke="none" /><path d="M 116.38621287248628 86.86637796730983 l 19.84319013725706 -15.904404587781773 a46.430341722344,46.430341722344 0 0,0 0.49447411727762164,0.6279319143097752 l -20.114018335128645 15.56048027951896" fill="#fff316" stroke="none" /><path d="M 116.60985879189232 87.15038557335679 l 33.46985020522486 -25.892734877708563 a63.31624501544881,63.31624501544881 0 0,0 0.6594660075973191,0.8677799642615615 l -33.91059215304629 25.312770137565966" fill="#32ff2f" stroke="none" /><path d="M 117.04232023915458 87.72973835380427 l 13.615471350122364 -9.802972456675944 a37.77734570998494,37.77734570998494 0 0,0 0.37541215747522766,0.5309938733996179 l -13.782196127401475 9.567152082944533" fill="#ff700a" stroke="none" /><path d="M 117.2510076193507 88.02491185347247 l 13.943125655527174 -9.67886412476884 a37.9732484749254,37.9732484749254 0 0,0 0.3681154451703283,0.5401639927273209 l -14.107665566366236 9.437422108771113" fill="#ff730a" stroke="none" /><path d="M 117.45458315368197 88.32363383020206 l 20.853472226739314 -13.950076921760006 a46.08927958380649,46.08927958380649 0 0,0 0.4354413401598336,0.6632070349766147 l -21.09051020225707 13.589051822805718" fill="#ffee16" stroke="none" /><line stroke="#e1ed5e" stroke-width="0.3" x1="172.23445277983987" x2="176.4835382374775" y1="55.19839476539836" y2="52.563006222186495" /><path d="M 173.08426987136738 54.67131705675599 a86.0,86.0 0 0,1 12.851231095245387,41.99856678651699" fill="none" id="id63" stroke="none" /><text fill="#e1ed5e" style="font-size:6.75px; font-family:Arial;" text-anchor="middle"><textPath startOffset="22.20632615414155" xlink:href="#id63">March</textPath></text><path d="M 117.84615892207809 88.93136811851018 l 16.647798328444733 -10.325378819016997 a40.589860564607704,40.589860564607704 0 0,0 0.36315207380260944,0.5969265249229461 l -16.823066200533567 10.03728452088697" fill="#ff9c0e" stroke="none" /><path d="M 118.03404312379186 89.2402003453031 l 36.1249977576926 -21.553554892321838 a63.06627142366704,63.06627142366704 0 0,0 0.5481970340770893,0.9370464319172062 l -36.49065446624002 20.928529048050738" fill="#35ff2f" stroke="none" /><path d="M 119.196687751892 91.48605970444005 l 38.52999861491335 -17.088474430337502 a63.14945731111521,63.14945731111521 0 0,0 0.432150651619062,0.9974632861423204 l -38.818439976375096 16.422711999608577" fill="#34ff2f" stroke="none" /><path d="M 119.47837535516314 92.15188598940014 l 31.22406665507159 -12.580619816355247 a54.66324900308976,54.66324900308976 0 0,0 0.3441349572681512,0.8757859296532892 l -31.43599516222144 12.041284881806174" fill="#9bff22" stroke="none" /><path d="M 119.61058180528143 92.48833698450437 l 27.434591292928733 -10.508581887398721 a50.37834394063432,50.37834394063432 0 0,0 0.30321864347538713,0.8124752136891109 l -27.611414524905744 10.034783536680276" fill="#d4ff1c" stroke="none" /><path d="M 119.7369772167798 92.82701384747503 l 37.38621412559194 -13.587227328317192 a60.77865951884226,60.77865951884226 0 0,0 0.34888953130980843,0.9863576869823847 l -37.61455673771156 12.941672014908193" fill="#50ff2b" stroke="none" /><path d="M 119.97218684219823 93.5106431181261 l 39.603917704080104 -12.86809291004273 a62.642023397681356,62.642023397681356 0 0,0 0.3243798347695985,1.0283727210030003 l -39.81955302261791 12.18447002261331" fill="#3aff2e" stroke="none" /><path d="M 120.08093135843002 93.85539295169968 l 39.85137111968147 -12.194206110048228 a62.675297752660626,62.675297752660626 0 0,0 0.3067929050353186,1.0343531608563539 l -40.055369921828486 11.506423562445343" fill="#3aff2e" stroke="none" /><path d="M 120.53481517161879 95.60439243477599 l 40.77245658471308 -8.727603200647872 a62.69609422452267,62.69609422452267 0 0,0 0.21681116695069202,1.0572482489702855 l -40.91664704757878 8.024479295514174" fill="#39ff2e" stroke="none" /><path d="M 120.6074358757038 95.95851677861258 l 20.644033706602496 -4.048660704331373 a42.03729500620593,42.03729500620593 0 0,0 0.13314667838692737,0.7112748799942142 l -20.710666108899282 3.692707746874596" fill="#ffb210" stroke="none" /><path d="M 120.67395015179393 96.31383870115 l 41.0691866068997 -7.3226279996842205 a62.71689069638471,62.71689069638471 0 0,0 0.180350299066396,1.0644376741349388 l -41.18914876748632 6.614604537233443" fill="#39ff2e" stroke="none" /><path d="M 120.78858239683441 97.02765380044208 l 35.152890591652394 -5.026151315131705 a56.510391633876466,56.510391633876466 0 0,0 0.1293926535507315,0.9641255621504944 l -35.234199244260964 4.420307410916546" fill="#84ff25" stroke="none" /><path d="M 120.83666639777658 97.38593545837742 l 38.853942047524335 -4.874422341355418 a60.158508727916136,60.158508727916136 0 0,0 0.12005818402940384,1.0285852024665374 l -38.93209058455732 4.2048934005640275" fill="#57ff2a" stroke="none" /><path d="M 120.87857604477298 97.74499172005257 l 27.822755039567753 -3.005020210699744 a48.98456439644017,48.98456439644017 0 0,0 0.08332711606880039,0.8390926871992319 l -27.87035928131878 2.525651992796077" fill="#e7ff1a" stroke="none" /><path d="M 120.96714384426684 98.82574320788733 l 34.13383133624621 -1.9116520392630945 a55.18732009401326,55.18732009401326 0 0,0 0.04495504371769633,0.9489299210090255 l -34.161679988197406 1.323811011631069" fill="#94ff23" stroke="none" /><line stroke="#e1ed5e" stroke-width="0.3" x1="184.98032266829074" x2="189.97916517819016" y1="98.17113171792111" y2="98.06355123074" /><path d="M 185.9800911702706 98.14961562048488 a86.0,86.0 0 0,1 -9.607161424134198,41.387399972396054" fill="none" id="id64" stroke="none" /><text fill="#e1ed5e" style="font-size:6.75px; font-family:Arial;" text-anchor="middle"><textPath startOffset="21.466115282336823" xlink:href="#id64">April</textPath></text><path d="M 120.99513854157772 99.54816195383933 l 25.266438051432708 -0.5437610225810398 a46.27228853619246,46.27228853619246 0 0,0 0.010283449583115358,0.7964645029713372 l -25.27205450813354 0.10876026154923978" fill="#fff116" stroke="none" /><path d="M 120.99824983174949 100.27111621757518 l 41.67598342501294 0.5380941307228093 a62.67945704703303,62.67945704703303 0 0,0 -0.023215089897599555,1.0787140055973234 l -41.66054627243033 -1.2553979521102476" fill="#3aff2e" stroke="none" /><path d="M 120.9764740272857 100.99374915477107 l 23.137161088405623 1.0961105400982498 a44.163110359944014,44.163110359944014 0 0,0 -0.04250941031101085,0.7590340773097085 l -23.11486532720708 -1.4942163337433816" fill="#ffd213" stroke="none" /><path d="M 120.95626037817324 101.35467743843564 l 46.19237497333231 2.9860178808098574 a67.28878707053636,67.28878707053636 0 0,0 -0.08466672941458052,1.1552102548322454 l -46.1341316852534 -3.780701272138873" fill="#35ff63" stroke="none" /><path d="M 120.92983693683757 101.71520430193887 l 62.789510810512716 5.145612905816612 a84.0,84.0 0 0,0 -0.13050161489169865,1.4400744458057178 l -62.69163459934395 -6.2256687401709" fill="#4dd2ff" stroke="none" /><path d="M 120.89721153311464 102.0752229133903 l 62.356380789790315 6.1923759543710055 a83.66309715583489,83.66309715583489 0 0,0 -0.15464804194682868,1.431848801919862 l -62.24055044634243 -7.264821078175658" fill="#4dd6ff" stroke="none" /><path d="M 120.8583938346157 102.4346265915055 l 27.312504288578047 3.1879611512189805 a48.497926954868355,48.497926954868355 0 0,0 -0.1039206436964609,0.8283497786941936 l -27.253582135634737 -3.657628684200569" fill="#eeff19" stroke="none" /><path d="M 120.81339534386255 102.79330883721812 l 27.880177078249766 3.741722276891531 a49.130139699474476,49.130139699474476 0 0,0 -0.11970429625764571,0.8372115692234282 l -27.81163873097552 -4.221079318095368" fill="#e5ff1a" stroke="none" /><line stroke="#e1ed5e" stroke-width="0.3" x1="174.80103733775053" x2="179.2010983576182" y1="140.37084112569926" y2="142.7455964860345" /><path d="M 175.68104954172406 140.8457921977663 a86.0,86.0 0 0,1 -30.038265399797805,32.042727171017184" fill="none" id="id65" stroke="none" /><text fill="#e1ed5e" style="font-size:6.75px; font-family:Arial;" text-anchor="middle"><textPath startOffset="22.206326154141568" xlink:href="#id65">May</textPath></text><line stroke="#e1ed5e" stroke-width="0.3" x1="143.8653032363475" x2="146.44561519142675" y1="172.8068346515853" y2="177.08958963109032" /><path d="M 144.38136562736335 173.6633856474863 a86.0,86.0 0 0,1 -40.68145358897372,12.25698825130547" fill="none" id="id66" stroke="none" /><text fill="#e1ed5e" style="font-size:6.75px; font-family:Arial;" text-anchor="middle"><textPath startOffset="21.466115282336833" xlink:href="#id66">June</textPath></text><line stroke="#e1ed5e" stroke-width="0.3" x1="102.19456741930631" x2="102.32365962044197" y1="184.97166512339345" y2="189.96999836594603" /><path d="M 102.22038585953345 185.97133177190398 a86.0,86.0 0 0,1 -42.740103519485714,-10.115201625700543" fill="none" id="id67" stroke="none" /><text fill="#e1ed5e" style="font-size:6.75px; font-family:Arial;" text-anchor="middle"><textPath startOffset="22.20632615414155" xlink:href="#id67">July</textPath></text><line stroke="#e1ed5e" stroke-width="0.3" x1="58.666819895761336" x2="56.23545636021788" y1="174.27360380694188" y2="178.64263932499728" /><path d="M 58.180547188652646 175.14741091055294 a86.0,86.0 0 0,1 -31.652253787137756,-30.449443065178592" fill="none" id="id68" stroke="none" /><text fill="#e1ed5e" style="font-size:6.75px; font-family:Arial;" text-anchor="middle"><textPath startOffset="22.20632615414155" xlink:href="#id68">August</textPath></text><line stroke="#e1ed5e" stroke-width="0.3" x1="26.63291911575756" x2="22.317208475507996" y1="142.92168965132927" y2="145.44649492493687" /><path d="M 25.769776987707644 143.4266507060508 a86.0,86.0 0 0,1 -11.730757126820373,-40.83630448921669" fill="none" id="id69" stroke="none" /><text fill="#e1ed5e" style="font-size:6.75px; font-family:Arial;" text-anchor="middle"><textPath startOffset="21.46611528233685" xlink:href="#id69">September</textPath></text><line stroke="#e1ed5e" stroke-width="0.3" x1="15.007084014347285" x2="10.007500721073583" y1="101.09737516637583" y2="101.16192664675087" /><path d="M 14.007167355692545 101.11028546245083 a86.0,86.0 0 0,1 10.666146001902534,-42.60595125391555" fill="none" id="id70" stroke="none" /><text fill="#e1ed5e" style="font-size:6.75px; font-family:Arial;" text-anchor="middle"><textPath startOffset="22.20632615414155" xlink:href="#id70">October</textPath></text><line stroke="#e1ed5e" stroke-width="0.3" x1="26.266209847984243" x2="21.928928074336255" y1="57.711370442889674" y2="55.22380399835377" /><path d="M 25.398753493254645 57.213857153982495 a86.0,86.0 0 0,1 29.58750427330803,-30.492523968695096" fill="none" id="id71" stroke="none" /><text fill="#e1ed5e" style="font-size:6.75px; font-family:Arial;" text-anchor="middle"><textPath startOffset="21.46611528233685" xlink:href="#id71">November</textPath></text><line stroke="#e1ed5e" stroke-width="0.3" x1="56.762969772571076" x2="54.21961505331055" y1="26.818313649435495" y2="22.513508569990535" /><path d="M 56.25429882871897 25.957352633546506 a86.0,86.0 0 0,1 42.265352541879196,-11.944610805530505" fill="none" id="id72" stroke="none" /><text fill="#e1ed5e" style="font-size:6.75px; font-family:Arial;" text-anchor="middle"><textPath startOffset="22.20632615414155" xlink:href="#id72">December</textPath></text></svg>