<?xml version="1.0" encoding="utf-8" ?>
<svg baseProfile="full" height="200mm" version="1.1" viewBox="0,0,200,200" width="200mm" xmlns="http://www.w3.org/2000/svg" xmlns:ev="http://www.w3.org/2001/xml-events" xmlns:xlink="http://www.w3.org/1999/xlink"><defs /><rect fill="#1a1a1a" height="200" width="200" x="0" y="0" /><text alignment-baseline="middle" fill="#e1ed5e" style="dominant-baseline: central; font-size:9.0px; font-family:Arial;" text-anchor="middle" x="100.0" y="100.0">2025</text><line stroke="#e1ed5e" stroke-width="0.3" x1="100.0" x2="100.0" y1="15.0" y2="10.0" /><path d="M 100.0 14.0 a86.0,86.0 0 0,1 42.46469731375804,11.215312516191453" fill="none" id="id61" stroke="none" /><text fill="#e1ed5e" style="font-size:6.75px; font-family:Arial;" text-anchor="middle"><textPath startOffset="22.20632615414155" xlink:href="#id61">January</textPath></text><path d="M 102.16513564639614 79.11191278185805 l 1.7625039229793773 -17.003708625272367 a38.0948099460532,38.0948099460532 0 0,0 0.6516630550519618,0.07322193719957668 l -2.0549336815410646 16.970850734602188" fill="#ff910d" stroke="none" /><path d="M 102.52436894288641 79.15227682838746 l 1.9152770826173182 -15.817484416395905 a36.93301916041421,36.93301916041421 0 0,0 0.6304734952736195,0.08185355439698788 l -2.1872653063987837 15.782172538834779" fill="#ff7f0b" stroke="none" /><path d="M 103.2404852339499 79.25152402106235 l 3.641552297071627 -23.316464944892854 a44.599119489055624,44.599119489055624 0 0,0 0.7574858739842206,0.12499165959681623 l -4.042367377194723 23.250327022356412" fill="#ffee16" stroke="none" /><path d="M 103.95276090670814 79.375362276772 l 8.290944801312241 -43.26032789389052 a65.04765300427854,65.04765300427854 0 0,0 1.0978606290496655,0.2202205140507952 l -9.034371839829033 43.11120342376252" fill="#33ff4e" stroke="none" /><path d="M 104.307194497241 79.44645832069477 l 3.3254628960158223 -15.86880747549855 a37.21350530166801,37.21350530166801 0 0,0 0.6258200074778724,0.1367800141822157 l -3.5981256276472227 15.809213963220463" fill="#ff840c" stroke="none" /><path d="M 104.66035177308747 79.52364482259891 l 5.2804123422890505 -23.200737598443414 a44.79405345073479,44.79405345073479 0 0,0 0.7503565223287207,0.1775851457882905 l -5.678992551580294 23.106406540514254" fill="#fff116" stroke="none" /><path d="M 105.01212808612495 79.60689891045804 l 4.147103214660229 -16.87353029134501 a38.3756867365288,38.3756867365288 0 0,0 0.6401267597340008,0.16318256407305426 l -4.436938863079254 16.79964473110309" fill="#ff950d" stroke="none" /><line stroke="#e1ed5e" stroke-width="0.3" x1="143.23703022742887" x2="145.7803849466894" y1="26.81831364943548" y2="22.513508569990506" /><path d="M 143.74570117128098 25.957352633546492 a86.0,86.0 0 0,1 28.547481713284135,27.462654790039103" fill="none" id="id62" stroke="none" /><text fill="#e1ed5e" style="font-size:6.75px; font-family:Arial;" text-anchor="middle"><textPath startOffset="19.985693538727396" xlink:href="#id62">February</textPath></text><path d="M 111.60114157652 82.49532879139004 l 11.620852079353565 -17.53441189138519 a42.03567929559125,42.03567929559125 0 0,0 0.5996996278281553,0.40491986571102573 l -11.920956401588262 17.331780113375494" fill="#ffca12" stroke="none" /><path d="M 114.16331599549186 84.49514656593476 l 6.3243548798124865 -6.923392481514889 a30.37714392013394,30.37714392013394 0 0,0 0.3830299153752747,0.3559845622331228 l -6.442592678982608 6.813503333207126" fill="#ff1902" stroke="none" /><path d="M 114.94478906791727 85.2469230424477 l 25.6565340493126 -25.3274114190171 a57.051844732436294,57.051844732436294 0 0,0 0.6839041971817024,0.7048233920718849 l -26.088702510197415 24.8820238313951" fill="#70ff27" stroke="none" /><path d="M 115.9244219780498 86.31012108654704 l 14.873491097462072 -12.786416513280084 a40.614106777453955,40.614106777453955 0 0,0 0.45118285970861655,0.5340581954953217 l -15.091384570657807 12.528499368155655" fill="#ffb610" stroke="none" /><path d="M 116.38621287248628 86.86637796730983 l 18.637119884107722 -14.937733949910893 a44.88468407019285,44.88468407019285 0 0,0 0.47801316362513024,0.6070281748071269 l -18.891487128326816 14.614713381150727" fill="#fff216" stroke="none" /><path d="M 116.60985879189232 87.15038557335679 l 31.43555075888261 -24.318972942622686 a60.74426117690829,60.74426117690829 0 0,0 0.6326776863190547,0.83252967355109 l -31.849504385425778 23.774258493190562" fill="#46ff2d" stroke="none" /><path d="M 117.04232023915458 87.72973835380427 l 12.787922207852265 -9.207147219369952 a36.75761765982514,36.75761765982514 0 0,0 0.36527861579425885,0.5166606973388794 l -12.944513443450408 8.98566002169928" fill="#ff7d0b" stroke="none" /><path d="M 117.2510076193507 88.02491185347247 l 13.095661665476472 -9.090582199110107 a36.94161344329386,36.94161344329386 0 0,0 0.35811469979893573,0.5254891329219652 l -13.250200830944141 8.863815042917736" fill="#ff7f0b" stroke="none" /><path d="M 117.45458315368197 88.32363383020206 l 19.58599696930458 -13.102190433342496 a44.56435170831525,44.56435170831525 0 0,0 0.4210341581915501,0.6412639084189787 l -19.808627762854055 12.763108460945842" fill="#ffee16" stroke="none" /><line stroke="#e1ed5e" stroke-width="0.3" x1="172.23445277983987" x2="176.4835382374775" y1="55.19839476539836" y2="52.563006222186495" /><path d="M 173.08426987136738 54.67131705675599 a86.0,86.0 0 0,1 12.851231095245387,41.99856678651699" fill="none" id="id63" stroke="none" /><text fill="#e1ed5e" style="font-size:6.75px; font-family:Arial;" text-anchor="middle"><textPath startOffset="22.20632615414155" xlink:href="#id63">March</textPath></text><path d="M 117.84615892207809 88.93136811851018 l 15.635944175685909 -9.697801692558233 a39.3991876976499,39.3991876976499 0 0,0 0.35249928232115135,0.5794161366903514 l -15.800559256293285 9.4272177826608" fill="#ffa40f" stroke="none" /><path d="M 118.03404312379186 89.2402003453031 l 33.92931828834986 -20.243528569667042 a60.50948099460531,60.50948099460531 0 0,0 0.5259723980184189,0.899057324671312 l -34.27275036083861 19.656491832641837" fill="#48ff2c" stroke="none" /><path d="M 119.196687751892 91.48605970444005 l 36.188143053287625 -16.049835958419795 a60.5876108389657,60.5876108389657 0 0,0 0.41461916885693634,0.9569982067970925 l -36.459052931987245 15.4245386070361" fill="#47ff2c" stroke="none" /><path d="M 119.47837535516314 92.15188598940014 l 29.32626606380842 -11.815969010626258 a52.617194766540585,52.617194766540585 0 0,0 0.3312539302508334,0.8430051208949955 l -29.525313543940953 11.309414884835478" fill="#a6ff21" stroke="none" /><path d="M 119.61058180528143 92.48833698450437 l 25.767115235055062 -9.869869667765299 a48.59272648353693,48.59272648353693 0 0,0 0.2924713171292677,0.7836777223159964 l -25.933191140685956 9.42486880841997" fill="#daff1c" stroke="none" /><path d="M 119.7369772167798 92.82701384747503 l 35.113877851895325 -12.761394859338676 a58.360910274694604,58.360910274694604 0 0,0 0.33501085403569364,0.9471207974056809 l -35.32834178674083 12.15507643550638" fill="#61ff29" stroke="none" /><path d="M 119.97218684219823 93.5106431181261 l 37.19678927761893 -12.085969472923372 a60.11101878836733,60.11101878836733 0 0,0 0.31127350754006067,0.9868220820584775 l -37.399318268927196 11.443897224438475" fill="#4dff2c" stroke="none" /><path d="M 120.08093135843002 93.85539295169968 l 37.42920246019664 -11.453041551911607 a60.142270726111484,60.142270726111484 0 0,0 0.29439384595027424,0.9925496975240323 l -37.62080220325861 10.807062467641044" fill="#4cff2c" stroke="none" /><path d="M 120.53481517161879 95.60439243477599 l 38.294304296976016 -8.197138969403683 a60.161803187201585,60.161803187201585 0 0,0 0.2080472622132363,1.0145123370330345 l -38.429730855104246 7.536750976207236" fill="#4cff2c" stroke="none" /><path d="M 120.6074358757038 95.95851677861258 l 19.389288134629297 -3.8025828707364315 a40.75864698952068,40.75864698952068 0 0,0 0.1290967570915029,0.6896400384924388 l -19.451870615630657 3.4682647547814303" fill="#ffb811" stroke="none" /><path d="M 120.67395015179393 96.31383870115 l 38.57299905111852 -6.877558243046875 a60.18133564829168,60.18133564829168 0 0,0 0.17305899195366556,1.0214039668183734 l -38.68566990459241 6.212568487912663" fill="#4cff2c" stroke="none" /><path d="M 120.78858239683441 97.02765380044208 l 33.01629585252313 -4.720661545236988 a54.35206796056303,54.35206796056303 0 0,0 0.12445070890591735,0.9273023343392648 l -33.092662560486886 4.151640868833059" fill="#90ff24" stroke="none" /><path d="M 120.83666639777658 97.38593545837742 l 36.49239718518271 -4.578154667330702 a57.778452284987914,57.778452284987914 0 0,0 0.11530831139346787,0.9878911944201729 l -36.565795849579764 3.9493197345856763" fill="#67ff28" stroke="none" /><path d="M 120.87857604477298 97.74499172005257 l 26.131686366548323 -2.822374907138766 a47.2836609412786,47.2836609412786 0 0,0 0.08043372748044801,0.8099566589739466 l -26.176397219711 2.372142717460384" fill="#ebff1a" stroke="none" /><path d="M 120.96714384426684 98.82574320788733 l 32.059175078058786 -1.7954617168915628 a53.109412786011035,53.109412786011035 0 0,0 0.04326240102887887,0.9132009090858586 l -32.085331087321165 1.2433497011827044" fill="#a0ff22" stroke="none" /><line stroke="#e1ed5e" stroke-width="0.3" x1="184.98032266829074" x2="189.97916517819016" y1="98.17113171792111" y2="98.06355123074" /><path d="M 185.9800911702706 98.14961562048488 a86.0,86.0 0 0,1 -9.607161424134198,41.387399972396054" fill="none" id="id64" stroke="none" /><text fill="#e1ed5e" style="font-size:6.75px; font-family:Arial;" text-anchor="middle"><textPath startOffset="21.466115282336823" xlink:href="#id64">April</textPath></text><path d="M 120.99513854157772 99.54816195383933 l 23.73074247395306 -0.5107111959341784 a44.73623736590811,44.73623736590811 0 0,0 0.009942081017470511,0.7700251313607854 l -23.736017562088247 0.10214980651293021" fill="#fff016" stroke="none" /><path d="M 120.99824983174949 100.27111621757518 l 39.14291472325826 0.5053887380933991 a60.146177218329505,60.146177218329505 0 0,0 -0.022276818863838074,1.0351162375236602 l -39.12841584170941 -1.179094791407174" fill="#4cff2c" stroke="none" /><path d="M 120.9764740272857 100.99374915477107 l 21.73088308884866 1.029488877581706 a42.75525516215043,42.75525516215043 0 0,0 -0.041154272645802875,0.734837183967428 l -21.70994246531533 -1.4033977778845572" fill="#ffd513" stroke="none" /><path d="M 120.95626037817324 101.35467743843564 l 43.38479973002231 2.804527539967182 a64.47535189433869,64.47535189433869 0 0,0 -0.08112669897029728,1.1069093519872832 l -43.33009647238767 -3.5509100284512356" fill="#32ff46" stroke="none" /><path d="M 120.92983693683757 101.71520430193887 l 58.97316068361592 4.832862253476967 a80.17085632789731,80.17085632789731 0 0,0 -0.12455269307191615,1.3744285892400778 l -58.881233394266935 -5.847272231265616" fill="#48faff" stroke="none" /><path d="M 120.89721153311464 102.0752229133903 l 58.566356330799024 5.816002982927186 a79.85443045823773,79.85443045823773 0 0,0 -0.14760786692062342,1.3666655247850372 l -58.45756616237735 -6.823264829597015" fill="#47fdff" stroke="none" /><path d="M 120.8583938346157 102.4346265915055 l 25.652448685944933 2.9941966866301017 a46.82660135177032,46.82660135177032 0 0,0 -0.10033935180615076,0.7998033586638994 l -25.597107824891935 -3.435317799581396" fill="#f1ff19" stroke="none" /><path d="M 120.81339534386255 102.79330883721812 l 26.18561829037227 3.5143001788070096 a47.420388168909284,47.420388168909284 0 0,0 -0.11553853151539875,0.8080762203186101 l -26.12124570784027 -3.964521871106029" fill="#e9ff1a" stroke="none" /><path d="M 120.76222939487914 103.15116336523771 l 58.234403615695825 8.83845928970938 a79.90130836485397,79.90130836485397 0 0,0 -0.21808584855767332,1.358020787147831 l -58.073636012776866 -9.839559306550417" fill="#47fdff" stroke="none" /><path d="M 120.64145759157962 103.86396538481128 l 23.714957443669917 4.439307362770437 a45.12688658771005,45.12688658771005 0 0,0 -0.14949907259555198,0.7622925503405622 l -23.6350284380987 -4.846863640178944" fill="#fff617" stroke="none" /><path d="M 120.49622156327973 104.57218783832717 l 61.488664689839204 13.716563514981502 a84.0,84.0 0 0,0 -0.3269577362777887,1.4085253706057403 l -61.24344638763086 -14.772957542935806" fill="#4dd2ff" stroke="none" /><path d="M 120.41448212921028 104.9243191809786 l 57.8476573531037 13.953835658214953 a80.50681465864699,80.50681465864699 0 0,0 -0.336551783293988,1.3443570780752923 l -57.59889425551465 -14.94752057568764" fill="#48f6ff" stroke="none" /><path d="M 120.32669344350535 105.2749913415812 l 19.1100159969241 4.959250711456052 a40.7430210206486,40.7430210206486 0 0,0 -0.1820086275044977,0.6773218118156026 l -19.021819293077826 -5.287463456447203" fill="#ffb811" stroke="none" /><path d="M 120.23288151984713 105.62410040840565 l 40.96132874939473 11.385952392511708 a63.514354808705896,63.514354808705896 0 0,0 -0.30186667968274417,1.0508375131635461 l -40.75926943282588 -12.089347381179836" fill="#30ff3a" stroke="none" /><path d="M 120.13307415673323 105.97154293290107 l 14.608994052800142 4.333080706585334 a36.23805419482855,36.23805419482855 0 0,0 -0.18252456906117584,0.59650085249281 l -14.532242711232833 -4.583908531630201" fill="#ff750a" stroke="none" /><path d="M 119.79798401119884 107.00284435728193 l 19.346216285265854 6.843047326000237 a41.52080362125628,41.52080362125628 0 0,0 -0.24413390051387984,0.6717516428760776 l -19.225558123746747 -7.1750467658824455" fill="#ffc312" stroke="none" /><path d="M 119.67450827220406 107.3425965602758 l 25.726673466448318 9.601286166270222 a48.459905748124264,48.459905748124264 0 0,0 -0.2983877630281891,0.7789962920978009 l -25.557591423826622 -10.042706025201168" fill="#dbff1b" stroke="none" /><path d="M 119.54520255179757 107.68017299344265 l 25.546683826445452 10.038419948625178 a48.448186271470206,48.448186271470206 0 0,0 -0.31167730044031017,0.7735574992234802 l -25.370103911747748 -10.476676815691471" fill="#dcff1b" stroke="none" /><path d="M 119.41010516605496 108.01547362559984 l 27.352397159623514 11.295272032493289 a50.59285049916289,50.59285049916289 0 0,0 -0.33933111197577603,0.8020785119206992 l -27.15391506645543 -11.764425070080152" fill="#c0ff1e" stroke="none" /><path d="M 118.97047184881838 109.00673069616215 l 17.696637659875275 8.401944395494082 a40.58988652570224,40.58988652570224 0 0,0 -0.3050943524981137,0.6285847321083154 l -17.549390050762444 -8.705318083567674" fill="#ffb510" stroke="none" /><path d="M 118.64920377521936 109.65438752849418 l 6.98000830825473 3.6134360465052944 a28.859862342655173,28.859862342655173 0 0,0 -0.23218101694125967,0.43919898435208066 l -6.916774783088576 -3.7330500459435094" fill="#ff0000" stroke="none" /><line stroke="#e1ed5e" stroke-width="0.3" x1="174.80103733775053" x2="179.2010983576182" y1="140.37084112569926" y2="142.7455964860345" /><path d="M 175.68104954172406 140.8457921977663 a86.0,86.0 0 0,1 -30.038265399797805,32.042727171017184" fill="none" id="id65" stroke="none" /><text fill="#e1ed5e" style="font-size:6.75px; font-family:Arial;" text-anchor="middle"><textPath startOffset="22.206326154141568" xlink:href="#id65">May</textPath></text><path d="M 117.94076556474637 110.91462005526583 l 28.374599522193886 17.262249589484103 a54.21299683760154,54.21299683760154 0 0,0 -0.4918806136729522,0.7930681674378104 l -28.073254268852974 -17.748114088287185" fill="#92ff23" stroke="none" /><path d="M 117.75023020441432 111.22182372390056 l 24.777899321744616 15.664766892320284 a50.31431760401811,50.31431760401811 0 0,0 -0.46910946139853366,0.7280683016453761 l -24.504584996969033 -16.088956793887114" fill="#c3ff1e" stroke="none" /><path d="M 117.35343817320211 111.8261652097733 l 32.43964163251217 22.10723647169563 a60.25634029887766,60.25634029887766 0 0,0 -0.5914851108066789,0.8520784171611494 l -32.054295614543356 -22.6623561510438" fill="#4bff2c" stroke="none" /><path d="M 117.14729908036423 112.12312394758627 l 25.583149280258937 18.08726192041164 a52.331239536181556,52.331239536181556 0 0,0 -0.5263531085749682,0.7310584316668001 l -25.268016379308364 -18.52495395752957" fill="#aaff21" stroke="none" /><path d="M 116.93607887273984 112.41649034213515 l 31.590140049041178 23.15994580404087 a60.17039747008123,60.17039747008123 0 0,0 -0.6195795491134858,0.8300280562803728 l -31.186799233232602 -23.70028673983056" fill="#4cff2c" stroke="none" /><path d="M 116.71984013943494 112.70617746262583 l 23.43628711502254 17.81031521026202 a50.435809511998514,50.435809511998514 0 0,0 -0.5312408205781985,0.6867003725805955 l -23.126239477226274 -18.211093576955868" fill="#c2ff1e" stroke="none" /><path d="M 116.27256486870786 113.27417163493432 l 24.385236090937532 19.891996857358546 a52.46952936069945,52.46952936069945 0 0,0 -0.576924962528032,0.6949432826770026 l -24.039215128515956 -20.308801397149317" fill="#a8ff21" stroke="none" /><path d="M 116.0416608686014 113.55231037782055 l 24.32509429597649 20.55031773636837 a52.84377131518571,52.84377131518571 0 0,0 -0.5930014539501111,0.689794661150645 l -23.9677503324556 -20.965989496680542" fill="#a3ff21" stroke="none" /><path d="M 115.80600337817218 113.82643327865902 l 18.922805718528434 16.552882120319815 a46.14101196750791,46.14101196750791 0 0,0 -0.5280754235552686,0.5932983364534733 l -18.635071445324826 -16.876154626514154" fill="#fbff18" stroke="none" /><path d="M 115.56566222782051 114.09645910891815 l 29.58469971738472 26.79227544012624 a60.91341228994854,60.91341228994854 0 0,0 -0.7105218638885918,0.7711311534786557 l -29.119131445500404 -27.29755784840623" fill="#44ff2d" stroke="none" /><path d="M 115.32070863581623 114.36230785411682 l 20.357912914336016 19.0844052643533 a48.90446456253488,48.90446456253488 0 0,0 -0.5810163579367642,0.6091933284239095 l -20.02639000502029 -19.432005709359718" fill="#d6ff1c" stroke="none" /><path d="M 114.55890576462653 115.13401014063108 l 16.567740458459667 17.222197612878386 a44.89757549451231,44.89757549451231 0 0,0 -0.5615706764353238,0.5310001260439031 l -16.268833947633535 -17.504832375668208" fill="#fff216" stroke="none" /><path d="M 114.29624159901734 115.38237550388516 l 32.31161583302676 34.76643874814358 a68.46309915049295,68.46309915049295 0 0,0 -0.870134857531492,0.7948475616566737 l -31.7083814260284 -35.31747907638684" fill="#37ff7a" stroke="none" /><path d="M 114.0293411484842 115.62618273729858 l 26.15475620795169 29.13173153531199 a60.15008371054752,60.15008371054752 0 0,0 -0.776387626812038,0.685071811620123 l -25.64942622823306 -29.5776264887044" fill="#4cff2c" stroke="none" /><path d="M 113.20401910651253 116.32954008644616 l 29.849909331023284 36.91567598211923 a68.47403732870342,68.47403732870342 0 0,0 -0.9229077718705672,0.7332137507796398 l -29.210044066435366 -37.424023646904" fill="#37ff7b" stroke="none" /><path d="M 112.92097659922987 116.55440617244103 l 12.582148484650958 16.12029825588338 a41.449314813666525,41.449314813666525 0 0,0 -0.5662198877938087,0.4341532651056463 l -12.302799868363655 -16.3344908628164" fill="#ffc212" stroke="none" /><path d="M 112.34349029814194 116.9893568818739 l 26.75323510170113 36.8226691080962 a66.51532213058846,66.51532213058846 0 0,0 -0.9320781705885947,0.6650130265046303 l -26.11542960326365 -37.27772639644505" fill="#35ff61" stroke="none" /><path d="M 111.7513745106137 117.40417183066458 l 15.45895612203887 22.895222037870166 a48.62554101816829,48.62554101816829 0 0,0 -0.6977193236300854,0.4624103222301655 l -15.06256209966882 -23.15793038119165" fill="#d9ff1c" stroke="none" /><path d="M 111.45004920935366 117.60387380957326 l 17.12459334656693 26.328199538824414 a52.407416134432935,52.407416134432935 0 0,0 -0.760452066850525,0.4853564886082631 l -16.668859477669475 -26.619070456256484" fill="#a9ff21" stroke="none" /><line stroke="#e1ed5e" stroke-width="0.3" x1="143.8653032363475" x2="146.44561519142675" y1="172.8068346515853" y2="177.08958963109032" /><path d="M 144.38136562736335 173.6633856474863 a86.0,86.0 0 0,1 -40.68145358897372,12.25698825130547" fill="none" id="id66" stroke="none" /><text fill="#e1ed5e" style="font-size:6.75px; font-family:Arial;" text-anchor="middle"><textPath startOffset="21.466115282336833" xlink:href="#id66">June</textPath></text><path d="M 110.5260780823613 118.17145234162733 l 7.820052961653056 13.49996823031383 a36.601357971104356,36.601357971104356 0 0,0 -0.5478896195512025,0.311106025021889 l -7.586514575180655 -13.632577421130346" fill="#ff7a0b" stroke="none" /><path d="M 110.21172684928248 118.3499491758327 l 11.782396437528613 21.17236183352805 a45.230017982265764,45.230017982265764 0 0,0 -0.6835702822067602,0.372737020614513 l -11.416203343453203 -21.372039505902336" fill="#fff717" stroke="none" /><path d="M 109.89434966115114 118.52300852407294 l 18.588763248185618 34.799641400388566 a60.45322750666584,60.45322750666584 0 0,0 -0.9220818448581222,0.4823896409504393 l -17.986990500801 -35.114460460283716" fill="#49ff2c" stroke="none" /><path d="M 105.88484417918355 120.15858648285463 l 7.78936323046369 26.682533563608327 a48.79625472809574,48.79625472809574 0 0,0 -0.808318863482513,0.22843898489905182 l -7.328913198876571 -26.8126613418459" fill="#d7ff1c" stroke="none" /><path d="M 105.53697534728816 120.25689768951611 l 10.111889640404046 36.994117012578876 a59.35120605196254,59.35120605196254 0 0,0 -0.9878006545630953,0.2608871308505535 l -9.473598543029453 -37.16269549273301" fill="#55ff2b" stroke="none" /><path d="M 105.18746579009965 120.34920634021253 l 6.082333392757139 23.859561151303947 a45.622620450176726,45.622620450176726 0 0,0 -0.7626510024019877,0.18744106118370726 l -5.67072910561194 -23.960723470801682" fill="#fffc17" stroke="none" /><path d="M 104.83641907484287 120.43548508189849 l 5.562766628589341 23.504545965408024 a45.153841384014385,45.153841384014385 0 0,0 -0.7578961554940854,0.1724946974924174 l -5.157350323702394 -23.596817396478126" fill="#fff617" stroke="none" /><path d="M 104.48393922423573 120.51570834832081 l 7.032613949409613 32.17685376567789 a53.93641718856576,53.93641718856576 0 0,0 -0.9087221400581823,0.1904315597890636 l -6.477700347922052 -32.2931413061935" fill="#96ff23" stroke="none" /><path d="M 104.13013068566511 120.58985236759428 l 7.19867411280606 35.88739643022471 a57.60226948595523,57.60226948595523 0 0,0 -0.9738414829372481,0.18663903796718756 l -6.579865015297108 -36.005992666540365" fill="#6aff28" stroke="none" /><path d="M 103.41894727170886 120.7198165907248 l 3.845790977100974 23.30661380804763 a44.621777143920134,44.621777143920134 0 0,0 -0.7589189760886402,0.11852753610800446 l -3.444036137403817 -23.36935965150274" fill="#ffef16" stroke="none" /><path d="M 100.90346689309514 120.98055641714683 l 1.1854200478206676 27.528150042238806 a48.55366156135673,48.55366156135673 0 0,0 -0.835307132085472,0.028769666569484945 l -0.7113925640605432 -27.544476507234386" fill="#daff1c" stroke="none" /><line stroke="#e1ed5e" stroke-width="0.3" x1="102.19456741930631" x2="102.32365962044197" y1="184.97166512339345" y2="189.96999836594603" /><path d="M 102.22038585953345 185.97133177190398 a86.0,86.0 0 0,1 -42.740103519485714,-10.115201625700543" fill="none" id="id67" stroke="none" /><text fill="#e1ed5e" style="font-size:6.75px; font-family:Arial;" text-anchor="middle"><textPath startOffset="22.20632615414155" xlink:href="#id67">July</textPath></text><path d="M 100.18074693466247 120.99922214144158 l 0.26026348157405443 30.237473598569363 a51.23859366280152,51.23859366280152 0 0,0 -0.882020832472999,0.0 l 0.2602634815740336 -30.237473598569363" fill="#b7ff1f" stroke="none" /><path d="M 95.86986931433489 120.58985236759428 l -3.2749603262943014 16.326589824909913 a37.6518137285298,37.6518137285298 0 0,0 -0.6343587233249562,-0.13293603822708547 l 3.5555105110486442 -16.267797805956288" fill="#ff8a0c" stroke="none" /><path d="M 95.51606077576429 120.51570834832081 l -5.869353273130221 26.854498672498465 a48.488423141315806,48.488423141315806 0 0,0 -0.813866292620317,-0.18523331847922084 l 6.330739715143401 -26.749488620441557" fill="#dbff1b" stroke="none" /><path d="M 95.16358092515715 120.4354850818985 l -5.466140211654102 23.096267098080716 a44.7342841197991,44.7342841197991 0 0,0 -0.7478011190294968,-0.18379132114661612 l 5.862894615426809 -22.998754518620068" fill="#fff016" stroke="none" /><path d="M 94.81253420990036 120.34920634021253 l -2.83041283107979 11.103042807058483 a32.45813232467291,32.45813232467291 0 0,0 -0.5402108312363102,-0.14267459042935035 l 3.0211141051275896 -11.052676867325552" fill="#ff3a05" stroke="none" /><path d="M 94.46302465271185 120.25689768951611 l -4.1928502907309255 15.339446907306986 a36.90215787189186,36.90215787189186 0 0,0 -0.6112909787292451,-0.17275693660943195 l 4.456272437564785 -15.265001177359032" fill="#ff7f0b" stroke="none" /><path d="M 93.08242187328487 119.8279376855182 l -10.16545547897293 29.137367744872485 a51.85972592546661,51.85972592546661 0 0,0 -0.8403262058828446,-0.3013110800552396 l 10.665501245485501 -28.958069123777285" fill="#afff20" stroke="none" /><path d="M 92.7421414339146 119.70592522655815 l -8.154796131795587 22.14121442954261 a44.5952129968376,44.5952129968376 0 0,0 -0.7180461678937552,-0.2715036199291953 l 8.534712520449625 -21.997562559506783" fill="#ffee16" stroke="none" /><path d="M 92.40401165467489 119.57807347666478 l -9.139914072189454 23.557422831731408 a46.26836361381534,46.26836361381534 0 0,0 -0.7400270563767781,-0.2944720381501881 l 9.54406220460809 -23.39660394917515" fill="#f9ff18" stroke="none" /><line stroke="#e1ed5e" stroke-width="0.3" x1="58.666819895761336" x2="56.23545636021788" y1="174.27360380694188" y2="178.64263932499728" /><path d="M 58.180547188652646 175.14741091055294 a86.0,86.0 0 0,1 -31.652253787137756,-30.449443065178592" fill="none" id="id68" stroke="none" /><text fill="#e1ed5e" style="font-size:6.75px; font-family:Arial;" text-anchor="middle"><textPath startOffset="22.20632615414155" xlink:href="#id68">August</textPath></text><line stroke="#e1ed5e" stroke-width="0.3" x1="26.63291911575756" x2="22.317208475507996" y1="142.92168965132927" y2="145.44649492493687" /><path d="M 25.769776987707644 143.4266507060508 a86.0,86.0 0 0,1 -11.730757126820373,-40.83630448921669" fill="none" id="id69" stroke="none" /><text fill="#e1ed5e" style="font-size:6.75px; font-family:Arial;" text-anchor="middle"><textPath startOffset="21.46611528233685" xlink:href="#id69">September</textPath></text><line stroke="#e1ed5e" stroke-width="0.3" x1="15.007084014347285" x2="10.007500721073583" y1="101.09737516637583" y2="101.16192664675087" /><path d="M 14.007167355692545 101.11028546245083 a86.0,86.0 0 0,1 10.666146001902534,-42.60595125391555" fill="none" id="id70" stroke="none" /><text fill="#e1ed5e" style="font-size:6.75px; font-family:Arial;" text-anchor="middle"><textPath startOffset="22.20632615414155" xlink:href="#id70">October</textPath></text><line stroke="#e1ed5e" stroke-width="0.3" x1="26.266209847984243" x2="21.928928074336255" y1="57.711370442889674" y2="55.22380399835377" /><path d="M 25.398753493254645 57.213857153982495 a86.0,86.0 0 0,1 29.58750427330803,-30.492523968695096" fill="none" id="id71" stroke="none" /><text fill="#e1ed5e" style="font-size:6.75px; font-family:Arial;" text-anchor="middle"><textPath startOffset="21.46611528233685" xlink:href="#id71">November</textPath></text><line stroke="#e1ed5e" stroke-width="0.3" x1="56.762969772571076" x2="54.21961505331055" y1="26.818313649435495" y2="22.513508569990535" /><path d="M 56.25429882871897 25.957352633546506 a86.0,86.0 0 0,1 42.265352541879196,-11.944610805530505" fill="none" id="id72" stroke="none" /><text fill="#e1ed5e" style="font-size:6.75px; font-family:Arial;" text-anchor="middle"><textPath startOffset="22.20632615414155" xlink:href="#id72">December</textPath></text></svg>