<?xml version="1.0" encoding="utf-8" ?>
<svg baseProfile="full" height="200mm" version="1.1" viewBox="0,0,200,200" width="200mm" xmlns="http://www.w3.org/2000/svg" xmlns:ev="http://www.w3.org/2001/xml-events" xmlns:xlink="http://www.w3.org/1999/xlink"><defs /><rect fill="#1a1a1a" height="200" width="200" x="0" y="0" /><text alignment-baseline="middle" fill="#e1ed5e" style="dominant-baseline: central; font-size:9.0px; font-family:Arial;" text-anchor="middle" x="100.0" y="100.0">2024</text><line stroke="#e1ed5e" stroke-width="0.3" x1="100.0" x2="100.0" y1="15.0" y2="10.0" /><path d="M 100.0 14.0 a86.0,86.0 0 0,1 42.35913384403234,11.155469271406648" fill="none" id="id49" stroke="none" /><text fill="#e1ed5e" style="font-size:6.75px; font-family:Arial;" text-anchor="middle"><textPath startOffset="22.145653131862478" xlink:href="#id49">January</textPath></text><path d="M 100.36049292484886 79.00309439819443 l 0.19154043509493085 -11.156270088527384 a32.1579142327967,32.1579142327967 0 0,0 0.5518706731788067,0.014214230921039357 l -0.38302442234447887 11.1513381402563" fill="#ff6b09" stroke="none" /><path d="M 100.72087961077811 79.0123766808444 l 0.42964520659473454 -12.508651405964903 a33.51602792420573,33.51602792420573 0 0,0 0.5748385650134253,0.024686041359790103 l -0.6443095322089961 12.499432796179281" fill="#ff7f0b" stroke="none" /><path d="M 101.08105385017728 79.02784411241856 l 1.0297144452203848 -19.97618514685002 a41.0027069383103,41.0027069383103 0 0,0 0.7026216985527824,0.04226797662134319 l -1.3724804959056298 19.955565192403984" fill="#ffe415" stroke="none" /><path d="M 101.80034050326958 79.07731436759882 l 1.713405696615048 -19.912371401930297 a40.985952414873914,40.985952414873914 0 0,0 0.700470296037111,0.0663352653109353 l -2.0549755560371716 19.88002438111418" fill="#ffe415" stroke="none" /><path d="M 102.15924093988457 79.11130261209362 l 0.4786486612144743 -4.630491602187839 a25.655164553355178,25.655164553355178 0 0,0 0.43768211419004727,0.049043193812522014 l -0.5580666770053183 4.621592647868346" fill="#ff0b01" stroke="none" /><path d="M 102.87502721639298 79.19773525538626 l 2.7382459908916035 -19.812583934377045 a41.00091181079926,41.00091181079926 0 0,0 0.6963807566716937,0.10234399004234632 l -3.0779518531709793 19.762658871035818" fill="#ffe415" stroke="none" /><path d="M 103.23170211078529 79.25015418208739 l 1.54379501032385 -9.912271410095599 a31.031770907536686,31.031770907536686 0 0,0 0.5256523348530492,0.08649589166589652 l -1.7137248482299698 9.884309519934035" fill="#ff5b08" stroke="none" /><path d="M 103.94208987418118 79.37332000966035 l 3.759746922314694 -19.672584615376895 a41.02863655791423,41.02863655791423 0 0,0 0.690655581766464,0.13815045929097092 l -4.096898989612115 19.605144759423066" fill="#ffe515" stroke="none" /><path d="M 104.29559338865022 79.4440306129975 l 4.090330242539191 -19.573710926765916 a40.99652372132782,40.99652372132782 0 0,0 0.6876436401246121,0.14986873084155936 l -4.425736299282937 19.500610737790637" fill="#ffe415" stroke="none" /><path d="M 104.64783097203109 79.52079915486377 l 4.426795784901294 -19.50527902691334 a41.00131072802393,41.00131072802393 0 0,0 0.685049599475405,0.16166984018284217 l -4.760977538116585 19.426413043084267" fill="#ffe415" stroke="none" /><path d="M 105.3480935250658 79.69241777938227 l 5.089641705190847 -19.3261985635108 a40.98515458042456,40.98515458042456 0 0,0 0.6788285261256348,0.18501773341191435 l -5.420651632251174 19.235980335954743" fill="#ffe415" stroke="none" /><path d="M 105.69591212413111 79.78721728523813 l 5.425737026558704 -19.25402660631792 a41.00390368998433,41.00390368998433 0 0,0 0.6758614626455742,0.1967334216656312 l -5.755458501585883 19.158049490349775" fill="#ffe415" stroke="none" /><path d="M 106.04205211174951 79.88797359093562 l 5.760279058905416 -19.174095557865204 a41.02065821342072,41.02065821342072 0 0,0 0.6726594238839393,0.20839160898214412 l -6.088579115660985 19.072387361076412" fill="#ffe415" stroke="none" /><path d="M 106.72888874123014 80.10723608172694 l 7.075351255987304 -20.917018780798184 a43.081265137483975,43.081265137483975 0 0,0 0.6985201005862607,0.24298155094341625 l -7.433377128618583 20.79247879728618" fill="#ffff18" stroke="none" /><path d="M 107.06938296918511 80.22567764915836 l 7.405377577892929 -20.714159070636594 a42.99809089613905,42.99809089613905 0 0,0 0.6929057341626416,0.25444458332900016 l -7.759872463709695 20.58398363829887" fill="#fffe18" stroke="none" /><path d="M 109.06512990194946 81.05736502329252 l 5.20746660587743 -10.881602374756572 a33.063456332810944,33.063456332810944 0 0,0 0.5098695932072393,0.24940276792880317 l -5.393496448346737 10.790605856730547" fill="#ff780b" stroke="none" /><path d="M 109.3889696526874 81.21577127319529 l 8.942996938311271 -17.891984552774687 a41.00250747969796,41.00250747969796 0 0,0 0.6268947139626851,0.32009690775103006 l -9.248818873987537 17.735829693350826" fill="#ffe415" stroke="none" /><path d="M 110.02825361518725 81.54914285379988 l 4.878349863789195 -8.9756142893758 a31.215671748112264,31.215671748112264 0 0,0 0.46861533043827697,0.25993302435182386 l -5.031709382383572 8.89054834959083" fill="#ff5e08" stroke="none" /><path d="M 110.34350942703115 81.72400993836675 l 5.922969462376228 -10.465319512046424 a33.02516027924206,33.02516027924206 0 0,0 0.49098589472842824,0.28347083848976734 l -6.101747824965054 10.362101776280484" fill="#ff780b" stroke="none" /><line stroke="#e1ed5e" stroke-width="0.3" x1="143.13028292997686" x2="145.6673583964461" y1="26.7553504044142" y2="22.446841604673864" /><path d="M 143.63769802327073 25.89364864446614 a86.0,86.0 0 0,1 29.32050498858742,28.57503671076993" fill="none" id="id50" stroke="none" /><text fill="#e1ed5e" style="font-size:6.75px; font-family:Arial;" text-anchor="middle"><textPath startOffset="20.669276256404974" xlink:href="#id50">February</textPath></text><path d="M 110.65571695917076 81.90426304109057 l 10.135303827157113 -17.211961687572465 a40.97438381535831,40.97438381535831 0 0,0 0.6030399932176416,0.36210818918085963 l -10.429276576932189 17.035439497855684" fill="#ffe415" stroke="none" /><path d="M 111.27062007382361 82.28071324371311 l 10.731629979586996 -16.87190480427185 a40.995725886878475,40.995725886878475 0 0,0 0.5905617188968609,0.382794971224676 l -11.019677330740864 16.685195991343278" fill="#ffe415" stroke="none" /><path d="M 112.16784306229584 82.88440491214696 l 11.581669343228882 -16.29106834343939 a40.98834591822197,40.98834591822197 0 0,0 0.5699702553086418,0.4126145099907479 l -11.859620608911492 16.08985306207557" fill="#ffe415" stroke="none" /><path d="M 112.45986205192187 83.09580414077388 l 9.491436161734699 -12.876956036488128 a36.99697962672745,36.99697962672745 0 0,0 0.5079984997474348,0.3812115447583195 l -9.7110876503929 12.712125464465794" fill="#ffaf10" stroke="none" /><path d="M 112.7482090630111 83.31218511350987 l 12.115308946447882 -15.85932831754219 a40.95742983330959,40.95742983330959 0 0,0 0.5550512963743058,0.4316112452584124 l -12.385770187457414 15.649016020662986" fill="#ffe415" stroke="none" /><path d="M 113.31354834802062 83.75963576809568 l 12.707841014715605 -15.501499771906973 a41.04459324690127,41.04459324690127 0 0,0 0.5410569930775108,0.4513689869840467 l -12.972072341955007 15.281068601011057" fill="#ffe515" stroke="none" /><path d="M 113.59037401385872 83.9905735841838 l 7.509590055603924 -8.846278202905816 a32.60390368998433,32.60390368998433 0 0,0 0.4235720936411012,0.3658714861476178 l -7.660341629007886 8.716062584293478" fill="#ff720a" stroke="none" /><path d="M 113.86319453409587 84.22622945171908 l 13.185736815732158 -15.00294802398111 a40.9737854395213,40.9737854395213 0 0,0 0.5243375776683106,0.46886589517695054 l -13.441339420223843 14.774386598920772" fill="#ffe415" stroke="none" /><path d="M 114.13192950727249 84.46653392183569 l 8.100104952988298 -8.9034342728687 a33.03672887875766,33.03672887875766 0 0,0 0.4162159483091168,0.38524326801161113 l -8.25175067261138 8.763073258724715" fill="#ff780b" stroke="none" /><path d="M 114.65682725009322 84.96080404539774 l 13.946294445947558 -14.31012670302521 a40.98196324262716,40.98196324262716 0 0,0 0.4996054151928302,0.49533530909776574 l -14.189891781270351 14.068611383698785" fill="#ffe415" stroke="none" /><path d="M 114.91283532996326 85.21462403516908 l 8.233681129607863 -8.163308209484935 a32.594529135204446,32.594529135204446 0 0,0 0.3905339876519931,0.40072227549745876 l -8.372601918410668 8.020763241919735" fill="#ff720a" stroke="none" /><path d="M 115.16444852881244 85.47280134310134 l 14.426282610493933 -13.820052405138146 a40.977774611768055,40.977774611768055 0 0,0 0.482257997227089,0.5121412809203899 l -14.661396441457281 13.570369664273262" fill="#ffe415" stroke="none" /><path d="M 115.6541949942343 86.00192230759917 l 14.87895661554847 -13.304854753822891 a40.96002279526998,40.96002279526998 0 0,0 0.46419201167991403,0.5281652987394512 l -15.105159691186973 13.04747717727214" fill="#ffe415" stroke="none" /><path d="M 116.1254893667686 86.54754324733833 l 15.353561111000795 -12.808486747120389 a40.99472859381679,40.99472859381679 0 0,0 0.44616550545552436,0.5442493711593132 l -15.571173435694947 12.543035094262581" fill="#ffe415" stroke="none" /><line stroke="#e1ed5e" stroke-width="0.3" x1="172.87174338648825" x2="177.1583165268699" y1="56.24261187166439" y2="53.66864786411523" /><path d="M 173.72905801456457 55.72781907015455 a86.0,86.0 0 0,1 12.242430191666344,42.057860355516425" fill="none" id="id51" stroke="none" /><text fill="#e1ed5e" style="font-size:6.75px; font-family:Arial;" text-anchor="middle"><textPath startOffset="22.145653131862474" xlink:href="#id51">March</textPath></text><path d="M 119.16976305983485 91.42560881287824 l 18.249374094004338 -8.162712909580796 a40.99173671463171,40.99173671463171 0 0,0 0.2818008523273243,0.6448154982192745 l -18.386808828348634 7.848235341585671" fill="#ffe415" stroke="none" /><path d="M 119.4528033332814 92.08871423366111 l 14.330795316895136 -5.828209696486137 a36.47060834876763,36.47060834876763 0 0,0 0.23087861898460443,0.5819649409178326 l -14.428732610845865 5.5813437383547395" fill="#ffa80f" stroke="none" /><path d="M 120.43855184770803 95.1765574152323 l 7.899567747910749 -1.8642764790991337 a29.11656931186779,29.11656931186779 0 0,0 0.11062790379954385,0.4874469563589194 l -7.930406513267958 1.728395188801188" fill="#ff3f05" stroke="none" /><path d="M 120.51834098615036 95.52812308129327 l 9.794470069639027 -2.1346591649367235 a31.02439093888018,31.02439093888018 0 0,0 0.10894331467203792,0.5213331986295705 l -9.829671095135433 1.9662095150217485" fill="#ff5b08" stroke="none" /><path d="M 120.592083275326 95.88100663000786 l 9.804440732381794 -1.9611627358535006 a30.99866077788859,30.99866077788859 0 0,0 0.0998949671013047,0.5226926794691785 l -9.836661991765254 1.7925674913510077" fill="#ff5b08" stroke="none" /><path d="M 120.7213421655516 96.59031103205396 l 19.69044136996668 -3.240054634336305 a40.95523578857387,40.95523578857387 0 0,0 0.10819692241312373,0.6947018571273526 l -19.74315978451807 2.9015645952775113" fill="#ffe415" stroke="none" /><path d="M 120.77682067341334 96.94652285012252 l 9.878585421383846 -1.4518118691714583 a30.98469867502493,30.98469867502493 0 0,0 0.07282213249985338,0.5269046744642246 l -9.902052070438913 1.282018886507148" fill="#ff5a08" stroke="none" /><path d="M 120.96210409425399 98.7389718711861 l 10.01127872129338 -0.6022536676748814 a31.02937740418863,31.02937740418863 0 0,0 0.027421710703518093,0.5319738618793632 l -10.02014202145347 0.43030801241878747" fill="#ff5b08" stroke="none" /><path d="M 120.98066250479742 99.09900007780936 l 13.961003318835564 -0.5995455530109148 a34.97387092178373,34.97387092178373 0 0,0 0.02061012378994786,0.6000412665267507 l -13.96923812962236 0.3597980219200442" fill="#ff930d" stroke="none" /><path d="M 120.99303781780057 99.45929381324524 l 8.203605023866356 -0.21129576522440208 a29.206325687419863,29.206325687419863 0 0,0 0.00860692115563025,0.5013100079639222 l -8.206023376620653 0.07043884129141344" fill="#ff4006" stroke="none" /><line stroke="#e1ed5e" stroke-width="0.3" x1="184.99686870605535" x2="189.99668451229388" y1="99.2704041080226" y2="99.22748670261217" /><path d="M 185.99683186730306 99.26182062694052 a86.0,86.0 0 0,1 -10.086455211305974,41.156179273409016" fill="none" id="id52" stroke="none" /><text fill="#e1ed5e" style="font-size:6.75px; font-family:Arial;" text-anchor="middle"><textPath startOffset="21.40746469413373" xlink:href="#id52">April</textPath></text><path d="M 120.99922638620191 100.18025310272382 l 6.005078672515239 0.05154637808623204 a27.005299900270693,27.005299900270693 0 0,0 -0.00795829264910951,0.46353064924917664 l -6.003308948267461 -0.15462394330447973" fill="#ff2003" stroke="none" /><path d="M 120.99303781780057 100.54070618675476 l 9.225890296145062 0.23762620754278863 a30.22894999287648,30.22894999287648 0 0,0 -0.017813938948502014,0.518633395773246 l -9.220451670199713 -0.3959658678801453" fill="#ff4f07" stroke="none" /><path d="M 120.98066250479742 100.90099992219065 l 7.61090794553572 0.3268451349026668 a28.61792278102294,28.61792278102294 0 0,0 -0.02529062666049168,0.4906314007683283 l -7.604175729418655 -0.45744832904772575" fill="#ff3805" stroke="none" /><path d="M 120.93736805541906 101.62068470465957 l 20.69793612172742 1.6021511587184565 a41.75985183074512,41.75985183074512 0 0,0 -0.06145932079844992,0.7142504686816558 l -20.667383178231226 -1.9572226747757695" fill="#ffee16" stroke="none" /><path d="M 120.86939407059847 102.33845913500097 l 13.918083051347699 1.5595502362466538 a35.00518592392079,35.00518592392079 0 0,0 -0.07204052884402118,0.5965989229829973 l -13.889260436244015 -1.7982428361530598" fill="#ff930d" stroke="none" /><path d="M 120.77682067341334 103.0534771498775 l 17.430940495631862 2.5617479854554634 a38.61817922781023,38.61817922781023 0 0,0 -0.10202280761408875,0.6550596111064463 l -17.384396195879507 -2.8605957784933604" fill="#ffc512" stroke="none" /><path d="M 120.7213421655516 103.40968896794604 l 19.740431595640327 3.2482805069473852 a41.00589827610771,41.00589827610771 0 0,0 -0.12025503472518892,0.6935990837630052 l -19.681761743422904 -3.586672623630978" fill="#ffe415" stroke="none" /><path d="M 120.65975698304385 103.76489593502545 l 13.080686329930057 2.383736789901045 a34.296110557059414,34.296110557059414 0 0,0 -0.11052118865224722,0.5782935608375525 l -13.037838848995651 -2.607932915771912" fill="#ff8a0c" stroke="none" /><path d="M 120.592083275326 104.11899336999214 l 19.916731007199484 3.983904002023451 a41.311269411597095,41.311269411597095 0 0,0 -0.14506607500774188,0.6941936834223292 l -19.845407221367378 -4.32521413673119" fill="#ffe815" stroke="none" /><path d="M 120.26092885502905 105.52220625578681 l 19.295847806370936 5.259169124450236 a40.999715059125236,40.999715059125236 0 0,0 -0.1909054268092299,0.6774560117976645 l -19.202723887487128 -5.589633060150909" fill="#ffe415" stroke="none" /><path d="M 120.16314734710363 105.8691983318838 l 9.625875244407755 2.8019519946381286 a31.025388231941875,31.025388231941875 0 0,0 -0.15324130670157585,0.510090470975639 l -9.576357617702548 -2.966780069204491" fill="#ff5b08" stroke="none" /><path d="M 120.05942366710727 106.21446072829308 l 19.098796662979847 5.916856026844113 a40.9943296765921,40.9943296765921 0 0,0 -0.21402023741019482,0.6704153454288581 l -18.9944117097924 -6.243840405964354" fill="#ffe415" stroke="none" /><path d="M 119.4528033332814 107.91128576633889 l 5.557310335360573 2.2601097333897617 a26.999316141900557,26.999316141900557 0 0,0 -0.17829082686049968,0.4278330799686595 l -5.5176936639635885 -2.355175322799699" fill="#ff2003" stroke="none" /><path d="M 119.0197475246899 108.90220220490707 l 18.07259896343285 8.458888853904295 a40.954238495512186,40.954238495512186 0 0,0 -0.3034918563980164,0.6341812545802203 l -17.924727849074923 -8.767882610549618" fill="#ffe415" stroke="none" /><path d="M 118.8641267826498 109.22738970284198 l 4.165570438047449 2.0375892406456093 a25.637213278244765,25.637213278244765 0 0,0 -0.19677182196175333,0.39367545614141713 l -4.129978702873963 -2.1087965529507726" fill="#ff0b01" stroke="none" /><line stroke="#e1ed5e" stroke-width="0.3" x1="174.33088141563837" x2="178.70328620479359" y1="141.23008692659167" y2="143.65538615756765" /><path d="M 175.20536237346943 141.71514677278685 a86.0,86.0 0 0,1 -30.301960400862466,31.631185727798858" fill="none" id="id53" stroke="none" /><text fill="#e1ed5e" style="font-size:6.75px; font-family:Arial;" text-anchor="middle"><textPath startOffset="22.145653131862474" xlink:href="#id53">May</textPath></text><path d="M 118.36410011445183 110.18625677009912 l 13.975972359506882 7.7522362750413825 a36.98202023080211,36.98202023080211 0 0,0 -0.31270347081404,0.5525170702605448 l -13.840835523671462 -7.99101011540105" fill="#ffaf10" stroke="none" /><path d="M 118.00360718960297 110.81064883170644 l 3.358245159297268 2.01652972793734 a24.9171676877048,24.9171676877048 0 0,0 -0.22334329494584249,0.36481448739379624 l -3.3231338998960207 -2.0738813314556936" fill="#ff0000" stroke="none" /><path d="M 117.62189284568427 111.42229804090321 l 16.819170728688484 10.901983262880025 a41.04339649522724,41.04339649522724 0 0,0 -0.38830094415658817,0.5879371203367817 l -16.62954534561117 -11.189100261555868" fill="#ffe515" stroke="none" /><path d="M 117.21940702142032 112.02048342749411 l 13.213075688403155 9.223753009676798 a37.114061832169824,37.114061832169824 0 0,0 -0.3691698642364639,0.5192836464572897 l -13.052790725636731 -9.449213882843592" fill="#ffb010" stroke="none" /><path d="M 116.79662413953412 112.60449989151573 l 14.615623535349556 10.96783637803412 a39.27320131072803,39.27320131072803 0 0,0 -0.40927916427710326,0.5357595640764069 l -14.425192393718149 -11.217116855351405" fill="#ffcd13" stroke="none" /><path d="M 116.1254893667686 113.45245675266167 l 15.332118659451687 12.790598691410906 a40.96680438808947,40.96680438808947 0 0,0 -0.45513229426104146,0.5361446982256309 l -15.110291801683532 -13.051910172086094" fill="#ffe415" stroke="none" /><path d="M 115.6541949942343 113.99807769240083 l 10.48549308432722 9.376192572764317 a35.066220259296195,35.066220259296195 0 0,0 -0.405102174175729,0.44527825287488626 l -10.322993209309612 -9.554808401196874" fill="#ff940d" stroke="none" /><path d="M 115.41159269507618 114.26474011684316 l 14.667837150756645 13.576331088646542 a40.98655079071092,40.98655079071092 0 0,0 -0.48236128205698503,0.5122509658305098 l -14.4326200349634 -13.82612351442155" fill="#ffe415" stroke="none" /><path d="M 115.16444852881244 114.52719865689866 l 10.120002683491663 9.694733647062861 a35.01436102008833,35.01436102008833 0 0,0 -0.41952739913928155,0.43047206986356 l -9.952088483201575 -9.867028408994159" fill="#ff940d" stroke="none" /><path d="M 114.91283532996324 114.78537596483092 l 14.19074163653919 14.06945397529103 a40.98315999430119,40.98315999430119 0 0,0 -0.49962000462607087,0.4953497738357451 l -13.947129711783154 -14.310983759355436" fill="#ffe415" stroke="none" /><path d="M 114.65682725009322 115.03919595460226 l 9.759802866975686 10.014417533221781 a34.98364439378829,34.98364439378829 0 0,0 -0.43367643716222937,0.41545221664352355 l -9.586453943948143 -10.180481880170884" fill="#ff930d" stroke="none" /><path d="M 114.39649973595853 115.28858382429668 l 13.705560730727028 14.554830544492615 a40.99213563185639,40.99213563185639 0 0,0 -0.5164427951642436,0.4780117411607707 l -13.453688164248817 -14.787960031785765" fill="#ffe415" stroke="none" /><path d="M 113.86319453409587 115.77377054828091 l 13.190608717691237 15.008491354087827 a40.9811654081778,40.9811654081778 0 0,0 -0.5324048984087397,0.45987867080338296 l -12.931024339519643 -15.232714157355927" fill="#ffe415" stroke="none" /><path d="M 113.59037401385872 116.0094264158162 l 12.93012076713899 15.23164975136352 a40.979769197891436,40.979769197891436 0 0,0 -0.5402024711475315,0.4506561143979361 l -12.666743961829564 -15.451368049673325" fill="#ffe415" stroke="none" /><path d="M 113.31354834802062 116.24036423190432 l 5.069226634140198 6.183632248929863 a28.995896851403334,28.995896851403334 0 0,0 -0.38764646209000214,0.3122605498064448 l -4.962329401694943 -6.269741092529711" fill="#ff3d05" stroke="none" /><path d="M 113.03279911837588 116.46651593811092 l 12.391588125041714 15.656366794743732 a40.96680438808947,40.96680438808947 0 0,0 -0.5551783394725742,0.4317100347400417 l -12.12099984093391 -15.866777881104566" fill="#ffe415" stroke="none" /><path d="M 112.45986205192187 116.90419585922612 l 11.844472559876529 16.06930182429259 a40.96281521584271,40.96281521584271 0 0,0 -0.5696152338842021,0.4123575018579205 l -11.566876315618359 -16.270260097523586" fill="#ffe415" stroke="none" /><path d="M 111.8722381534696 117.32195027204791 l 11.281247982387923 16.459677950484508 a40.95463741273686,40.95463741273686 0 0,0 -0.5833182890376636,0.392482577532653 l -10.997033405253257 -16.650910202074282" fill="#ffe415" stroke="none" /><path d="M 111.5731344415666 117.5232005979908 l 11.013411778542833 16.675709146739717 a40.984356745975205,40.984356745975205 0 0,0 -0.5903979413505643,0.38268881259787363 l -10.725528204935259 -16.862311801041486" fill="#ffe415" stroke="none" /><path d="M 111.27062007382361 117.71928675628689 l 10.714288093734696 16.844640479301354 a40.963413591679725,40.963413591679725 0 0,0 -0.5965752992170763,0.37230710922981264 l -10.423548665727905 -17.026083385372715" fill="#ffe415" stroke="none" /><line stroke="#e1ed5e" stroke-width="0.3" x1="143.1302829299769" x2="145.66735839644613" y1="173.24464959558577" y2="177.55315839532614" /><path d="M 143.63769802327073 174.10635135553383 a86.0,86.0 0 0,1 -40.68552437913181,11.842963189579606" fill="none" id="id54" stroke="none" /><text fill="#e1ed5e" style="font-size:6.75px; font-family:Arial;" text-anchor="middle"><textPath startOffset="21.407464694133747" xlink:href="#id54">June</textPath></text><path d="M 110.65571695917076 118.09573695890943 l 10.133482077570145 17.208867958501273 a40.97079356033623,40.97079356033623 0 0,0 -0.60911382606065,0.35167203144324055 l -9.836575783649096 -17.380286887220688" fill="#ffe415" stroke="none" /><path d="M 110.34350942703117 118.27599006163325 l 9.828323375501014 17.365705672753503 a40.95403903689984,40.95403903689984 0 0,0 -0.6148094678507077,0.34102444798189996 l -9.528769719494212 -17.531863036168545" fill="#ffe415" stroke="none" /><path d="M 109.71004243097381 118.62028667847754 l 9.230742525823304 17.701165912290072 a40.963413591679725,40.963413591679725 0 0,0 -0.6262970004750578,0.31979171098536924 l -8.925518303634663 -17.857015574948278" fill="#ffe415" stroke="none" /><path d="M 109.3889696526874 118.78422872680471 l 8.926766777540136 17.859513359078736 a40.96620601225246,40.96620601225246 0 0,0 -0.6317374258898356,0.3090144317688328 l -8.618869102388231 -18.01012154094479" fill="#ffe415" stroke="none" /><path d="M 109.06512990194946 118.94263497670748 l 8.623432448399566 18.019657179010668 a40.97677731870637,40.97677731870637 0 0,0 -0.6371133458919862,0.2982012156161807 l -8.312830388636073 -18.165034626197382" fill="#ffe415" stroke="none" /><path d="M 108.4095320186766 119.2426549942271 l 7.992350219431236 18.288061395567773 a40.95822766775895,40.95822766775895 0 0,0 -0.6466815084672791,0.2760298819052134 l -7.677233635793526 -18.42256592713239" fill="#ffe415" stroke="none" /><path d="M 108.07796709384702 119.3841803445677 l 7.678384507298558 18.425327599784406 a40.96121954694401,40.96121954694401 0 0,0 -0.651372215804803,0.26490740954897257 l -7.360957830303314 -18.55442226591267" fill="#ffe415" stroke="none" /><path d="M 107.407793817531 119.65005319985036 l 7.0364366843313135 18.664984284156677 a40.94725744408036,40.94725744408036 0 0,0 -0.6598569585280046,0.24230861514272184 l -6.714990574149183 -18.78302374830812" fill="#ffe415" stroke="none" /><path d="M 107.06938296918513 119.77432235084164 l 6.723182289229586 18.8059374333231 a40.97159139478558,40.97159139478558 0 0,0 -0.6643138276216354,0.23108283356941214 l -6.3993626895629285 -18.9185786994611" fill="#ffe415" stroke="none" /><path d="M 106.72888874123015 119.89276391827305 l 6.3922685484195885 18.89760613171709 a40.94945148881607,40.94945148881607 0 0,0 -0.667821716224602,0.21952626274779166 l -6.066924094547253 -19.0045533158669" fill="#ffe415" stroke="none" /><path d="M 106.0420521117495 120.11202640906438 l 5.818240521914076 19.367030417276855 a41.22211141188204,41.22211141188204 0 0,0 -0.6794581492244226,0.19778036471005891 l -5.484922360308047 -19.46405447628943" fill="#ffe715" stroke="none" /><path d="M 105.69591212413111 120.21278271476187 l 4.755871576390194 16.876910439967713 a38.53420715201595,38.53420715201595 0 0,0 -0.6382339975098305,0.17395351412182758 l -4.4654561779456685 -16.956064448233683" fill="#ffc412" stroke="none" /><path d="M 104.9986988182912 120.39639698878246 l 4.753760914472384 19.39696675593705 a40.97099301894857,40.97099301894857 0 0,0 -0.6845430514141396,0.16155029621964426 l -4.420085709318365 -19.47571319580292" fill="#ffe415" stroke="none" /><path d="M 104.64783097203109 120.47920084513623 l 3.826641327335994 16.860887750951644 a38.28967089328964,38.28967089328964 0 0,0 -0.6422410068524265,0.13997343823893504 l -3.5366379038644316 -16.924092647324297" fill="#ffc011" stroke="none" /><path d="M 104.29559338865022 120.5559693870025 l 4.08384309480879 19.542667576502033 a40.96480980196609,40.96480980196609 0 0,0 -0.6895811540262308,0.1379355436518166 l -3.7477654552516 -19.60989251681671" fill="#ffe415" stroke="none" /><path d="M 103.58742460773223 120.69131181640829 l 3.8583767897209937 22.25409199937907 a43.5860948853113,43.5860948853113 0 0,0 -0.7383121192746976,0.12148897826593577 l -3.4757871673932237 -22.317046976140677" fill="#f9ff18" stroke="none" /><path d="M 103.2317021107853 120.74984581791261 l 1.6974838783364101 10.899064191691158 a32.03046017951275,32.03046017951275 0 0,0 -0.5440219524697593,0.07995249258823545 l -1.5101368202589653 -10.926597757578277" fill="#ff6a09" stroke="none" /><path d="M 102.51750503828377 120.84855314841334 l 2.3948159719264113 19.832511678075598 a40.976577860094025,40.976577860094025 0 0,0 -0.6990684153586303,0.07833207405811286 l -2.054011654966982 -19.87069951264068" fill="#ffe415" stroke="none" /><path d="M 102.15924093988457 120.88869738790638 l 2.051119951756423 19.84272490722021 a40.94845419575438,40.94845419575438 0 0,0 -0.6998294328364262,0.06627457489952791 l -1.7101909555349817 -19.87501123762492" fill="#ffe415" stroke="none" /><path d="M 101.08105385017728 120.97215588758144 l 0.8844136613113923 17.157388756431967 a38.18016811511611,38.18016811511611 0 0,0 -0.6548339529044954,0.028121387514801446 l -0.5897539478060673 -17.1700427123726" fill="#ffbf11" stroke="none" /><path d="M 100.72087961077811 120.9876233191556 l 0.6848441889086595 19.93849132952066 a40.950249323265425,40.950249323265425 0 0,0 -0.7027583162661138,0.01810056137165114 l -0.34247255857180187 -19.947309608242357" fill="#ffe415" stroke="none" /><line stroke="#e1ed5e" stroke-width="0.3" x1="101.45913802915013" x2="101.54496967792366" y1="184.9874750549273" y2="189.98673829345242" /><path d="M 101.47630435890484 185.9873277026323 a86.0,86.0 0 0,1 -42.54439059252881,-10.42667462771756" fill="none" id="id55" stroke="none" /><text fill="#e1ed5e" style="font-size:6.75px; font-family:Arial;" text-anchor="middle"><textPath startOffset="22.145653131862474" xlink:href="#id55">July</textPath></text><path d="M 100.0 121.0 l 2.443860416741002e-15 19.955634705798545 a40.955634705798545,40.955634705798545 0 0,0 -0.7030579306730703,-0.00603490676597899 l 0.34256500582421573 -19.952694197227" fill="#ffe415" stroke="none" /><path d="M 99.63950707515114 120.99690560180557 l -0.34255815787959215 19.952295338783696 a40.95523578857387,40.95523578857387 0 0,0 -0.7028438903474,-0.018102765456428367 l 0.6850153622977361 -19.94347485597722" fill="#ffe415" stroke="none" /><path d="M 99.27912038922189 120.98762331915562 l -0.684885270522034 19.939687375870232 a40.95144607493945,40.95144607493945 0 0,0 -0.7023645686827182,-0.03016255666797601 l 1.027075599805591 -19.924992250776427" fill="#ffe415" stroke="none" /><path d="M 98.55909050195518 120.95050786540614 l -1.3690316741978208 19.90542008168468 a40.95244336800114,40.95244336800114 0 0,0 -0.7009322802938507,-0.05425659150030465 l 1.7105329492669075 -19.878985723189324" fill="#ffe415" stroke="none" /><path d="M 98.19965949673042 120.92268563240118 l -1.7110288401781948 19.884748727257712 a40.95822766775895,40.95822766775895 0 0,0 -0.6999964663302207,-0.06629039314505432 l 2.0521248698934307 -19.852446578607474" fill="#ffe415" stroke="none" /><path d="M 97.48249496171623 120.84855314841334 l -2.3985939630557214 19.863798864260243 a41.00809232084343,41.00809232084343 0 0,0 -0.6981572612691118,-0.09039043506659994 l 2.7392290462156272 -19.819696832993248" fill="#ffe415" stroke="none" /><path d="M 97.12497278360702 120.80226474461374 l -1.7199372106616473 12.444608870584565 a33.56290069810514,33.56290069810514 0 0,0 -0.5700497172379242,-0.08377767769385054 l 1.9333120335072564 -12.413250119591831" fill="#ff7f0b" stroke="none" /><path d="M 96.76829788921471 120.74984581791261 l -3.0720891462026483 19.725016086676966 a40.96281521584271,40.96281521584271 0 0,0 -0.693875948121692,-0.11417702321265695 l 3.4102425973774038 -19.66937306496864" fill="#ffe415" stroke="none" /><path d="M 96.05791012581884 120.62667999033965 l -3.750011980325926 19.62164728529675 a40.97677731870637,40.97677731870637 0 0,0 -0.689782609227525,-0.13797584033415716 l 4.086291075084409 -19.55438204829973" fill="#ffe415" stroke="none" /><path d="M 95.70440661134978 120.55596938700252 l -5.571970304360268 26.66389498231986 a48.23986322838011,48.23986322838011 0 0,0 -0.8091377545803806,-0.17634780761293234 l 6.028870475559785 -26.56431571657321" fill="#bfff1e" stroke="none" /><path d="M 95.00130118170881 120.39639698878247 l -4.752004236348452 19.38979890972359 a40.96361305029207,40.96361305029207 0 0,0 -0.681546170006469,-0.17324637125008022 l 5.0841556995802994 -19.305367306638246" fill="#ffe415" stroke="none" /><path d="M 94.30408787586889 120.21278271476187 l -1.1935528639652428 4.235498050558733 a25.400455905399628,25.400455905399628 0 0,0 -0.41867207107602716,-0.12186933809809092 l 1.2660849474228768 -4.214385018158127" fill="#ff0701" stroke="none" /><path d="M 92.59220618246901 119.65005319985036 l -7.039251061998604 18.67244975528736 a40.95523578857387,40.95523578857387 0 0,0 -0.6557279175350607,-0.2536496451426115 l 7.358751242027193 -18.54886022200671" fill="#ffe415" stroke="none" /><path d="M 92.25597844496254 119.51999308798841 l -7.35617688903839 18.54237117078309 a40.94825473714205,40.94825473714205 0 0,0 -0.6511660472145707,-0.2648235625781568 l 7.673397397443401 -18.413360351625638" fill="#ffe415" stroke="none" /><path d="M 91.92203290615298 119.3841803445677 l -7.654216205692798 18.367332474091867 a40.89839008405755,40.89839008405755 0 0,0 -0.6457367444700441,-0.27562661833393365 l 7.968388025333273 -18.23323120609853" fill="#ffe315" stroke="none" /><path d="M 91.26138138417905 119.09545874513695 l -8.32735532815991 18.196774240391232 a41.01168257586551,41.01168257586551 0 0,0 -0.6376560582923836,-0.298455232422721 l 8.638500100323785 -18.051142776397985" fill="#ffe415" stroke="none" /><path d="M 90.93487009805054 118.94263497670748 l -4.334231601217971 9.056877067886955 a31.040547086479556,31.040547086479556 0 0,0 -0.47867443005973986,-0.23414365042380259 l 4.48906628053978 -8.981139667365932" fill="#ff5b08" stroke="none" /><path d="M 90.28995756902619 118.62028667847754 l -9.228344642903567 17.696567655618754 a40.95822766775895,40.95822766775895 0 0,0 -0.620636482354342,-0.3304539693647982 l 9.53076994104447 -17.53554321853138" fill="#ffe415" stroke="none" /><path d="M 89.97174638481275 118.45085714620012 l -9.533722649047226 17.54097586868602 a40.96441088474141,40.96441088474141 0 0,0 -0.6149651719131496,-0.34111081440063495 l 9.833432009116478 -17.374732138852238" fill="#ffe415" stroke="none" /><line stroke="#e1ed5e" stroke-width="0.3" x1="58.13341422392154" x2="55.67067388415222" y1="173.97424548756322" y2="178.32567169271397" /><path d="M 57.64086615596768 174.84453072859336 a86.0,86.0 0 0,1 -31.369924170532247,-30.572349798747897" fill="none" id="id56" stroke="none" /><text fill="#e1ed5e" style="font-size:6.75px; font-family:Arial;" text-anchor="middle"><textPath startOffset="22.145653131862474" xlink:href="#id56">August</textPath></text><path d="M 89.65649057296885 118.27599006163327 l -9.832547822529186 17.373169865873614 a40.962615757230374,40.962615757230374 0 0,0 -0.6089922464546476,-0.35160183742498835 l 10.129332536844233 -17.201821131172455" fill="#ffe415" stroke="none" /><path d="M 89.34428304082925 118.09573695890944 l -5.260301932401573 8.933142693064708 a31.366861376264424,31.366861376264424 0 0,0 -0.46164139909558805,-0.27720239612215813 l 5.412876088054588 -8.84152629640663" fill="#ff6008" stroke="none" /><path d="M 89.03521579738668 117.91015095944536 l -10.420111919005327 17.020469717882936 a40.956831457472575,40.956831457472575 0 0,0 -0.5964794395623348,-0.3722472857155017 l 10.710755487357375 -16.839086635325884" fill="#ffe415" stroke="none" /><path d="M 88.1277618465304 117.32195027204791 l -11.286660599867776 16.467575121145657 a40.96421142612908,40.96421142612908 0 0,0 -0.5766296182742612,-0.402532256868405 l 11.567685309315802 -16.271398048472122" fill="#ffe415" stroke="none" /><path d="M 87.83215693770417 117.11559508785305 l -11.569187726182493 16.27351138594794 a40.96680438808947,40.96680438808947 0 0,0 -0.569670705981798,-0.4123976593786969 l 11.846839442538245 -16.07251295519618" fill="#ffe415" stroke="none" /><path d="M 87.54013794807813 116.9041958592261 l -11.84009382695236 16.063361232120943 a40.9554352471862,40.9554352471862 0 0,0 -0.5623513019707044,-0.4219989008386572 l 12.11409811783383 -15.85774330401827" fill="#ffe415" stroke="none" /><path d="M 86.96720088162412 116.46651593811092 l -8.59049430799306 10.853808928840973 a34.842028779028354,34.842028779028354 0 0,0 -0.46580346376057175,-0.3752182979083978 l 8.775548542108895 -10.704742337139164" fill="#ff910d" stroke="none" /><path d="M 86.68645165197938 116.24036423190432 l -12.652201927731424 15.433629132575273 a40.956831457472575,40.956831457472575 0 0,0 -0.5399001018492373,-0.4504038671751586 l 12.915276363742553 -15.214163081488245" fill="#ffe415" stroke="none" /><path d="M 86.13680546590413 115.77377054828092 l -14.494171674309452 16.49170670696794 a42.955805670323414,42.955805670323414 0 0,0 -0.5497012992664216,-0.491546291430451 l 14.775138000399245 -16.240464885654106" fill="#fffd18" stroke="none" /><path d="M 85.86807049272751 115.53346607816431 l -15.448413000717219 16.980512051423887 a43.95629006981051,43.95629006981051 0 0,0 -0.5537869388552075,-0.5125769230454381 l 15.737629710886393 -16.71281738224607" fill="#f4ff19" stroke="none" /><path d="M 85.60350026404147 115.28858382429668 l -9.185673768936558 9.754867222916635 a34.399031201025785,34.399031201025785 0 0,0 -0.42642925148593,-0.408509576703601 l 9.351775506287803 -9.595745515907453" fill="#ff8b0c" stroke="none" /><path d="M 85.08716467003676 114.78537596483092 l -16.06240622361364 15.925121525267526 a43.61880609773472,43.61880609773472 0 0,0 -0.5226222539158862,-0.5362564730253578 l 16.333415278680334 -15.647042360174432" fill="#f8ff18" stroke="none" /><path d="M 84.83555147118756 114.52719865689866 l -10.139879151145896 9.713774853451733 a35.04188630859097,35.04188630859097 0 0,0 -0.41239989409741556,-0.4379543962544735 l 10.305134878979564 -9.53827899725277" fill="#ff940d" stroke="none" /><path d="M 84.3458050057657 113.99807769240083 l -19.338584526998954 17.292681531672258 a46.94258441373415,46.94258441373415 0 0,0 -0.5319912247456452,-0.6053083574783731 l 19.632586815703192 -16.958160896382584" fill="#cfff1d" stroke="none" /><path d="M 84.1078160697243 113.72728997021213 l -15.535200361912677 13.418936066241457 a41.52828038182077,41.52828038182077 0 0,0 -0.46137017053712975,-0.5434929007939453 l 15.76326509595692 -13.150276382997959" fill="#ffeb16" stroke="none" /><path d="M 83.8745106332314 113.45245675266167 l -16.858361728643395 14.063844942446417 a42.95440946003704,42.95440946003704 0 0,0 -0.4674936623722739,-0.5702662546879476 l 17.0973022102543 -13.772376406059974" fill="#fffd18" stroke="none" /><path d="M 83.4222238831116 112.89097897827486 l -15.740896408845838 12.240216255479291 a40.93987747542385,40.93987747542385 0 0,0 -0.4266481539454258,-0.5584961291042899 l 15.94869654014556 -11.968199213134131" fill="#ffe315" stroke="none" /><path d="M 83.20337586046588 112.60449989151573 l -50.38987241860234 37.813499674547174 a84.0,84.0 0 0,0 -0.8555919216646783,-1.1607747629244813 l 51.03156635985085 -36.942918602353814" fill="#4dd2ff" stroke="none" /><line stroke="#e1ed5e" stroke-width="0.3" x1="26.387840678322732" x2="22.057713659400548" y1="142.50000000000003" y2="145.00000000000006" /><path d="M 25.521815274538298 143.00000000000003 a86.0,86.0 0 0,1 -11.493303480769221,-40.785679425670985" fill="none" id="id57" stroke="none" /><text fill="#e1ed5e" style="font-size:6.75px; font-family:Arial;" text-anchor="middle"><textPath startOffset="21.40746469413373" xlink:href="#id57">September</textPath></text><line stroke="#e1ed5e" stroke-width="0.3" x1="15.003131293944662" x2="10.003315487706104" y1="100.72959589197737" y2="100.7725132973878" /><path d="M 14.003168132696942 100.73817937305945 a86.0,86.0 0 0,1 10.791469493833604,-42.45332614584628" fill="none" id="id58" stroke="none" /><text fill="#e1ed5e" style="font-size:6.75px; font-family:Arial;" text-anchor="middle"><textPath startOffset="22.145653131862435" xlink:href="#id58">October</textPath></text><line stroke="#e1ed5e" stroke-width="0.3" x1="26.387840678322718" x2="22.05771365940052" y1="57.49999999999999" y2="54.99999999999999" /><path d="M 25.521815274538284 56.99999999999999 a86.0,86.0 0 0,1 29.574782752854787,-30.34633250058573" fill="none" id="id59" stroke="none" /><text fill="#e1ed5e" style="font-size:6.75px; font-family:Arial;" text-anchor="middle"><textPath startOffset="21.40746469413373" xlink:href="#id59">November</textPath></text><line stroke="#e1ed5e" stroke-width="0.3" x1="56.869717070023135" x2="54.33264160355391" y1="26.7553504044142" y2="22.446841604673864" /><path d="M 56.362301976729285 25.89364864446614 a86.0,86.0 0 0,1 42.16139366436587,-11.88097634709845" fill="none" id="id60" stroke="none" /><text fill="#e1ed5e" style="font-size:6.75px; font-family:Arial;" text-anchor="middle"><textPath startOffset="22.145653131862474" xlink:href="#id60">December</textPath></text></svg>