<?xml version="1.0" encoding="utf-8" ?>
<svg baseProfile="full" height="200mm" version="1.1" viewBox="0,0,200,200" width="200mm" xmlns="http://www.w3.org/2000/svg" xmlns:ev="http://www.w3.org/2001/xml-events" xmlns:xlink="http://www.w3.org/1999/xlink"><defs /><rect fill="#1a1a1a" height="200" width="200" x="0" y="0" /><text alignment-baseline="middle" fill="#e1ed5e" style="dominant-baseline: central; font-size:9.0px; font-family:Arial;" text-anchor="middle" x="100.0" y="100.0">2022</text><line stroke="#e1ed5e" stroke-width="0.3" x1="100.0" x2="100.0" y1="15.0" y2="10.0" /><path d="M 100.0 14.0 a86.0,86.0 0 0,1 42.46469731375804,11.215312516191453" fill="none" id="id25" stroke="none" /><text fill="#e1ed5e" style="font-size:6.75px; font-family:Arial;" text-anchor="middle"><textPath startOffset="22.20632615414155" xlink:href="#id25">January</textPath></text><path d="M 101.08401301168833 79.027996857942 l 0.780863512023175 -15.107080681774056 a36.12724808251785,36.12724808251785 0 0,0 0.6207658180551809,0.03744628938300438 l -1.040791378917968 15.091401123010748" fill="#ff9f0e" stroke="none" /><path d="M 101.44485096284872 79.0497635885617 l 2.0729437861024262 -30.057537769046014 a51.128934144406244,51.128934144406244 0 0,0 0.8774937844328944,0.06811040606062041 l -2.5900277598976618 30.017402100796932" fill="#a0ff22" stroke="none" /><path d="M 102.52436894288641 79.15227682838746 l 3.6204526656978544 -29.899827100587167 a51.11822269240942,51.11822269240942 0 0,0 0.872625235242132,0.11329180004637206 l -4.134592629447832 29.83307697737666" fill="#a0ff22" stroke="none" /><path d="M 102.88285421437855 79.19881850522331 l 4.252310719604996 -30.68246968907349 a51.97573393282201,51.97573393282201 0 0,0 0.885149272350669,0.13044799371626734 l -4.779828972384321 30.604727211196252" fill="#96ff23" stroke="none" /><path d="M 103.59715602781102 79.31037775812273 l 5.153744533743691 -29.64259173355448 a51.087278497751925,51.087278497751925 0 0,0 0.8650897849226404,0.15808962867986545 l -5.663229439769232 29.549486623523876" fill="#a0ff22" stroke="none" /><path d="M 103.95276090670814 79.375362276772 l 2.8612973900099883 -14.929620961192983 a36.2013356254959,36.2013356254959 0 0,0 0.6109985413252468,0.12256055941399903 l -3.1178623408023602 14.878156445701775" fill="#ffa00e" stroke="none" /><path d="M 104.307194497241 79.44645832069477 l 6.171707504162919 -29.450828724021655 a51.09055144141762,51.09055144141762 0 0,0 0.8591904746926234,0.18778575933885738 l -6.6777407030090705 29.340229466586926" fill="#a0ff22" stroke="none" /><path d="M 105.01212808612495 79.60689891045804 l 7.293359353646118 -29.67486305727139 a51.55798730494578,51.55798730494578 0 0,0 0.8600145081053728,0.21923684713786695 l -7.803082750436516 29.544923213964655" fill="#9bff22" stroke="none" /><path d="M 106.0581310904928 79.89281104454417 l 4.38729249293967 -14.561606185252584 a36.20817905316054,36.20817905316054 0 0,0 0.5952187160314474,0.18493735244721637 l -4.637296581681835 14.483928697922847" fill="#ffa00e" stroke="none" /><path d="M 106.40334571778207 80.00007090966166 l 7.645873498418307 -23.88078584878113 a46.07491404390373,46.07491404390373 0 0,0 0.7532528311893444,0.24833561550977512 l -8.05580915185007 23.74563650901212" fill="#dcff1b" stroke="none" /><path d="M 106.74666289553966 80.11325718540242 l 10.620889518045393 -31.306573572434186 a54.05911134620471,54.05911134620471 0 0,0 0.8786355974669969,0.3065387074940331 l -11.158207119575664 31.119114011767945" fill="#7eff26" stroke="none" /><path d="M 107.4271985657038 80.35727306442388 l 5.339517916988293 -14.121433738870087 a36.097196508860094,36.097196508860094 0 0,0 0.5793029961810047,0.2247605625061971 l -5.581804078168965 14.027430472473343" fill="#ff9e0e" stroke="none" /><path d="M 107.76421540070413 80.48803036053334 l 5.600615439961769 -14.074704627199258 a36.14807590584502,36.14807590584502 0 0,0 0.5761592423347471,0.23502982144537085 l -5.842058551884904 13.97621391957031" fill="#ff9f0e" stroke="none" /><path d="M 108.09893153111575 80.62456947434976 l 2.0818020908702617 -4.980386810882608 a26.397976725733933,26.397976725733933 0 0,0 0.41773697273498184,0.17885317092212788 l -2.167222821395559 4.94381411199769" fill="#ff1101" stroke="none" /><path d="M 108.43124777332544 80.76684994638697 l 12.014695319406886 -27.407620335590323 a50.925416556466544,50.925416556466544 0 0,0 0.7998149049928834,0.3588536338254232 l -12.48469234286655 27.19674637124837" fill="#a2ff22" stroke="none" /><path d="M 108.76106565485865 80.91482961587045 l 6.2819442550454125 -13.684633944576898 a36.05762364453848,36.05762364453848 0 0,0 0.5618495288215138,0.2637958873613767 l -6.516571995166524 13.574473074575518" fill="#ff9e0e" stroke="none" /><path d="M 109.08828744355905 81.06846463323043 l 13.035333049631525 -27.153506112046845 a51.12030547474214,51.12030547474214 0 0,0 0.7900003793217978,0.3876497551992278 l -13.500804695963755 26.925101196712784" fill="#a0ff22" stroke="none" /><path d="M 109.41281617654863 81.2277094730956 l 14.775119766149109 -29.466509875226187 a53.963303358899765,53.963303358899765 0 0,0 0.8267679481329752,0.42350265487503463 l -15.280148201870839 29.207814695038653" fill="#7fff26" stroke="none" /><path d="M 109.73455568895987 81.39251694778311 l 11.99643213314247 -22.93103195841597 a46.87946310499868,46.87946310499868 0 0,0 0.7117975727201004,0.380217612236067 l -12.389374752390882 22.721135619678147" fill="#d3ff1c" stroke="none" /><path d="M 110.05341064243156 81.56283822128135 l 16.435030225239256 -30.140548504201814 a55.33020364982809,55.33020364982809 0 0,0 0.8322608799866313,0.46315227864282443 l -16.951415194297923 29.85318082799881" fill="#70ff27" stroke="none" /><path d="M 110.36928655335952 81.73862282372117 l 8.22051078494151 -14.477162652704255 a37.648274266067176,37.648274266067176 0 0,0 0.5607858670222526,0.32484337040240746 l -8.468493384429092 14.333515124911797" fill="#ffb410" stroke="none" /><line stroke="#e1ed5e" stroke-width="0.3" x1="143.23703022742887" x2="145.7803849466894" y1="26.81831364943548" y2="22.513508569990506" /><path d="M 143.74570117128098 25.957352633546492 a86.0,86.0 0 0,1 28.547481713284135,27.462654790039103" fill="none" id="id26" stroke="none" /><text fill="#e1ed5e" style="font-size:6.75px; font-family:Arial;" text-anchor="middle"><textPath startOffset="19.985693538727396" xlink:href="#id26">February</textPath></text><path d="M 111.2981086023043 82.29822771554956 l 6.712400676953708 -10.516927429887817 a33.4764612536366,33.4764612536366 0 0,0 0.48307007713841926,0.3142022156392214 l -6.892437779876407 10.399826290089068" fill="#ff7a0b" stroke="none" /><path d="M 111.60114157652 82.49532879139004 l 18.175739110593195 -27.424916333091183 a53.90111742925153,53.90111742925153 0 0,0 0.768977226097404,0.5192168557013388 l -18.64512103109714 27.10798756509117" fill="#80ff26" stroke="none" /><path d="M 111.90073688211348 82.69761687909136 l 17.0592816314257 -24.80234875186887 a51.10275059508067,51.10275059508067 0 0,0 0.7204730063250685,0.5047373833273353 l -17.483685777334422 24.5050265257776" fill="#a0ff22" stroke="none" /><path d="M 112.19680574252982 82.90503203632743 l 17.268535451228573 -24.20347315108309 a50.732312880190435,50.732312880190435 0 0,0 0.7065191673341288,0.5133162219191774 l -17.68259993491649 23.902637694347238" fill="#a4ff21" stroke="none" /><path d="M 116.82858285166822 87.43820079747576 l 12.260920023970638 -9.152239183589963 a36.300119016133294,36.300119016133294 0 0,0 0.3694615525691791,0.5039451424951163 l -12.416644189053443 8.939831597423353" fill="#ffa10e" stroke="none" /><path d="M 117.04232023915458 87.72973835380427 l 24.322347164151054 -17.51179178455252 a50.970642687119806,50.970642687119806 0 0,0 0.506520470918448,0.7164372848711832 l -24.620180254873382 17.090527999349543" fill="#a1ff22" stroke="none" /><path d="M 117.45458315368197 88.32363383020206 l 12.540927075082358 -8.38934137516228 a36.08827029886274,36.08827029886274 0 0,0 0.34095401197176345,0.5192963517432071 l -12.683477722412047 8.1722269594414" fill="#ff9e0e" stroke="none" /><path d="M 117.65298651832404 88.62581576622439 l 16.219644317550312 -10.450652215852019 a40.294895530283,40.294895530283 0 0,0 0.3706600870763268,0.5862952435422994 l -16.397132000872595 10.169909324595514" fill="#ffd714" stroke="none" /><line stroke="#e1ed5e" stroke-width="0.3" x1="172.23445277983987" x2="176.4835382374775" y1="55.19839476539836" y2="52.563006222186495" /><path d="M 173.08426987136738 54.67131705675599 a86.0,86.0 0 0,1 12.851231095245387,41.99856678651699" fill="none" id="id27" stroke="none" /><text fill="#e1ed5e" style="font-size:6.75px; font-family:Arial;" text-anchor="middle"><textPath startOffset="22.20632615414155" xlink:href="#id27">March</textPath></text><path d="M 118.03404312379186 89.2402003453031 l 25.836592791904266 -15.415099115190758 a51.08579079608569,51.08579079608569 0 0,0 0.44405794675515425,0.7590389745028868 l -26.098110413129746 14.968080728333977" fill="#a0ff22" stroke="none" /><path d="M 118.21658344932153 89.55222093294921 l 25.937053983343933 -14.875709839994164 a50.90012562814071,50.90012562814071 0 0,0 0.4293603958228726,0.7637842348484639 l -26.18927202045924 14.427042095210906" fill="#a2ff22" stroke="none" /><path d="M 118.3937258080291 89.86733742301442 l 26.221848659188655 -14.444987784495533 a50.937318169796356,50.937318169796356 0 0,0 0.41645357034696023,0.7716252175170143 l -26.46661032875408 13.99148158364606" fill="#a2ff22" stroke="none" /><path d="M 118.73160827565052 90.50648371742162 l 11.174419581525903 -5.663397007051431 a33.527638190954775,33.527638190954775 0 0,0 0.25647044593799023,0.5170287689722437 l -11.2702500404173 5.470208649580238" fill="#ff7a0b" stroke="none" /><path d="M 118.89224826269711 90.83032412892265 l 26.91727802143082 -13.064761343177349 a50.920358370801374,50.920358370801374 0 0,0 0.3759421110492426,0.7918299630612803 l -27.138178326321817 12.599488964475528" fill="#a2ff22" stroke="none" /><path d="M 119.04729006885535 91.15688171328212 l 27.301721480746103 -12.67541742749199 a51.10066781274796,51.10066781274796 0 0,0 0.36353911299286745,0.8010102465442588 l -27.515862910702317 12.203585172105669" fill="#a0ff22" stroke="none" /><path d="M 119.196687751892 91.48605970444005 l 28.330200809725124 -12.564752908034935 a51.991503570484,51.991503570484 0 0,0 0.3557934320155231,0.8212202956456304 l -28.54228495158333 12.0752334678027" fill="#96ff23" stroke="none" /><path d="M 119.34039704204932 91.81776055985345 l 27.598539049901742 -11.67596788284977 a50.96677466278763,50.96677466278763 0 0,0 0.33487188537251106,0.8109188322292201 l -27.79543262216045 11.199174480167247" fill="#a1ff22" stroke="none" /><path d="M 119.47837535516314 92.15188598940014 l 46.53841044176433 -18.750986381533263 a71.17392885480032,71.17392885480032 0 0,0 0.44807868927931244,1.1403113899368673 l -46.85428268092534 17.947125986700613" fill="#3cffa6" stroke="none" /><path d="M 119.7369772167798 92.82701384747503 l 33.33173657856437 -12.113713376250262 a56.464724940491934,56.464724940491934 0 0,0 0.32412612545227676,0.916348203947047 l -33.53531578482646 11.5381675458766" fill="#63ff29" stroke="none" /><path d="M 119.97218684219823 93.5106431181261 l 37.050549676519665 -12.038453346156977 a59.95725337212378,59.95725337212378 0 0,0 0.3104772625018423,0.9842977676937473 l -37.25228242278971 11.398905412036811" fill="#3eff2d" stroke="none" /><path d="M 120.08093135843002 93.85539295169968 l 32.795585751485156 -10.035191284945867 a55.29658159217139,55.29658159217139 0 0,0 0.27067440464556264,0.9125795330104469 l -32.96346605324242 9.46918236518889" fill="#70ff27" stroke="none" /><path d="M 120.28053869075195 94.5502522615342 l 29.004189382539394 -7.79395054065337 a51.03312615710129,51.03312615710129 0 0,0 0.22066643100906672,0.8503177741802953 l -29.134052145418764 7.2935363409242235" fill="#a1ff22" stroke="none" /><path d="M 120.37134235888165 94.90015583598534 l 29.139536175127727 -7.294909235081803 a51.038779423432956,51.038779423432956 0 0,0 0.20601973380143432,0.8540848022605887 l -29.26078870918998 6.792239201161808" fill="#a1ff22" stroke="none" /><path d="M 120.45610955862082 95.25157060432595 l 29.33643542861606 -6.809798899166931 a51.11643745040995,51.11643745040995 0 0,0 0.1915785973241199,0.858809287016115 l -29.44930841294222 6.3038114426008525" fill="#a0ff22" stroke="none" /><path d="M 120.6074358757038 95.95851677861258 l 14.569422905340756 -2.8573219187669263 a35.846965088600896,35.846965088600896 0 0,0 0.11353975870937312,0.6065339310673363 l -14.61644838795999 2.606109910237027" fill="#ff9b0e" stroke="none" /><path d="M 120.78858239683441 97.02765380044208 l 30.133115769530185 -4.3084251936313045 a51.4395662523142,51.4395662523142 0 0,0 0.1177819120067035,0.877612051445413 l -30.202813680594726 3.7890948001212275" fill="#9cff22" stroke="none" /><path d="M 120.91429891909075 98.10471618934814 l 30.51358440598952 -2.7651848504872256 a51.638620735255216,51.638620735255216 0 0,0 0.07260271105036914,0.8859369707380376 l -30.556661600859385 2.2395339625414192" fill="#9aff23" stroke="none" /><path d="M 120.94382443527127 98.46500227214037 l 29.990770020805996 -2.1980590976101615 a51.071211319756685,51.071211319756685 0 0,0 0.05671192688882526,0.8773084076771431 l -30.024162538699237 1.6814916256799832" fill="#a0ff22" stroke="none" /><path d="M 120.96714384426684 98.82574320788733 l 31.32624142187576 -1.7544140505840593 a52.375330600370276,52.375330600370276 0 0,0 0.042664424959527346,0.9005785793686781 l -31.351799455068782 1.2149243645923815" fill="#91ff24" stroke="none" /><line stroke="#e1ed5e" stroke-width="0.3" x1="184.98032266829074" x2="189.97916517819016" y1="98.17113171792111" y2="98.06355123074" /><path d="M 185.9800911702706 98.14961562048488 a86.0,86.0 0 0,1 -9.607161424134198,41.387399972396054" fill="none" id="id28" stroke="none" /><text fill="#e1ed5e" style="font-size:6.75px; font-family:Arial;" text-anchor="middle"><textPath startOffset="21.466115282336823" xlink:href="#id28">April</textPath></text><path d="M 120.99513854157772 99.54816195383933 l 30.846302344460565 -0.6638457257617563 a51.85344485585824,51.85344485585824 0 0,0 0.011523793241153314,0.8925304861930462 l -30.853159144819433 0.1327789815082473" fill="#97ff23" stroke="none" /><path d="M 120.99824983174949 100.27111621757518 l 30.023780298640766 0.38764820006895123 a51.02628272943666,51.02628272943666 0 0,0 -0.018899010880316428,0.8781627733710183 l -30.012659225075442 -0.9044007892300844" fill="#a1ff22" stroke="none" /><path d="M 120.9904718944345 100.63252640178507 l 30.94918862010852 0.9326221446805679 a51.96323723882571,51.96323723882571 0 0,0 -0.03463688054716635,0.8938239814034732 l -30.92854960671015 -1.4652233730980473" fill="#96ff23" stroke="none" /><path d="M 120.9764740272857 100.99374915477107 l 30.224466215544172 1.4318678018066373 a51.258364189367896,51.258364189367896 0 0,0 -0.04933898037157697,0.8809806385867788 l -30.195340884285063 -1.9519201567288393" fill="#9eff22" stroke="none" /><path d="M 120.95626037817324 101.35467743843564 l 32.79814690416454 2.1201735821075207 a53.866602750595085,53.866602750595085 0 0,0 -0.06777814370151314,0.9247789208212616 l -32.75679220179869 -2.6844256394255526" fill="#80ff25" stroke="none" /><path d="M 120.92983693683757 101.71520430193887 l 35.69289634344152 2.925039958107734 a56.812549590055546,56.812549590055546 0 0,0 -0.08826344604305905,0.9739797722108227 l -35.637258301121385 -3.539001118867127" fill="#5fff29" stroke="none" /><path d="M 120.8583938346157 102.4346265915055 l 34.258298257858634 3.9986858326498833 a55.49087542978048,55.49087542978048 0 0,0 -0.11890503071006094,0.9477900864624801 l -34.184391717901725 -4.587793673399759" fill="#6eff28" stroke="none" /><path d="M 120.76222939487914 103.15116336523771 l 35.45589769107748 5.381277884989373 a56.861941285374236,56.861941285374236 0 0,0 -0.15520127228995598,0.9664384707007393 l -35.358014664426236 -5.990795585383318" fill="#5fff29" stroke="none" /><path d="M 120.70491114924044 103.5080841355445 l 38.85309785432382 6.582976145952291 a60.40683681565724,60.40683681565724 0 0,0 -0.18252517633283452,1.0236981214386056 l -38.7340262356518 -7.2507930181241145" fill="#39ff2e" stroke="none" /><path d="M 120.5718875245553 104.21870165774334 l 29.529873080927374 6.055726503985524 a51.144406241735,51.144406241735 0 0,0 -0.1842805077213558,0.8608971819342262 l -29.421258534481577 -6.563137505335919" fill="#9fff22" stroke="none" /><path d="M 120.32669344350535 105.2749913415812 l 29.74527079332924 7.719211505004208 a51.73056069822799,51.73056069822799 0 0,0 -0.2310925433818678,0.859981322460192 l -29.607990173605593 -8.230083760639948" fill="#99ff23" stroke="none" /><path d="M 120.13307415673323 105.97154293290107 l 28.862040136360058 8.560585952431301 a51.104833377413385,51.104833377413385 0 0,0 -0.2574058650888252,0.8412172605139602 l -28.7104074987651 -9.056130185497318" fill="#a0ff22" stroke="none" /><path d="M 120.02730092923936 106.31721596034902 l 28.909038491848 9.118784403564783 a51.313111610685,51.313111610685 0 0,0 -0.2729558186372239,0.8400716293959842 l -28.74779042219453 -9.615054932938563" fill="#9dff22" stroke="none" /><path d="M 119.9155931802556 106.66101706037122 l 28.432035678994904 9.509446844225893 a50.98016397778366,50.98016397778366 0 0,0 -0.2855111773240464,0.8298291261233338 l -28.264133670727627 -9.997448673438528" fill="#a1ff22" stroke="none" /><path d="M 119.67450827220406 107.3425965602758 l 28.157267626672745 10.508392563714684 a51.0542515207617,51.0542515207617 0 0,0 -0.3143622272717331,0.820700577446775 l -27.972211119807504 -10.991516707994604" fill="#a0ff22" stroke="none" /><line stroke="#e1ed5e" stroke-width="0.3" x1="174.80103733775053" x2="179.2010983576182" y1="140.37084112569926" y2="142.7455964860345" /><path d="M 175.68104954172406 140.8457921977663 a86.0,86.0 0 0,1 -30.038265399797805,32.042727171017184" fill="none" id="id29" stroke="none" /><text fill="#e1ed5e" style="font-size:6.75px; font-family:Arial;" text-anchor="middle"><textPath startOffset="22.206326154141568" xlink:href="#id29">May</textPath></text><path d="M 118.30583269289576 110.29060199501025 l 26.092658896994465 14.667957049817117 a50.93285506479768,50.93285506479768 0 0,0 -0.4361986816030489,0.7605491686712073 l -25.836308219239037 -15.11492606434664" fill="#a2ff22" stroke="none" /><path d="M 117.94076556474637 110.91462005526583 l 10.1937400443589 6.20156364703598 a32.931962443797936,32.931962443797936 0 0,0 -0.2987953966985787,0.48175331800360754 l -10.08548000799236 -6.376113296404861" fill="#ff720a" stroke="none" /><path d="M 117.14729908036423 112.12312394758627 l 7.749714919505308 5.479040989913483 a30.49094154985454,30.49094154985454 0 0,0 -0.30668109546779215,0.42595321851814877 l -7.654254031661914 -5.611627813882762" fill="#ff4e07" stroke="none" /><path d="M 116.498646956653 112.99209946851258 l 23.563261985169582 18.55523330599521 a50.99206559111346,50.99206559111346 0 0,0 -0.54897107892737,0.6849258291240634 l -23.24037299418736 -18.958086968697522" fill="#a1ff22" stroke="none" /><path d="M 115.80600337817218 113.82643327865902 l 22.67167450966258 19.832236361294136 a51.12179317640836,51.12179317640836 0 0,0 -0.5850795514313197,0.6573430784188273 l -22.32693610858292 -20.21955360945383" fill="#a0ff22" stroke="none" /><path d="M 115.56566222782051 114.09645910891815 l 3.17781048627535 2.8778650673537105 a25.2872586617297,25.2872586617297 0 0,0 -0.29496213529199916,0.32012314213023424 l -3.1278019429876287 -2.93213946428528" fill="#ff0000" stroke="none" /><path d="M 115.07121518719521 114.62390073753431 l 21.569669549917464 20.92948063719555 a51.054846601428196,51.054846601428196 0 0,0 -0.6174217586087722,0.6254449817417314 l -21.206207166253154 -21.297666112917945" fill="#a0ff22" stroke="none" /><path d="M 114.0293411484842 115.62618273729858 l 2.99595103983197 3.3369548808407297 a25.484527902671253,25.484527902671253 0 0,0 -0.3289417224087849,0.29025282462749297 l -2.9380669645165978 -3.388030847240511" fill="#ff0300" stroke="none" /><path d="M 113.75828350139079 115.86535959552629 l 5.46287079442762 6.299507461721606 a29.338270298862735,29.338270298862735 0 0,0 -0.3843795722253032,0.3275766103871356 l -5.35362574562527 -6.392608462331689" fill="#ff3d05" stroke="none" /><path d="M 111.45004920935366 117.60387380957326 l 8.308986242615335 12.774647743958235 a36.239123247818036,36.239123247818036 0 0,0 -0.5258438253083,0.3356184087512513 l -8.087860615260105 -12.915780581533296" fill="#ffa00e" stroke="none" /><line stroke="#e1ed5e" stroke-width="0.3" x1="143.8653032363475" x2="146.44561519142675" y1="172.8068346515853" y2="177.08958963109032" /><path d="M 144.38136562736335 173.6633856474863 a86.0,86.0 0 0,1 -40.68145358897372,12.25698825130547" fill="none" id="id30" stroke="none" /><text fill="#e1ed5e" style="font-size:6.75px; font-family:Arial;" text-anchor="middle"><textPath startOffset="21.466115282336833" xlink:href="#id30">June</textPath></text><path d="M 110.5260780823613 118.17145234162733 l 7.676963803361933 13.252949559148183 a36.31588865379529,36.31588865379529 0 0,0 -0.5436163989844278,0.3086795788598682 l -7.447698637456306 -13.383132303802679" fill="#ffa10e" stroke="none" /><path d="M 110.21172684928248 118.3499491758327 l 4.627773500127052 8.315871524762093 a30.516827558846867,30.516827558846867 0 0,0 -0.4612069010150547,0.251486775604453 l -4.483943787243349 -8.394298952126316" fill="#ff4f07" stroke="none" /><path d="M 109.89434966115114 118.52300852407294 l 2.944528851250877 5.512391908408978 a27.24953715948162,27.24953715948162 0 0,0 -0.41563212638687036,0.21743908453818414 l -2.849205822337511 -5.562260411891879" fill="#ff1e03" stroke="none" /><path d="M 109.57404056367764 118.69057910512821 l 3.7557589793876707 7.332046468484593 a29.23799920655911,29.23799920655911 0 0,0 -0.4499116757511488,0.22559505423480403 l -3.6289933959537617 -7.3956093636287" fill="#ff3c05" stroke="none" /><path d="M 105.88484417918355 120.15858648285463 l 4.203515714607241 14.39918075735775 a36.000198360222164,36.000198360222164 0 0,0 -0.5963498548368081,0.16853442575457664 l -3.9550346916658268 -14.469403976450844" fill="#ff9d0e" stroke="none" /><path d="M 104.83641907484287 120.43548508189849 l 3.444763104418014 14.55527404504247 a35.95735255223486,35.95735255223486 0 0,0 -0.6035353455161873,0.1373626796970984 l -3.1937076095089645 -14.612413458317253" fill="#ff9c0e" stroke="none" /><path d="M 103.06178313531738 120.77559828337769 l 1.6908667576406295 11.473303939215048 a32.59722956889712,32.59722956889712 0 0,0 -0.5558159959591095,0.07703103243304299 l -1.4931221704946895 -11.500709537140693" fill="#ff6d0a" stroke="none" /><path d="M 101.98527174616119 120.90594882070398 l 1.347523731509021 14.190128993718286 a35.25396720444327,35.25396720444327 0 0,0 -0.6046150767063609,0.052168732905788225 l -1.1030643370611182 -14.211221978902737" fill="#ff930d" stroke="none" /><path d="M 101.62511606390274 120.93702456842531 l 0.46910052475569164 6.0436109334151356 a27.061789209203916,27.061789209203916 0 0,0 -0.4647375689899921,0.03205102371353484 l -0.3650001949867692 -6.050790301644956" fill="#ff1b02" stroke="none" /><path d="M 101.26447882468166 120.96189622390904 l 1.805078517915965 29.923687000521973 a50.97808119545094,50.97808119545094 0 0,0 -0.876366455283058,0.04529813552377507 l -1.2897239942194274 -29.95032494280795" fill="#a1ff22" stroke="none" /><line stroke="#e1ed5e" stroke-width="0.3" x1="102.19456741930631" x2="102.32365962044197" y1="184.97166512339345" y2="189.96999836594603" /><path d="M 102.22038585953345 185.97133177190398 a86.0,86.0 0 0,1 -42.740103519485714,-10.115201625700543" fill="none" id="id31" stroke="none" /><text fill="#e1ed5e" style="font-size:6.75px; font-family:Arial;" text-anchor="middle"><textPath startOffset="22.20632615414155" xlink:href="#id31">July</textPath></text><path d="M 100.54218724476979 120.99299961872073 l 0.771698053330795 29.879450495408317 a50.88941417614388,50.88941417614388 0 0,0 -0.8758802686193288,0.015079073141014752 l -0.25725809481879824 -29.88830704582849" fill="#a2ff22" stroke="none" /><path d="M 100.18074693466247 120.99922214144158 l 0.1292142196224905 15.012138970726417 a36.01269505421846,36.01269505421846 0 0,0 -0.6199223085698816,0.0 l 0.12921421962248017 -15.012138970726417" fill="#ff9d0e" stroke="none" /><path d="M 99.81925306533755 120.99922214144158 l -0.2579521065025752 29.968937489404414 a50.97004760645332,50.97004760645332 0 0,0 -0.8772680863362841,-0.01510296568159379 l 0.7737798827315272 -29.96005704644366" fill="#a1ff22" stroke="none" /><path d="M 99.09653310690486 120.98055641714683 l -1.287816667637197 29.906032480881468 a50.93374768579741,50.93374768579741 0 0,0 -0.8756043159518909,-0.04525874162582056 l 1.8024090520025768 -29.879433932493445" fill="#a2ff22" stroke="none" /><path d="M 98.73552117531835 120.96189622390904 l -1.8041648081066708 29.90853997723704 a50.962906638455436,50.962906638455436 0 0,0 -0.8751962834654146,-0.06035865982668512 l 2.3187238523510154 -29.873052972894072" fill="#a1ff22" stroke="none" /><path d="M 98.01472825383883 120.90594882070398 l -2.8186722031337097 29.68209109659601 a50.81562417349908,50.81562417349908 0 0,0 -0.8700781921871956,-0.09018716215528677 l 3.3291829919264986 -29.62917456598496" fill="#a3ff21" stroke="none" /><path d="M 97.65516085044442 120.86867818915974 l -3.348851042374276 29.80421694169786 a50.991768050780216,50.991768050780216 0 0,0 -0.8714070096928253,-0.10551525333363411 l 3.86138547511849 -29.742156159638878" fill="#a1ff22" stroke="none" /><path d="M 97.2962882734958 120.8252237178851 l -5.735018780885864 44.17373641110901 a65.54446574980165,65.54446574980165 0 0,0 -1.117599961473237,-0.15488917106614203 l 6.494547333545931 -44.068472674550264" fill="#35ff63" stroke="none" /><path d="M 96.58105272829116 120.7198165907248 l -4.893139799503848 29.65385282114099 a51.054846601428196,51.054846601428196 0 0,0 -0.8658683870683508,-0.1505423178548767 l 5.402857158044249 -29.565231924765108" fill="#a0ff22" stroke="none" /><path d="M 96.22490169976321 120.6578951692458 l -5.380392277918533 29.442300784509083 a50.92987966146522,50.92987966146522 0 0,0 -0.8610360317041196,-0.1650196047591174 l 5.886395924194348 -29.345323981401496" fill="#a2ff22" stroke="none" /><path d="M 95.86986931433489 120.58985236759428 l -5.903190623821986 29.429050239045438 a51.01527373710658,51.01527373710658 0 0,0 -0.8595066402716889,-0.18011797329546703 l 6.408888725523061 -29.32307628502343" fill="#a1ff22" stroke="none" /><path d="M 95.51606077576429 120.51570834832081 l -5.631903564108809 25.768076949530695 a47.376355461518116,47.376355461518116 0 0,0 -0.795200509304121,-0.18098504696702777 l 6.0746242228057925 -25.66731516898598" fill="#ccff1d" stroke="none" /><path d="M 95.16358092515715 120.4354850818985 l -5.685743566001095 24.02416457806464 a45.68781407035176,45.68781407035176 0 0,0 -0.7637408122219007,-0.18770890992250036 l 6.098437662966206 -23.92273440982811" fill="#e1ff1b" stroke="none" /><path d="M 94.81253420990036 120.34920634021253 l -2.4018758438054872 9.42199315173337 a30.72332055011902,30.72332055011902 0 0,0 -0.5113378171825129,-0.13504896499500135 l 2.5637041037994894 -9.379252837434787" fill="#ff5207" stroke="none" /><path d="M 94.11515582081647 120.15858648285463 l -10.968546212180478 37.572853363146244 a60.14113329806929,60.14113329806929 0 0,0 -0.991254823808896,-0.2986569470263101 l 11.613676010429618 -37.378481047014205" fill="#3cff2e" stroke="none" /><path d="M 93.76903079525671 120.05430185196036 l -9.902113499014112 31.869837027991156 a54.37271885744513,54.37271885744513 0 0,0 -0.8913984053328414,-0.28539761995372703 l 10.449233249437892 -31.694666561377723" fill="#7aff26" stroke="none" /><path d="M 93.42475214034765 119.94407469862007 l -9.439264296876809 28.63122368240003 a51.147084104734205,51.147084104734205 0 0,0 -0.8337711886217064,-0.2828604560378247 l 9.930705218435742 -28.464500239464083" fill="#9fff22" stroke="none" /><path d="M 92.7421414339146 119.70592522655815 l -10.392569554620698 28.21702802423423 a51.0700211584237,51.0700211584237 0 0,0 -0.8222997609554993,-0.31092340819979697 l 10.87673953633648 -28.0339563659278" fill="#a0ff22" stroke="none" /><path d="M 92.40401165467489 119.57807347666478 l -22.787965035975347 58.734220429994345 a84.0,84.0 0 0,0 -1.3435156958325676,-0.5346126223757337 l 23.795601807849774 -58.333260963212545" fill="#4dd2ff" stroke="none" /><path d="M 91.7346041902142 119.30500536409082 l -9.307119241700745 21.738098334327944 a44.646720444326895,44.646720444326895 0 0,0 -0.703886003973909,-0.3085629388392903 l 9.679925920332396 -21.5746708421942" fill="#eeff19" stroke="none" /><path d="M 91.07499286063937 119.00905698771935 l -6.407335362115048 13.646756930952957 a36.076071145199684,36.076071145199684 0 0,0 -0.5598445035496465,-0.2687593833982869 l 6.641292533664937 -13.534443271055107" fill="#ff9e0e" stroke="none" /><path d="M 90.42595943632237 118.69057910512821 l -3.4590910526379015 6.7528870930890745 a28.587278497751917,28.587278497751917 0 0,0 -0.4360364464208874,-0.22811366041226155 l 3.5748184015852846 -6.692344013732096" fill="#ff3204" stroke="none" /><line stroke="#e1ed5e" stroke-width="0.3" x1="58.666819895761336" x2="56.23545636021788" y1="174.27360380694188" y2="178.64263932499728" /><path d="M 58.180547188652646 175.14741091055294 a86.0,86.0 0 0,1 -31.652253787137756,-30.449443065178592" fill="none" id="id32" stroke="none" /><text fill="#e1ed5e" style="font-size:6.75px; font-family:Arial;" text-anchor="middle"><textPath startOffset="22.20632615414155" xlink:href="#id32">August</textPath></text><path d="M 89.7882731507175 118.34994917583269 l -7.348154846051356 13.204257218323974 a36.11118090452261,36.11118090452261 0 0,0 -0.5405521069175256,-0.30693959385117064 l 7.5743557198900895 -13.07581445867817" fill="#ff9f0e" stroke="none" /><path d="M 89.4739219176387 118.17145234162733 l -14.988386309355427 25.874855322871944 a50.90250595080666,50.90250595080666 0 0,0 -0.7544045379552384,-0.44571549847905906 l 15.431558718339048 -25.613021252099138" fill="#a2ff22" stroke="none" /><path d="M 88.8546689885994 117.79835938074946 l -15.897793302627944 25.387728571866436 a50.95457550912457,50.95457550912457 0 0,0 -0.7393707822192573,-0.4719014153301281 l 16.332445886894124 -25.110312727712504" fill="#a2ff22" stroke="none" /><path d="M 88.54995079064634 117.60387380957326 l -16.415832632090144 25.238515647453895 a51.10751124041259,51.10751124041259 0 0,0 -0.7333326771984816,-0.4860129110384801 l 16.847840008028587 -24.952204715324093" fill="#a0ff22" stroke="none" /><path d="M 87.95078237400918 117.19931262002967 l -14.121137207661866 20.15681523263529 a45.61104866437451,45.61104866437451 0 0,0 -0.6391469128609497,-0.4560143519232374 l 14.4660114483717 -19.910756618867833" fill="#e2ff1b" stroke="none" /><path d="M 87.65650970185807 116.9893568818739 l -3.7596064571800323 5.17465435574928 a27.39622454377149,27.39622454377149 0 0,0 -0.37913117172418126,-0.28047217709534733 l 3.848122599322778 -5.109172229914166" fill="#ff2003" stroke="none" /><path d="M 87.07902340077011 116.55440617244103 l -9.260513284875188 11.864606139155699 a36.05078021687384,36.05078021687384 0 0,0 -0.4859001534323541,-0.3860284687823661 l 9.4633709310249 -11.703443756368202" fill="#ff9e0e" stroke="none" /><path d="M 86.79598089348748 116.32954008644616 l -13.275921069474933 16.41846195008613 a42.114354668077226,42.114354668077226 0 0,0 -0.5597797335677991,-0.4606606111160579 l 13.556570931587421 -16.18750622011289" fill="#ffef16" stroke="none" /><path d="M 85.70375840098266 115.38237550388516 l -4.483813863053725 4.824464391799249 a27.586352816715156,27.586352816715156 0 0,0 -0.3450450640382392,-0.3262616446751607 l 4.566194761482781 -4.746568110378158" fill="#ff2303" stroke="none" /><path d="M 84.67929136418377 114.36230785411682 l -7.351387369090085 6.8915146850916305 a31.07650092568104,31.07650092568104 0 0,0 -0.3624905013652202,-0.39341184648843674 l 7.468924278451033 -6.76395158380185" fill="#ff5708" stroke="none" /><path d="M 84.43433777217949 114.09645910891817 l -11.04790328957438 10.005119903117278 a35.904985453583706,35.904985453583706 0 0,0 -0.4109259765368566,-0.46167969083553023 l 11.218488115759575 -9.813466042540883" fill="#ff9c0e" stroke="none" /><path d="M 84.19399662182784 113.82643327865904 l -9.855088194636407 8.620820590650665 a34.0935599047871,34.0935599047871 0 0,0 -0.3825906079504975,-0.44503931147668474 l 10.002021312157682 -8.44990418001245" fill="#ff820c" stroke="none" /><path d="M 83.95833913139862 113.55231037782056 l -23.15197688722005 19.559245093496976 a51.30805342501984,51.30805342501984 0 0,0 -0.5641540368339629,-0.679559879979762 l 23.48522692394755 -19.15782395640345" fill="#9dff22" stroke="none" /><path d="M 83.72743513129214 113.27417163493432 l -23.22215881297168 18.943228944188334 a50.9685599047871,50.9685599047871 0 0,0 -0.5487180210871984,-0.6846101005590263 l 23.54479474611374 -18.54069101005105" fill="#a1ff22" stroke="none" /><path d="M 83.50135304334701 112.99209946851258 l -16.700695694508628 13.151205685319614 a42.25717402803491,42.25717402803491 0 0,0 -0.44509518183957225,-0.5753455219619573 l 16.92459769356627 -12.861782169244403" fill="#fff116" stroke="none" /><path d="M 82.6465618267979 111.8261652097733 l -13.523791322788306 9.216305659403606 a37.365610949484264,37.365610949484264 0 0,0 -0.3576367507274832,-0.5346184175460386 l 13.68043117892652 -8.982150327651746" fill="#ffb010" stroke="none" /><path d="M 82.05923443525364 110.91462005526583 l -53.76739050877249 32.71045690043018 a83.93573128801904,83.93573128801904 0 0,0 -0.7403096498474003,-1.2408015556757457 l 54.32248103431813 -31.780093250868322" fill="#4dd3ff" stroke="none" /><line stroke="#e1ed5e" stroke-width="0.3" x1="26.63291911575756" x2="22.317208475507996" y1="142.92168965132927" y2="145.44649492493687" /><path d="M 25.769776987707644 143.4266507060508 a86.0,86.0 0 0,1 -11.730757126820373,-40.83630448921669" fill="none" id="id33" stroke="none" /><text fill="#e1ed5e" style="font-size:6.75px; font-family:Arial;" text-anchor="middle"><textPath startOffset="21.46611528233685" xlink:href="#id33">September</textPath></text><path d="M 81.69416730710424 110.29060199501025 l -13.192742565139739 7.416284483642785 a36.134389050515736,36.134389050515736 0 0,0 -0.3001280895460362,-0.544819660622676 l 13.318447064137292 -7.188094304622286" fill="#ff9f0e" stroke="none" /><path d="M 81.51974371655577 109.97397251340807 l -26.88721233122977 14.511287757091207 a51.55322665961386,51.55322665961386 0 0,0 -0.4147518255740808,-0.7845541506797244 l 27.133016665028734 -14.046318591325356" fill="#9bff22" stroke="none" /><path d="M 81.35079622478065 109.6543875284942 l -26.60270129149473 13.77178300309726 a50.956063210790795,50.956063210790795 0 0,0 -0.396538458683929,-0.7824079985967263 l 26.835818419964923 -13.311820792797848" fill="#a2ff22" stroke="none" /><path d="M 80.73074385275274 108.34839909993369 l -11.544844978310225 5.0018004166480345 a33.5817905316054,33.5817905316054 0 0,0 -0.2252362974372433,-0.5323920734149725 l 11.629232256939774 -4.802333817566903" fill="#ff7b0b" stroke="none" /><path d="M 80.58989483394504 108.01547362559985 l -27.7367887363647 11.454007934175083 a51.0087278497752,51.0087278497752 0 0,0 -0.3281497991695717,-0.8144408901697107 l 27.929841149791663 -10.974867676162566" fill="#a1ff22" stroke="none" /><path d="M 80.45479744820244 107.68017299344265 l -14.046614307932916 5.519534912528692 a36.09213832319492,36.09213832319492 0 0,0 -0.22223428318530658,-0.5801835866908778 l 14.139542870711733 -5.276927759004657" fill="#ff9e0e" stroke="none" /><path d="M 80.32549172779594 107.34259656027581 l -19.84157842500483 7.404947736341177 a42.17832583972495,42.17832583972495 0 0,0 -0.24799999774392747,-0.6823894820304937 l 19.96610268375398 -7.062310457304567" fill="#fff016" stroke="none" /><path d="M 80.0844068197444 106.66101706037122 l -28.42103082199331 9.505766133359234 a50.9685599047871,50.9685599047871 0 0,0 -0.27112300456701033,-0.8344308077053824 l 28.580446077576568 -9.01513642567605" fill="#a1ff22" stroke="none" /><path d="M 79.86692584326677 105.97154293290107 l -28.65294659501302 8.498568048487478 a50.886736313144674,50.886736313144674 0 0,0 -0.24185099851843353,-0.8419150537129017 l 28.794990230417557 -8.004095519269981" fill="#a2ff22" stroke="none" /><path d="M 79.58551787078972 104.9243191809786 l -14.711258013381256 3.5486048361698446 a36.13319888918276,36.13319888918276 0 0,0 -0.14064320134859484,-0.6058872304351871 l 14.770161780660406 -3.2948489483860834" fill="#ff9f0e" stroke="none" /><path d="M 79.4281124754447 104.21870165774334 l -22.264577593569552 4.565823641162338 a43.72791589526581,43.72791589526581 0 0,0 -0.14486447807943156,-0.7386608527510727 l 22.339872004624652 -4.1818990613433105" fill="#faff18" stroke="none" /><path d="M 79.35854240842038 103.8639653848113 l -7.190721244438851 1.3460627892709127 a28.315624173499074,28.315624173499074 0 0,0 -0.08555843291404693,-0.47985712879207926 l 7.212826119692087 -1.2220869097456197" fill="#ff2e04" stroke="none" /><path d="M 79.23777060512086 103.15116336523772 l -29.718671713138043 4.510517044429964 a51.05901216609362,51.05901216609362 0 0,0 -0.12440394341110461,-0.8700808904687818 l 29.791909707565747 -3.9982906819807815" fill="#a0ff22" stroke="none" /><path d="M 79.18660465613746 102.79330883721812 l -62.050332979042224 8.32760540023068 a83.6066516794499,83.6066516794499 0 0,0 -0.179151102023796,-1.4280105514712138 l 62.18448559031287 -7.258277094472057" fill="#4cd6ff" stroke="none" /><path d="M 79.10278846688536 102.07522291339032 l -29.757622906697318 2.9551168014042983 a50.90399365247289,50.90399365247289 0 0,0 -0.07908396876291059,-0.8726850053378996 l 29.804081471737305 -2.4424504075178324" fill="#a2ff22" stroke="none" /><path d="M 79.07016306316243 101.71520430193888 l -29.822763883708173 2.4439814348965805 a50.922738693467345,50.922738693467345 0 0,0 -0.06407399992943881,-0.8742388220071822 l 29.86041444230195 -1.9302694763926376" fill="#a2ff22" stroke="none" /><path d="M 79.04373962182676 101.35467743843564 l -30.217906850234286 1.9533788905103573 a51.280977254694534,51.280977254694534 0 0,0 -0.04936074668432699,-0.8813692907227791 l 30.247053947806144 -1.4329378834521407" fill="#9eff22" stroke="none" /><path d="M 79.0235259727143 100.99374915477108 l -29.872573123462903 1.4151970561717788 a50.90607643480561,50.90607643480561 0 0,0 -0.03393221404766778,-0.8756396701664946 l 29.89250747036177 -0.9007801389912874" fill="#a2ff22" stroke="none" /><path d="M 79.0095281055655 100.63252640178507 l -29.922545409040193 0.9016853015509886 a50.93612800846338,50.93612800846338 0 0,0 -0.01886561955801258,-0.8766112098322061 l 29.933633091283212 -0.38648427592865364" fill="#a2ff22" stroke="none" /><line stroke="#e1ed5e" stroke-width="0.3" x1="15.007084014347285" x2="10.007500721073583" y1="101.09737516637583" y2="101.16192664675087" /><path d="M 14.007167355692545 101.11028546245083 a86.0,86.0 0 0,1 10.666146001902534,-42.60595125391555" fill="none" id="id34" stroke="none" /><text fill="#e1ed5e" style="font-size:6.75px; font-family:Arial;" text-anchor="middle"><textPath startOffset="22.20632615414155" xlink:href="#id34">October</textPath></text><path d="M 79.00486145842228 99.54816195383935 l -16.096180335201904 -0.34640717701882556 a37.09990743189633,37.09990743189633 0 0,0 0.01923595846598913,-0.6383478134720693 l 16.08783268228027 0.6234251379158892" fill="#ffac0f" stroke="none" /><path d="M 79.03285615573316 98.82574320788736 l -32.937575180112006 -1.8446561753113109 a53.98918936789209,53.98918936789209 0 0,0 0.05995218991476491,-0.9274338425140352 l 32.90094239919283 2.411349082078358" fill="#7fff26" stroke="none" /><path d="M 79.05617556472873 98.46500227214037 l -29.88305180184459 -2.1901643016111847 a50.96320417878868,50.96320417878868 0 0,0 0.07165309093290949,-0.8743492000055215 l 29.840924227092184 2.704227418824485" fill="#a1ff22" stroke="none" /><path d="M 79.08570108090925 98.10471618934814 l -62.57784313628296 -5.670894035728192 a83.83427003438246,83.83427003438246 0 0,0 0.14260957580763559,-1.4360589665190338 l 62.470956434793095 6.747228532951656" fill="#4dd4ff" stroke="none" /><path d="M 79.16333360222342 97.38593545837743 l -29.820791072459272 -3.741168143574475 a51.054549061094946,51.054549061094946 0 0,0 0.11690033262645508,-0.8710432610833468 l 29.751974740774983 4.2539297467224815" fill="#a0ff22" stroke="none" /><path d="M 79.21141760316559 97.0276538004421 l -29.730472967128062 -4.250855428620208 a51.03282861676806,51.03282861676806 0 0,0 0.13182048540865685,-0.8685322973702452 l 29.6528965882801 4.761986838382545" fill="#a1ff22" stroke="none" /><path d="M 79.26566170972629 96.67025291283419 l -29.809185570367585 -4.78708543451696 a51.19112007405448,51.19112007405448 0 0,0 0.147206497522233,-0.8688210812582821 l 29.72236721132513 5.2994923040910695" fill="#9fff22" stroke="none" /><path d="M 79.32604984820605 96.31383870115002 l -29.560967923528462 -5.270714842407658 a51.027175350436394,51.027175350436394 0 0,0 0.16162074425518239,-0.8633844784367372 l 29.46586145536342 5.778777398306968" fill="#a1ff22" stroke="none" /><path d="M 79.46518482838121 95.60439243477599 l -43.71629933685926 -9.3577514325174 a65.70662523142026,65.70662523142026 0 0,0 0.2462609627079198,-1.1039396088973585 l 43.5487439871493 10.108869210964718" fill="#35ff65" stroke="none" /><path d="M 79.54389044137918 95.25157060432595 l -28.401430383142777 -6.592758340682144 a50.15657233536102,50.15657233536102 0 0,0 0.20245867549449711,-0.8393219165709334 l 28.283738907387463 7.080665488912474" fill="#abff21" stroke="none" /><path d="M 79.71946130924805 94.55025226153421 l -28.92660580516234 -7.773102429476431 a50.952790267125096,50.952790267125096 0 0,0 0.23490019878168011,-0.84506099568119 l 28.788518835814298 8.269874728576564" fill="#a2ff22" stroke="none" /><path d="M 79.91906864156998 93.8553929516997 l -31.44725291662098 -9.62261204284396 a53.8865379529225,53.8865379529225 0 0,0 0.2790412143379467,-0.8846369043393683 l 31.27695621851483 10.16249911360974" fill="#80ff26" stroke="none" /><path d="M 80.02781315780177 93.51064311812611 l -34.137577512783864 -11.091971315581018 a56.89437318169797,56.89437318169797 0 0,0 0.31065060943677075,-0.9288057818600459 l 33.94158960957532 11.677950200363387" fill="#5fff29" stroke="none" /><path d="M 80.14247586403 93.16781622104843 l -28.202268452337258 -9.703278199756499 a50.82484792382967,50.82484792382967 0 0,0 0.2917513731203626,-0.8248204194736991 l 28.031063998407088 10.18729624565681" fill="#a3ff21" stroke="none" /><path d="M 80.65960295795068 91.81776055985345 l -27.494957182644004 -11.63214605035493 a50.85430441682095,50.85430441682095 0 0,0 0.348011237580265,-0.8032579179291901 l 27.29065523522106 12.103703112870718" fill="#a3ff22" stroke="none" /><path d="M 80.803312248108 91.48605970444005 l -27.29283115479092 -12.104668156921296 a50.85668473948691,50.85668473948691 0 0,0 0.3618033746192675,-0.7971857771188765 l 27.080425463208304 12.572675942882244" fill="#a3ff22" stroke="none" /><path d="M 80.95270993114464 91.15688171328213 l -35.49965943775322 -16.481488254308797 a60.139050515736585,60.139050515736585 0 0,0 0.44400319107628305,-0.9351839553376641 l 35.21069805283519 17.090114625286994" fill="#3cff2e" stroke="none" /><path d="M 81.10775173730289 90.83032412892265 l -26.86106596299249 -13.037477859033043 a50.857874900819894,50.857874900819894 0 0,0 0.3890384935849839,-0.7842778636166596 l 26.632667456454094 13.497915311148665" fill="#a3ff22" stroke="none" /><line stroke="#e1ed5e" stroke-width="0.3" x1="26.266209847984243" x2="21.928928074336255" y1="57.711370442889674" y2="55.22380399835377" /><path d="M 25.398753493254645 57.213857153982495 a86.0,86.0 0 0,1 29.58750427330803,-30.492523968695096" fill="none" id="id35" stroke="none" /><text fill="#e1ed5e" style="font-size:6.75px; font-family:Arial;" text-anchor="middle"><textPath startOffset="21.46611528233685" xlink:href="#id35">November</textPath></text><path d="M 82.7489923806493 88.02491185347247 l -9.775429762463338 -6.7857852514294486 a32.899828087807464,32.899828087807464 0 0,0 0.32694185393082487,-0.46243606643622515 l 9.657175288728634 6.95304781819746" fill="#ff710a" stroke="none" /><path d="M 83.6137871275137 86.86637796730984 l -5.68699159771912 -4.558148898025071 a28.28825046284052,28.28825046284052 0 0,0 0.30780513748951166,-0.37733270327300594 l 5.607687968153217 4.65536577090616" fill="#ff2e04" stroke="none" /><path d="M 83.84228863543731 86.58626213691792 l -22.895483718922357 -19.007272126896307 a50.75700872784978,50.75700872784978 0 0,0 0.5638605441594646,-0.6674330335139319 l 22.56491256127577 19.398564110039356" fill="#a4ff21" stroke="none" /><path d="M 84.31358615837235 86.03803664274999 l -27.2243766429231 -24.231526271719538 a57.446310499867764,57.446310499867764 0 0,0 0.6637958364732467,-0.7329799419089145 l 26.80323716583381 24.69655900089801" fill="#59ff2a" stroke="none" /><path d="M 84.5562425177563 85.77008943001954 l -22.004816143974665 -20.275283796552475 a50.92154853213435,50.92154853213435 0 0,0 0.5994986101433798,-0.6395033184691649 l 21.65255021186083 20.65105653189969" fill="#a2ff22" stroke="none" /><path d="M 84.80347519578584 85.50635884689758 l -13.010090132568429 -12.408335470138194 a38.97857709600635,38.97857709600635 0 0,0 0.46725241928894873,-0.4815446907244729 l 12.794573449576362 12.63044435641279" fill="#ffc612" stroke="none" /><path d="M 85.31137513191541 84.99185889309783 l -11.31927897877904 -11.565503079258646 a37.18292118487173,37.18292118487173 0 0,0 0.46127495333797786,-0.4437461396434634 l 11.118520781828634 11.758632305664422" fill="#ffad10" stroke="none" /><path d="M 85.57189188830299 84.74124197986013 l -20.50841607447484 -21.68911931031764 a50.849841311822274,50.849841311822274 0 0,0 0.641173194745389,-0.595900606936733 l 20.132034995934596 22.03892450332902" fill="#a3ff22" stroke="none" /><path d="M 85.83668400450813 84.49514656593479 l -8.043021098433629 -8.804849326104215 a32.925416556466544,32.925416556466544 0 0,0 0.42174168011977087,-0.3786438445271938 l 7.890268430717887 8.941992179400687" fill="#ff720a" stroke="none" /><path d="M 86.10567301691215 84.25364557470407 l -24.810445111151314 -28.1175232629164 a58.49871065855594,58.49871065855594 0 0,0 0.7607790786676055,-0.6597401201790142 l 24.322772233836936 28.540428376515095" fill="#4dff2c" stroke="none" /><path d="M 86.37877921826538 84.01681056812374 l -3.9316626803967814 -4.61342712301427 a27.06149166887067,27.06149166887067 0 0,0 0.3571375454605396,-0.299092423597232 l 3.8516675979771318 4.680420704005314" fill="#ff1b02" stroke="none" /><path d="M 86.65592168130627 83.78471172551755 l -19.007446427814397 -23.09722828567476 a50.912622322137,50.912622322137 0 0,0 0.6814935764248504,-0.5510537441007463 l 18.607049452825045 23.42098812703964" fill="#a2ff22" stroke="none" /><path d="M 86.93701828274178 83.55741782278169 l -18.664425491840852 -23.49320825694109 a51.004859825443006,51.004859825443006 0 0,0 0.6921297418527693,-0.5402182418961342 l 18.25726319482866 23.81100488806045" fill="#a1ff22" stroke="none" /><path d="M 87.22198572758235 83.33499621200491 l -7.10027813506927 -9.26013694257365 a32.668936789209205,32.668936789209205 0 0,0 0.44920386430991394,-0.33833103762547057 l 6.939828117000966 9.380984569704976" fill="#ff6e0a" stroke="none" /><path d="M 87.51073957382395 83.11751280151077 l -17.779925282061964 -24.034198240865088 a50.89596006347528,50.89596006347528 0 0,0 0.7087981856778202,-0.5149720256679782 l 17.363581780030362 24.336689501349735" fill="#a2ff22" stroke="none" /><path d="M 87.80319425747018 82.90503203632743 l -18.245611711310904 -25.57293723182426 a52.41460592435864,52.41460592435864 0 0,0 0.7389682211998282,-0.5176944632984206 l 17.802712350527415 25.88321653788662" fill="#91ff24" stroke="none" /><path d="M 88.09926311788651 82.69761687909137 l -16.978682882564165 -24.685166896183546 a50.96052631578947,50.96052631578947 0 0,0 0.7270254502277396,-0.4908908293654566 l 16.551252737929886 24.973769637847667" fill="#a2ff22" stroke="none" /><path d="M 88.39885842347998 82.49532879139004 l -16.524131393045796 -24.932846921596006 a50.91143216080402,50.91143216080402 0 0,0 0.7346591766319018,-0.4778427643558724 l 16.09250519062961 25.21358861011141" fill="#a2ff22" stroke="none" /><path d="M 88.70189139769569 82.29822771554957 l -16.10899324914641 -25.23942194802229 a50.94207881512828,50.94207881512828 0 0,0 0.7432227279666211,-0.46540600406931615 l 15.672151368807546 25.512972293414535" fill="#a2ff22" stroke="none" /><path d="M 89.00827224532344 82.1063720568725 l -3.0276879597045414 -4.928826758449318 a26.784481618619413,26.784481618619413 0 0,0 0.3949281688486034,-0.23793980284984484 l 2.9423977246382886 4.980213170757783" fill="#ff1702" stroke="none" /><line stroke="#e1ed5e" stroke-width="0.3" x1="56.762969772571076" x2="54.21961505331055" y1="26.818313649435495" y2="22.513508569990535" /><path d="M 56.25429882871897 25.957352633546506 a86.0,86.0 0 0,1 42.265352541879196,-11.944610805530505" fill="none" id="id36" stroke="none" /><text fill="#e1ed5e" style="font-size:6.75px; font-family:Arial;" text-anchor="middle"><textPath startOffset="22.20632615414155" xlink:href="#id36">December</textPath></text><path d="M 89.3179101791058 81.91981866633112 l -15.278492130383519 -25.85991251281604 a51.03610156043375,51.03610156043375 0 0,0 0.760202825254069,-0.44035854408428193 l 14.83109257266413 26.119075214290373" fill="#a1ff22" stroke="none" /><path d="M 89.63071344664047 81.73862282372117 l -2.757065847947608 -4.855475744654409 a26.583641893678923,26.583641893678923 0 0,0 0.3998634332832553,-0.22252356769917958 l 2.673078325592307 4.902214709913773" fill="#ff1402" stroke="none" /><path d="M 90.26544431104013 81.39251694778311 l -11.470386556608123 -21.925502331505733 a45.74464427400159,45.74464427400159 0 0,0 0.7008504544829868,-0.3590028239655224 l 11.091275614536372 22.11969768078376" fill="#e1ff1b" stroke="none" /><path d="M 90.58718382345135 81.22770947309562 l -13.41985134718277 -26.763653256591613 a50.93969849246231,50.93969849246231 0 0,0 0.7872093243157003,-0.38628019662915336 l 12.957170755856644 26.990688613355598" fill="#a2ff22" stroke="none" /><path d="M 90.91171255644093 81.06846463323043 l -13.019108257184033 -27.11970873999561 a51.08281539275325,51.08281539275325 0 0,0 0.79597191546041,-0.3737194871268063 l 12.550358130424016 27.339793209762423" fill="#a0ff22" stroke="none" /><path d="M 91.23893434514133 80.91482961587045 l -12.493381577515013 -27.215675064435477 a50.94624437979371,50.94624437979371 0 0,0 0.8001420187341697,-0.35900040022600094 l 12.02305744031407 27.426695795178006" fill="#a2ff22" stroke="none" /><path d="M 91.56875222667455 80.76684994638697 l -12.020429345171816 -27.420700650736155 a50.93969849246231,50.93969849246231 0 0,0 0.8060994848718941,-0.34512973080670895 l 11.546646102509614 27.623549909505652" fill="#a2ff22" stroke="none" /><path d="M 92.23578459929587 80.48803036053334 l -11.071641498684217 -27.823742855175535 a50.94564929912721,50.94564929912721 0 0,0 0.8175972135156337,-0.3172150167092426 l 10.591061120168906 28.01020057577533" fill="#a2ff22" stroke="none" /><path d="M 92.57280143429618 80.3572730644239 l -10.60979257837198 -28.05973970083483 a50.99861147844486,50.99861147844486 0 0,0 0.8237919225974479,-0.3034095173586609 l 10.125218330001964 28.238212485999814" fill="#a1ff22" stroke="none" /><path d="M 93.25333710446033 80.11325718540243 l -9.628180283382731 -28.380422741263345 a50.969154985453585,50.969154985453585 0 0,0 0.8332660210616741,-0.27471470621225685 l 9.138231440078648 28.541951171734834" fill="#a1ff22" stroke="none" /><path d="M 93.59665428221793 80.00007090966166 l -9.127253550180122 -28.50766331204262 a50.93315260513093,50.93315260513093 0 0,0 0.8372794901546595,-0.26014681325876676 l 8.635188687314734 28.66055026018391" fill="#a2ff22" stroke="none" /><path d="M 93.94186890950719 79.89281104454417 l -8.635360357633159 -28.661120041107942 a50.93374768579741,50.93374768579741 0 0,0 0.8416432711894644,-0.2456987502383159 l 8.140726868720273 28.805517120264955" fill="#a2ff22" stroke="none" /><path d="M 95.692805502759 79.44645832069477 l -3.6812623237792135 -17.56665009038212 a38.94822798201534,38.94822798201534 0 0,0 0.6573600137408688,-0.13186023463448454 l 3.3783359005712086 17.627414281093813" fill="#ffc512" stroke="none" /><path d="M 96.04723909329186 79.375362276772 l -6.329353361412992 -33.02517485434064 a54.626223221370005,54.626223221370005 0 0,0 0.9250167377734094,-0.16904089626990315 l 5.759941502536689 33.129231231961285" fill="#78ff26" stroke="none" /><path d="M 96.40284397218896 79.31037775812273 l -3.3007511594031156 -18.984801903087305 a40.269604601957155,40.269604601957155 0 0,0 0.683951992469202,-0.11285793908422728 l 2.9734699607950277 19.03880610511116" fill="#ffd714" stroke="none" /><path d="M 96.75951476605007 79.25152402106235 l -2.4198957391359683 -15.494330320954692 a36.6821608040201,36.6821608040201 0 0,0 0.624698979448665,-0.09206439082219835 l 2.1528277792586548 15.533689195937859" fill="#ffa60f" stroke="none" /><path d="M 97.11714578562143 79.19881850522333 l -4.104244072547507 -29.614097523944757 a50.89715022480826,50.89715022480826 0 0,0 0.8688513674531779,-0.11280184369663872 l 3.5938779765864717 29.680357690805533" fill="#a2ff22" stroke="none" /><path d="M 97.47563105711357 79.15227682838746 l -4.903334158360212 -40.49461685839026 a61.79039936524729,61.79039936524729 0 0,0 1.0570080407347053,-0.11876716928805443 l 4.205559414115789 40.57301998114891" fill="#30ff35" stroke="none" /><path d="M 97.83486435360386 79.11191278185805 l -3.0858213974945388 -29.77037794272277 a50.92987966146522,50.92987966146522 0 0,0 0.8727801890704454,-0.08288099549228357 l 2.572916081333857 29.819084482730236" fill="#a2ff22" stroke="none" /><path d="M 98.19473922651362 79.07773832637324 l -2.5712790896625815 -29.800112393707423 a50.91083708013754,50.91083708013754 0 0,0 0.8737507214979727,-0.06781987233727452 l 2.0579381788022744 29.839957528233157" fill="#a2ff22" stroke="none" /><path d="M 99.27714615592234 79.0124445844662 l -1.0288725318559964 -29.872593823445627 a50.89030679714361,50.89030679714361 0 0,0 0.8757334001547002,-0.02261761006080139 l 0.5145124965064171 29.885878225648785" fill="#a2ff22" stroke="none" /><path d="M 99.63851952072746 79.00311137660856 l -0.515014419943651 -29.915032858093337 a50.919465749801645,50.919465749801645 0 0,0 0.8764948992161794,-0.007544268316868921 l 7.32815559253869e-15 29.919465749801645" fill="#a2ff22" stroke="none" /></svg>