<?xml version="1.0" encoding="utf-8" ?>
<svg baseProfile="full" height="200mm" version="1.1" viewBox="0,0,200,200" width="200mm" xmlns="http://www.w3.org/2000/svg" xmlns:ev="http://www.w3.org/2001/xml-events" xmlns:xlink="http://www.w3.org/1999/xlink"><defs /><rect fill="#1a1a1a" height="200" width="200" x="0" y="0" /><text alignment-baseline="middle" fill="#e1ed5e" style="dominant-baseline: central; font-size:9.0px; font-family:Arial;" text-anchor="middle" x="100.0" y="100.0">2023</text><line stroke="#e1ed5e" stroke-width="0.3" x1="100.0" x2="100.0" y1="15.0" y2="10.0" /><path d="M 100.0 14.0 a86.0,86.0 0 0,1 42.46469731375804,11.215312516191453" fill="none" id="id37" stroke="none" /><text fill="#e1ed5e" style="font-size:6.75px; font-family:Arial;" text-anchor="middle"><textPath startOffset="22.20632615414155" xlink:href="#id37">January</textPath></text><path d="M 100.0 79.0 l 0.0 -10.854712230215831 a31.85471223021583,31.85471223021583 0 0,0 0.5483265068603281,0.004719619357403222 l -0.18684602758779972 10.853103987466987" fill="#ff870c" stroke="none" /><path d="M 100.36148047927253 79.00311137660856 l 0.18687389093409504 -10.854722452674334 a31.856330935251798,31.856330935251798 0 0,0 0.5481918809722746,0.014158178961927795 l -0.3736924071012374 10.849897481570048" fill="#ff870c" stroke="none" /><path d="M 101.08401301168833 79.027996857942 l 0.5601996533065186 -10.837977738870526 a31.852446043165468,31.852446043165468 0 0,0 0.5473129223648875,0.03301541012380866 l -0.746674624511018 10.826729059366414" fill="#ff870c" stroke="none" /><path d="M 101.44485096284872 79.0497635885617 l 0.7051927009270723 -10.225244111623832 a31.249532374100717,31.249532374100717 0 0,0 0.5363160974030966,0.041628451185645586 l -0.88109898769251 10.211590398249722" fill="#ff7e0b" stroke="none" /><path d="M 101.80526077348638 79.07773832637324 l 0.9317038053665502 -10.798080313098819 a31.83820143884892,31.83820143884892 0 0,0 0.54560803316576,0.05181205703755864 l -1.1174369656225542 10.780442711546081" fill="#ff860c" stroke="none" /><path d="M 102.16513564639614 79.11191278185805 l 1.1181712870648057 -10.78752705767351 a31.845323741007192,31.845323741007192 0 0,0 0.5447571726324772,0.06120981567741879 l -1.3036951632070082 10.76668128852549" fill="#ff870c" stroke="none" /><path d="M 102.52436894288641 79.15227682838746 l 1.3024368703629179 -10.756289566286812 a31.83485611510791,31.83485611510791 0 0,0 0.5434441446351483,0.07055464692502662 l -1.4873957435059122 10.732276596197648" fill="#ff860c" stroke="none" /><path d="M 103.2404852339499 79.25152402106235 l 1.6741951974374276 -10.719690518614549 a31.849640287769784,31.849640287769784 0 0,0 0.5409445945538149,0.08926049309352094 l -1.8584689981301177 10.689283762581404" fill="#ff870c" stroke="none" /><path d="M 103.59715602781102 79.31037775812273 l 1.8532932340613248 -10.65951452194561 a31.819424460431655,31.819424460431655 0 0,0 0.5388163134203425,0.09846523725036607 l -2.0365046685845685 10.626033803344505" fill="#ff860c" stroke="none" /><path d="M 103.95276090670814 79.375362276772 l 2.0426795879866195 -10.658253175738446 a31.852230215827337,31.852230215827337 0 0,0 0.5375952534226383,0.10783655040301583 l -2.225841250876383 10.621512669258221" fill="#ff870c" stroke="none" /><path d="M 105.36241919743992 79.69619591428918 l 0.32593368071592704 -1.2340873315816416 a22.27640287769784,22.27640287769784 0 0,0 0.3698966049502971,0.1011067150581185 l -0.34712817488993497 1.2282940756972296" fill="#ff0000" stroke="none" /><path d="M 106.40334571778207 80.00007090966166 l 1.6595392493865408 -5.183332085005775 a26.44251798561151,26.44251798561151 0 0,0 0.43229384036305996,0.1425204824761681 l -1.7485159119920184 5.153997878270371" fill="#ff3c05" stroke="none" /><path d="M 106.74666289553966 80.11325718540242 l 2.088934632296766 -6.157430189146702 a27.502122302158273,27.502122302158273 0 0,0 0.44699853657997185,0.15594901236641012 l -2.194615172940012 6.120560323608084" fill="#ff4b07" stroke="none" /><path d="M 107.08798089147638 80.2323363322302 l 1.8384678083107417 -5.1273012519562196 a26.446942446043167,26.446942446043167 0 0,0 0.4272033479511091,0.15734259836775424 l -1.9264534820344272 5.094895385782141" fill="#ff3c05" stroke="none" /><path d="M 107.76421540070413 80.48803036053334 l 1.8502452466200083 -4.6497845840731085 a26.004388489208633,26.004388489208633 0 0,0 0.4144803947061044,0.16907695998354658 l -1.9300095109145001 4.617246737905982" fill="#ff3605" stroke="none" /><path d="M 108.09893153111575 80.62456947434976 l 2.1174169553369784 -5.065589819391096 a26.490323741007195,26.490323741007195 0 0,0 0.41919832573950044,0.17947884601376154 l -2.204299038866794 5.028391445414544" fill="#ff3d05" stroke="none" /><path d="M 108.43124777332544 80.76684994638697 l 1.9131913626644634 -4.36432394690362 a25.765251798561152,25.765251798561152 0 0,0 0.4046590840653057,0.18155873549092513 l -1.9880325651965494 4.330744880896163" fill="#ff3204" stroke="none" /><path d="M 108.76106565485865 80.91482961587045 l 2.0427779703163225 -4.450002677335531 a25.896474820143883,25.896474820143883 0 0,0 0.4035186100801144,0.18945739802645392 l -2.119074791696035 4.414180296669074" fill="#ff3405" stroke="none" /><path d="M 109.08828744355905 81.06846463323043 l 2.3576773638910167 -4.91120606331258 a26.447805755395684,26.447805755395684 0 0,0 0.4087177567691796,0.20055602820490737 l -2.441866387670628 4.869894874972841" fill="#ff3c05" stroke="none" /><path d="M 109.41281617654863 81.2277094730956 l 2.437851671624103 -4.8618881940184036 a26.438848920863308,26.438848920863308 0 0,0 0.40506773145300556,0.2074914249662763 l -2.5211798906658642 4.819204243739627" fill="#ff3c05" stroke="none" /><path d="M 109.73455568895987 81.39251694778311 l 5.1002868907244086 -9.74913544212708 a32.002661870503594,32.002661870503594 0 0,0 0.48591463150902925,0.25955876786275844 l -5.267346568761749 9.659897947762568" fill="#ff890c" stroke="none" /><line stroke="#e1ed5e" stroke-width="0.3" x1="143.23703022742887" x2="145.7803849466894" y1="26.81831364943548" y2="22.513508569990506" /><path d="M 143.74570117128098 25.957352633546492 a86.0,86.0 0 0,1 28.547481713284135,27.462654790039103" fill="none" id="id38" stroke="none" /><text fill="#e1ed5e" style="font-size:6.75px; font-family:Arial;" text-anchor="middle"><textPath startOffset="19.985693538727396" xlink:href="#id38">February</textPath></text><path d="M 110.68208982089419 81.91981866633111 l 5.542610346327485 -9.381254211835634 a31.896258992805755,31.896258992805755 0 0,0 0.4702996061866415,0.2833502505092414 l -5.703272018731764 9.284457351867777" fill="#ff870c" stroke="none" /><path d="M 110.99172775467656 82.1063720568725 l 5.724170987227295 -9.318479152170744 a31.936187050359713,31.936187050359713 0 0,0 0.46593505040415045,0.2917684858181153 l -5.883725190003709 9.218566325029684" fill="#ff880c" stroke="none" /><path d="M 111.2981086023043 82.29822771554956 l 5.821370777676499 -9.120870007283026 a31.820287769784173,31.820287769784173 0 0,0 0.4591712592037044,0.29865775966561303 l -5.977509062664484 9.019313323457885" fill="#ff860c" stroke="none" /><path d="M 112.77801427241765 83.33499621200491 l 6.575621301482261 -8.575882884570426 a31.806690647482014,31.806690647482014 0 0,0 0.4316129220308283,0.3368807317757887 l -6.72226677867252 8.461423763571412" fill="#ff860c" stroke="none" /><path d="M 113.34407831869373 83.78471172551755 l 3.473917531877406 -4.221391157623616 a26.46701438848921,26.46701438848921 0 0,0 0.349292074141161,0.2925220669909274 l -3.546067142977684 4.16096793323887" fill="#ff3c05" stroke="none" /><path d="M 113.6212207817346 84.01681056812373 l 7.039987269087986 -8.260746369423535 a31.853633093525183,31.853633093525183 0 0,0 0.4142583206415421,0.35924073349106733 l -7.181139388376292 8.138340642512796" fill="#ff870c" stroke="none" /><path d="M 113.89432698308785 84.25364557470407 l 7.199774636796568 -8.159459853740966 a31.88179856115108,31.88179856115108 0 0,0 0.40837397660131497,0.3666421883207415 l -7.339159600993873 8.034318656650926" fill="#ff870c" stroke="none" /><path d="M 114.42810811169701 84.74124197986012 l 7.4622086182834995 -7.891820238710269 a31.861187050359714,31.861187050359714 0 0,0 0.39525586214370173,0.3802358262214319 l -7.5969477240396195 7.762201325726536" fill="#ff870c" stroke="none" /><path d="M 114.68862486808459 84.99185889309783 l 7.5874371036214345 -7.752483824290412 a31.847589928057555,31.847589928057555 0 0,0 0.38848630431048103,0.3868180206592309 l -7.719759208099238 7.620729952981063" fill="#ff870c" stroke="none" /><path d="M 114.94478906791727 85.2469230424477 l 7.723368689528795 -7.624293131896811 a31.852661870503596,31.852661870503596 0 0,0 0.38183110899938694,0.39351052172591905 l -7.853464062231291 7.490218414620777" fill="#ff870c" stroke="none" /><path d="M 115.4437574822437 85.77008943001954 l 7.9821846226314035 -7.354801670753523 a31.853956834532376,31.853956834532376 0 0,0 0.3680745332115036,0.4064370927737642 l -8.107602796458943 7.21631179071021" fill="#ff870c" stroke="none" /><path d="M 115.68641384162765 86.03803664274999 l 8.110343485413798 -7.21875118821353 a31.857625899280574,31.857625899280574 0 0,0 0.36106543672008795,0.4127602106428724 l -8.233400785711734 7.07807542136771" fill="#ff870c" stroke="none" /><path d="M 116.15771136456269 86.58626213691792 l 9.179257268687044 -7.620395488064294 a32.9301798561151,32.9301798561151 0 0,0 0.35831408349130317,0.43925069882620343 l -9.309069844254756 7.461260619629989" fill="#ff950d" stroke="none" /><path d="M 116.38621287248628 86.86637796730983 l 10.146821292704743 -8.132722107827501 a34.00381294964029,34.00381294964029 0 0,0 0.3621340004968178,0.45987340534742915 l -10.285309373795524 7.9568563085270325" fill="#ffa30f" stroke="none" /><path d="M 116.60985879189232 87.15038557335679 l 8.585060724594625 -6.641520648821314 a31.854172661870507,31.854172661870507 0 0,0 0.3317749507336369,0.4365769449428816 l -8.698111615552374 6.492758927997399" fill="#ff870c" stroke="none" /><path d="M 117.04232023915458 87.72973835380427 l 7.896917269296234 -5.6856836236421495 a30.730791366906477,30.730791366906477 0 0,0 0.3053870638911031,0.43194834454015724 l -7.99361695299122 5.5489087787701985" fill="#ff770b" stroke="none" /><path d="M 117.2510076193507 88.02491185347247 l 8.915384564635662 -6.188769860720831 a31.852877697841727,31.852877697841727 0 0,0 0.3087841236822198,0.4531025995440603 l -9.020593153986615 6.034389237906365" fill="#ff870c" stroke="none" /><path d="M 117.65298651832404 88.62581576622439 l 9.11169875563484 -5.870855915608209 a31.83928057553957,31.83928057553957 0 0,0 0.2928795410750681,0.46326509880683325 l -9.211405892955863 5.71314316908717" fill="#ff860c" stroke="none" /><line stroke="#e1ed5e" stroke-width="0.3" x1="172.23445277983987" x2="176.4835382374775" y1="55.19839476539836" y2="52.563006222186495" /><path d="M 173.08426987136738 54.67131705675599 a86.0,86.0 0 0,1 12.851231095245387,41.99856678651699" fill="none" id="id39" stroke="none" /><text fill="#e1ed5e" style="font-size:6.75px; font-family:Arial;" text-anchor="middle"><textPath startOffset="22.20632615414155" xlink:href="#id39">March</textPath></text><path d="M 117.84615892207809 88.93136811851018 l 9.223694614926874 -5.720764940269696 a31.853741007194245,31.853741007194245 0 0,0 0.28499117622543163,0.4684505603303192 l -9.32080158943853 5.561146606732295" fill="#ff870c" stroke="none" /><path d="M 118.03404312379186 89.2402003453031 l 9.315519264371439 -5.557994969628917 a31.847589928057555,31.847589928057555 0 0,0 0.27683187775253104,0.4731954154506992 l -9.409810816594296 5.396820141824322" fill="#ff870c" stroke="none" /><path d="M 118.3937258080291 89.86733742301442 l 9.502448287043112 -5.234670949907977 a31.848884892086332,31.848884892086332 0 0,0 0.2603902659473629,0.4824636163727722 l -9.59114665220894 5.070326350202746" fill="#ff870c" stroke="none" /><path d="M 118.56541770881063 90.18545643968196 l 20.24613180837958 -10.703047228879829 a43.90111510791367,43.90111510791367 0 0,0 0.34742624784224535,0.6711169272775606 l -20.427367489381943 10.352957579341924" fill="#dfff1b" stroke="none" /><path d="M 118.89224826269711 90.83032412892265 l 9.76766126519261 -4.740901483765845 a31.857410071942446,31.857410071942446 0 0,0 0.23520144747989452,0.49539423224010687 l -9.84782090651426 4.572064835885198" fill="#ff870c" stroke="none" /><path d="M 119.04729006885535 91.15688171328212 l 9.83480297445281 -4.56602097806334 a31.843057553956832,31.843057553956832 0 0,0 0.22653709616018775,0.4991444627589566 l -9.911942387576344 4.39605450646232" fill="#ff860c" stroke="none" /><path d="M 119.34039704204932 91.81776055985345 l 9.98485266817332 -4.224238785168361 a31.841654676258994,31.841654676258994 0 0,0 0.20921227614202095,0.5066241212467917 l -10.056086631201538 4.051740093468267" fill="#ff860c" stroke="none" /><path d="M 119.47837535516314 92.15188598940014 l 10.061691919073528 -4.053998543543259 a31.84769784172662,31.84769784172662 0 0,0 0.20049862267118607,0.5102471252679668 l -10.129984091626413 3.8802024133795086" fill="#ff870c" stroke="none" /><path d="M 119.61058180528143 92.48833698450437 l 10.115774985590726 -3.8747597387382697 a31.83248201438849,31.83248201438849 0 0,0 0.19159426967729742,0.5133773880572983 l -10.180973843769648 3.700059213651638" fill="#ff860c" stroke="none" /><path d="M 119.85752413597 93.16781622104841 l 10.260401088755305 -3.530195678178733 a31.85071942446043,31.85071942446043 0 0,0 0.1739090325964135,0.5199658719037976 l -10.31964741512349 3.3530567033526215" fill="#ff870c" stroke="none" /><path d="M 119.97218684219823 93.5106431181261 l 10.318518463143716 -3.3526898846182918 a31.84953237410072,31.84953237410072 0 0,0 0.16492676143954468,0.5228629040651237 l -10.374700708351467 3.174576814126749" fill="#ff870c" stroke="none" /><path d="M 120.08093135843002 93.85539295169968 l 10.379137913122348 -3.1759345638856247 a31.854172661870507,31.854172661870507 0 0,0 0.15592481438218653,0.5257009597193516 l -10.432268624616235 2.996804217419743" fill="#ff870c" stroke="none" /><path d="M 120.28053869075195 94.5502522615342 l 10.483871277870373 -2.817205926240719 a31.855791366906477,31.855791366906477 0 0,0 0.13774393844235489,0.5307835841071737 l -10.53081154818303 2.636325916584695" fill="#ff870c" stroke="none" /><path d="M 120.37134235888165 94.90015583598534 l 10.524949291389106 -2.6348583355303017 a31.84974820143885,31.84974820143885 0 0,0 0.12856256987780829,0.5329748517102324 l -10.568744661527735 2.453298252160663" fill="#ff870c" stroke="none" /><path d="M 120.53481517161879 95.60439243477599 l 10.610357993351846 -2.271214494775308 a31.85071942446043,31.85071942446043 0 0,0 0.11014388905800956,0.5371007198528726 l -10.647881178324852 2.0882381187590235" fill="#ff870c" stroke="none" /><path d="M 120.6074358757038 95.95851677861258 l 10.644174804965916 -2.087511233287551 a31.846942446043165,31.846942446043165 0 0,0 0.10087030107061601,0.5388531817555796 l -10.678530829946391 1.903979974069409" fill="#ff870c" stroke="none" /><path d="M 120.83666639777658 97.38593545837742 l 10.761185232833204 -1.350044781922673 a31.845539568345323,31.845539568345323 0 0,0 0.06355406293902828,0.5444923994494312 l -10.782829648775822 1.1646086441483892" fill="#ff870c" stroke="none" /><path d="M 120.91429891909075 98.10471618934814 l 10.810306634510088 -0.9796455158182346 a31.854604316546762,31.854604316546762 0 0,0 0.04478683977008542,0.5465128861002444 l -10.825567958099668 0.7934187125102213" fill="#ff870c" stroke="none" /><path d="M 120.96714384426684 98.82574320788733 l 10.863587936207061 -0.6084110461374308 a31.88061151079137,31.88061151079137 0 0,0 0.02596963001234757,0.5481778443149387 l -10.872451174452904 0.4213220951994925" fill="#ff870c" stroke="none" /><path d="M 120.98425023603335 99.18683210126433 l 8.520187892598683 -0.3301687316690718 a29.52658273381295,29.52658273381295 0 0,0 0.015309259737449062,0.5080397993453429 l -8.524608846791777 0.18345878489872977" fill="#ff6709" stroke="none" /><line stroke="#e1ed5e" stroke-width="0.3" x1="184.98032266829074" x2="189.97916517819016" y1="98.17113171792111" y2="98.06355123074" /><path d="M 185.9800911702706 98.14961562048488 a86.0,86.0 0 0,1 -9.607161424134198,41.387399972396054" fill="none" id="id40" stroke="none" /><text fill="#e1ed5e" style="font-size:6.75px; font-family:Arial;" text-anchor="middle"><textPath startOffset="21.466115282336823" xlink:href="#id40">April</textPath></text><path d="M 120.99513854157772 99.54816195383933 l 10.89632585891666 -0.2345006953239607 a31.89884892086331,31.89884892086331 0 0,0 0.007089128612701716,0.549060823547582 l -10.898747994647078 0.04690361371591598" fill="#ff870c" stroke="none" /><path d="M 120.99980553446 99.90962569577887 l 10.890222893736377 -0.04686692527792283 a31.890323741007194,31.890323741007194 0 0,0 -0.0023624696705957762,0.5489547509233387 l -10.889416126776279 -0.14059730384910055" fill="#ff870c" stroke="none" /><path d="M 120.9904718944345 100.63252640178507 l 10.825625543376823 0.32621915345506175 a31.830539568345323,31.830539568345323 0 0,0 -0.021217126864391325,0.5475197681860622 l -10.81840628366123 -0.51251616865513" fill="#ff860c" stroke="none" /><path d="M 120.9764740272857 100.99374915477107 l 10.818945247536545 0.5125417017783256 a31.831079136690647,31.831079136690647 0 0,0 -0.03063915545430245,0.5470827028570033 l -10.808519741194713 -0.6986961209707523" fill="#ff860c" stroke="none" /><path d="M 120.95626037817324 101.35467743843564 l 10.807873607781206 0.6986543529099579 a31.83043165467626,31.83043165467626 0 0,0 -0.040050930643626054,0.5464631280197311 l -10.794246118473241 -0.8845906174264592" fill="#ff860c" stroke="none" /><path d="M 120.89721153311464 102.0752229133903 l 10.794279579122051 1.07193901352045 a31.847374100719424,31.847374100719424 0 0,0 -0.05886865551547312,0.5450506376242664 l -10.774228622105527 -1.2575859730295078" fill="#ff870c" stroke="none" /><path d="M 120.8583938346157 102.4346265915055 l 30.339423476173238 3.5412682180472776 a51.545395683453236,51.545395683453236 0 0,0 -0.110450714810925,0.8804008704707537 l -30.273971252115466 -4.062986842805426" fill="#88ff25" stroke="none" /><path d="M 120.81339534386255 102.79330883721812 l 17.714274359876107 2.377384290110035 a38.873093525179854,38.873093525179854 0 0,0 -0.09471327238743986,0.6624244064816497 l -17.670727036472066 -2.6819541685720942" fill="#ffe215" stroke="none" /><path d="M 120.76222939487914 103.15116336523771 l 10.71740733388695 1.626622108760832 a31.840143884892086,31.840143884892086 0 0,0 -0.08690577087457928,0.5411623181940416 l -10.687819808651081 -1.8108636566480785" fill="#ff860c" stroke="none" /><path d="M 120.70491114924044 103.5080841355445 l 10.68728782223923 1.8107735208789224 a31.83960431654676,31.83960431654676 0 0,0 -0.09620648420940076,0.539577055253937 l -10.65453489569064 -1.9944693268660778" fill="#ff860c" stroke="none" /><path d="M 120.64145759157962 103.86396538481128 l 10.654322753269348 1.994429614991619 a31.83938848920863,31.83938848920863 0 0,0 -0.10547944720038632,0.5378374288141736 l -10.618413373093297 -2.1775307708737373" fill="#ff860c" stroke="none" /><path d="M 120.5718875245553 104.21870165774334 l 29.859999599555046 6.123425945261256 a51.48140287769784,51.48140287769784 0 0,0 -0.18549475412167757,0.8665697368730882 l -29.750170806708923 -6.636509501550513" fill="#89ff24" stroke="none" /><path d="M 120.49622156327973 104.57218783832717 l 8.915435080508427 1.988807728421787 a30.134568345323743,30.134568345323743 0 0,0 -0.11729440773684952,0.5053012386504897 l -8.879880106841025 -2.141977624420842" fill="#ff6f0a" stroke="none" /><path d="M 120.41448212921028 104.9243191809786 l 9.662680033090597 2.330802237619517 a30.93982014388489,30.93982014388489 0 0,0 -0.12934124506565978,0.516653979929147 l -9.621127473729876 -2.4967840569460598" fill="#ff7a0b" stroke="none" /><path d="M 120.32669344350535 105.2749913415812 l 28.38467103346309 7.3661215165809 a50.324892086330934,50.324892086330934 0 0,0 -0.22481309211957987,0.8366131483000109 l -28.253669865001733 -7.8536255980564595" fill="#96ff23" stroke="none" /><path d="M 120.23288151984713 105.62410040840565 l 12.407351918239657 3.448850966786644 a33.87776978417266,33.87776978417266 0 0,0 -0.16101194620657386,0.5605037075279782 l -12.346147335146982 -3.661912149819204" fill="#ffa20e" stroke="none" /><path d="M 120.13307415673323 105.97154293290107 l 10.391190658550727 3.0820648977118097 a31.83863309352518,31.83863309352518 0 0,0 -0.16036547529977194,0.5240836519639577 l -10.336598410744822 -3.2604755222278246" fill="#ff860c" stroke="none" /><path d="M 120.02730092923936 106.31721596034902 l 10.334540106435549 3.2598262708444388 a31.836474820143884,31.836474820143884 0 0,0 -0.16935147322553365,0.5212102411426043 l -10.276896382193767 -3.437235411964838" fill="#ff860c" stroke="none" /><path d="M 119.79798401119884 107.00284435728193 l 10.225668915465603 3.6169727091200587 a31.846510791366907,31.846510791366907 0 0,0 -0.18725102163662144,0.5152343904302346 l -10.161893632823753 -3.7924548965564244" fill="#ff870c" stroke="none" /><path d="M 119.67450827220406 107.3425965602758 l 10.13550593159536 3.7826069124750674 a31.818345323741006,31.818345323741006 0 0,0 -0.19591876496328126,0.5114820725552288 l -10.068892887038572 -3.95651255186344" fill="#ff860c" stroke="none" /><path d="M 119.41010516605496 108.01547362559984 l 10.026226985055729 4.140366951928548 a31.84748201438849,31.84748201438849 0 0,0 -0.2136041234867718,0.504897050284696 l -9.953471880376648 -4.312338527879407" fill="#ff870c" stroke="none" /><path d="M 119.26925614724726 108.34839909993367 l 11.135768480572603 4.824568154052111 a33.135971223021585,33.135971223021585 0 0,0 -0.23125580946770477,0.5214208005989482 l -11.051071586373624 -5.0155372911437475" fill="#ff980e" stroke="none" /><path d="M 119.12269723197855 108.67885076344098 l 9.082200251636099 4.121963530114437 a30.973812949640287,30.973812949640287 0 0,0 -0.22452383543763743,0.4836043669545782 l -9.00990179935863 -4.277687964347845" fill="#ff7b0b" stroke="none" /><line stroke="#e1ed5e" stroke-width="0.3" x1="174.80103733775053" x2="179.2010983576182" y1="140.37084112569926" y2="142.7455964860345" /><path d="M 175.68104954172406 140.8457921977663 a86.0,86.0 0 0,1 -30.038265399797805,32.042727171017184" fill="none" id="id41" stroke="none" /><text fill="#e1ed5e" style="font-size:6.75px; font-family:Arial;" text-anchor="middle"><textPath startOffset="22.206326154141568" xlink:href="#id41">May</textPath></text><path d="M 118.48025628344425 109.97397251340804 l 3.8041218201552414 2.053121227862794 a25.322805755395684,25.322805755395684 0 0,0 -0.2103283191722902,0.3818069932878102 l -3.7682170915314415 -2.1182987395484094" fill="#ff2c04" stroke="none" /><path d="M 118.30583269289576 110.29060199501025 l 6.879926442242122 3.8675424363261257 a28.892482014388488,28.892482014388488 0 0,0 -0.2474407245948117,0.4314337601718 l -6.812333721494931 -3.985396042356241" fill="#ff5e08" stroke="none" /><path d="M 118.12598468904814 110.60418214915192 l 10.774062944410064 6.303112791327871 a33.482374100719426,33.482374100719426 0 0,0 -0.29531314335617187,0.49496181464521316 l -10.663968925355665 -6.487636699859189" fill="#ff9c0e" stroke="none" /><path d="M 117.75023020441432 111.22182372390056 l 25.982013479120294 16.426016558488698 a51.73888489208633,51.73888489208633 0 0,0 -0.4823915255316719,0.7486823601359669 l -25.69541709021157 -16.870820518546118" fill="#86ff25" stroke="none" /><path d="M 117.35343817320211 111.8261652097733 l 8.944154652281592 6.095336815904684 a31.82363309352518,31.82363309352518 0 0,0 -0.31238546936687156,0.45001456743222057 l -8.837908275752584 -6.248392645523924" fill="#ff860c" stroke="none" /><path d="M 116.0416608686014 113.55231037782055 l 8.278189453991212 6.993577146770277 a31.836906474820147,31.836906474820147 0 0,0 -0.35726692775647334,0.41558215031432527 l -8.15658001666396 -7.13503639624613" fill="#ff860c" stroke="none" /><path d="M 115.80600337817218 113.82643327865902 l 7.119605478487576 6.227934270508 a30.459172661870504,30.459172661870504 0 0,0 -0.3485996474435163,0.3916553993822802 l -7.011346981395721 -6.349563839631147" fill="#ff740a" stroke="none" /><path d="M 115.56566222782051 114.09645910891815 l 17.429942235753774 15.784774486367054 a44.51514388489208,44.51514388489208 0 0,0 -0.5192449711043613,0.5635378640065045 l -17.15565085665369 -16.082463605174894" fill="#d8ff1c" stroke="none" /><path d="M 115.32070863581623 114.36230785411682 l 7.899848643037372 7.405666468128418 a31.828273381294963,31.828273381294963 0 0,0 -0.37814027093106606,0.39647856228634215 l -7.771201820727342 -7.540552146997267" fill="#ff860c" stroke="none" /><path d="M 115.07121518719521 114.62390073753431 l 7.76523839025759 7.53476571145364 a31.81996402877698,31.81996402877698 0 0,0 -0.38480848454778777,0.389808963218866 l -7.634389280654267 -7.667315168653171" fill="#ff860c" stroke="none" /><path d="M 114.81725581225074 114.88116024355365 l 7.636064407210637 7.668997519759842 a31.822338129496405,31.822338129496405 0 0,0 -0.391490598631856,0.38315594860982277 l -7.502923856202987 -7.799303571292237" fill="#ff860c" stroke="none" /><path d="M 114.55890576462653 115.13401014063108 l 14.643146915145385 15.221578976285498 a42.1215107913669,42.1215107913669 0 0,0 -0.5268481660101418,0.4981678251670681 l -14.378962914744434 -15.471381438198488" fill="#f4ff19" stroke="none" /><path d="M 114.29624159901734 115.38237550388516 l 7.374906502572219 7.935203133137305 a31.83312949640288,31.83312949640288 0 0,0 -0.40458460021283765,0.3695784396861442 l -7.237222352892517 -8.060974339410032" fill="#ff860c" stroke="none" /><path d="M 114.0293411484842 115.62618273729858 l 42.088023445452606 46.878548211895726 a84.0,84.0 0 0,0 -1.0842305883736492,0.9567074329108447 l -41.27485050417237 -47.59607878657886" fill="#4dd2ff" stroke="none" /><path d="M 113.48314897796784 116.09983520530334 l 39.38589946827244 47.029554586098065 a82.34352517985612,82.34352517985612 0 0,0 -1.0945017904109633,0.9007004602057042 l -38.570527549316786 -47.70055016516095" fill="#4be1ff" stroke="none" /><path d="M 112.92097659922987 116.55440617244103 l 20.113033861693303 25.768898298784652 a53.6889928057554,53.6889928057554 0 0,0 -0.7334204586709866,0.5623555330561656 l -19.666484674528824 -26.11129317366819" fill="#72ff27" stroke="none" /><path d="M 112.63410532772338 116.77436683061366 l 6.515263987425609 8.650349612294823 a31.829460431654674,31.829460431654674 0 0,0 -0.44048188499554575,0.325857968085092 l -6.365397132011498 -8.761217529119683" fill="#ff860c" stroke="none" /><path d="M 112.34349029814194 116.9893568818739 l 1.2723436376692152 1.7512307795144326 a23.164640287769785,23.164640287769785 0 0,0 -0.32460574270959036,0.2315975786062782 l -1.2420105671107402 -1.7728726199649303" fill="#ff0d01" stroke="none" /><path d="M 112.04921762599082 117.19931262002967 l 8.94118819148807 12.762844499397557 a36.583165467625896,36.583165467625896 0 0,0 -0.5188592368206787,0.3568761142963804 l -8.720172070044509 -12.914861403059032" fill="#ffc512" stroke="none" /><path d="M 111.7513745106137 117.40417183066458 l 12.700361409042763 18.80965261339271 a43.69586330935252,43.69586330935252 0 0,0 -0.6269842464527617,0.41553097014290236 l -12.374702463850037 -19.02548160462693" fill="#e2ff1b" stroke="none" /><path d="M 111.45004920935366 117.60387380957326 l 10.90767226376363 16.769996580505197 a41.005251798561154,41.005251798561154 0 0,0 -0.5950022111747342,0.37975856272698594 l -10.617388250541966 -16.95526957205599" fill="#fffc17" stroke="none" /><path d="M 111.1453310114006 117.79835938074945 l 5.752159171629023 9.185819249980424 a31.83820143884892,31.83820143884892 0 0,0 -0.466991822852884,0.28686451941293056 l -5.59318814884383 -9.283472236221732" fill="#ff860c" stroke="none" /><line stroke="#e1ed5e" stroke-width="0.3" x1="143.8653032363475" x2="146.44561519142675" y1="172.8068346515853" y2="177.08958963109032" /><path d="M 144.38136562736335 173.6633856474863 a86.0,86.0 0 0,1 -40.68145358897372,12.25698825130547" fill="none" id="id42" stroke="none" /><text fill="#e1ed5e" style="font-size:6.75px; font-family:Arial;" text-anchor="middle"><textPath startOffset="21.466115282336833" xlink:href="#id42">June</textPath></text><path d="M 110.8373102113329 117.98757091392108 l 5.5881203419104715 9.275060782197235 a31.828381294964025,31.828381294964025 0 0,0 -0.4717149939120035,0.27869753305223344 l -5.4276374769700855 -9.369876887543217" fill="#ff860c" stroke="none" /><path d="M 110.5260780823613 118.17145234162733 l 18.260419566640206 31.523454538053887 a57.43035971223022,57.43035971223022 0 0,0 -0.8596811615094601,0.4881493998051813 l -17.715089638209548 -31.833107103653695" fill="#4bff2c" stroke="none" /><path d="M 110.21172684928248 118.3499491758327 l 5.266805697235026 9.464179593683458 a31.830971223021585,31.830971223021585 0 0,0 -0.48106781629774054,0.2623165301766484 l -5.103115069068636 -9.553436775619875" fill="#ff860c" stroke="none" /><path d="M 109.89434966115114 118.52300852407294 l 5.099911862343801 9.547440118184022 a31.824172661870502,31.824172661870502 0 0,0 -0.485408191579272,0.2539426240263476 l -4.934812768238034 -9.633812161155086" fill="#ff860c" stroke="none" /><path d="M 108.92500713936063 119.00905698771935 l 4.614724015186675 9.828737436008906 a31.8581654676259,31.8581654676259 0 0,0 -0.4984012834405868,0.22879158418830883 l -4.4448547359786685 -9.906716090531289" fill="#ff870c" stroke="none" /><path d="M 108.59647513512805 119.15986991738527 l 4.437212443078479 9.889682907100111 a31.8394964028777,31.8394964028777 0 0,0 -0.5019713803953154,0.2200495015862506 l -4.2663203880254095 -9.964596961980815" fill="#ff860c" stroke="none" /><path d="M 108.2653958097858 119.30500536409082 l 4.263941856857126 9.959041564753738 a31.833453237410072,31.833453237410072 0 0,0 -0.5055888189252001,0.211336167315201 l -4.091881578434465 -10.030962775088913" fill="#ff860c" stroke="none" /><path d="M 107.93186726928326 119.44442032107085 l 0.9019747728775404 2.2111283519269107 a23.388021582733813,23.388021582733813 0 0,0 -0.374073501081821,0.1488515660776829 l -0.863780195753853 -2.2263267624106624" fill="#ff1001" stroke="none" /><path d="M 107.59598834532513 119.57807347666477 l 3.9254787458168905 10.117618382601593 a31.852446043165468,31.852446043165468 0 0,0 -0.5128695499438476,0.19392337928584885 l -3.7507389751127684 -10.183690011994074" fill="#ff870c" stroke="none" /><path d="M 106.91757812671514 119.82793768551818 l 3.5706220581502 10.23451710565036 a31.8394964028777,31.8394964028777 0 0,0 -0.5190296812733964,0.17608304813800818 l -3.3939226439395767 -10.29446314068649" fill="#ff860c" stroke="none" /><path d="M 106.57524785965236 119.94407469862006 l 3.3953755507122634 10.298870104777139 a31.84413669064748,31.84413669064748 0 0,0 -0.522059835552207,0.167147073237584 l -3.2175943700691163 -10.35579002467443" fill="#ff860c" stroke="none" /><path d="M 106.2309692047433 120.05430185196036 l 3.219387454732352 10.361561046790102 a31.85017985611511,31.85017985611511 0 0,0 -0.524959253180029,0.1581659166767247 l -3.040553227112077 -10.415442332572553" fill="#ff870c" stroke="none" /><path d="M 105.88484417918355 120.15858648285463 l 6.574483806656733 22.520953208144974 a44.46097122302159,44.46097122302159 0 0,0 -0.7365041011565361,0.20814341572745873 l -6.185848537395591 -22.63078541721095" fill="#d9ff1c" stroke="none" /><path d="M 105.53697534728816 120.25689768951611 l 2.856237067123198 10.449477994164363 a31.832805755395682,31.832805755395682 0 0,0 -0.5298033258874267,0.1399258736743658 l -2.675943298424274 -10.497095217142313" fill="#ff860c" stroke="none" /><path d="M 105.18746579009965 120.34920634021253 l 1.9023817888512942 7.4625956344772195 a28.701258992805755,28.701258992805755 0 0,0 -0.47978489015042064,0.11791945289059108 l -1.7736436139576623 -7.494236345681841" fill="#ff5c08" stroke="none" /><path d="M 104.83641907484287 120.43548508189849 l 2.4948317368445596 10.541496911491349 a31.832697841726617,31.832697841726617 0 0,0 -0.5343040276035219,0.12160585713799546 l -2.3130075598481756 -10.58287950220703" fill="#ff860c" stroke="none" /><path d="M 104.48393922423573 120.51570834832081 l 2.313399270880098 10.584671727499535 a31.834532374100718,31.834532374100718 0 0,0 -0.5363490178742727,0.11239715151937488 l -2.130858791576447 -10.622924859745451" fill="#ff860c" stroke="none" /><path d="M 103.7750983002368 120.6578951692458 l 1.42825199001354 7.815605724257724 a28.94503597122302,28.94503597122302 0 0,0 -0.4908954443775996,0.08534846533803514 l -1.2935075741638906 -7.839032768116764" fill="#ff5f08" stroke="none" /><path d="M 103.41894727170886 120.7198165907248 l 1.7638148686981885 10.689231998934398 a31.833776978417262,31.833776978417262 0 0,0 -0.5414230220274033,0.08455914111385009 l -1.579555983062268 -10.718009447395353" fill="#ff860c" stroke="none" /><path d="M 102.34483914955558 120.86867818915974 l 1.2116649042233365 10.783615995207276 a31.851474820143885,31.851474820143885 0 0,0 -0.5453691473981508,0.056529742007727216 l -1.0258631602195831 -10.802875105670761" fill="#ff870c" stroke="none" /><path d="M 101.98527174616119 120.90594882070398 l 0.9658969355333781 10.171399426492457 a31.217158273381294,31.217158273381294 0 0,0 -0.5353827112438055,0.046195073099077735 l -0.7906699065480308 -10.186518751870198" fill="#ff7e0b" stroke="none" /><path d="M 100.90346689309514 120.98055641714683 l 0.215624955718966 5.00730196422388 a26.011942446043165,26.011942446043165 0 0,0 -0.4475040675793171,0.015412944913569628 l -0.1294005364649966 -5.010271707563544" fill="#ff3605" stroke="none" /><line stroke="#e1ed5e" stroke-width="0.3" x1="102.19456741930631" x2="102.32365962044197" y1="184.97166512339345" y2="189.96999836594603" /><path d="M 102.22038585953345 185.97133177190398 a86.0,86.0 0 0,1 -42.740103519485714,-10.115201625700543" fill="none" id="id43" stroke="none" /><text fill="#e1ed5e" style="font-size:6.75px; font-family:Arial;" text-anchor="middle"><textPath startOffset="22.20632615414155" xlink:href="#id43">July</textPath></text><path d="M 100.54218724476979 120.99299961872073 l 0.2820933923867018 10.922400952704198 a31.926043165467625,31.926043165467625 0 0,0 -0.5494932829631756,0.009460025189697702 l -0.09404041953085826 -10.925638455173056" fill="#ff880c" stroke="none" /><path d="M 100.18074693466247 120.99922214144158 l 0.046618962716229825 5.416202249348589 a26.41640287769784,26.41640287769784 0 0,0 -0.4547317947573668,0.0 l 0.0466189627162261 -5.416202249348589" fill="#ff3c05" stroke="none" /><path d="M 99.45781275523022 120.99299961872073 l -0.2905159619701426 11.248515227356782 a32.25226618705036,32.25226618705036 0 0,0 -0.5548613040834931,-0.019110545208607013 l 0.48409761772827875 -11.241847883722082" fill="#ff8c0c" stroke="none" /><path d="M 99.09653310690486 120.98055641714683 l -0.468488903984261 10.879378044696143 a31.889460431654676,31.889460431654676 0 0,0 -0.5482131289372986,-0.028336356852561567 l 0.6556901013350486 -10.86970188108138" fill="#ff870c" stroke="none" /><path d="M 98.01472825383883 120.90594882070398 l -1.0229760486873885 10.772472312678676 a31.82093525179856,31.82093525179856 0 0,0 -0.544846241050988,-0.05647554062680374 l 1.2082548863439697 -10.753267403596112" fill="#ff860c" stroke="none" /><path d="M 97.65516085044442 120.86867818915974 l -1.209917721917653 10.768066363463044 a31.835827338129498,31.835827338129498 0 0,0 -0.5440478760059791,-0.06587662116997668 l 1.3950930209750214 -10.745644213567719" fill="#ff860c" stroke="none" /><path d="M 97.2962882734958 120.8252237178851 l -2.20527566181592 16.98604128787929 a38.12859712230215,38.12859712230215 0 0,0 -0.6501314517929748,-0.09010229520722184 l 2.497335704795726 -16.945564427179463" fill="#ffd814" stroke="none" /><path d="M 96.93821686468263 120.77559828337769 l -1.58635295281795 10.76412999445815 a31.880395683453237,31.880395683453237 0 0,0 -0.5422159043856826,-0.08468297303176402 l 1.7714047208121497 -10.73522871407928" fill="#ff870c" stroke="none" /><path d="M 96.58105272829116 120.7198165907248 l -1.7633756411452899 10.686570151993148 a31.831079136690647,31.831079136690647 0 0,0 -0.5398415035089023,-0.09385836511210612 l 1.9470661161262421 -10.654633208360035" fill="#ff860c" stroke="none" /><path d="M 96.22490169976321 120.6578951692458 l -3.123864744538187 17.094249019032127 a38.3773381294964,38.3773381294964 0 0,0 -0.6488189477382739,-0.12434769553614737 l 3.4176513068481555 -17.03794412514751" fill="#ffdb14" stroke="none" /><path d="M 95.16358092515715 120.4354850818985 l -1.7450625145945053 7.373471659946059 a28.577158273381293,28.577158273381293 0 0,0 -0.47771035920208993,-0.1174095836565784 l 1.8717261585398057 -7.34234081797545" fill="#ff5a08" stroke="none" /><path d="M 94.81253420990036 120.34920634021253 l -4.95237709121532 19.427008751752435 a41.04830935251798,41.04830935251798 0 0,0 -0.6831798297683602,-0.18043400236667168 l 5.286047363795169 -19.33888340008218" fill="#fffd17" stroke="none" /><path d="M 94.46302465271185 120.25689768951611 l -2.8575174571058666 10.454162271636246 a31.837661870503595,31.837661870503595 0 0,0 -0.5273966783415409,-0.14904756932235036 l 3.0370453035520213 -10.403425908975374" fill="#ff860c" stroke="none" /><path d="M 94.11515582081647 120.15858648285463 l -3.0998250389887394 10.618478455421453 a32.06169064748202,32.06169064748202 0 0,0 -0.528445404516602,-0.1592162654770987 l 3.2821454179455873 -10.56354682083863" fill="#ff890c" stroke="none" /><path d="M 93.76903079525671 120.05430185196036 l -3.215801285405873 10.35001900255876 a31.838093525179854,31.838093525179854 0 0,0 -0.5219607625579886,-0.1671153531934573 l 3.393483393054802 -10.293130802705596" fill="#ff860c" stroke="none" /><path d="M 93.08242187328487 119.8279376855182 l -3.9360877350297314 11.282055786764506 a32.948956834532375,32.948956834532375 0 0,0 -0.5338993099260404,-0.1914372973118849 l 4.129706605585499 -11.212630948412663" fill="#ff950d" stroke="none" /><path d="M 92.7421414339146 119.70592522655815 l -3.7374614948993723 10.147640117951656 a31.814028776978418,31.814028776978418 0 0,0 -0.5122509774802723,-0.19368948810926753 l 3.911582693139928 -10.081802379735755" fill="#ff860c" stroke="none" /><path d="M 92.06813273071674 119.44442032107085 l -4.093308173267067 10.034459972988389 a31.83723021582734,31.83723021582734 0 0,0 -0.5056488060727707,-0.21136124194775135 l 4.265428438837301 -9.962513688020664" fill="#ff860c" stroke="none" /><path d="M 91.7346041902142 119.30500536409082 l -4.26525854375385 9.962116873933011 a31.836798561151078,31.836798561151078 0 0,0 -0.5019288470801537,-0.22003085623081917 l 4.436108065491747 -9.887221464407741" fill="#ff860c" stroke="none" /><path d="M 91.40352486487194 119.15986991738527 l -4.4304536522476745 9.874618877822819 a31.822985611510788,31.822985611510788 0 0,0 -0.49785091636258155,-0.22853893765659714 l 4.599772564377676 -9.796892869832147" fill="#ff860c" stroke="none" /><path d="M 91.07499286063937 119.00905698771935 l -8.940646540360229 19.0423667946711 a42.03679856115107,42.03679856115107 0 0,0 -0.6523457204240375,-0.31316558878768735 l 9.267104928784509 -18.885646929383853" fill="#f5ff19" stroke="none" /><path d="M 90.7491055286396 118.85261126421891 l -4.773480562421286 9.727986163850348 a31.836043165467625,31.836043165467625 0 0,0 -0.48989014017922966,-0.24564108623835124 l 4.940224610283276 -9.644377236702693" fill="#ff860c" stroke="none" /><path d="M 90.10565033884886 118.52300852407294 l -1.8902478795098445 3.5386941824227094 a25.011906474820144,25.011906474820144 0 0,0 -0.3780099307991886,-0.2061211539418127 l 1.9508806221776736 -3.505632376721131" fill="#ff2803" stroke="none" /><line stroke="#e1ed5e" stroke-width="0.3" x1="58.666819895761336" x2="56.23545636021788" y1="174.27360380694188" y2="178.64263932499728" /><path d="M 58.180547188652646 175.14741091055294 a86.0,86.0 0 0,1 -31.652253787137756,-30.449443065178592" fill="none" id="id44" stroke="none" /><text fill="#e1ed5e" style="font-size:6.75px; font-family:Arial;" text-anchor="middle"><textPath startOffset="22.20632615414155" xlink:href="#id44">August</textPath></text><path d="M 89.7882731507175 118.34994917583269 l -2.1010654230134724 3.7755067577141066 a25.320755395683452,25.320755395683452 0 0,0 -0.3790290800533137,-0.21522260370561705 l 2.1657432699879933 -3.7387809882138563" fill="#ff2c04" stroke="none" /><path d="M 88.8546689885994 117.79835938074946 l -5.748150059754416 9.179416962433393 a31.83064748201439,31.83064748201439 0 0,0 -0.46187512097138367,-0.2947905550689384 l 5.905306982772723 -9.07911197854065" fill="#ff860c" stroke="none" /><path d="M 88.54995079064634 117.60387380957326 l -5.901835487894245 9.073774730057789 a31.824280575539568,31.824280575539568 0 0,0 -0.45664099675278297,-0.3026367527752556 l 6.057151183386989 -8.970839956191215" fill="#ff860c" stroke="none" /><path d="M 88.24862548938628 117.40417183066458 l -4.446137980950439 6.584876461337824 a28.945359712230214,28.945359712230214 0 0,0 -0.4105321958286537,-0.28236778772336596 l 4.558827061401983 -6.507367884249358" fill="#ff5f08" stroke="none" /><path d="M 87.65650970185807 116.9893568818739 l -7.63222235418257 10.50485286131283 a33.98471223021583,33.98471223021583 0 0,0 -0.47030800714765486,-0.34792262021135134 l 7.811915331748789 -10.371920292361713" fill="#ffa30f" stroke="none" /><path d="M 87.36589467227662 116.77436683061367 l -6.519289241949343 8.655693963494715 a31.83615107913669,31.83615107913669 0 0,0 -0.43489891142597126,-0.3334619402404902 l 6.667316881868802 -8.542192681426856" fill="#ff860c" stroke="none" /><path d="M 87.07902340077011 116.55440617244103 l -7.987899120214552 10.234127852874336 a33.98244604316547,33.98244604316547 0 0,0 -0.4580227015073642,-0.36388093496468826 l 8.162879314439273 -10.095113003904517" fill="#ffa30f" stroke="none" /><path d="M 86.51685102203217 116.09983520530335 l -8.340013579023578 9.95856713084462 a33.98956834532374,33.98956834532374 0 0,0 -0.44531922324010526,-0.37951070303945 l 8.51019827884074 -9.81353203758222" fill="#ffa30f" stroke="none" /><path d="M 85.97065885151581 115.62618273729859 l -19.348307030262276 21.550561648784463 a49.96176258992806,49.96176258992806 0 0,0 -0.6349912830800879,-0.5800494815956507 l 19.716397862809217 -21.214319400602236" fill="#9aff23" stroke="none" /><path d="M 85.70375840098266 115.38237550388516 l -23.54861341661775 25.337681352219224 a55.59097122302158,55.59097122302158 0 0,0 -0.6953217176999557,-0.6574700838786792 l 23.98127096870852 -24.928576631594613" fill="#5eff2a" stroke="none" /><path d="M 85.44109423537348 115.13401014063109 l -8.254510533034624 8.580579346589158 a32.906438848920864,32.906438848920864 0 0,0 -0.4048276211315105,-0.396209032196876 l 8.400988106541929 -8.437220211469713" fill="#ff950d" stroke="none" /><path d="M 85.18274418774928 114.88116024355367 l -10.024947160826017 10.068183138882418 a35.208021582733814,35.208021582733814 0 0,0 -0.4257812930563035,-0.4313142019186761 l 10.196769078937853 -9.894128442983078" fill="#ffb310" stroke="none" /><path d="M 84.9287848128048 114.62390073753433 l -8.539012855495342 8.285574510367857 a32.89812949640288,32.89812949640288 0 0,0 -0.39085084672567594,-0.40980555019077775 l 8.680370253599975 -8.13736184359458" fill="#ff950d" stroke="none" /><path d="M 84.67929136418377 114.36230785411682 l -10.262670367488125 9.62067974314257 a35.066978417266185,35.066978417266185 0 0,0 -0.4090372535259809,-0.44392915286374107 l 10.426754029009835 -9.442599335477485" fill="#ffb110" stroke="none" /><path d="M 83.95833913139862 113.55231037782056 l -9.910547976704695 8.372625708443472 a33.97381294964029,33.97381294964029 0 0,0 -0.3735566337590817,-0.4499730297554844 l 10.053200610357313 -8.200791421574227" fill="#ffa30f" stroke="none" /><path d="M 83.72743513129214 113.27417163493432 l -10.068670417657984 8.213410752265196 a33.993776978417266,33.993776978417266 0 0,0 -0.3659706703058084,-0.45660468176950675 l 10.208559000018653 -8.03887823691743" fill="#ffa30f" stroke="none" /><path d="M 83.50135304334701 112.99209946851258 l -9.36234628021211 7.372515725122855 a32.916690647482014,32.916690647482014 0 0,0 -0.34671178909356126,-0.448171724622933 l 9.487864886523738 -7.21026600638667" fill="#ff950d" stroke="none" /><path d="M 82.44556493220864 111.52570212397912 l -10.86426486035211 7.1331421428753785 a33.99669064748201,33.99669064748201 0 0,0 -0.31697079476438356,-0.4919457124724903 l 10.985440518493538 -6.94507483048144" fill="#ffa30f" stroke="none" /><path d="M 82.24976979558568 111.22182372390057 l -10.992737632657741 6.949688118754372 a34.005323741007196,34.005323741007196 0 0,0 -0.3085341243905057,-0.4974552479213947 l 11.110736396716204 -6.759436539467712" fill="#ffa30f" stroke="none" /><line stroke="#e1ed5e" stroke-width="0.3" x1="26.63291911575756" x2="22.317208475507996" y1="142.92168965132927" y2="145.44649492493687" /><path d="M 25.769776987707644 143.4266507060508 a86.0,86.0 0 0,1 -11.730757126820373,-40.83630448921669" fill="none" id="id45" stroke="none" /><text fill="#e1ed5e" style="font-size:6.75px; font-family:Arial;" text-anchor="middle"><textPath startOffset="21.46611528233685" xlink:href="#id45">September</textPath></text><path d="M 81.87401531095188 110.60418214915194 l -11.222648464772117 6.565547227249338 a34.002086330935256,34.002086330935256 0 0,0 -0.29120035015586887,-0.5077323558473253 l 11.334000811080363 -6.3713950255437055" fill="#ffa30f" stroke="none" /><path d="M 81.69416730710424 110.29060199501025 l -11.33428301816196 6.371553667917729 a34.00241007194245,34.00241007194245 0 0,0 -0.2824201167642914,-0.5126745463954189 l 11.442279544377767 -6.175508603124488" fill="#ffa30f" stroke="none" /><path d="M 81.18737489456691 109.33194174019688 l -7.036463159938605 3.4904147559196823 a28.854604316546762,28.854604316546762 0 0,0 -0.21688596776370378,-0.446849333094894 l 7.095502384317028 -3.3687764668595035" fill="#ff5e08" stroke="none" /><path d="M 81.02952815118164 109.00673069616217 l -9.798160973919495 4.651934749595371 a31.84640287769784,31.84640287769784 0 0,0 -0.2308490895395619,-0.49722840156909215 l 9.876784680298885 -4.482586280747452" fill="#ff870c" stroke="none" /><path d="M 80.87730276802145 108.67885076344099 l -6.23246633731247 2.8286096136715386 a27.844316546762588,27.844316546762588 0 0,0 -0.1943253728329714,-0.4381524153381739 l 6.280232794876722 -2.7209088618406687" fill="#ff5007" stroke="none" /><path d="M 80.58989483394504 108.01547362559985 l -12.007434173716307 4.958513676621719 a33.99097122302158,33.99097122302158 0 0,0 -0.21867101671821798,-0.5427235304150546 l 12.091007804691912 -4.751090778363858" fill="#ffa30f" stroke="none" /><path d="M 80.45479744820244 107.68017299344265 l -11.098079374953631 4.360925361029975 a32.92413669064749,32.92413669064749 0 0,0 -0.20272758159742632,-0.5292577442441113 l 11.171501236144566 -4.169244049952706" fill="#ff950d" stroke="none" /><path d="M 80.0844068197444 106.66101706037122 l -9.567467338383224 3.199958072486456 a31.08841726618705,31.08841726618705 0 0,0 -0.16537224344158685,-0.5089634311459122 l 9.62113183284106 -3.0347957413627404" fill="#ff7c0b" stroke="none" /><path d="M 79.97269907076064 106.31721596034903 l -10.32960017609329 3.258268067524317 a31.83129496402878,31.83129496402878 0 0,0 -0.1603285144597468,-0.5239628618002182 l 10.384155463059168 -3.0799782331720507" fill="#ff860c" stroke="none" /><path d="M 79.86692584326677 105.97154293290107 l -10.403191874389275 3.085624501926695 a31.85115107913669,31.85115107913669 0 0,0 -0.15137997149290258,-0.5269735399533221 l 10.454764482768281 -2.906093486468777" fill="#ff870c" stroke="none" /><path d="M 79.76711848015287 105.62410040840567 l -14.594915264475949 4.0569243100181795 a36.14827338129496,36.14827338129496 0 0,0 -0.16148281251536636,-0.6009376184504472 l 14.66258615333309 -3.8050957583921936" fill="#ffbf11" stroke="none" /><path d="M 79.58551787078972 104.9243191809786 l -12.312261611392062 2.9699262332720187 a33.66539568345324,33.66539568345324 0 0,0 -0.13103763766139995,-0.5645067134717097 l 12.361559814984016 -2.757550862451735" fill="#ff9f0e" stroke="none" /><path d="M 79.50377843672027 104.57218783832718 l -11.267444966066487 2.513481554823045 a32.54438848920863,32.54438848920863 0 0,0 -0.11726202091243887,-0.5478091231660439 l 11.309041025703367 -2.3191586122408374" fill="#ff900d" stroke="none" /><path d="M 79.4281124754447 104.21870165774334 l -10.600019187948014 2.1737586532558195 a31.820611510791366,31.820611510791366 0 0,0 -0.10541724169338261,-0.5375202442741268 l 10.635866362617064 -1.990974681913738" fill="#ff860c" stroke="none" /><path d="M 79.29508885075956 103.50808413554451 l -10.694203645593293 1.8119452858779534 a31.846618705035972,31.846618705035972 0 0,0 -0.08692344350940782,-0.5412723657079975 l 10.723808843463992 -1.6275936904767423" fill="#ff870c" stroke="none" /><path d="M 79.18660465613746 102.79330883721812 l -12.886443669091875 1.7294543435366168 a34.00197841726619,34.00197841726619 0 0,0 -0.07285893863801059,-0.5807574274941 l 12.914304116976734 -1.5073791617551082" fill="#ffa30f" stroke="none" /><path d="M 79.1416061653843 102.43462659150553 l -10.784089733270918 1.2587369784067994 a31.857302158273384,31.857302158273384 0 0,0 -0.05888700715094025,-0.5452205509767297 l 10.80415904192291 -1.0729201055452877" fill="#ff870c" stroke="none" /><path d="M 79.10278846688536 102.07522291339032 l -10.77580927910306 1.0701047979957752 a31.828812949640287,31.828812949640287 0 0,0 -0.0494489463096889,-0.5456650020131862 l 10.792632821689823 -0.8844584074340228" fill="#ff860c" stroke="none" /><path d="M 79.0235259727143 100.99374915477108 l -11.900106781419765 0.5637611469086203 a32.91345323741007,32.91345323741007 0 0,0 -0.021938959325022808,-0.566147056604445 l 11.908047873595988 -0.35883684329017856" fill="#ff950d" stroke="none" /><line stroke="#e1ed5e" stroke-width="0.3" x1="15.007084014347285" x2="10.007500721073583" y1="101.09737516637583" y2="101.16192664675087" /><path d="M 14.007167355692545 101.11028546245083 a86.0,86.0 0 0,1 10.666146001902534,-42.60595125391555" fill="none" id="id46" stroke="none" /><text fill="#e1ed5e" style="font-size:6.75px; font-family:Arial;" text-anchor="middle"><textPath startOffset="22.20632615414155" xlink:href="#id46">October</textPath></text><path d="M 79.00486145842228 99.54816195383935 l -6.319579856489795 -0.13600418064676242 a27.321043165467625,27.321043165467625 0 0,0 0.014165707894101034,-0.4700908809130372 l 6.3163024541400485 0.244765208984794" fill="#ff4806" stroke="none" /><path d="M 79.05617556472873 98.46500227214037 l -14.027303996768142 -1.028077743374025 a35.064928057553956,35.064928057553956 0 0,0 0.04930048098721334,-0.601590741583199 l 14.00752903196143 1.2693824021650024" fill="#ffb110" stroke="none" /><path d="M 79.08570108090925 98.10471618934814 l -10.792895964289672 -0.9780677358730822 a31.83712230215827,31.83712230215827 0 0,0 0.054157786601881634,-0.5453615201924776 l 10.774461052005561 1.1637047867699901" fill="#ff860c" stroke="none" /><path d="M 79.12142395522702 97.74499172005258 l -10.785404601628208 -1.16488675411097 a31.848129496402876,31.848129496402876 0 0,0 0.06355923165191582,-0.5445366818249581 l 10.763755016972704 1.3503671742607897" fill="#ff870c" stroke="none" /><path d="M 79.21141760316559 97.0276538004421 l -10.72577614794124 -1.5335687331665575 a31.83485611510791,31.83485611510791 0 0,0 0.08223111083106642,-0.5418002777337907 l 10.697789143670871 1.7179681232924402" fill="#ff860c" stroke="none" /><path d="M 79.26566170972629 96.67025291283419 l -10.686708099569186 -1.7161886078912834 a31.82363309352518,31.82363309352518 0 0,0 0.091512855341972,-0.5401140524740526 l 10.655583382706991 1.899888448681164" fill="#ff860c" stroke="none" /><path d="M 79.32604984820605 96.31383870115002 l -14.161124663070526 -2.524925778476399 a35.384460431654674,35.384460431654674 0 0,0 0.11207484621198362,-0.598708309929765 l 14.11556409294868 2.768312165868737" fill="#ffb510" stroke="none" /><path d="M 79.46518482838121 95.60439243477599 l -15.43245176980336 -3.30341428361416 a36.78205035971223,36.78205035971223 0 0,0 0.137854943851575,-0.6179766826485357 l 15.373302438949747 3.5685691358126546" fill="#ffc712" stroke="none" /><path d="M 79.54389044137918 95.25157060432595 l -13.706224116800888 -3.18159410094115 a35.07064748201439,35.07064748201439 0 0,0 0.14156383714716508,-0.5868734981165259 l 13.649427479392909 3.417052830717073" fill="#ffb110" stroke="none" /><path d="M 79.71946130924805 94.55025226153421 l -11.507381917551125 -3.092241756351055 a32.915611510791365,32.915611510791365 0 0,0 0.151746030911561,-0.545911210964856 l 11.452449116073204 3.2898642707348533" fill="#ff950d" stroke="none" /><path d="M 79.81627453868168 94.20196356495316 l -13.529111763485925 -3.886412500449694 a35.076258992805755,35.076258992805755 0 0,0 0.17169678932585186,-0.5788762185606623 l 13.460209077048367 4.118718105756896" fill="#ffb110" stroke="none" /><path d="M 79.91906864156998 93.8553929516997 l -5.461063974053617 -1.671042621840436 a26.711007194244605,26.711007194244605 0 0,0 0.13831788359057887,-0.43850548975231773 l 5.431490606694834 1.7647982780191682" fill="#ff4006" stroke="none" /><path d="M 80.14247586403 93.16781622104843 l -13.980472516817605 -4.81012420770318 a35.78482014388489,35.78482014388489 0 0,0 0.20541665819620913,-0.5807405544253711 l 13.895602777811586 5.050062388555162" fill="#ffba11" stroke="none" /><path d="M 80.2630227832202 92.82701384747504 l -10.179858187297993 -3.699653751947226 a31.83129496402878,31.83129496402878 0 0,0 0.1915871250240232,-0.5133582439386185 l 10.114666473772344 3.874335132915186" fill="#ff860c" stroke="none" /><path d="M 80.52162464483688 92.15188598940014 l -10.570271699030275 -4.258912558383229 a32.3960071942446,32.3960071942446 0 0,0 0.21285459163259085,-0.515444277113076 l 10.495395420511485 4.440231405949616" fill="#ff8e0d" stroke="none" /><path d="M 80.65960295795068 91.81776055985345 l -10.481382080414217 -4.43430285630388 a32.38079136690648,32.38079136690648 0 0,0 0.2215914543843039,-0.5114636283507495 l 10.403499916187233 4.614065629241228" fill="#ff8e0d" stroke="none" /><path d="M 80.803312248108 91.48605970444005 l -10.88104958425973 -4.82586411316109 a32.90320143884892,32.90320143884892 0 0,0 0.23407914568819727,-0.5157623691573794 l 10.79636812160818 5.012448491160541" fill="#ff950d" stroke="none" /><path d="M 81.10775173730289 90.83032412892265 l -9.90707168916606 -4.808566717840188 a32.01237410071943,32.01237410071943 0 0,0 0.24487939813667015,-0.49366192390010316 l 9.822832278075976 4.978388230239252" fill="#ff890c" stroke="none" /><path d="M 81.26839172434947 90.50648371742162 l -6.22176240551502 -3.1533011919682354 a27.97521582733813,27.97521582733813 0 0,0 0.22139128456254636,-0.42765749434428263 l 6.166561687792359 3.2599314085728537" fill="#ff5207" stroke="none" /><path d="M 81.6062741919709 89.86733742301443 l -9.49564279753552 -5.230921968892844 a31.84111510791367,31.84111510791367 0 0,0 0.26859096352833567,-0.4777933539318218 l 9.404194192714755 5.393598832759451" fill="#ff860c" stroke="none" /><line stroke="#e1ed5e" stroke-width="0.3" x1="26.266209847984243" x2="21.928928074336255" y1="57.711370442889674" y2="55.22380399835377" /><path d="M 25.398753493254645 57.213857153982495 a86.0,86.0 0 0,1 29.58750427330803,-30.492523968695096" fill="none" id="id47" stroke="none" /><text fill="#e1ed5e" style="font-size:6.75px; font-family:Arial;" text-anchor="middle"><textPath startOffset="21.46611528233685" xlink:href="#id47">November</textPath></text><path d="M 81.78341655067845 89.55222093294921 l -9.392118451373735 -5.386673018269987 a31.827194244604318,31.827194244604318 0 0,0 0.2766545903860129,-0.47289237387277483 l 9.298004186517398 5.547544804496654" fill="#ff860c" stroke="none" /><path d="M 81.96595687620814 89.24020034530311 l -10.224542537759284 -6.100353010805285 a32.90611510791367,32.90611510791367 0 0,0 0.2944066270739151,-0.48392708589910993 l 10.118020112399153 6.27544786991147" fill="#ff950d" stroke="none" /><path d="M 82.34701348167596 88.62581576622439 l -9.100359478580419 -5.863549784933888 a31.825791366906472,31.825791366906472 0 0,0 0.3006830518852904,-0.4579609166997452 l 8.998079791337208 6.0193287656112995" fill="#ff860c" stroke="none" /><path d="M 82.54541684631803 88.32363383020206 l -10.937278598030964 -7.316569446962955 a34.158884892086334,34.158884892086334 0 0,0 0.33113872590792703,-0.48590521989725527 l 10.809715406454297 7.503752690130626" fill="#ffa50f" stroke="none" /><path d="M 82.95767976084542 87.72973835380427 l -8.789055585207167 -6.328012274154973 a31.830107913669064,31.830107913669064 0 0,0 0.32396590994651187,-0.44188913708683364 l 8.678827062747022 6.478363854913307" fill="#ff860c" stroke="none" /><path d="M 83.17141714833178 87.43820079747576 l -8.685572332338134 -6.483398902897876 a31.838525179856116,31.838525179856116 0 0,0 0.33161197545786025,-0.43636248858370796 l 8.572684416656164 6.63194616736261" fill="#ff860c" stroke="none" /><path d="M 83.39014120810768 87.1503855733568 l -8.563722262631762 -6.625012922168379 a31.827194244604318,31.827194244604318 0 0,0 0.33895343423565744,-0.4304364402191148 l 8.448414747802135 6.771441756340541" fill="#ff860c" stroke="none" /><path d="M 83.84228863543731 86.58626213691792 l -8.345632283588332 -6.92834035884876 a31.846726618705034,31.846726618705034 0 0,0 0.35378587215814133,-0.4187708828268382 l 8.225135797943066 7.070970191304714" fill="#ff870c" stroke="none" /><path d="M 84.07557802195018 86.31012108654704 l -8.224644808570671 -7.070548098429686 a31.846079136690648,31.846079136690648 0 0,0 0.3609345689369647,-0.4126106061439777 l 8.101718376055864 7.2110742607766065" fill="#ff870c" stroke="none" /><path d="M 84.80347519578584 85.50635884689758 l -7.844561678738588 -7.4817277923625385 a31.840359712230217,31.840359712230217 0 0,0 0.3816836379102781,-0.3933585398055181 l 7.714613777125192 7.61565052771818" fill="#ff860c" stroke="none" /><path d="M 85.57189188830299 84.74124197986013 l -7.44760256844792 -7.876373294568599 a31.839928057553955,31.839928057553955 0 0,0 0.4014743776275832,-0.37312667974653263 l 7.31092030702548 8.003404560389779" fill="#ff860c" stroke="none" /><path d="M 86.93701828274178 83.55741782278169 l -6.744754439902135 -8.489729339261896 a31.84284172661871,31.84284172661871 0 0,0 0.43210348777606455,-0.33726362612116856 l 6.597618396966645 8.604571354606286" fill="#ff860c" stroke="none" /><path d="M 87.22198572758235 83.33499621200491 l -2.671563662320579 -3.4842360951611937 a25.390575539568346,25.390575539568346 0 0,0 0.3491250640637382,-0.26295376013116933 l 2.6111924444984513 3.5297064447982174" fill="#ff2d04" stroke="none" /><path d="M 87.80319425747018 82.90503203632743 l -6.289628227485154 -8.81550426578883 a31.82924460431655,31.82924460431655 0 0,0 0.4487451513291872,-0.31437465591948804 l 6.136951936572307 8.922463764472262" fill="#ff860c" stroke="none" /><path d="M 88.39885842347998 82.49532879139004 l -6.581471885437997 -9.930617660633766 a32.913561151079136,32.913561151079136 0 0,0 0.47494734893534535,-0.30891896726755386 l 6.409557510718365 10.042435552060855" fill="#ff950d" stroke="none" /><path d="M 88.70189139769569 82.29822771554957 l -5.826828240207942 -9.129420709208704 a31.83043165467626,31.83043165467626 0 0,0 0.464392125272244,-0.29080230624206505 l 5.668816962563456 9.228367356773699" fill="#ff860c" stroke="none" /><path d="M 89.00827224532344 82.1063720568725 l -6.806116234610798 -11.079796948936457 a34.00327338129497,34.00327338129497 0 0,0 0.5013668243628849,-0.3020679018469551 l 6.614387344030264 11.19531146024203" fill="#ffa30f" stroke="none" /><line stroke="#e1ed5e" stroke-width="0.3" x1="56.762969772571076" x2="54.21961505331055" y1="26.818313649435495" y2="22.513508569990535" /><path d="M 56.25429882871897 25.957352633546506 a86.0,86.0 0 0,1 42.265352541879196,-11.944610805530505" fill="none" id="id48" stroke="none" /><text fill="#e1ed5e" style="font-size:6.75px; font-family:Arial;" text-anchor="middle"><textPath startOffset="22.20632615414155" xlink:href="#id48">December</textPath></text><path d="M 89.63071344664047 81.73862282372117 l -2.960948176757874 -5.214533437468973 a26.99654676258993,26.99654676258993 0 0,0 0.40607422859724823,-0.22597986856713126 l 2.87074985908858 5.264728703596289" fill="#ff4406" stroke="none" /><path d="M 90.58718382345135 81.22770947309562 l -4.853985180538709 -9.680463138054384 a31.82924460431655,31.82924460431655 0 0,0 0.4918811630216231,-0.2413639504782727 l 4.68663275050666 9.762582248667485" fill="#ff860c" stroke="none" /><path d="M 90.91171255644093 81.06846463323043 l -4.209988034941583 -8.76969812763331 a30.727877697841727,30.727877697841727 0 0,0 0.47880148110736376,-0.22480371540683988 l 4.0584083425346105 8.840866825680157" fill="#ff770b" stroke="none" /><path d="M 91.23893434514133 80.91482961587045 l -4.5155054627493065 -9.836610581641446 a31.823525179856112,31.823525179856112 0 0,0 0.49980798370187646,-0.2242492732340013 l 4.345515360580656 9.912880185391977" fill="#ff860c" stroke="none" /><path d="M 91.90106846888425 80.62456947434976 l -2.016117883668245 -4.823247589692056 a26.227661870503596,26.227661870503596 0 0,0 0.4180391186209211,-0.17052865282263566 l 1.9327948954589436 4.857237128698269" fill="#ff3905" stroke="none" /><path d="M 92.23578459929587 80.48803036053334 l -2.086004490210762 -5.242262634430808 a26.64205035971223,26.64205035971223 0 0,0 0.4275628328642595,-0.16588773656417768 l 1.9954584923468264 5.277393074885537" fill="#ff3f05" stroke="none" /><path d="M 92.57280143429618 80.3572730644239 l -3.828136913353846 -10.124281368783247 a31.823848920863313,31.823848920863313 0 0,0 0.5140577150428751,-0.18933179476180745 l 3.653296872538401 10.188676431351377" fill="#ff860c" stroke="none" /><path d="M 92.91201910852362 80.23233633223022 l -3.6538432225557282 -10.190200146433677 a31.82546762589928,31.82546762589928 0 0,0 0.5172668966581302,-0.180464263442264 l 3.4778943218343126 10.25158526304815" fill="#ff860c" stroke="none" /><path d="M 93.25333710446033 80.11325718540243 l -3.4723472197619274 -10.235234395369142 a31.808201438848922,31.808201438848922 0 0,0 0.5200143784538356,-0.17144056470835178 l 3.2956500190656826 10.293488684336728" fill="#ff860c" stroke="none" /><path d="M 93.59665428221793 80.00007090966166 l -3.295781639738196 -10.293899782570856 a31.80863309352518,31.80863309352518 0 0,0 0.5228954960934512,-0.16246617596108356 l 3.1181007709340163 10.349106093414465" fill="#ff860c" stroke="none" /><path d="M 94.63758080256005 79.69619591428918 l -2.7634645900065027 -10.463345286410636 a31.822122302158274,31.822122302158274 0 0,0 0.5308098374107089,-0.13531524653003485 l 2.5829458639107945 10.509363529109535" fill="#ff860c" stroke="none" /><path d="M 95.692805502759 79.44645832069477 l -2.221990008109067 -10.603134887900572 a31.833453237410072,31.833453237410072 0 0,0 0.537278339523584,-0.10777298045623653 l 2.0391452591183468 10.639811824434018" fill="#ff860c" stroke="none" /><path d="M 96.04723909329186 79.375362276772 l -2.037824963851461 -10.632922813889262 a31.826438848920866,31.826438848920866 0 0,0 0.5389350920284132,-0.09848694328177866 l 1.8544947507201546 10.666425238521777" fill="#ff860c" stroke="none" /><path d="M 96.40284397218896 79.31037775812273 l -1.8550862666137307 -10.66982743745158 a31.829892086330936,31.829892086330936 0 0,0 0.5406091847116788,-0.08920514759566515 l 1.6711478757631661 10.700178847986873" fill="#ff860c" stroke="none" /><path d="M 96.75951476605007 79.25152402106235 l -1.5954310907746243 -10.21537247452218 a31.339208633093527,31.339208633093527 0 0,0 0.5337082445720253,-0.07865472176162902 l 1.4193538657739502 10.241321680444779" fill="#ff800b" stroke="none" /><path d="M 97.47563105711357 79.15227682838746 l -1.300685638054143 -10.741826860078346 a31.820287769784173,31.820287769784173 0 0,0 0.544328898609951,-0.061161694100881625 l 1.1155900359344737 10.762624507649827" fill="#ff860c" stroke="none" /><path d="M 98.19473922651362 79.07773832637324 l -0.9295794234696957 -10.773459563236226 a31.813489208633094,31.813489208633094 0 0,0 0.5459949343527085,-0.0423797152134142 l 0.7439942997546529 10.787864540638102" fill="#ff860c" stroke="none" /><path d="M 98.55514903715128 79.0497635885617 l -0.7442987133696418 -10.792278516449354 a31.81791366906475,31.81791366906475 0 0,0 0.5467195608830038,-0.03297961693881899 l 0.5584171036470151 10.80349140276848" fill="#ff860c" stroke="none" /><path d="M 98.91598698831166 79.02799685794201 l -0.5585006606623044 -10.805107949773262 a31.81953237410072,31.81953237410072 0 0,0 0.5472340869519605,-0.02356505092163461 l 0.37242574132101985 10.813120727219088" fill="#ff860c" stroke="none" /><path d="M 99.27714615592234 79.0124445844662 l -0.3720765724549187 -10.802982853585688 a31.809388489208636,31.809388489208636 0 0,0 0.5473840833685052,-0.014137315933057943 l 0.18606585389153452 10.807786961661106" fill="#ff860c" stroke="none" /></svg>